<?xml version="1.0" encoding="UTF-8"?>
<svg viewBox="0 0 1024 1024" xmlns="http://www.w3.org/2000/svg" fill="#000000">
<g transform="translate(0.000000,1024.000000) scale(0.100000,-0.100000)">
<path d="M4190 8718 c-39 -21 -70 -75 -70 -122 0 -115 130 -179 215 -105 50
44 64 96 40 150 -10 22 -32 50 -48 61 -36 25 -104 33 -137 16z M5927 8712
c-29 -18 -67 -85 -67 -118 0 -10 9 -38 19 -61 22 -48 62 -73 116 -73 105 0
170 116 115 205 -37 60 -126 83 -183 47z M5010 8640 c-140 -19 -281 -85 -386
-182 -50 -46 -132 -154 -162 -213 -87 -173 -94 -437 -17 -612 57 -128 175
-267 287 -338 l46 -29 -25 -45 c-35 -67 -18 -139 41 -171 l25 -13 -20 -36
c-35 -65 -19 -129 43 -173 32 -23 37 -23 283 -23 227 0 253 2 281 19 63 38 85
127 44 179 -24 30 -25 37 -6 37 8 0 28 16 46 37 28 32 32 42 27 80 -2 24 -15
57 -30 76 l-25 33 46 24 c65 34 210 182 255 260 21 36 50 101 64 145 25 72 27
94 27 225 0 131 -2 153 -27 225 -37 113 -90 197 -177 286 -171 174 -384 243
-640 209z m272 -259 c86 -30 142 -67 204 -134 61 -68 106 -154 123 -235 49
-235 -97 -479 -326 -547 -23 -6 -23 -5 -23 88 l0 95 66 64 c73 70 94 102 94
147 0 38 -50 97 -89 106 -42 9 -73 -8 -141 -75 l-61 -61 -71 66 c-39 36 -81
68 -94 71 -34 9 -91 -14 -113 -44 -47 -67 -34 -107 68 -207 l71 -69 0 -88 c0
-58 -4 -88 -11 -88 -29 0 -144 66 -194 111 -40 37 -66 74 -96 134 -38 76 -42
93 -47 177 -8 163 33 264 156 381 66 62 155 109 238 126 67 14 178 6 246 -18z
M4783 8248 c-15 -20 -25 -38 -20 -38 3 0 12 11 21 25 17 26 16 35 -1 13z
M3726 8069 c-45 -39 -55 -84 -30 -136 31 -63 64 -73 245 -73 145 0 158 2 190
23 19 12 42 39 52 59 17 34 17 38 1 77 -30 75 -47 81 -248 81 l-175 0 -35 -31z
M6094 8066 c-29 -29 -34 -41 -34 -80 0 -39 6 -52 34 -84 l34 -37 175 0 c198 0
214 5 250 78 16 31 17 42 7 72 -6 19 -25 46 -41 60 -30 25 -32 25 -211 25
l-180 0 -34 -34z M3290 7083 c-38 -7 -90 -51 -107 -90 -15 -38 -24 -125 -48
-508 -9 -137 -24 -364 -35 -504 -11 -139 -20 -284 -20 -322 0 -66 -2 -72 -54
-153 -149 -230 -265 -540 -297 -792 -10 -79 -14 -94 -28 -90 -9 3 -52 10 -96
16 -44 7 -167 29 -274 51 -107 21 -207 39 -222 39 -39 0 -97 -53 -105 -96 -9
-48 2 -82 39 -119 29 -28 47 -34 187 -63 134 -27 449 -82 472 -82 4 0 8 -47 8
-105 0 -58 -2 -105 -4 -105 -26 0 -242 -50 -351 -81 -311 -89 -350 -113 -347
-206 3 -68 55 -123 117 -123 14 0 105 25 203 55 97 30 234 67 304 83 l128 29
11 -41 c55 -214 95 -324 171 -466 177 -333 396 -585 721 -827 l127 -95 0 -392
c0 -386 0 -392 23 -436 12 -25 37 -55 56 -67 l34 -23 1215 0 c1191 0 1217 0
1257 20 22 11 49 34 60 52 22 36 20 5 25 623 l1 230 151 110 c308 225 551 510
708 830 61 123 127 304 151 409 7 32 19 60 27 63 27 11 280 -52 512 -126 52
-17 106 -31 118 -31 39 0 81 32 103 77 18 36 19 48 9 77 -20 61 -53 82 -199
130 -137 45 -323 94 -438 117 l-63 12 0 91 c0 50 4 97 8 103 5 8 86 26 189 43
223 36 403 74 440 92 15 7 38 29 51 48 40 60 15 146 -53 179 -26 13 -52 9
-264 -32 -250 -49 -372 -70 -375 -65 -1 2 -12 66 -25 143 -39 243 -147 521
-285 739 -52 83 -56 94 -56 149 0 61 -6 145 -41 612 -11 149 -26 366 -34 482
-12 198 -15 216 -39 257 -48 83 -144 106 -221 52 -16 -11 -118 -97 -225 -191
-107 -93 -226 -197 -265 -230 -38 -33 -138 -119 -221 -192 l-152 -133 -98 44
c-137 60 -265 102 -397 128 -97 20 -142 23 -337 23 -196 0 -240 -3 -345 -24
-144 -28 -329 -88 -426 -136 l-70 -36 -147 123 c-81 68 -279 235 -440 371
-161 136 -307 257 -325 267 -32 20 -48 22 -97 13z m351 -549 c105 -90 192
-163 493 -413 63 -53 109 -84 130 -88 25 -4 57 8 151 56 214 107 415 160 650
168 290 11 557 -47 791 -172 148 -79 144 -79 300 58 70 61 162 141 203 177
426 364 469 400 483 400 3 0 4 -8 4 -17 -2 -31 14 -290 30 -488 8 -104 23
-317 33 -473 18 -277 19 -284 43 -310 127 -136 253 -421 310 -702 20 -101 23
-144 23 -350 0 -208 -3 -248 -24 -350 -109 -528 -413 -967 -886 -1282 -196
-131 -445 -243 -666 -302 -226 -60 -315 -71 -584 -71 -261 0 -314 5 -497 51
-668 165 -1216 587 -1479 1139 -148 312 -202 599 -180 950 23 348 123 649 290
868 69 91 62 54 86 462 19 308 52 770 61 837 l6 48 56 -49 c32 -26 109 -93
173 -147z m531 -4228 c313 -131 610 -191 953 -190 342 0 648 62 962 194 65 28
119 50 120 50 2 0 3 -121 3 -270 l0 -270 -1085 0 -1085 0 0 271 c0 213 3 270
13 266 6 -3 60 -26 119 -51z M3856 4965 c-65 -18 -150 -78 -199 -140 -139
-174 -123 -411 39 -569 167 -165 411 -165 580 -1 128 126 163 313 90 478 -34
77 -124 170 -202 208 -57 28 -77 32 -162 35 -63 2 -114 -2 -146 -11z m313
-150 c28 -14 61 -68 61 -99 0 -47 -51 -96 -100 -96 -37 0 -81 30 -96 65 -21
50 -18 70 17 110 35 39 70 45 118 20z M6135 4966 c-106 -34 -215 -129 -261
-229 -26 -56 -29 -72 -29 -172 0 -102 2 -115 31 -175 79 -167 247 -271 413
-257 238 20 405 216 389 455 -13 176 -132 328 -297 376 -65 19 -190 20 -246 2z
m315 -151 c67 -35 82 -115 31 -166 -56 -56 -150 -28 -171 51 -13 46 -2 79 36
109 31 25 64 27 104 6z M5043 4371 c-64 -40 -77 -109 -33 -171 16 -22 20 -44
20 -103 0 -72 -1 -76 -31 -101 -17 -15 -43 -26 -59 -26 -16 0 -42 11 -59 26
-29 24 -31 31 -31 89 0 78 -5 92 -41 110 -56 30 -108 15 -135 -37 -20 -39 -12
-172 15 -233 36 -80 150 -155 236 -155 45 0 122 31 162 64 l40 35 24 -25 c59
-63 153 -86 244 -59 78 22 166 107 183 177 15 60 15 160 0 193 -26 58 -103 71
-149 26 -26 -27 -29 -36 -29 -96 0 -59 -3 -69 -26 -90 -15 -14 -38 -25 -51
-25 -31 0 -79 25 -87 45 -10 27 -7 173 4 180 5 3 14 24 20 45 12 45 0 78 -44
119 -37 35 -127 41 -173 12z M2308 6370 c-18 -14 -29 -36 -37 -79 -14 -70 -42
-100 -119 -125 -65 -22 -92 -48 -92 -90 0 -45 25 -71 88 -91 76 -24 108 -55
117 -112 8 -53 50 -103 87 -103 48 0 98 59 98 115 0 35 39 69 112 97 134 51
128 136 -13 188 -68 24 -83 43 -104 126 -9 33 -25 67 -36 77 -28 23 -70 22
-101 -3z M7843 6375 c-13 -9 -28 -35 -34 -58 -28 -102 -41 -117 -133 -152 -64
-23 -86 -47 -86 -90 0 -40 26 -71 67 -81 16 -4 49 -18 76 -32 40 -21 49 -32
57 -66 24 -97 64 -137 124 -122 33 8 66 60 66 104 0 44 43 85 113 107 58 19
97 54 97 89 0 33 -43 72 -99 91 -63 21 -96 57 -111 124 -21 89 -80 126 -137
86z M3107 1790 c-55 -44 -59 -134 -8 -189 29 -31 29 -31 138 -31 68 1 116 5
131 14 56 30 77 107 47 166 -27 52 -49 60 -171 60 -96 0 -115 -3 -137 -20z
M6850 1773 c-29 -33 -32 -41 -27 -86 4 -42 10 -56 41 -84 l36 -33 106 0 106 0
34 34 c30 30 34 40 34 86 0 46 -4 56 -34 86 l-34 34 -115 0 -115 0 -32 -37z"/>
</g>
</svg>
