<?xml version="1.0" encoding="UTF-8"?>
<svg viewBox="0 0 1024 1024" xmlns="http://www.w3.org/2000/svg" fill="#000000">
<g transform="translate(0.000000,1024.000000) scale(0.100000,-0.100000)">
<path d="M2333 8260 c-84 -20 -158 -90 -189 -181 -56 -160 -77 -812 -39 -1154
24 -211 83 -540 125 -695 46 -172 45 -151 10 -226 -165 -353 -277 -771 -295
-1104 -3 -58 -8 -136 -11 -175 l-5 -70 -157 0 c-176 0 -197 -4 -243 -42 -101
-86 -89 -257 24 -327 45 -27 51 -28 221 -35 97 -4 179 -10 183 -14 6 -7 32
-111 59 -238 6 -26 4 -27 -47 -34 -108 -13 -383 -67 -413 -79 -38 -16 -81 -61
-95 -99 -18 -46 -13 -124 9 -168 26 -50 90 -96 143 -104 28 -4 131 9 302 38
l260 44 49 -96 c267 -530 675 -976 1151 -1259 248 -147 434 -233 704 -326 232
-80 458 -132 711 -163 189 -24 594 -24 785 1 511 64 924 205 1351 459 462 276
896 741 1159 1242 38 72 69 131 69 131 2 4 226 -27 369 -51 87 -14 170 -22
185 -19 196 47 234 283 58 369 -49 24 -167 47 -379 75 -76 11 -87 14 -82 30 3
9 16 67 28 128 13 62 26 114 29 117 3 3 83 10 178 16 195 11 221 19 275 82 81
95 50 236 -65 295 -40 20 -58 22 -202 22 l-158 0 0 73 c-1 364 -92 775 -264
1192 l-63 151 33 131 c41 167 108 569 130 778 25 240 23 627 -5 863 -12 101
-29 204 -37 229 -50 146 -149 210 -298 192 -273 -34 -876 -282 -1364 -563
l-204 -116 -125 40 c-152 50 -341 95 -516 125 -223 37 -616 47 -832 20 -264
-33 -522 -89 -707 -155 -48 -16 -93 -30 -102 -30 -9 0 -87 41 -173 91 -169 97
-409 221 -576 295 -282 126 -656 258 -816 288 -91 17 -91 17 -138 6z m5471
-845 c1 -305 -6 -399 -49 -653 -32 -184 -42 -213 -62 -178 -22 40 -222 252
-328 349 -119 108 -317 263 -447 348 -37 24 -68 47 -68 51 0 12 173 115 333
197 166 87 371 176 491 215 42 14 84 30 94 35 29 16 34 -42 36 -364z m-5009
270 c215 -85 536 -246 647 -326 l37 -26 -127 -86 c-258 -174 -498 -390 -710
-640 -18 -21 -32 -36 -32 -34 0 3 -13 69 -29 148 -49 237 -56 326 -56 679 0
179 4 337 8 352 l7 27 68 -23 c37 -13 121 -45 187 -71z m2675 -356 c603 -65
1175 -322 1635 -737 471 -423 783 -1061 845 -1727 5 -60 10 -138 10 -172 0
-75 22 -68 -235 -83 -257 -15 -287 -21 -340 -74 -51 -52 -69 -109 -54 -176 19
-82 91 -149 165 -152 52 -3 363 12 392 18 19 4 23 1 19 -13 -3 -10 -16 -57
-28 -105 -13 -49 -29 -88 -36 -88 -6 0 -85 9 -174 21 -132 17 -170 18 -209 9
-127 -30 -186 -181 -115 -295 41 -66 81 -84 212 -97 59 -5 112 -14 116 -18 12
-11 -29 -86 -115 -216 -377 -564 -927 -958 -1600 -1148 -256 -72 -478 -101
-778 -101 -241 1 -319 8 -561 51 -346 61 -777 234 -1084 435 -176 115 -307
223 -446 366 -141 145 -211 232 -327 406 -87 130 -120 192 -109 203 3 3 57 13
119 23 139 20 176 40 212 113 31 61 33 108 7 163 -23 50 -64 89 -116 110 -43
19 -111 16 -282 -11 -51 -8 -99 -14 -106 -14 -13 0 -47 97 -63 179 l-7 34 59
-6 c32 -4 129 -10 214 -13 137 -6 159 -5 190 11 49 25 69 44 93 90 55 107 -8
242 -128 274 -22 5 -138 16 -257 22 l-218 13 0 86 c0 267 74 632 179 887 311
754 868 1289 1637 1571 259 95 512 147 864 176 66 5 311 -3 420 -15z M3465
5476 c-136 -31 -257 -100 -357 -203 -104 -107 -165 -228 -175 -344 -7 -79 10
-121 67 -173 45 -41 96 -53 151 -37 59 18 94 54 138 144 79 162 171 221 341
221 171 0 271 -61 342 -210 60 -127 130 -177 221 -160 43 8 115 70 133 113 42
99 -26 286 -154 424 -94 101 -191 164 -322 209 -83 28 -293 37 -385 16z M6550
5484 c-123 -24 -261 -97 -353 -188 -128 -127 -193 -247 -204 -376 -5 -54 -2
-73 15 -105 79 -155 252 -136 330 35 38 82 79 136 136 174 112 76 255 86 382
27 83 -39 130 -86 173 -176 44 -94 66 -122 111 -145 59 -30 109 -26 166 13 95
64 112 160 54 299 -43 104 -81 160 -165 243 -83 83 -170 136 -280 172 -67 22
-101 26 -210 29 -71 1 -141 0 -155 -2z M5009 4917 c-53 -28 -99 -97 -106 -160
-6 -49 17 -103 67 -161 30 -33 30 -36 17 -68 -35 -84 -156 -131 -218 -85 -8 7
-30 33 -48 60 -36 52 -62 73 -112 87 -48 14 -106 -5 -150 -49 -81 -81 -71
-188 25 -279 30 -29 60 -52 65 -52 7 0 11 -36 11 -99 0 -188 46 -322 159 -464
66 -83 114 -122 203 -168 277 -141 615 -16 762 282 55 110 86 242 86 365 l0
80 44 32 c95 66 129 168 86 256 -36 75 -107 111 -185 94 -47 -11 -64 -25 -116
-95 -65 -87 -146 -93 -222 -17 -52 52 -53 79 -6 132 21 24 41 60 45 79 18 95
-24 187 -105 230 -38 20 -58 23 -151 23 -93 0 -113 -3 -151 -23z m284 -773
c27 -14 71 -28 98 -31 47 -6 49 -7 49 -38 0 -96 -76 -223 -162 -270 -68 -38
-160 -41 -224 -8 -85 45 -151 149 -168 264 l-7 46 57 6 c66 7 150 53 197 108
l30 35 41 -44 c22 -24 62 -55 89 -68z"/>
</g>
</svg>
