<?xml version="1.0" encoding="UTF-8"?>
<svg viewBox="0 0 1024 1024" xmlns="http://www.w3.org/2000/svg" fill="#000000">
<g transform="translate(0.000000,1024.000000) scale(0.100000,-0.100000)">
<path d="M6242 9723 c-34 -16 -65 -53 -75 -88 -4 -11 -11 -66 -17 -123 -11
-113 -29 -160 -82 -212 -46 -47 -103 -69 -203 -79 -95 -10 -124 -24 -162 -81
-32 -46 -32 -124 0 -171 36 -54 82 -79 143 -79 126 0 212 -42 266 -130 21 -34
31 -70 42 -149 10 -69 21 -113 34 -130 70 -95 194 -95 265 0 13 18 22 55 29
115 20 186 100 274 263 290 80 8 108 20 149 63 24 25 30 41 33 88 7 108 -58
175 -182 186 -165 16 -246 110 -261 304 -8 105 -29 154 -83 190 -41 28 -110
30 -159 6z M8925 9445 c-80 -28 -106 -73 -149 -258 -32 -137 -113 -255 -215
-310 -25 -14 -80 -34 -121 -45 -41 -11 -79 -21 -85 -23 -5 -1 -28 5 -50 15
-159 70 -293 57 -643 -59 -214 -72 -382 -141 -591 -246 -171 -85 -479 -261
-564 -321 l-29 -21 -96 31 c-189 59 -268 82 -372 106 -546 126 -1067 138
-1605 35 -176 -33 -195 -38 -435 -111 -91 -28 -174 -52 -185 -55 -13 -2 -96
42 -230 123 -404 243 -856 443 -1200 530 -83 21 -135 28 -210 28 -92 1 -105
-1 -167 -31 -88 -42 -155 -109 -202 -203 -67 -138 -66 -108 -66 -1185 0 -634
4 -983 10 -1007 10 -33 7 -45 -28 -120 -72 -152 -103 -229 -145 -354 -22 -68
-44 -124 -49 -124 -4 0 -117 36 -250 80 -134 44 -255 80 -269 80 -131 0 -216
-136 -159 -254 28 -59 78 -86 263 -145 89 -29 200 -65 247 -80 l85 -28 -3 -39
c-2 -21 -6 -68 -10 -104 l-7 -65 -55 0 c-30 0 -128 7 -216 14 -127 11 -169 11
-198 1 -103 -34 -152 -139 -111 -237 35 -84 108 -123 231 -123 44 0 136 -3
202 -7 l122 -6 0 -143 0 -143 -37 -10 c-21 -5 -103 -23 -183 -41 -213 -47
-250 -60 -291 -101 -59 -59 -69 -154 -22 -225 23 -36 98 -77 141 -77 20 0 123
24 227 53 105 29 197 53 205 54 8 0 16 -8 18 -19 2 -18 -26 -34 -205 -115
-279 -126 -423 -197 -451 -223 -51 -48 -67 -123 -38 -190 28 -69 124 -125 193
-114 19 4 161 67 314 142 154 74 283 135 287 135 4 0 36 -71 71 -157 35 -87
92 -215 127 -285 62 -123 63 -128 41 -132 -12 -3 -67 -14 -122 -25 -263 -54
-450 -148 -624 -315 -177 -171 -279 -357 -348 -636 -15 -58 -17 -196 -20
-1212 l-4 -1148 261 0 260 0 0 540 c0 507 1 540 18 541 9 0 85 1 167 2 174 2
209 14 260 86 62 88 28 218 -68 262 -36 16 -67 19 -210 19 l-168 0 4 402 c4
438 4 443 65 572 82 176 236 310 427 373 76 25 93 26 338 31 l258 4 92 -89
c147 -142 241 -201 409 -258 150 -50 282 -68 448 -62 98 4 153 11 200 26 35
11 66 18 69 15 10 -9 -20 -146 -40 -186 -31 -61 -92 -121 -156 -154 -58 -29
-59 -29 -243 -30 -211 0 -241 -8 -290 -75 -72 -100 -33 -232 86 -289 42 -21
55 -22 247 -18 187 4 207 6 275 30 107 38 176 83 261 169 169 169 255 418 223
643 l-12 84 95 96 95 96 1103 0 1102 0 43 -54 c23 -30 64 -72 92 -93 49 -38
49 -38 42 -83 -4 -25 -7 -101 -7 -170 0 -103 5 -137 23 -195 81 -246 265 -430
506 -504 59 -18 93 -21 253 -21 201 0 225 5 279 58 34 35 64 98 64 140 0 40
-24 99 -53 130 -48 52 -69 56 -267 57 -182 0 -186 0 -242 28 -109 54 -188 175
-188 291 l0 52 73 -18 c96 -25 270 -34 379 -19 274 37 472 130 650 307 l89 89
222 3 c283 5 362 -7 496 -74 78 -38 111 -62 182 -133 70 -70 94 -102 127 -171
71 -145 72 -155 72 -602 l0 -398 -157 0 c-181 0 -217 -7 -260 -52 -85 -89 -67
-228 39 -288 41 -24 50 -25 211 -25 l167 0 0 -542 0 -543 260 0 260 0 0 1134
c0 1247 2 1204 -62 1384 -107 306 -308 538 -584 679 -124 63 -194 87 -331 113
-59 12 -118 23 -130 26 -21 4 -19 9 41 132 35 70 90 195 121 277 32 83 59 153
61 157 5 9 133 -47 389 -171 226 -109 249 -115 320 -82 110 50 145 164 80 263
-21 32 -51 50 -197 121 -95 46 -244 114 -330 152 -120 51 -158 72 -158 86 0
31 18 31 123 1 299 -88 343 -95 405 -63 136 70 136 246 0 317 -20 10 -444 114
-466 114 -6 0 2 278 8 284 3 2 101 8 218 13 l212 9 42 30 c60 42 81 75 86 137
7 85 -36 153 -119 187 -26 11 -65 10 -240 -5 -115 -10 -212 -15 -216 -12 -6 7
-32 159 -33 193 0 18 18 26 138 64 416 129 427 135 463 215 25 53 24 80 -5
142 -27 57 -90 103 -143 103 -29 0 -222 -58 -418 -125 -56 -19 -105 -35 -110
-35 -6 0 -23 37 -39 83 -38 109 -139 354 -176 427 -28 56 -29 60 -15 94 13 30
15 167 15 961 0 509 2 925 5 925 21 0 88 -46 122 -83 56 -61 98 -147 129 -265
30 -112 42 -137 81 -174 55 -52 119 -61 191 -27 59 29 87 76 112 189 49 226
166 366 357 427 103 32 129 47 163 95 64 88 26 208 -81 262 -29 14 -59 26 -67
26 -33 0 -161 79 -215 133 -75 75 -132 190 -153 308 -20 116 -30 142 -69 180
-56 55 -111 68 -180 44z m126 -631 c42 -70 128 -151 201 -189 l56 -29 -61 -30
c-122 -58 -233 -202 -253 -325 -9 -56 -20 -59 -28 -10 -10 63 -63 157 -125
222 -62 65 -112 98 -193 127 -42 15 -49 20 -33 25 56 19 148 71 193 111 63 55
126 148 149 220 l17 55 22 -61 c12 -33 37 -85 55 -116z m-6709 -520 c136 -43
370 -140 532 -220 143 -72 311 -168 321 -185 3 -4 -16 -20 -42 -35 -257 -149
-592 -417 -804 -643 l-99 -106 0 608 c0 334 2 607 4 607 3 0 42 -12 88 -26z
m5644 -574 c1 -330 -1 -600 -5 -600 -3 0 -46 43 -94 95 -190 204 -481 438
-748 601 -60 37 -109 68 -109 69 0 10 267 160 385 215 212 101 509 218 555
219 13 1 15 -73 16 -599z m-2681 180 c459 -33 861 -146 1284 -360 534 -270
953 -632 1270 -1100 221 -325 390 -752 452 -1140 10 -57 14 -171 13 -350 -1
-220 -4 -287 -22 -398 -24 -148 -71 -346 -108 -455 -33 -97 -118 -307 -124
-307 -3 0 -25 32 -49 70 -137 215 -385 381 -631 421 -97 16 -323 13 -416 -6
-409 -82 -719 -293 -856 -582 -41 -87 -77 -228 -78 -300 l0 -43 -919 0 -918 0
-7 70 c-31 311 -222 562 -556 730 -157 78 -311 123 -488 140 -249 25 -495 -34
-675 -164 -78 -55 -199 -181 -257 -268 -25 -37 -47 -68 -50 -68 -9 0 -116 276
-150 389 -32 104 -57 222 -86 400 -21 129 -30 509 -15 637 72 618 371 1213
851 1694 262 262 519 447 860 619 568 285 1133 410 1675 371z m-2024 -4147
c180 -62 315 -166 375 -288 25 -52 29 -71 29 -145 0 -76 -4 -93 -33 -152 -73
-148 -217 -236 -423 -256 -332 -34 -597 128 -649 396 -32 163 67 350 228 431
89 45 122 51 262 47 108 -2 137 -7 211 -33z m4060 21 c131 -39 238 -125 286
-231 32 -69 42 -184 23 -265 -40 -170 -191 -308 -388 -354 -152 -35 -375 -11
-493 53 -71 38 -162 139 -190 210 -55 140 -18 288 104 407 74 72 210 146 327
176 96 24 255 26 331 4z M3723 5706 c-108 -35 -206 -125 -243 -223 -22 -58
-29 -168 -15 -233 12 -59 66 -149 114 -192 76 -67 141 -93 241 -93 75 0 93 4
151 31 85 41 138 89 176 161 44 83 58 158 43 241 -32 183 -174 313 -350 319
-43 2 -93 -3 -117 -11z M6313 5706 c-66 -21 -127 -61 -171 -111 -143 -162
-132 -396 25 -535 102 -91 219 -118 341 -81 176 53 276 186 275 366 0 105 -27
176 -94 250 -71 77 -156 117 -257 122 -47 2 -93 -3 -119 -11z M5085 5300 c-97
-15 -154 -75 -165 -175 -5 -48 -6 -49 -44 -57 -25 -5 -43 -5 -50 2 -5 5 -20
10 -33 10 -21 0 -23 5 -23 48 0 150 -202 229 -313 124 -98 -93 -93 -250 11
-344 l42 -38 0 -137 c0 -210 40 -359 130 -496 117 -177 277 -267 474 -267 109
0 170 15 264 65 137 72 243 205 301 381 39 115 51 198 51 352 0 68 4 122 9
122 17 0 74 64 92 105 42 92 7 219 -74 273 -34 23 -52 27 -107 27 -56 0 -73
-4 -106 -27 -49 -34 -72 -73 -81 -133 -5 -40 -11 -49 -39 -62 -25 -12 -41 -14
-66 -7 -31 9 -33 13 -38 59 -3 28 -11 59 -17 71 -13 23 -89 94 -101 94 -4 0
-23 4 -42 8 -19 4 -53 5 -75 2z m68 -487 c43 -49 118 -83 185 -83 49 0 52 -1
52 -25 0 -46 -31 -176 -54 -229 -32 -71 -72 -115 -131 -142 -109 -51 -214 -13
-280 101 -35 60 -65 170 -65 236 l0 59 48 0 c61 0 139 36 177 83 17 19 31 36
33 36 1 1 17 -15 35 -36z M3076 1479 c-164 -40 -204 -268 -65 -369 105 -76
258 -28 305 96 57 149 -85 311 -240 273z M7085 1485 c-5 -2 -22 -6 -37 -9 -38
-9 -95 -61 -120 -110 -48 -92 -14 -208 77 -262 89 -52 181 -41 251 30 73 72
82 171 23 259 -43 65 -139 110 -194 92z M5017 1459 c-43 -23 -81 -76 -97 -138
-26 -99 40 -212 142 -240 129 -36 258 66 258 205 0 52 -46 130 -97 163 -39 26
-56 31 -107 31 -41 -1 -73 -7 -99 -21z"/>
</g>
</svg>
