<?xml version="1.0" encoding="UTF-8"?>
<svg viewBox="0 0 1024 1024" xmlns="http://www.w3.org/2000/svg" fill="#000000">
<g transform="translate(0.000000,1024.000000) scale(0.100000,-0.100000)">
<path d="M2925 8421 c-78 -20 -141 -70 -202 -161 -198 -299 -439 -832 -629
-1395 -160 -471 -289 -976 -339 -1321 -25 -171 -55 -471 -55 -551 l0 -42 -224
-3 c-210 -3 -226 -4 -253 -24 -102 -76 -93 -228 17 -284 36 -18 60 -20 263
-20 l225 0 7 -57 c4 -32 15 -93 25 -136 l18 -79 -37 -15 c-20 -8 -85 -38 -146
-65 -60 -27 -141 -64 -180 -81 -94 -41 -132 -71 -157 -122 -28 -57 -19 -122
24 -171 75 -85 125 -85 307 0 75 35 171 80 213 99 l77 35 16 -41 c25 -65 141
-272 207 -369 241 -360 593 -638 1003 -793 55 -21 102 -40 104 -41 2 -2 -3
-41 -12 -86 -9 -46 -19 -119 -23 -163 -7 -78 -8 -81 -56 -134 -139 -152 -227
-345 -258 -563 -6 -37 -10 -133 -11 -212 0 -126 2 -149 20 -184 52 -101 168
-129 255 -61 53 42 60 69 67 274 8 205 17 251 71 360 62 123 156 218 249 250
92 33 174 11 241 -63 47 -52 63 -101 62 -192 -1 -100 -33 -177 -125 -300 -121
-161 -133 -217 -63 -298 47 -56 110 -79 166 -63 57 17 127 87 199 198 115 178
159 309 159 473 0 219 -89 396 -253 505 -85 57 -157 78 -270 79 l-99 1 7 45
c10 67 62 224 106 319 121 262 335 518 580 694 314 226 775 354 1146 319 550
-53 1057 -355 1353 -807 101 -155 210 -410 227 -531 l5 -40 -98 0 c-71 1 -114
-5 -154 -18 -242 -82 -394 -325 -376 -602 9 -154 47 -257 151 -415 131 -201
216 -259 308 -213 67 34 117 98 117 149 0 42 -23 85 -100 185 -40 52 -83 118
-95 145 -67 150 -56 295 30 381 135 135 367 40 484 -198 52 -104 68 -190 77
-398 8 -183 17 -211 80 -247 55 -32 119 -30 169 3 87 56 99 106 85 343 -17
297 -93 494 -263 677 -46 50 -57 68 -57 95 0 19 -10 92 -21 163 -18 108 -20
129 -8 137 8 5 57 25 109 45 119 45 314 146 428 220 308 201 552 483 728 843
33 66 62 121 65 121 4 0 99 -43 213 -95 225 -104 261 -112 322 -74 68 41 101
116 83 183 -20 74 -72 111 -300 210 -112 48 -208 92 -213 96 -7 7 16 155 41
258 5 22 5 22 223 22 208 0 219 1 261 23 76 40 111 136 75 205 -19 36 -65 78
-99 91 -17 7 -112 11 -232 11 l-203 0 -7 123 c-31 561 -195 1281 -453 1992
-209 576 -505 1159 -656 1292 -83 73 -201 86 -312 34 -162 -76 -444 -302 -736
-589 l-127 -126 -118 37 c-266 82 -495 128 -786 157 -145 15 -522 15 -677 1
-265 -25 -599 -93 -827 -169 l-88 -30 -163 159 c-187 182 -323 298 -489 417
-152 109 -224 150 -291 167 -61 16 -81 17 -127 6z m227 -443 c189 -149 311
-260 521 -470 207 -208 207 -208 251 -208 28 0 83 15 147 40 481 187 1049 259
1559 195 290 -36 521 -94 797 -201 86 -33 125 -43 146 -38 21 4 101 78 276
253 175 176 291 283 404 372 167 132 197 150 225 133 72 -45 356 -647 527
-1119 240 -662 390 -1281 425 -1760 34 -478 -22 -818 -191 -1159 -91 -181
-185 -313 -324 -451 -127 -127 -239 -212 -397 -301 -99 -57 -337 -164 -362
-164 -8 0 -25 24 -39 53 -34 76 -136 235 -225 351 -320 420 -844 720 -1392
797 -130 18 -438 16 -565 -4 -298 -47 -602 -164 -846 -325 -305 -201 -546
-468 -715 -791 l-47 -90 -41 16 c-345 134 -608 312 -800 543 -220 264 -355
557 -417 906 -37 210 -30 611 17 914 86 558 286 1239 547 1865 122 295 271
594 344 693 37 49 58 43 175 -50z M3705 5501 c-75 -35 -115 -88 -135 -176 -32
-144 108 -294 252 -271 110 18 208 131 208 240 0 39 -39 122 -74 159 -59 63
-172 85 -251 48z M6585 5503 c-49 -25 -104 -84 -121 -130 -26 -66 -16 -161 22
-215 92 -131 263 -139 368 -16 75 87 73 206 -4 300 -58 71 -190 101 -265 61z
M5090 5372 c-71 -8 -120 -71 -120 -155 0 -58 32 -106 88 -132 49 -23 53 -44
23 -110 -39 -86 -122 -123 -202 -88 -36 16 -49 30 -83 92 -23 41 -54 84 -69
95 -38 28 -117 28 -155 -1 -117 -86 -92 -242 64 -396 152 -149 401 -153 555
-10 l46 43 43 -41 c157 -149 421 -138 580 24 55 56 107 149 117 210 12 79 -55
178 -132 193 -27 5 -47 1 -83 -18 -39 -20 -52 -35 -77 -85 -38 -76 -58 -99
-102 -114 -67 -22 -150 21 -184 95 -30 66 -26 89 20 110 59 25 84 72 79 145
-4 61 -25 99 -68 124 -25 14 -262 28 -340 19z M2888 5174 c-56 -30 -76 -120
-39 -180 29 -47 75 -64 178 -64 123 0 159 8 193 42 54 53 52 128 -5 185 l-33
33 -133 0 c-99 -1 -141 -5 -161 -16z M7268 5175 c-14 -8 -36 -35 -48 -60 -22
-45 -22 -47 -5 -90 9 -26 30 -54 48 -67 29 -21 43 -23 158 -23 90 0 134 4 153
14 39 21 66 71 66 121 0 36 -6 48 -39 81 l-39 39 -133 0 c-97 -1 -141 -5 -161
-15z M5133 3345 c-28 -17 -49 -41 -67 -77 -26 -52 -26 -54 -26 -295 l0 -243
-267 0 c-150 0 -284 -5 -305 -10 -83 -23 -141 -137 -119 -232 16 -69 42 -102
107 -134 l55 -27 265 7 264 7 0 -218 c0 -233 6 -275 47 -323 82 -98 240 -89
313 17 25 36 25 39 28 273 l3 237 277 5 c306 5 312 6 370 72 55 63 58 179 5
244 -62 76 -65 77 -375 80 l-278 3 0 242 c0 232 -1 245 -22 287 -13 24 -40 57
-61 74 -32 26 -48 31 -105 34 -58 2 -73 -1 -109 -23z"/>
</g>
</svg>
