<?xml version="1.0" standalone="no"?>
<!DOCTYPE svg PUBLIC "-//W3C//DTD SVG 20010904//EN"
 "http://www.w3.org/TR/2001/REC-SVG-20010904/DTD/svg10.dtd">
<svg version="1.0" xmlns="http://www.w3.org/2000/svg"
 width="1024.000000pt" height="1024.000000pt" viewBox="0 0 1024.000000 1024.000000"
 preserveAspectRatio="xMidYMid meet">
<metadata>
Created by potrace 1.16, written by Peter Selinger 2001-2019
</metadata>
<g transform="translate(0.000000,1024.000000) scale(0.100000,-0.100000)"
fill="#000000" stroke="none">
<path d="M2724 8201 c-171 -49 -272 -147 -373 -363 -98 -209 -173 -509 -196
-783 -4 -44 -9 -93 -11 -110 -2 -16 -4 -140 -5 -275 l-1 -244 -68 -136 c-192
-379 -270 -639 -306 -1013 -51 -537 63 -1088 326 -1571 223 -409 516 -741 862
-979 224 -154 502 -293 777 -389 310 -108 733 -178 1077 -178 111 0 396 17
444 26 14 2 77 14 140 24 63 11 140 27 170 34 30 8 92 24 138 35 46 12 92 25
102 31 15 8 24 1 58 -43 66 -88 222 -241 311 -306 162 -117 385 -212 582 -246
114 -20 343 -23 454 -5 323 51 601 197 832 437 312 326 444 759 359 1175 -48
234 -125 399 -278 595 -47 60 -49 63 -35 90 24 47 94 262 121 373 62 256 92
519 82 741 -17 404 -114 765 -313 1163 l-64 128 -1 232 c0 127 -4 283 -9 346
-26 325 -132 736 -241 928 -84 150 -227 260 -376 291 -73 15 -196 14 -284 -3
-197 -38 -500 -182 -787 -373 -105 -70 -192 -121 -200 -118 -106 31 -328 82
-441 100 -52 8 -106 17 -120 19 -26 5 -115 14 -215 22 -69 6 -393 6 -445 0
-19 -2 -66 -7 -105 -11 -38 -4 -81 -9 -95 -11 -14 -2 -56 -9 -95 -14 -110 -16
-170 -29 -317 -71 -75 -21 -141 -39 -146 -39 -5 0 -78 46 -163 103 -488 326
-887 462 -1145 388z m2656 -836 c224 -35 409 -87 605 -171 155 -66 193 -61
312 42 33 30 64 54 68 54 4 0 58 -32 121 -70 329 -205 663 -483 886 -738 l55
-63 -5 -73 -4 -73 71 -119 c159 -262 267 -539 287 -737 2 -20 8 -54 12 -75 25
-111 23 -513 -3 -664 -21 -116 -97 -388 -110 -388 -2 0 -42 18 -89 40 -48 22
-103 44 -124 50 -43 12 -86 45 -78 59 4 5 -6 19 -21 30 -16 11 -33 25 -39 30
-18 14 -50 22 -111 25 -46 3 -68 -1 -105 -20 -25 -13 -48 -28 -50 -33 -1 -5
-57 -12 -123 -15 -112 -5 -122 -4 -138 14 -9 11 -24 20 -32 20 -8 0 -15 4 -15
9 0 11 -35 22 -82 26 -42 3 -128 -14 -128 -26 0 -4 -10 -9 -23 -13 -20 -5 -66
-77 -81 -128 -3 -10 -33 -32 -68 -49 -220 -111 -460 -337 -589 -555 -61 -103
-134 -288 -160 -406 -17 -73 -22 -130 -23 -268 0 -96 3 -202 8 -235 16 -109
16 -107 -32 -121 -176 -52 -433 -84 -692 -88 -193 -3 -463 14 -530 33 -36 10
-89 21 -200 41 -65 12 -92 20 -295 85 -281 92 -624 297 -869 521 -413 377
-664 857 -740 1419 -20 145 -15 511 8 640 51 280 143 522 296 775 69 115 74
128 72 207 -2 76 -11 64 178 253 261 262 483 439 777 621 110 68 97 68 166 1
34 -32 73 -64 86 -72 46 -24 110 -15 226 32 264 108 483 163 760 192 91 9 464
-3 565 -19z m1745 -3400 c123 -17 315 -93 410 -162 203 -149 348 -387 372
-613 33 -312 -62 -582 -273 -779 -116 -108 -309 -205 -479 -241 -63 -14 -215
-17 -275 -6 -19 3 -48 8 -65 11 -52 10 -158 46 -218 76 -99 49 -164 98 -252
191 -73 78 -93 108 -144 212 -86 178 -96 219 -96 416 0 105 5 181 13 210 34
117 111 280 158 335 105 123 232 223 357 280 60 27 173 59 249 70 24 4 45 8
47 10 5 6 134 -1 196 -10z M3560 5606 c-151 -41 -278 -174 -309 -324 -37 -178
10 -328 142 -449 74 -67 145 -94 259 -101 184 -10 324 65 421 225 44 73 59
130 59 218 -3 256 -199 446 -457 444 -38 0 -90 -6 -115 -13z M6267 5609 c-134
-31 -247 -131 -299 -265 -26 -64 -39 -185 -28 -246 25 -135 131 -272 255 -329
113 -53 270 -51 391 5 77 36 158 121 202 213 36 75 37 82 37 188 0 106 -1 113
-36 185 -60 127 -160 210 -294 245 -64 16 -168 18 -228 4z M4995 4939 c-75 -7
-117 -29 -145 -74 -48 -78 -44 -164 10 -223 27 -30 28 -33 20 -100 -4 -37 -13
-79 -20 -93 -51 -100 -160 -127 -230 -58 -27 28 -30 36 -30 97 0 80 -20 127
-70 160 -50 34 -128 27 -171 -14 -47 -43 -59 -82 -59 -183 0 -122 23 -182 102
-267 41 -44 81 -74 126 -96 64 -31 72 -33 182 -33 108 0 119 2 175 30 33 17
81 51 107 76 l48 45 51 -48 c28 -26 76 -60 107 -75 52 -26 66 -28 172 -28 104
0 120 3 173 27 72 34 174 133 208 203 20 41 25 68 27 150 3 88 0 105 -20 145
-30 58 -77 90 -135 90 -91 0 -143 -65 -143 -177 0 -51 -4 -66 -26 -92 -33 -40
-89 -57 -136 -42 -54 18 -100 72 -109 128 -13 80 -11 129 8 144 26 22 53 90
53 138 0 54 -33 115 -77 142 -41 25 -118 36 -198 28z M2783 4511 c-84 -45
-124 -108 -125 -200 -1 -61 33 -151 58 -151 6 0 18 -10 27 -23 34 -52 171 -58
239 -10 22 15 48 39 56 53 9 14 19 27 22 30 11 10 28 94 24 119 -9 57 -24 101
-37 101 -6 0 -8 3 -4 6 7 7 -4 18 -55 57 -31 23 -50 29 -106 31 -49 3 -76 -1
-99 -13z M3378 4518 c-21 -6 -38 -14 -38 -19 0 -5 -6 -9 -12 -9 -7 0 -28 -23
-45 -50 -61 -92 -48 -219 29 -291 46 -44 93 -57 170 -48 73 8 131 52 164 123
24 52 32 124 14 142 -5 5 -11 19 -13 30 -4 31 -34 72 -57 79 -11 3 -20 12 -20
20 0 24 -129 40 -192 23z M6973 3860 c-61 -14 -93 -60 -93 -133 0 -44 0 -45
-66 -83 -134 -78 -214 -212 -214 -359 0 -73 52 -176 121 -240 73 -68 106 -87
232 -129 135 -45 165 -61 179 -91 48 -106 -147 -148 -261 -57 -78 62 -123 74
-186 48 -68 -29 -96 -125 -59 -202 24 -50 107 -120 185 -157 68 -32 69 -32 69
-72 0 -106 112 -170 196 -113 43 30 64 68 64 116 0 40 1 41 67 74 71 34 168
122 191 171 6 15 17 39 24 53 18 38 15 190 -6 243 -47 124 -161 208 -361 266
-129 37 -154 60 -141 129 9 49 61 80 121 73 34 -3 61 -17 118 -61 59 -45 81
-56 111 -56 110 0 173 120 118 225 -29 57 -86 108 -167 148 -70 35 -71 36 -74
78 -1 24 -7 54 -14 68 -25 50 -90 75 -154 61z"/>
</g>
</svg>
