<?xml version="1.0" encoding="UTF-8"?>
<svg viewBox="0 0 1024 1024" xmlns="http://www.w3.org/2000/svg" fill="#000000">
<g transform="translate(0.000000,1024.000000) scale(0.100000,-0.100000)">
<path d="M2445 8426 c-135 -43 -228 -130 -282 -266 -17 -42 -18 -118 -23
-1105 l-5 -1060 -57 -116 c-64 -132 -145 -344 -188 -493 -140 -483 -167 -882
-94 -1388 l7 -48 -290 0 c-332 0 -365 -5 -425 -67 -53 -56 -71 -99 -72 -168 0
-103 73 -200 169 -224 28 -7 171 -11 393 -11 l348 0 47 -124 c26 -68 47 -128
47 -134 0 -5 -8 -12 -17 -15 -10 -3 -142 -50 -293 -105 -151 -55 -336 -122
-410 -149 -152 -54 -203 -87 -238 -155 -31 -60 -34 -156 -8 -208 50 -98 156
-160 246 -145 27 5 40 3 40 -4 0 -30 -32 -81 -73 -117 -50 -44 -102 -64 -166
-64 -90 0 -161 -65 -161 -148 0 -101 53 -152 169 -162 85 -8 121 -23 168 -72
44 -46 71 -111 79 -193 9 -91 24 -126 68 -160 49 -37 102 -43 154 -16 61 31
88 80 96 170 14 167 97 257 249 272 75 7 108 25 145 79 28 42 29 100 1 149
-31 54 -62 73 -141 81 -157 17 -241 107 -250 268 l-3 54 65 25 c36 14 171 63
300 109 181 64 236 81 242 70 53 -94 253 -341 392 -485 277 -284 545 -472 951
-667 599 -287 1219 -402 1815 -334 451 50 803 155 1210 357 352 175 597 344
846 586 159 154 230 234 374 427 51 69 94 126 96 128 3 5 175 -58 589 -214
309 -117 346 -129 405 -129 53 0 74 5 112 28 116 68 158 188 104 303 -37 81
-86 114 -254 174 -608 218 -707 256 -705 272 1 7 21 66 44 131 l43 117 341 0
c370 0 413 5 476 53 20 15 48 50 63 78 57 103 17 238 -88 304 l-49 30 -306 5
-306 5 3 25 c1 14 9 83 17 155 19 167 19 500 0 675 -41 368 -145 732 -309
1082 l-46 98 0 1020 c0 1134 2 1103 -66 1217 -106 179 -306 254 -506 189 -66
-21 -577 -245 -823 -361 -55 -26 -188 -88 -295 -137 -107 -50 -247 -115 -310
-145 -129 -61 -115 -60 -295 -19 -254 58 -494 80 -780 73 -229 -6 -322 -17
-565 -68 -80 -16 -159 -33 -177 -36 -25 -4 -57 6 -150 50 -132 62 -215 100
-383 177 -63 29 -149 68 -190 87 -41 20 -122 57 -180 83 -58 27 -161 74 -230
105 -223 102 -414 183 -469 199 -64 19 -180 20 -236 2z m355 -563 c19 -8 148
-68 285 -133 138 -64 317 -148 399 -187 83 -38 151 -74 153 -79 2 -5 -48 -38
-109 -73 -324 -184 -660 -455 -866 -696 l-51 -60 -1 657 0 657 78 -35 c42 -20
93 -43 112 -51z m4820 -563 l0 -651 -157 159 c-87 87 -192 186 -233 219 -213
169 -325 247 -510 351 -69 39 -131 75 -139 79 -9 6 18 23 85 55 142 67 942
435 952 437 1 1 2 -292 2 -649z m-2203 45 c213 -25 535 -114 748 -207 469
-205 872 -508 1173 -882 84 -103 217 -301 287 -425 176 -312 302 -714 340
-1083 l7 -66 -283 -4 c-273 -3 -286 -4 -337 -27 -92 -41 -140 -125 -129 -228
7 -71 44 -126 111 -168 l49 -30 289 -3 288 -3 0 -27 c0 -56 -37 -265 -52 -295
-8 -16 -24 -17 -216 -11 -311 9 -382 -10 -445 -121 -57 -102 -18 -234 87 -300
l49 -30 189 -5 189 -5 -57 -110 c-258 -502 -660 -913 -1159 -1187 -317 -174
-603 -271 -996 -339 -157 -27 -541 -37 -711 -20 -571 60 -1100 275 -1582 644
-119 92 -340 314 -443 447 -104 134 -211 304 -286 450 l-58 115 193 5 c211 5
225 9 290 77 78 81 78 225 0 306 -61 65 -79 69 -365 73 -143 2 -262 6 -265 8
-5 6 -46 208 -56 279 l-7 47 286 0 c283 0 286 0 334 25 91 46 135 122 129 221
-5 73 -37 130 -97 170 -52 34 -188 47 -449 42 l-192 -3 0 53 c0 180 91 566
186 788 231 543 603 1006 1054 1316 409 281 845 454 1275 507 50 6 101 13 115
15 72 10 399 4 517 -9z M3654 5295 c-92 -20 -168 -60 -240 -128 -106 -98 -151
-198 -161 -352 -5 -80 -2 -99 21 -170 35 -102 72 -159 150 -232 98 -92 200
-133 331 -133 142 0 271 54 372 158 166 169 197 415 79 617 -33 55 -149 163
-213 198 -97 52 -222 68 -339 42z M6353 5295 c-121 -26 -248 -114 -313 -215
-102 -159 -112 -338 -29 -508 191 -390 727 -388 920 4 38 75 42 92 47 176 9
174 -39 300 -156 409 -82 78 -149 115 -239 134 -83 18 -148 18 -230 0z M4875
4121 c-86 -22 -137 -74 -156 -156 -14 -62 -3 -117 33 -167 23 -33 96 -78 126
-78 28 0 36 -44 30 -161 -7 -110 -35 -166 -101 -198 -53 -26 -57 -26 -117 0
-76 33 -101 76 -109 194 -7 85 -11 99 -37 132 -46 56 -78 75 -133 81 -96 9
-181 -45 -212 -135 -17 -48 -17 -151 0 -223 38 -162 164 -332 300 -404 73 -38
171 -66 236 -66 98 0 248 59 328 131 l47 41 47 -42 c59 -52 150 -95 245 -117
158 -36 324 21 458 156 124 124 180 257 180 426 0 73 -3 86 -32 135 -91 153
-300 123 -348 -49 -5 -20 -10 -60 -10 -89 0 -121 -101 -213 -197 -181 -103 33
-133 88 -133 247 0 81 3 114 13 116 6 3 25 7 40 11 41 9 113 80 133 130 34 90
-13 202 -102 246 -47 23 -59 24 -274 26 -124 1 -238 -2 -255 -6z M8732 7983
c-55 -27 -74 -64 -84 -166 -6 -51 -17 -105 -25 -122 -48 -93 -137 -155 -222
-155 -57 0 -124 -30 -146 -64 -42 -64 -34 -153 18 -205 40 -41 64 -51 132 -51
74 0 147 -40 191 -103 40 -58 54 -103 54 -177 1 -142 105 -219 219 -160 59 29
82 75 90 178 8 95 25 138 75 190 44 48 80 64 163 73 86 9 124 32 153 89 27 52
26 109 -2 150 -37 54 -70 72 -145 79 -149 15 -227 100 -244 270 -10 95 -29
135 -79 168 -39 27 -100 30 -148 6z"/>
</g>
</svg>
