<?xml version="1.0" encoding="UTF-8"?>
<svg viewBox="0 0 1024 1024" xmlns="http://www.w3.org/2000/svg" fill="#000000">
<g transform="translate(0.000000,1024.000000) scale(0.100000,-0.100000)">
<path d="M5050 9057 c-113 -34 -195 -83 -281 -167 -112 -111 -180 -247 -195
-396 l-7 -63 -896 -3 -896 -3 -82 -32 c-197 -76 -330 -219 -390 -419 -17 -55
-18 -155 -20 -1455 -3 -1162 -5 -1402 -17 -1435 -8 -21 -18 -38 -22 -37 -5 1
-71 38 -146 82 -188 110 -232 131 -273 131 -141 0 -215 -161 -123 -266 17 -19
74 -60 127 -91 205 -119 336 -196 339 -198 1 -1 -4 -42 -12 -91 -8 -49 -17
-114 -21 -146 l-6 -56 -337 -4 c-333 -3 -337 -3 -375 -27 -73 -45 -100 -154
-54 -222 12 -18 38 -44 56 -56 34 -23 37 -23 370 -23 l337 0 13 -132 c7 -73
15 -147 18 -164 5 -32 5 -32 -194 -150 -238 -141 -259 -156 -284 -205 -24 -48
-24 -82 0 -135 34 -74 118 -115 188 -91 22 7 112 55 200 105 88 51 163 92 166
92 3 0 15 -28 26 -63 21 -62 21 -77 21 -873 0 -901 -1 -889 67 -1024 54 -107
164 -217 264 -264 151 -72 -70 -67 2640 -64 l2444 3 73 27 c145 53 274 161
346 291 67 119 66 102 66 1018 0 811 0 826 21 887 11 34 25 62 29 62 5 0 82
-43 172 -95 218 -128 242 -134 318 -82 37 24 80 90 80 122 0 41 -22 95 -49
123 -24 23 -214 141 -418 258 -18 10 -33 21 -33 24 0 3 7 59 15 125 8 65 15
139 15 162 l0 43 339 0 c335 0 338 0 372 23 18 12 44 38 56 56 47 69 18 181
-57 225 -33 20 -53 21 -370 24 l-336 3 -23 146 c-27 171 -41 144 114 230 165
92 310 181 327 200 74 82 50 206 -48 254 -76 36 -109 26 -304 -91 -94 -56
-173 -106 -176 -111 -12 -20 -21 -6 -32 49 -9 44 -12 401 -12 1428 0 1505 4
1415 -61 1554 -72 155 -211 276 -388 338 -41 14 -150 17 -941 22 l-895 5 -7
65 c-30 273 -234 502 -503 566 -93 21 -245 17 -335 -9z m305 -355 c171 -90
209 -309 77 -445 -154 -161 -423 -83 -472 136 -30 132 52 276 185 325 46 18
163 9 210 -16z m-1117 -637 c-3 -3 -38 -21 -79 -41 -203 -99 -258 -159 -267
-290 -8 -119 38 -201 141 -257 l42 -22 1160 0 1160 0 41 22 c129 69 181 212
125 340 -34 76 -103 136 -229 196 l-107 52 115 3 c63 1 369 1 680 0 l565 -3
50 -23 c60 -27 118 -82 148 -137 22 -40 22 -42 25 -820 1 -429 1 -888 0 -1019
l-3 -239 -47 69 c-26 38 -68 96 -93 128 l-46 59 7 141 c7 156 -8 429 -32 600
-20 135 -77 369 -99 402 -44 68 -115 78 -265 39 -226 -60 -390 -124 -636 -247
l-182 -91 -118 50 c-222 94 -421 153 -679 200 -140 25 -621 26 -772 1 -246
-41 -493 -115 -718 -214 l-81 -35 -114 60 c-159 83 -367 169 -550 229 -324
105 -393 95 -445 -68 -68 -216 -97 -448 -99 -801 l-3 -277 -35 -43 c-20 -24
-61 -79 -92 -123 l-56 -79 2 1019 3 1019 27 46 c46 79 119 131 208 150 37 7
1355 11 1348 4z m2998 -1221 c10 -15 19 -67 25 -151 11 -146 13 -564 3 -658
-4 -35 -4 -75 0 -89 4 -15 46 -69 95 -122 362 -388 593 -956 617 -1514 26
-600 -185 -1265 -549 -1725 l-67 -86 -58 39 c-131 89 -256 135 -412 151 -297
31 -585 -109 -757 -367 -100 -151 -153 -328 -153 -516 l0 -96 -747 0 -748 0 3
50 c6 87 -17 247 -49 346 -90 271 -323 493 -595 564 -107 28 -280 28 -390 0
-98 -25 -212 -78 -283 -132 l-55 -41 -42 46 c-54 60 -170 223 -221 312 -179
310 -309 686 -354 1025 -15 114 -14 500 1 626 45 370 183 739 397 1062 77 117
215 289 237 298 7 3 23 19 35 35 23 30 23 33 26 452 2 232 6 434 10 449 12 44
41 68 83 68 71 0 471 -178 616 -274 45 -29 91 -58 103 -65 54 -28 129 -2 175
59 58 79 393 193 713 241 165 26 435 30 585 10 342 -46 688 -159 795 -260 88
-83 128 -82 272 10 154 99 460 241 587 273 60 16 82 11 102 -20z m572 -4839
c-3 -339 -4 -351 -25 -391 -12 -23 -34 -55 -48 -72 -31 -37 -122 -82 -165 -82
l-31 0 40 53 c116 153 139 340 70 562 -18 59 -19 69 -6 83 25 29 80 126 82
147 4 35 5 36 14 31 5 -3 8 2 7 12 0 9 5 16 12 14 10 -2 10 2 1 19 -8 15 -8
19 0 15 7 -5 11 4 11 24 0 18 8 45 18 62 l17 29 3 -78 c2 -43 2 -235 0 -428z
m-5083 405 c37 -47 84 -102 104 -123 20 -21 30 -37 22 -35 -7 2 -16 -3 -19
-11 -3 -8 0 -11 7 -7 7 5 9 1 5 -8 -3 -9 -2 -16 4 -16 5 0 -6 -48 -25 -107
-29 -88 -36 -128 -39 -213 -3 -58 -6 -124 -8 -148 -2 -24 -1 -40 2 -37 3 3 16
-20 28 -52 11 -32 25 -67 29 -77 7 -15 5 -17 -6 -11 -8 5 -11 5 -6 -1 5 -5 13
-10 18 -10 5 -1 12 -2 16 -3 4 0 -2 -7 -12 -15 -18 -13 -21 -11 -43 32 -23 45
-24 26 -3 -32 11 -28 22 -36 59 -42 40 -7 52 -12 52 -24 0 -33 -131 21 -177
74 -18 20 -43 56 -55 79 -23 41 -23 48 -26 462 -2 231 -1 417 1 415 2 -3 35
-43 72 -90z m1068 -80 c109 -34 229 -136 290 -247 40 -75 57 -154 57 -270 l0
-103 -504 0 c-366 0 -507 3 -512 11 -13 22 -16 145 -4 202 17 82 73 189 136
256 55 60 170 129 259 157 64 20 203 17 278 -6z m3158 4 c131 -39 290 -166
342 -275 42 -86 60 -173 54 -256 -3 -40 -8 -77 -12 -83 -4 -7 -174 -10 -511
-10 l-504 0 0 88 c1 255 132 458 345 531 75 26 208 28 286 5z m709 -34 c0 -5
-5 -10 -11 -10 -5 0 -7 5 -4 10 3 6 8 10 11 10 2 0 4 -4 4 -10z m0 -30 c22
-22 26 -40 9 -40 -5 0 -7 -4 -4 -10 6 -10 -22 -60 -35 -60 -7 0 -29 46 -35 77
-4 14 23 53 36 53 5 0 18 -9 29 -20z M3675 5561 c-226 -65 -386 -252 -426
-500 -13 -84 10 -220 52 -304 105 -213 285 -329 512 -329 106 0 193 20 281 64
85 43 213 172 254 258 111 228 62 502 -120 673 -69 65 -189 128 -276 146 -77
16 -208 12 -277 -8z m-2 -172 c46 -12 110 -68 127 -109 21 -50 9 -142 -24
-185 -71 -93 -228 -87 -295 10 -65 95 -12 247 99 282 46 15 49 15 93 2z M6488
5564 c-352 -85 -538 -487 -374 -808 77 -152 220 -271 373 -311 74 -19 233 -19
307 0 139 36 281 143 353 266 42 70 73 192 73 283 -1 174 -79 345 -208 449
-58 48 -189 111 -260 126 -71 15 -194 13 -264 -5z m22 -193 c19 -10 48 -37 64
-59 24 -34 29 -51 29 -99 0 -109 -61 -175 -167 -181 -73 -4 -115 15 -159 70
-34 42 -45 107 -28 160 13 38 60 89 106 112 41 21 113 20 155 -3z M5154 5011
c-71 -17 -114 -71 -114 -145 0 -44 4 -53 41 -88 l41 -39 -12 -51 c-15 -73 -43
-113 -92 -132 -85 -35 -138 7 -138 106 0 55 -3 63 -33 93 -63 63 -157 51 -202
-26 -29 -49 -27 -175 3 -243 101 -224 384 -284 551 -117 l38 38 31 -38 c18
-21 57 -50 89 -65 48 -24 69 -28 143 -29 77 0 92 3 152 33 116 57 178 152 186
283 5 91 -8 139 -49 173 -41 35 -88 42 -133 21 -45 -22 -61 -52 -69 -129 -10
-99 -66 -135 -146 -94 -52 27 -76 67 -86 146 -6 43 -4 52 8 52 8 0 27 14 41
31 20 24 26 41 26 81 0 45 -4 54 -38 88 -54 54 -143 73 -238 51z M3103 4303
c-32 -6 -80 -57 -88 -93 -9 -43 11 -94 51 -130 l35 -30 152 0 c133 0 156 2
184 20 89 54 79 194 -17 227 -33 11 -267 16 -317 6z M7045 4296 c-46 -21 -67
-51 -72 -103 -3 -36 1 -56 15 -79 34 -54 72 -64 237 -64 l147 0 39 39 c34 33
39 45 39 83 0 51 -30 105 -70 125 -35 18 -295 17 -335 -1z M2680 2380 c6 -11
13 -20 16 -20 2 0 0 9 -6 20 -6 11 -13 20 -16 20 -2 0 0 -9 6 -20z M2720 2313
c0 -19 27 -45 41 -40 10 4 9 6 -3 6 -10 1 -18 7 -18 15 0 8 -4 18 -10 21 -5 3
-10 2 -10 -2z M2758 2251 c8 -4 13 -11 12 -15 -2 -10 43 -76 52 -76 8 0 -23
62 -36 71 -5 4 -5 12 -2 18 5 7 -1 11 -16 11 -16 0 -19 -3 -10 -9z M2770 1681
c0 -6 4 -13 10 -16 6 -3 7 1 4 9 -7 18 -14 21 -14 7z M1563 6906 c-27 -23 -31
-34 -38 -98 -13 -135 -38 -164 -157 -177 -84 -9 -112 -23 -129 -63 -14 -35 -6
-68 26 -100 21 -21 37 -26 101 -31 117 -9 148 -40 160 -162 8 -80 31 -113 85
-121 30 -5 42 -1 68 22 28 25 33 38 41 99 5 39 13 83 19 97 14 37 63 60 141
66 75 6 103 21 120 63 29 69 -26 129 -117 129 -59 0 -116 25 -136 60 -10 16
-22 66 -27 112 -11 95 -26 117 -87 125 -32 4 -44 0 -70 -21z M8775 6907 c-22
-19 -28 -34 -35 -97 -5 -41 -13 -87 -19 -101 -15 -42 -56 -67 -119 -74 -118
-13 -157 -39 -155 -103 2 -58 42 -87 132 -95 115 -10 146 -40 160 -157 11 -83
33 -115 88 -126 28 -6 37 -2 67 28 30 30 34 42 41 107 11 113 57 150 186 151
76 0 126 66 99 131 -17 39 -39 50 -128 60 -118 13 -149 46 -159 172 -5 61 -11
76 -34 99 -35 36 -87 38 -124 5z"/>
</g>
</svg>
