<?xml version="1.0" encoding="UTF-8"?>
<svg viewBox="0 0 1024 1024" xmlns="http://www.w3.org/2000/svg" fill="#000000">
<g transform="translate(0.000000,1024.000000) scale(0.100000,-0.100000)">
<path d="M5113 9000 c-45 -27 -59 -62 -66 -156 -10 -166 -102 -259 -291 -297
-43 -9 -87 -24 -97 -33 -31 -28 -41 -75 -27 -120 17 -52 61 -80 136 -86 79 -8
137 -35 195 -92 60 -58 87 -116 94 -207 5 -60 10 -75 35 -99 37 -37 85 -47
126 -26 48 25 69 63 77 141 9 92 26 130 83 188 62 64 108 86 200 97 70 8 79
11 109 44 72 79 23 175 -97 192 -78 10 -133 33 -183 75 -74 63 -99 115 -108
220 -8 98 -22 129 -72 159 -41 25 -73 25 -114 0z m127 -484 c23 -24 59 -53 81
-64 l39 -20 -31 -12 c-39 -17 -123 -101 -139 -141 l-13 -30 -16 33 c-23 48
-86 106 -142 133 -48 22 -49 23 -23 29 63 16 173 120 174 165 1 9 7 2 15 -16
7 -18 32 -52 55 -77z M2597 8028 c-23 -14 -45 -38 -57 -63 -20 -40 -20 -63
-20 -1143 0 -1051 -1 -1105 -19 -1184 -11 -46 -25 -120 -32 -166 -10 -67 -15
-81 -28 -77 -14 4 -251 57 -448 100 -62 13 -108 9 -150 -13 -29 -16 -56 -87
-47 -126 16 -74 63 -104 214 -136 165 -35 431 -98 435 -102 3 -2 9 -62 15
-134 5 -71 13 -139 16 -151 4 -13 4 -23 1 -23 -44 0 -601 -106 -626 -119 -22
-12 -46 -47 -54 -82 -16 -63 39 -145 104 -155 21 -3 147 16 328 51 161 31 294
55 296 53 2 -2 15 -39 30 -83 91 -264 263 -532 485 -755 134 -134 257 -221
445 -314 230 -115 454 -179 714 -206 138 -13 1808 -14 1956 0 291 28 636 146
855 293 364 245 635 586 770 972 17 49 32 91 34 92 2 2 128 -21 280 -52 152
-30 293 -55 314 -55 118 0 177 146 90 226 -38 34 -48 36 -403 94 -248 41 -238
38 -231 56 3 8 11 76 17 152 7 75 13 138 14 140 2 3 348 84 500 117 67 15 85
23 112 52 29 30 33 41 33 90 0 50 -3 58 -35 90 -33 33 -37 35 -97 31 -35 -2
-157 -25 -273 -51 -115 -26 -220 -50 -231 -52 -20 -4 -22 2 -33 73 -7 42 -19
103 -27 136 -13 50 -15 219 -14 1168 0 748 -3 1122 -10 1148 -21 79 -86 130
-166 130 -38 0 -68 -11 -163 -62 -166 -88 -462 -255 -786 -443 -154 -90 -292
-168 -306 -175 -22 -10 -37 -6 -115 26 -315 131 -650 201 -1010 211 -418 12
-790 -49 -1139 -188 -88 -35 -166 -63 -173 -63 -7 1 -70 36 -140 77 -114 67
-389 224 -870 496 -89 51 -178 99 -197 107 -50 20 -114 17 -158 -8z m4961
-1334 l-3 -348 -63 92 c-187 274 -399 484 -687 683 l-134 93 57 34 c31 19 113
66 182 104 69 39 161 92 205 118 44 27 161 94 260 149 l180 102 3 -340 c1
-187 1 -496 0 -687z m-4731 996 c18 -11 115 -65 215 -121 270 -151 580 -330
604 -349 22 -16 21 -17 -43 -56 -266 -160 -581 -463 -750 -721 -30 -46 -58
-83 -64 -83 -5 0 -9 262 -9 675 0 371 3 675 8 675 4 0 22 -9 39 -20z m2695
-366 c397 -54 807 -209 1129 -425 423 -284 723 -672 873 -1129 47 -146 76
-287 79 -390 l2 -65 -155 -32 c-141 -28 -157 -34 -182 -62 -55 -62 -42 -150
31 -198 43 -29 78 -29 193 2 136 36 126 44 113 -85 -7 -61 -15 -113 -18 -116
-3 -4 -48 1 -100 10 -117 20 -150 20 -187 1 -38 -20 -60 -63 -60 -119 0 -36 6
-52 31 -81 33 -37 67 -50 165 -61 88 -9 89 -11 65 -80 -65 -192 -262 -467
-456 -634 -245 -212 -486 -323 -818 -380 -113 -19 -164 -20 -1032 -20 -999 0
-1030 1 -1256 59 -200 50 -381 135 -541 253 -112 82 -288 262 -371 378 -94
132 -222 388 -204 406 3 3 51 12 108 20 111 15 140 28 169 77 38 62 13 138
-58 180 -31 18 -36 18 -126 3 -51 -9 -109 -16 -129 -16 -31 0 -35 3 -40 33
-12 64 -28 199 -25 202 2 2 30 -3 63 -11 183 -43 202 -45 245 -28 65 26 98 90
80 154 -21 72 -52 88 -267 131 l-113 22 0 36 c0 46 24 197 43 281 70 297 278
669 514 921 411 437 1028 725 1668 779 144 11 425 4 567 -16z M3885 5956
c-118 -38 -208 -114 -262 -224 -37 -74 -38 -79 -38 -186 0 -99 3 -117 27 -168
48 -102 147 -192 255 -229 68 -23 187 -25 257 -4 155 47 270 181 298 347 33
191 -107 404 -302 462 -63 19 -179 20 -235 2z M6276 5960 c-107 -27 -229 -127
-280 -229 -78 -153 -51 -340 65 -466 90 -98 198 -140 338 -133 137 7 251 70
324 181 115 172 98 372 -45 523 -76 80 -173 125 -281 130 -45 2 -99 -1 -121
-6z M5025 5196 c-68 -30 -103 -103 -83 -174 11 -41 67 -102 93 -102 15 0 16
-12 11 -130 -6 -146 -15 -171 -73 -219 -29 -24 -47 -31 -81 -31 -77 0 -119 33
-146 117 -31 94 -101 127 -174 83 -44 -27 -66 -81 -58 -140 14 -103 104 -221
203 -267 152 -70 293 -47 412 70 l47 46 37 -44 c24 -28 61 -56 104 -77 61 -30
76 -33 153 -33 72 0 94 4 147 29 156 71 267 285 198 378 -71 95 -166 66 -215
-64 -24 -65 -53 -93 -106 -103 -50 -9 -119 27 -159 84 -29 42 -30 45 -30 168
0 123 0 125 25 138 82 43 110 125 68 204 -36 69 -68 81 -218 81 -82 -1 -135
-5 -155 -14z M4894 2296 c-63 -28 -100 -107 -83 -171 14 -50 64 -103 110 -116
75 -23 164 34 190 121 10 34 9 44 -12 86 -13 27 -36 57 -51 67 -34 25 -113 32
-154 13z M5355 2296 c-63 -29 -101 -101 -88 -167 9 -47 66 -105 117 -119 40
-11 49 -10 88 9 115 55 128 188 26 264 -33 25 -104 31 -143 13z M6575 2303
c-91 -25 -135 -144 -82 -224 12 -19 43 -44 69 -57 40 -20 52 -22 85 -13 38 11
90 56 112 98 27 54 1 130 -60 175 -27 20 -89 31 -124 21z M7013 2291 c-43 -20
-65 -51 -78 -108 -16 -78 50 -163 133 -171 130 -12 215 132 138 233 -49 64
-117 80 -193 46z M2909 2205 c-15 -8 -34 -30 -43 -50 -15 -32 -16 -41 -4 -77
7 -23 26 -51 41 -62 28 -21 37 -21 560 -21 580 0 561 -2 597 58 31 50 26 84
-19 128 l-39 39 -533 0 c-442 -1 -538 -3 -560 -15z M4576 1961 c-96 -64 -91
-201 10 -258 50 -29 89 -29 139 0 105 59 113 189 16 254 -44 30 -123 31 -165
4z M5652 1960 c-116 -71 -86 -231 51 -272 36 -11 44 -10 86 13 84 44 113 123
72 199 -40 76 -137 104 -209 60z M6250 1973 c-23 -9 -60 -45 -76 -75 -43 -82
18 -196 113 -214 74 -14 173 70 173 146 0 43 -37 108 -72 130 -32 19 -102 26
-138 13z M7321 1962 c-80 -43 -95 -161 -31 -228 64 -65 146 -66 209 -1 62 62
59 146 -5 208 -43 42 -120 51 -173 21z M5105 1859 c-155 -54 -335 -260 -374
-424 -23 -99 18 -193 102 -234 61 -29 114 -26 210 12 113 44 190 44 302 -2 98
-40 167 -39 232 3 147 97 108 300 -97 507 -145 147 -246 184 -375 138z M6773
1866 c-72 -23 -135 -67 -210 -144 -76 -77 -152 -190 -173 -255 -20 -63 -9
-155 24 -204 59 -89 159 -104 301 -47 99 41 181 39 288 -4 46 -19 95 -32 121
-32 62 0 124 36 164 96 31 45 34 54 30 114 -6 115 -89 256 -220 374 -109 99
-224 135 -325 102z M2904 1801 c-63 -39 -67 -129 -8 -181 l35 -30 525 0 c576
0 572 0 607 59 21 36 22 73 2 111 -31 61 -23 60 -602 60 -501 0 -530 -1 -559
-19z M2920 1397 c-44 -15 -73 -68 -64 -116 10 -47 56 -89 107 -96 23 -3 265
-5 537 -3 467 3 497 4 523 22 57 38 72 104 35 151 -43 55 -44 55 -595 54 -366
0 -518 -3 -543 -12z"/>
</g>
</svg>
