<?xml version="1.0" standalone="no"?>
<!DOCTYPE svg PUBLIC "-//W3C//DTD SVG 20010904//EN"
 "http://www.w3.org/TR/2001/REC-SVG-20010904/DTD/svg10.dtd">
<svg version="1.0" xmlns="http://www.w3.org/2000/svg"
 width="1024.000000pt" height="1024.000000pt" viewBox="0 0 1024.000000 1024.000000"
 preserveAspectRatio="xMidYMid meet">
<metadata>
Created by potrace 1.16, written by Peter Selinger 2001-2019
</metadata>
<g transform="translate(0.000000,1024.000000) scale(0.100000,-0.100000)"
fill="#000000" stroke="none">
<path d="M3168 8226 c-26 -8 -62 -23 -80 -34 -44 -28 -119 -107 -153 -161 -40
-66 -102 -228 -136 -359 -53 -205 -63 -300 -63 -597 -1 -266 6 -351 40 -518
l14 -68 -49 -92 c-153 -286 -241 -600 -241 -862 0 -63 -3 -116 -7 -118 -5 -2
-69 2 -143 10 -121 13 -138 12 -176 -2 -52 -20 -77 -56 -77 -112 0 -49 27 -87
78 -108 17 -7 100 -21 186 -30 l155 -18 24 -101 c13 -56 23 -103 22 -106 0 -2
-66 -21 -145 -41 -167 -43 -201 -58 -227 -102 -25 -41 -25 -83 0 -124 46 -77
83 -79 321 -16 l145 39 59 -101 c116 -196 255 -359 440 -513 82 -69 275 -204
307 -214 9 -3 -3 -37 -41 -118 -117 -251 -185 -515 -201 -789 -15 -242 5 -454
61 -656 10 -38 19 -73 19 -77 0 -5 -27 -8 -60 -8 -83 0 -347 -28 -393 -42 -44
-13 -67 -41 -67 -78 0 -44 38 -70 129 -85 124 -22 502 -56 776 -70 61 -3 146
-8 190 -10 489 -27 2054 -27 2500 0 39 2 138 7 220 10 83 3 175 8 205 10 413
34 643 65 671 91 23 21 32 60 19 84 -25 47 -71 58 -348 84 -85 8 -156 16 -158
19 -3 2 0 17 7 33 6 16 21 83 34 149 92 475 41 885 -167 1324 -32 68 -57 125
-56 126 100 57 258 162 311 205 170 137 364 361 461 534 26 47 53 86 59 86 7
0 80 -18 162 -40 195 -52 225 -52 276 -1 43 43 50 80 24 130 -29 58 -65 76
-227 116 -84 21 -154 38 -155 39 -2 1 48 210 52 214 1 1 74 11 162 21 165 20
210 34 237 73 38 54 5 147 -61 175 -32 13 -54 13 -168 3 -71 -7 -134 -13 -140
-13 -6 -1 -12 50 -16 128 -14 286 -78 524 -219 806 l-71 141 21 122 c73 441
39 898 -93 1248 -81 216 -173 323 -312 364 -53 15 -70 16 -145 5 -259 -37
-644 -232 -964 -489 l-160 -128 -90 18 c-215 41 -336 52 -606 52 -295 1 -418
-11 -633 -61 l-68 -16 -32 30 c-18 17 -75 64 -127 105 -445 349 -898 546
-1112 484z m2250 -841 c569 -64 1090 -301 1471 -670 287 -278 467 -571 545
-885 36 -147 57 -382 40 -446 -5 -19 -17 -23 -97 -33 -107 -14 -152 -33 -178
-75 -30 -48 -25 -102 12 -138 l30 -31 101 7 100 6 -7 -37 c-3 -20 -13 -54 -22
-74 l-15 -38 -113 6 -114 6 -35 -35 c-30 -30 -36 -43 -36 -78 0 -34 6 -48 33
-75 27 -27 43 -34 95 -40 34 -4 62 -9 62 -11 0 -39 -137 -210 -267 -334 -199
-191 -474 -352 -768 -449 -165 -55 -386 -106 -507 -116 -40 -3 -83 -8 -95 -11
-21 -4 -23 -1 -23 43 0 42 -15 76 -126 283 -252 470 -287 520 -359 520 -47 0
-88 -22 -118 -62 -23 -31 -290 -514 -357 -646 -19 -38 -30 -75 -30 -101 0 -42
0 -42 -32 -37 -18 3 -58 8 -88 11 -73 8 -260 49 -389 86 -384 110 -706 297
-949 553 -68 72 -168 199 -191 242 -10 20 -8 22 37 29 65 10 105 28 130 60 37
47 22 113 -35 151 -23 15 -44 18 -118 16 -49 -1 -98 -3 -109 -5 -20 -2 -37 33
-50 105 l-7 36 93 -5 c90 -5 94 -5 125 21 56 48 49 140 -14 182 -21 13 -176
43 -230 44 -18 0 -17 230 2 346 18 111 80 296 144 429 159 327 467 660 816
880 463 292 1086 432 1643 370z m-261 -3078 c32 1 33 -1 118 -163 47 -91 85
-167 85 -169 0 -3 -101 -5 -225 -5 l-225 0 87 175 c78 156 90 174 108 168 11
-4 34 -7 52 -6z m-30 -1332 l0 -795 -128 0 -129 0 0 335 0 335 36 47 c78 101
110 208 101 338 -5 96 -31 163 -94 243 l-43 55 0 119 0 118 129 0 129 0 -1
-795z m-1029 660 c76 -19 146 -35 155 -35 24 0 22 -5 -25 -48 -35 -33 -42 -46
-42 -77 0 -30 7 -44 32 -66 39 -35 56 -36 130 -5 182 76 310 44 380 -94 27
-54 21 -153 -13 -220 -53 -105 -184 -203 -340 -256 -66 -22 -104 -28 -211 -31
-118 -5 -139 -3 -226 21 -53 14 -109 26 -126 26 -41 0 -90 -42 -98 -85 -19
-101 108 -189 348 -241 61 -13 118 -20 118 -15 0 3 5 -1 10 -9 9 -13 10 -13
10 0 0 12 2 12 9 2 6 -10 11 -9 22 4 8 10 10 15 4 12 -5 -3 -19 -2 -30 3 -15
5 -7 8 27 8 36 1 48 -3 51 -16 4 -14 5 -12 6 5 1 16 7 22 25 22 21 0 155 36
211 56 15 5 13 2 -7 -14 -15 -13 -33 -19 -43 -16 -11 5 -18 0 -22 -14 -3 -12
-11 -18 -18 -15 -8 2 -22 0 -32 -7 -16 -10 -16 -10 4 -5 26 7 39 -10 23 -30
-10 -12 -9 -15 4 -15 11 0 16 9 16 28 l1 27 21 -25 c14 -17 19 -19 15 -7 -5
12 -3 16 4 11 7 -4 10 -1 7 7 -3 8 -12 13 -22 11 -9 -2 -16 4 -16 12 0 11 8
14 30 11 17 -2 28 0 25 5 -3 4 2 11 11 14 10 4 13 2 8 -6 -5 -7 2 -9 22 -5 16
3 24 4 17 1 -7 -3 -9 -12 -6 -21 5 -13 3 -13 -14 -4 -18 9 -24 7 -38 -15 -9
-14 -14 -28 -11 -31 3 -3 11 6 17 20 l12 26 17 -22 18 -21 7 32 c5 24 10 30
19 23 8 -7 12 -5 13 9 1 13 -3 17 -13 13 -8 -3 -14 0 -14 6 0 6 5 11 10 11 6
0 10 4 10 9 0 5 -8 8 -17 6 -10 -1 -17 -8 -16 -14 2 -6 -2 -11 -7 -11 -26 0
-5 28 35 48 l45 22 0 -236 0 -236 -302 6 c-386 9 -700 24 -709 33 -15 16 -80
227 -95 310 -22 118 -29 385 -15 521 18 172 93 425 185 628 l37 81 109 -43
c60 -24 172 -60 248 -79z m2475 38 c82 -177 144 -366 172 -521 35 -197 29
-471 -14 -677 -22 -102 -68 -252 -79 -259 -11 -7 -416 -24 -745 -32 l-278 -7
3 194 c1 107 4 212 7 234 l6 41 75 -33 c41 -18 67 -33 57 -33 -10 0 -15 -5
-12 -10 4 -6 11 -7 17 -4 22 14 1 -20 -22 -35 -13 -9 -21 -11 -17 -4 13 20 -9
23 -23 2 -15 -20 -36 -27 -24 -7 5 7 3 8 -6 3 -8 -5 -11 -3 -8 6 3 8 12 13 21
11 8 -1 18 7 22 18 4 11 11 17 17 14 6 -4 8 -2 4 4 -3 6 -19 17 -35 25 -22 11
-28 11 -28 1 0 -7 3 -13 6 -12 32 3 41 -3 31 -22 -6 -11 -16 -17 -25 -14 -8 4
-12 11 -8 17 3 6 1 7 -6 3 -6 -4 -8 -12 -5 -18 4 -6 0 -17 -10 -23 -15 -11
-13 -14 11 -23 52 -20 103 -31 103 -21 0 5 8 9 18 9 15 0 15 -2 2 -11 -13 -9
-13 -10 0 -6 24 6 23 34 -1 40 -12 3 -18 10 -14 16 3 6 11 8 17 5 6 -4 8 1 3
15 -3 11 -5 21 -3 21 2 0 31 -9 66 -19 58 -18 200 -38 229 -33 8 2 11 -4 7
-15 -5 -17 -5 -17 6 0 9 14 23 18 68 16 71 -2 161 21 260 67 122 56 157 103
132 179 -25 75 -89 92 -196 54 -46 -17 -89 -23 -201 -27 -131 -4 -149 -2 -233
22 -108 31 -188 70 -254 125 -121 102 -172 213 -146 321 37 156 194 216 370
141 39 -17 83 -31 97 -31 35 0 83 51 83 88 0 36 -38 85 -84 109 l-31 16 126
28 c69 15 191 49 270 77 79 27 149 50 155 50 6 1 27 -33 47 -75z m-1176 -1475
c-3 -8 -6 -5 -6 6 -1 11 2 17 5 13 3 -3 4 -12 1 -19z M3755 6003 c-103 -37
-162 -102 -197 -216 -32 -106 -11 -195 66 -284 143 -164 417 -127 516 70 52
105 39 226 -36 328 -71 97 -232 144 -349 102z M6313 6001 c-99 -34 -167 -109
-200 -220 -39 -135 32 -282 169 -350 153 -77 346 -10 422 145 26 52 28 65 24
138 -6 101 -35 164 -108 229 -83 75 -197 96 -307 58z M5015 5835 c-39 -38 -28
-102 24 -141 34 -26 -37 -114 -92 -114 -13 0 -39 10 -57 23 -28 18 -35 32 -45
81 -14 69 -40 96 -92 96 -72 0 -109 -50 -100 -132 25 -209 285 -320 452 -193
l34 27 38 -30 c53 -42 104 -55 183 -50 124 9 222 87 256 206 20 68 8 118 -37
156 -37 31 -54 32 -96 6 -31 -19 -53 -66 -53 -116 0 -11 -10 -30 -22 -42 -47
-42 -106 -37 -153 14 -32 35 -31 49 5 91 37 41 38 72 4 112 -26 31 -26 31
-125 31 -93 0 -102 -2 -124 -25z M6689 5355 c-96 -31 -163 -153 -139 -254 42
-177 274 -219 376 -69 17 26 35 63 38 83 15 76 -43 193 -113 230 -43 22 -111
26 -162 10z M3422 5339 c-113 -57 -145 -228 -60 -325 107 -121 291 -89 355 63
34 83 -2 196 -80 250 -55 38 -153 44 -215 12z M4320 2504 c0 -8 6 -11 15 -8 8
4 15 1 15 -7 0 -7 2 -10 5 -7 3 3 3 12 0 20 -7 18 -35 20 -35 2z M4530 2504
c0 -8 5 -12 10 -9 6 4 8 11 5 16 -9 14 -15 11 -15 -7z M5826 2544 c-3 -8 -2
-24 4 -33 5 -10 7 -21 5 -25 -3 -3 -2 -4 2 -1 10 8 11 45 2 45 -5 0 -6 7 -3
15 4 8 4 15 1 15 -3 0 -8 -7 -11 -16z M5906 2525 c-3 -9 -6 -24 -5 -33 0 -9 5
-4 10 12 9 32 6 48 -5 21z M5866 2504 c-4 -9 -4 -19 -1 -22 3 -3 5 0 5 7 0 7
4 9 10 6 6 -3 7 1 4 9 -8 20 -10 20 -18 0z M5937 2505 c4 -13 8 -13 21 -3 13
11 15 10 9 -5 -4 -11 -3 -16 4 -12 16 10 5 28 -19 31 -16 3 -20 0 -15 -11z
M6143 2513 c9 -2 25 -2 35 0 9 3 1 5 -18 5 -19 0 -27 -2 -17 -5z M6010 2501
c0 -6 4 -13 10 -16 6 -3 7 1 4 9 -7 18 -14 21 -14 7z"/>
</g>
</svg>
