<?xml version="1.0" standalone="no"?>
<!DOCTYPE svg PUBLIC "-//W3C//DTD SVG 20010904//EN"
 "http://www.w3.org/TR/2001/REC-SVG-20010904/DTD/svg10.dtd">
<svg version="1.0" xmlns="http://www.w3.org/2000/svg"
 width="1024.000000pt" height="1024.000000pt" viewBox="0 0 1024.000000 1024.000000"
 preserveAspectRatio="xMidYMid meet">
<metadata>
Created by potrace 1.16, written by Peter Selinger 2001-2019
</metadata>
<g transform="translate(0.000000,1024.000000) scale(0.100000,-0.100000)"
fill="#000000" stroke="none">
<path d="M5051 9316 c-54 -18 -97 -58 -125 -116 -20 -44 -21 -61 -26 -604 l-5
-560 -113 97 c-140 120 -160 131 -237 131 -129 -1 -225 -96 -225 -224 0 -54
17 -106 48 -145 17 -22 448 -401 553 -487 68 -56 123 -78 200 -78 91 0 155 34
299 159 63 54 187 162 275 238 88 76 174 160 192 186 119 178 -45 403 -249
343 -42 -12 -76 -36 -168 -115 l-115 -101 -5 558 -5 557 -31 55 c-55 96 -160
139 -263 106z M2857 8209 c-114 -27 -197 -112 -255 -261 -232 -599 -479 -1650
-601 -2563 -54 -399 -93 -748 -107 -956 l-7 -97 -221 -5 c-255 -5 -303 -14
-445 -83 -78 -38 -108 -60 -181 -132 -103 -104 -151 -192 -181 -334 -62 -297
106 -590 409 -712 l72 -29 0 -591 c0 -585 0 -592 24 -706 50 -238 166 -456
334 -628 198 -202 429 -319 747 -378 96 -18 205 -19 2670 -19 l2570 0 115 22
c224 43 402 109 528 195 309 210 511 531 561 893 7 47 11 297 11 647 l0 570
23 6 c12 3 63 26 112 50 165 82 294 239 340 412 19 71 19 230 0 303 -59 228
-250 416 -495 488 -63 18 -111 22 -295 28 l-220 6 -3 40 c-3 47 -43 406 -72
650 -89 758 -272 1692 -460 2345 -60 210 -184 579 -215 640 -37 73 -99 137
-170 173 -53 27 -70 31 -145 32 -77 0 -92 -3 -150 -32 -189 -94 -808 -750
-1194 -1264 -50 -68 -96 -119 -109 -123 -12 -3 -345 -6 -739 -6 l-717 0 -58
73 c-32 39 -78 99 -103 132 -74 100 -327 401 -466 555 -234 257 -553 564 -643
617 -76 45 -180 62 -264 42z m332 -1074 c248 -273 449 -511 439 -520 -2 -2
-53 -25 -113 -50 -109 -45 -276 -130 -390 -198 -140 -82 -414 -294 -489 -377
-20 -22 -36 -37 -36 -33 0 8 34 180 92 463 63 312 194 828 243 959 7 18 79
-51 254 -244z m4124 238 c64 -224 151 -544 171 -633 75 -332 107 -478 131
-600 43 -221 45 -203 -17 -140 -175 182 -417 350 -723 502 -60 31 -143 68
-182 83 -40 14 -73 29 -73 31 0 31 654 774 681 774 4 0 9 -8 12 -17z m-1441
-1063 c276 -27 583 -120 851 -257 107 -55 350 -215 472 -310 205 -160 393
-347 522 -518 l60 -80 22 -145 c27 -191 46 -366 75 -705 26 -293 33 -326 83
-385 49 -59 58 -60 438 -60 227 0 362 -4 392 -11 60 -16 117 -70 132 -127 23
-85 -30 -177 -114 -201 -26 -7 -172 -11 -410 -11 l-370 0 -1 73 c-3 229 -149
492 -343 621 -134 89 -259 126 -426 126 -141 0 -226 -19 -341 -75 -72 -35
-111 -63 -178 -126 -155 -147 -232 -309 -243 -511 l-6 -108 -1368 0 -1369 0 0
74 c0 337 -261 661 -590 732 -86 18 -278 18 -357 -1 -85 -20 -205 -82 -289
-149 -186 -148 -294 -366 -294 -594 l0 -63 -392 3 c-390 3 -393 3 -430 26 -42
26 -78 92 -78 142 0 56 36 117 88 148 l47 27 380 5 c350 5 382 6 411 24 35 21
89 104 98 151 3 17 17 165 31 330 25 293 52 551 76 708 11 77 13 81 96 187 98
126 321 347 478 473 397 320 865 530 1305 586 91 12 1424 13 1542 1z m-2746
-2483 c107 -55 168 -153 168 -272 1 -91 -16 -142 -64 -203 -59 -75 -131 -107
-240 -107 -73 0 -93 4 -142 28 -61 30 -105 74 -140 140 -19 35 -23 58 -23 132
0 78 4 97 27 141 34 65 112 135 174 157 70 24 176 17 240 -16z m4255 6 c145
-64 216 -244 158 -397 -76 -204 -347 -259 -506 -104 -154 151 -100 420 102
504 74 30 173 29 246 -3z m-4877 -873 c129 -107 292 -162 481 -163 183 -1 316
44 457 152 l73 56 1598 3 1598 3 52 -45 c133 -113 286 -166 484 -166 198 0
321 38 468 146 l80 58 300 1 300 0 0 -205 0 -205 -3275 -3 -3275 -2 -3 205 -3
204 78 4 c43 1 179 4 303 5 l225 1 59 -49z m-293 -1018 c90 -92 222 -229 293
-305 l129 -138 -99 -102 c-54 -56 -181 -185 -280 -286 l-181 -184 -35 21 c-50
31 -116 106 -139 156 -47 106 -52 167 -53 593 l-1 402 90 4 c50 1 95 4 101 5
6 1 85 -74 175 -166z m1029 160 c0 -5 -231 -256 -241 -260 -6 -3 -241 241
-247 256 -1 4 108 8 243 8 135 1 245 -1 245 -4z m1142 -229 c129 -131 267
-271 307 -312 l72 -74 -158 -161 c-220 -224 -494 -505 -517 -529 -18 -19 -23
-15 -372 334 -195 195 -354 358 -354 363 0 6 48 60 108 120 59 61 187 195 285
298 l178 187 92 4 c51 1 99 4 108 5 10 1 114 -97 251 -235z m991 223 c-5 -7
-62 -70 -128 -140 l-119 -127 -133 133 c-73 73 -133 136 -133 139 0 3 117 6
260 7 212 1 259 -2 253 -12z m1159 -228 c299 -310 348 -363 348 -374 0 -5
-159 -168 -353 -362 l-353 -353 -347 352 -347 352 52 56 c29 31 163 169 297
308 l245 252 100 4 c56 1 106 4 113 5 6 1 117 -107 245 -240z m958 234 c0 -5
-233 -257 -240 -260 -8 -3 -250 245 -250 256 0 4 110 7 245 7 135 0 245 -1
245 -3z m907 -409 c-6 -436 -12 -492 -68 -609 -30 -63 -74 -111 -131 -140
l-32 -17 -278 284 c-153 156 -277 287 -275 291 1 3 130 139 286 302 l285 295
100 3 c56 2 105 0 110 -4 5 -3 6 -182 3 -405z m-5245 -709 c84 -85 158 -163
164 -173 12 -16 -6 -17 -334 -17 l-347 0 175 173 c96 95 178 173 182 173 4 0
76 -70 160 -156z m2140 -19 l166 -170 -334 0 c-184 0 -334 2 -334 4 0 8 323
341 329 339 3 -2 81 -79 173 -173z m2131 5 c94 -93 164 -170 156 -171 -64 -4
-669 -4 -669 0 0 6 332 341 339 341 2 0 80 -76 174 -170z M3621 5535 c-81 -23
-147 -63 -202 -123 -89 -97 -124 -197 -117 -326 12 -189 124 -334 301 -388
127 -38 289 -11 389 65 61 47 123 127 149 194 32 81 32 233 1 313 -45 113
-141 209 -249 251 -75 28 -198 35 -272 14z M6410 5539 c-117 -23 -230 -111
-285 -223 -114 -229 -22 -488 212 -599 64 -30 75 -32 178 -32 106 0 113 1 185
36 275 131 332 491 112 701 -113 109 -247 147 -402 117z M4945 5131 c-135 -62
-166 -230 -62 -334 21 -21 54 -45 73 -53 35 -15 35 -15 28 -62 -30 -216 -75
-297 -170 -308 -91 -12 -146 56 -164 201 -19 152 -70 210 -182 209 -75 -1
-126 -34 -159 -101 -33 -67 -34 -229 -1 -317 54 -147 151 -260 276 -322 79
-39 81 -39 195 -39 109 0 120 2 183 32 37 17 87 50 112 73 l46 42 55 -50 c71
-65 144 -93 256 -100 182 -10 340 75 448 241 61 95 84 173 85 292 1 79 -3 107
-18 135 -45 86 -119 129 -195 115 -97 -18 -135 -69 -156 -210 -17 -109 -35
-149 -85 -182 -58 -40 -143 -21 -184 41 -27 43 -55 142 -62 223 l-7 80 26 7
c37 9 94 62 118 107 52 102 -2 237 -113 283 -57 24 -289 22 -343 -3z M8851
8173 c-21 -22 -30 -44 -39 -101 -27 -161 -109 -248 -267 -282 -44 -9 -68 -21
-93 -46 -31 -31 -34 -39 -29 -72 9 -51 52 -89 114 -97 152 -22 249 -117 273
-269 6 -39 16 -82 23 -94 13 -28 56 -52 91 -52 53 0 106 74 106 150 0 39 47
131 88 173 47 49 97 75 179 92 85 18 123 51 123 108 0 59 -37 90 -131 111 -42
9 -97 30 -122 46 -56 35 -112 116 -128 185 -7 28 -16 67 -21 89 -14 56 -48 86
-98 86 -32 0 -48 -6 -69 -27z M1377 8115 c-40 -14 -82 -47 -99 -78 -5 -10 -11
-69 -13 -132 -6 -164 -24 -185 -163 -185 -97 0 -144 -24 -180 -90 -44 -82 -14
-183 69 -229 29 -17 55 -21 123 -21 80 0 88 -2 117 -28 31 -28 32 -31 38 -138
6 -91 11 -116 29 -141 62 -87 209 -82 274 9 19 28 24 49 29 142 5 103 7 110
33 133 24 20 38 23 107 23 109 0 162 27 200 102 35 69 19 140 -45 196 -42 37
-54 40 -158 44 -70 3 -81 6 -105 31 -27 26 -28 33 -33 150 -4 108 -8 126 -29
156 -26 36 -90 71 -131 70 -14 0 -42 -6 -63 -14z"/>
</g>
</svg>
