<?xml version="1.0" standalone="no"?>
<!DOCTYPE svg PUBLIC "-//W3C//DTD SVG 20010904//EN"
 "http://www.w3.org/TR/2001/REC-SVG-20010904/DTD/svg10.dtd">
<svg version="1.0" xmlns="http://www.w3.org/2000/svg"
 width="1024.000000pt" height="1024.000000pt" viewBox="0 0 1024.000000 1024.000000"
 preserveAspectRatio="xMidYMid meet">
<metadata>
Created by potrace 1.16, written by Peter Selinger 2001-2019
</metadata>
<g transform="translate(0.000000,1024.000000) scale(0.100000,-0.100000)"
fill="#000000" stroke="none">
<path d="M2323 9180 c-176 -35 -295 -189 -482 -627 -180 -423 -341 -1021 -389
-1453 l-18 -165 -53 -90 c-270 -466 -432 -942 -502 -1470 -19 -141 -23 -220
-23 -465 -1 -315 9 -429 60 -710 102 -556 334 -1071 690 -1530 157 -203 516
-544 702 -668 36 -24 52 -41 49 -51 -3 -9 -27 -74 -55 -146 -128 -338 -188
-635 -148 -740 32 -82 134 -145 209 -130 55 12 115 53 141 98 13 23 43 114 66
201 39 150 143 460 160 480 5 4 35 -6 68 -24 l60 -33 -29 -106 c-65 -239 -86
-431 -55 -504 18 -44 91 -105 134 -113 71 -14 170 43 191 109 5 18 17 73 26
122 16 90 72 322 81 337 3 4 28 -2 57 -13 350 -139 849 -256 1287 -304 349
-38 804 -38 1140 0 349 40 783 136 1115 247 99 33 186 64 192 70 9 7 16 3 24
-18 17 -47 76 -295 84 -353 12 -104 48 -159 121 -187 103 -39 219 35 239 152
9 61 -10 187 -61 383 -24 96 -43 175 -42 176 25 17 123 63 128 60 21 -13 115
-295 191 -574 27 -100 66 -157 129 -189 95 -47 199 -7 253 98 26 50 28 62 23
125 -12 150 -92 452 -177 671 -21 55 -39 105 -39 110 0 5 13 18 30 27 57 34
236 179 358 290 294 267 544 601 735 983 187 372 317 823 368 1269 17 145 17
609 0 750 -68 585 -232 1076 -524 1575 -27 47 -51 101 -53 120 -19 186 -28
261 -45 360 -94 561 -344 1294 -554 1626 -81 128 -180 201 -303 224 -133 24
-269 -20 -507 -163 -212 -127 -444 -290 -729 -511 -103 -80 -196 -146 -207
-146 -11 0 -88 18 -172 41 -784 209 -1532 208 -2294 -1 -80 -22 -154 -40 -164
-40 -30 0 -52 14 -183 119 -229 184 -415 317 -641 458 -346 216 -503 274 -662
243z m262 -577 c243 -150 560 -392 849 -647 162 -143 179 -155 217 -156 14 0
106 26 205 59 219 72 290 92 468 131 515 115 1021 118 1542 9 169 -35 324 -78
531 -149 81 -27 159 -50 173 -50 43 1 75 22 206 135 310 268 559 462 792 617
117 77 139 88 177 88 38 0 47 -5 74 -37 49 -60 181 -392 266 -673 128 -423
179 -683 200 -1030 l7 -105 86 -130 c258 -386 433 -868 503 -1385 17 -124 17
-579 1 -730 -13 -118 -48 -304 -83 -445 -38 -151 -130 -426 -145 -432 -7 -3
-14 -16 -14 -29 0 -49 -146 -328 -263 -504 -94 -141 -171 -235 -302 -369 -391
-402 -857 -689 -1455 -895 -663 -229 -1452 -295 -2205 -185 -415 61 -749 152
-1105 303 -433 184 -776 406 -1069 691 -505 492 -782 1051 -887 1790 -22 153
-25 636 -6 800 63 523 252 1031 544 1456 l45 66 7 124 c14 237 49 462 112 714
99 395 282 889 359 971 45 47 89 47 170 -3z M3230 5994 c-14 -2 -52 -9 -85
-15 -349 -63 -646 -349 -746 -719 -21 -75 -23 -108 -23 -275 0 -182 1 -194 28
-275 119 -357 377 -600 721 -678 47 -11 115 -16 210 -15 161 0 275 25 410 87
371 172 593 584 546 1015 -25 231 -149 477 -314 627 -109 99 -291 196 -430
230 -62 14 -270 27 -317 18z m475 -278 c61 -30 123 -95 154 -161 26 -56 28
-160 4 -231 -25 -73 -110 -154 -187 -178 -206 -65 -410 79 -410 289 0 144 95
271 229 306 55 15 151 3 210 -25z m364 -512 c26 -21 31 -33 31 -69 0 -54 -33
-85 -89 -85 -43 1 -66 16 -81 54 -16 44 -12 66 19 97 37 37 79 38 120 3z
M6744 5984 c-376 -63 -684 -356 -787 -748 -30 -119 -31 -369 0 -476 109 -381
377 -645 735 -727 99 -22 317 -22 416 0 172 39 316 115 441 233 134 126 225
281 279 472 24 87 27 113 27 262 0 198 -19 289 -95 445 -191 396 -595 610
-1016 539z m511 -268 c107 -53 178 -164 178 -281 1 -120 -59 -215 -175 -277
-62 -33 -204 -33 -266 0 -146 78 -209 220 -163 369 32 107 113 187 216 214 55
15 151 3 210 -25z m389 -512 c19 -20 26 -37 26 -66 0 -53 -13 -74 -53 -87 -57
-19 -108 13 -121 74 -17 83 88 139 148 79z M4965 4587 c-68 -18 -109 -41 -154
-86 -79 -79 -109 -193 -76 -290 21 -64 95 -147 161 -181 46 -24 58 -25 209
-25 152 0 163 1 216 26 123 58 184 146 184 264 -1 48 -7 83 -20 110 -29 60
-124 149 -181 170 -64 23 -268 30 -339 12z M8116 4155 c-312 -33 -304 -31
-344 -71 -33 -33 -34 -37 -30 -94 5 -69 30 -104 85 -119 30 -9 447 24 576 45
44 7 106 62 109 97 4 69 -29 129 -88 153 -40 17 -34 17 -308 -11z M1772 4155
c-51 -37 -70 -131 -37 -181 36 -56 36 -56 428 -94 224 -21 240 -20 289 27 51
49 46 132 -12 188 -27 26 -37 28 -207 46 -98 10 -236 21 -308 25 -112 5 -133
4 -153 -11z M4980 3824 c-63 -32 -241 -206 -298 -291 -40 -60 -45 -109 -18
-161 31 -61 119 -91 179 -61 12 6 72 62 132 125 82 85 117 114 135 114 19 0
52 -28 135 -113 107 -111 155 -147 192 -147 10 0 37 9 60 20 85 38 109 136 55
221 -41 63 -220 238 -288 278 -51 31 -66 35 -143 39 -78 3 -91 1 -141 -24z
M2310 3770 c-63 -15 -186 -44 -273 -64 -184 -42 -219 -55 -243 -91 -26 -39
-24 -123 4 -163 42 -58 78 -60 259 -17 392 92 435 106 476 146 31 31 37 43 37
80 0 53 -28 102 -69 124 -39 19 -53 18 -191 -15z M7730 3789 c-37 -15 -58 -38
-71 -76 -25 -78 19 -153 104 -178 75 -22 557 -135 574 -135 30 0 86 34 104 64
38 63 14 157 -49 190 -28 14 -517 129 -597 140 -22 3 -51 1 -65 -5z M2435
3383 c-121 -68 -293 -180 -322 -209 -28 -28 -33 -39 -33 -81 1 -57 16 -87 56
-114 59 -39 93 -29 286 86 187 111 218 140 218 204 0 66 -55 130 -117 137 -29
4 -50 -2 -88 -23z M7650 3388 c-72 -48 -87 -134 -35 -196 22 -26 248 -173 332
-216 93 -47 203 14 203 112 0 67 -53 112 -305 261 -108 64 -146 72 -195 39z"/>
</g>
</svg>
