<?xml version="1.0" standalone="no"?>
<!DOCTYPE svg PUBLIC "-//W3C//DTD SVG 20010904//EN"
 "http://www.w3.org/TR/2001/REC-SVG-20010904/DTD/svg10.dtd">
<svg version="1.0" xmlns="http://www.w3.org/2000/svg"
 width="1024.000000pt" height="1024.000000pt" viewBox="0 0 1024.000000 1024.000000"
 preserveAspectRatio="xMidYMid meet">
<metadata>
Created by potrace 1.16, written by Peter Selinger 2001-2019
</metadata>
<g transform="translate(0.000000,1024.000000) scale(0.100000,-0.100000)"
fill="#000000" stroke="none">
<path d="M3043 7911 c-164 -56 -243 -179 -342 -528 -76 -268 -119 -618 -108
-883 l4 -125 -68 -112 c-199 -327 -325 -678 -385 -1078 -27 -178 -25 -530 5
-725 89 -593 363 -1117 813 -1556 386 -376 905 -638 1492 -753 784 -154 1587
-49 2246 295 114 60 125 64 137 48 9 -13 10 -21 2 -31 -13 -15 -29 -8 -29 13
0 8 -5 12 -10 9 -6 -4 -8 -11 -5 -16 4 -5 1 -9 -4 -9 -6 0 -11 -6 -11 -13 0
-7 -9 -20 -19 -29 -17 -14 -20 -15 -25 -1 -8 21 -7 25 4 18 6 -3 10 -1 10 5 0
7 -7 9 -16 6 -9 -3 -18 -6 -20 -6 -3 0 -2 -4 1 -10 4 -6 -1 -7 -11 -3 -12 4
-15 3 -10 -5 5 -8 2 -10 -10 -5 -14 5 -15 3 -5 -15 8 -15 8 -22 1 -22 -5 0
-10 7 -10 16 0 11 -5 14 -16 10 -9 -3 -18 -6 -20 -6 -3 0 -3 -3 -1 -7 3 -5 -2
-15 -11 -23 -14 -13 -15 -12 -9 4 5 12 3 16 -5 13 -7 -2 -12 -15 -11 -28 1
-16 0 -18 -4 -6 -3 11 -11 16 -20 13 -8 -3 -26 -9 -39 -12 -27 -7 -30 -14 -12
-32 9 -9 9 -12 0 -12 -7 0 -12 4 -12 10 0 12 -22 9 -72 -10 -23 -8 -38 -20
-37 -30 0 -10 2 -11 6 -2 2 6 9 10 14 6 5 -3 9 0 9 6 0 6 5 8 11 4 8 -4 -1
-14 -22 -25 -33 -16 -65 -15 -38 2 18 11 6 21 -14 13 -13 -5 -14 -10 -6 -26 6
-10 8 -24 6 -31 -3 -7 -9 -1 -15 13 -9 22 -11 22 -12 5 0 -16 -2 -17 -9 -5 -6
8 -7 18 -5 22 3 4 0 8 -5 8 -19 0 -12 -20 14 -45 17 -15 22 -26 15 -30 -14 -9
6 -35 27 -35 8 0 12 -4 8 -10 -3 -5 -12 -7 -19 -4 -11 4 -13 -4 -10 -38 3 -30
1 -39 -6 -28 -5 8 -7 23 -4 33 6 19 -12 24 -19 4 -2 -6 -2 -2 0 10 4 24 -3 28
-26 14 -7 -5 -10 -14 -7 -20 4 -6 0 -11 -9 -11 -12 0 -14 4 -5 19 5 11 15 21
22 24 10 4 11 7 1 18 -11 11 -13 11 -13 -1 0 -12 -2 -13 -9 -1 -7 10 -13 11
-31 1 -15 -8 -20 -8 -16 -1 4 6 3 11 -1 11 -5 0 -18 7 -29 16 -10 8 -14 13 -8
10 7 -3 14 1 18 9 6 17 -2 19 -23 6 -12 -8 -13 -14 -3 -36 7 -14 16 -24 20
-21 5 3 9 -1 9 -8 0 -8 -6 -12 -14 -9 -7 3 -13 9 -13 15 0 5 -5 6 -12 2 -6 -4
-8 -3 -5 4 8 12 -2 42 -14 42 -4 0 -6 -8 -2 -17 5 -17 5 -17 -8 -1 -10 13 -18
15 -29 8 -8 -5 -10 -10 -5 -10 6 0 4 -4 -2 -8 -10 -6 -10 -12 3 -28 8 -10 13
-13 9 -7 -3 7 -2 20 3 29 8 14 10 12 10 -10 0 -33 10 -45 22 -26 7 11 10 8 10
-12 0 -16 5 -28 10 -28 9 0 14 15 11 33 -1 5 3 6 9 2 10 -6 7 -17 -13 -43 -8
-11 -12 -11 -18 0 -6 9 -9 9 -9 1 0 -6 10 -19 22 -27 17 -12 24 -13 30 -3 6 9
10 9 20 -1 9 -9 8 -12 -6 -12 -11 0 -15 -5 -10 -12 6 -10 4 -10 -7 0 -22 20
-34 14 -14 -8 14 -15 21 -17 32 -9 11 9 12 8 7 -5 -8 -21 -19 -20 -43 5 -11
12 -21 16 -25 10 -8 -13 34 -52 48 -44 6 3 2 -3 -9 -14 -12 -11 -27 -23 -35
-26 -8 -3 2 -6 23 -6 27 -1 37 3 37 14 0 8 5 15 11 15 6 0 8 9 4 23 -7 22 -7
22 8 2 9 -11 11 -21 6 -23 -19 -7 -8 -20 19 -20 68 -2 557 59 762 94 140 24
280 57 275 64 -2 4 6 5 19 3 25 -5 219 42 321 77 67 23 135 64 135 82 0 6 -9
2 -20 -10 -24 -25 -80 -56 -80 -44 0 4 5 13 11 19 17 17 3 45 -20 41 -11 -2
-20 2 -20 7 1 6 5 9 10 7 5 -1 9 3 9 9 0 6 7 3 16 -5 8 -9 21 -16 27 -16 6 0
1 7 -11 16 -12 8 -19 20 -16 26 4 6 -8 2 -26 -8 -17 -10 -36 -29 -41 -42 -12
-30 -12 -29 7 -36 12 -4 14 -1 9 14 -4 12 -2 20 5 20 8 0 11 -11 8 -29 -3 -23
-1 -28 11 -23 11 3 13 2 6 -5 -5 -6 -20 -14 -32 -17 -18 -6 -20 -4 -16 14 4
14 1 20 -10 20 -10 0 -20 15 -27 41 -6 23 -14 38 -17 35 -3 -3 -14 -1 -25 5
-14 8 -24 7 -36 -3 -11 -9 -14 -10 -8 0 4 6 2 12 -3 12 -12 0 -15 -23 -4 -33
3 -4 15 0 25 10 12 10 18 12 18 4 0 -7 5 -9 10 -6 6 3 10 1 10 -5 0 -6 5 -8
10 -5 16 10 12 -25 -5 -41 -9 -9 -20 -12 -27 -7 -18 11 -32 10 -40 -2 -5 -6
-8 -5 -8 3 0 7 -4 11 -9 7 -5 -3 -12 -1 -16 5 -3 5 -2 10 4 10 6 0 8 6 5 14
-3 8 -12 12 -20 9 -8 -3 -14 0 -14 7 0 6 5 8 10 5 6 -3 10 -1 10 5 0 6 5 8 10
5 6 -3 10 -1 10 4 0 6 -4 11 -10 11 -5 0 -7 8 -4 18 4 13 2 12 -7 -3 -7 -11
-21 -26 -31 -33 -10 -7 -16 -17 -13 -22 3 -5 -4 -14 -15 -20 -11 -6 -20 -7
-20 -3 0 4 -15 -8 -34 -26 -27 -26 -34 -29 -32 -15 2 11 -1 22 -6 25 -5 3 -2
9 7 12 9 4 13 3 10 -3 -3 -6 1 -10 10 -10 8 0 18 7 22 16 3 8 12 13 19 10 7
-3 16 -1 19 4 3 4 -1 11 -7 13 -8 3 -6 6 5 6 10 1 16 5 12 10 -3 6 3 14 12 20
10 5 15 13 11 17 -4 4 -14 1 -22 -5 -8 -7 -21 -9 -27 -5 -9 5 -10 2 -6 -10 4
-11 3 -15 -4 -11 -6 4 -8 13 -5 20 2 7 0 17 -6 23 -6 6 -8 22 -4 37 4 15 10
25 13 21 4 -3 17 1 29 9 15 10 25 11 29 4 4 -6 14 -8 22 -5 9 4 13 1 11 -6 -3
-8 -22 -13 -46 -14 -23 0 -45 -3 -49 -7 -3 -4 -1 -7 5 -7 6 0 9 -7 6 -15 -4
-9 1 -18 10 -21 22 -9 32 2 17 20 -9 11 -8 15 4 20 9 3 14 2 11 -2 -2 -4 -1
-14 5 -22 7 -12 9 -11 10 5 0 11 3 14 6 8 7 -20 23 -15 16 5 -5 14 -3 13 10
-3 15 -18 16 -18 17 -2 0 9 -4 17 -10 17 -5 0 -7 7 -3 16 5 14 8 14 22 -5 11
-14 20 -18 30 -12 7 5 10 14 7 20 -8 12 7 14 42 4 15 -4 19 -8 12 -13 -8 -5
-4 -9 9 -13 12 -3 19 -1 15 4 -3 5 2 9 11 9 10 0 13 -5 9 -12 -5 -8 -2 -9 10
-5 9 4 14 3 11 -2 -3 -5 4 -12 15 -16 11 -3 20 -11 20 -16 0 -6 -5 -7 -12 -3
-7 4 -8 3 -4 -5 6 -9 11 -9 23 0 12 11 11 14 -9 26 l-23 14 25 -7 c43 -11 75
-30 72 -43 -1 -7 2 -10 7 -7 5 4 17 -4 25 -16 9 -12 16 -18 16 -12 0 20 -54
66 -100 86 -56 24 -240 72 -248 64 -3 -3 3 -6 14 -7 18 0 18 -1 -1 -9 -30 -13
-34 -12 -28 8 4 16 -8 21 -96 36 -55 10 -104 15 -110 12 -5 -3 -11 -2 -13 4
-1 5 -30 11 -63 12 -33 2 -62 6 -65 9 -9 11 -100 19 -100 9 0 -5 12 -13 26
-16 18 -5 22 -10 15 -17 -17 -17 -13 -31 4 -17 8 7 30 14 48 16 23 3 28 1 17
-6 -8 -5 -12 -10 -10 -12 38 -24 50 -27 50 -13 0 8 -4 15 -10 15 -5 0 -10 5
-10 11 0 8 4 8 14 0 11 -9 15 -9 18 1 3 9 6 9 12 0 4 -7 2 -12 -3 -12 -6 0
-11 -7 -11 -15 0 -8 7 -15 16 -15 12 0 14 -3 6 -12 -8 -10 -4 -13 14 -14 13
-1 24 2 24 7 0 5 5 9 11 9 5 0 7 -4 4 -10 -3 -5 -1 -10 5 -10 7 0 10 6 7 14
-4 10 0 12 15 8 14 -3 19 -1 14 6 -4 7 5 10 28 8 22 -2 34 0 32 8 -2 6 -1 8 1
4 3 -5 17 -6 31 -3 25 5 25 5 5 -4 -25 -11 -31 -23 -10 -20 6 1 21 1 32 0 16
-1 17 -3 5 -11 -9 -6 -17 -5 -22 3 -6 9 -8 9 -8 0 0 -7 -7 -10 -17 -7 -15 5
-16 4 -3 -6 13 -9 12 -11 -5 -8 -26 5 -58 -35 -50 -61 3 -11 0 -23 -6 -27 -7
-4 -10 -3 -7 2 3 5 2 18 -2 29 -7 19 -8 18 -20 -6 l-12 -27 -34 20 c-41 24
-42 27 -9 20 14 -2 25 -8 25 -13 0 -5 5 -9 11 -9 5 0 7 4 4 10 -3 6 -1 10 4
10 6 0 11 5 11 12 0 6 -3 9 -6 5 -4 -3 -14 3 -23 13 -9 11 -26 21 -39 23 -13
2 -27 9 -32 16 -5 8 -16 11 -31 6 -19 -5 -21 -4 -9 4 8 6 13 11 10 12 -3 0
-12 2 -21 4 -12 2 -16 -5 -15 -29 0 -17 5 -34 9 -37 5 -3 1 -9 -8 -13 -14 -5
-16 -2 -12 15 4 13 -2 28 -15 41 l-21 21 21 8 c12 5 22 14 22 21 0 10 -2 10
-9 -1 -5 -7 -14 -10 -20 -7 -10 6 -15 -6 -12 -26 0 -5 -4 -8 -10 -8 -5 0 -8
-4 -5 -9 3 -5 -1 -14 -8 -20 -10 -8 -16 -9 -21 -1 -3 5 2 10 11 10 19 0 11 13
-10 16 -8 1 -17 -7 -20 -19 -4 -16 -8 -18 -19 -9 -8 7 -16 9 -19 6 -3 -2 -5 7
-5 21 0 15 4 24 11 22 6 -2 9 -12 8 -22 -3 -16 -1 -17 12 -6 9 8 16 22 16 33
0 19 1 19 21 -3 18 -21 20 -21 14 -4 -4 11 -7 28 -7 38 0 9 -3 15 -7 13 -5 -3
-13 5 -19 18 -17 39 -121 40 -106 1 4 -9 1 -15 -7 -15 -11 0 -11 -3 1 -10 8
-5 10 -10 4 -10 -6 0 -19 9 -28 19 -17 18 -16 20 8 33 59 32 278 187 353 250
181 153 396 391 523 578 67 99 177 298 225 408 104 237 188 546 215 794 13
125 13 459 0 568 -48 385 -186 783 -391 1124 l-71 120 1 200 c1 124 -4 249
-13 326 -27 221 -105 558 -171 729 -90 237 -244 330 -483 291 -196 -31 -528
-151 -804 -291 l-158 -80 -88 25 c-251 72 -522 108 -822 109 -307 1 -492 -21
-786 -94 l-162 -40 -63 37 c-209 123 -615 282 -837 330 -93 19 -215 17 -279
-5z m4047 -546 c0 -5 -5 -3 -10 5 -5 8 -10 20 -10 25 0 6 5 3 10 -5 5 -8 10
-19 10 -25z m-180 15 c-8 -5 -19 -10 -25 -10 -5 0 -3 5 5 10 8 5 20 10 25 10
6 0 3 -5 -5 -10z m187 -52 c-3 -8 -6 -5 -6 6 -1 11 2 17 5 13 3 -3 4 -12 1
-19z m-367 -28 c-12 -12 -26 -18 -32 -14 -7 4 -2 12 13 20 35 19 42 17 19 -6z
m-1240 -115 c168 -22 513 -106 498 -120 -2 -3 -28 3 -57 12 -73 24 -103 2 -87
-64 5 -18 22 -31 63 -49 31 -14 62 -23 70 -20 8 3 11 2 8 -4 -8 -12 61 -44 76
-34 7 4 9 3 6 -3 -4 -6 18 -23 51 -39 73 -36 190 -102 220 -125 19 -15 27 -16
42 -6 11 6 17 13 15 16 -3 2 -11 -2 -20 -9 -12 -10 -15 -10 -15 4 0 9 8 16 18
16 14 0 14 2 3 9 -10 7 -19 4 -28 -7 -12 -16 -14 -16 -26 0 -8 10 -18 14 -22
10 -5 -4 -5 1 -2 11 4 10 7 25 7 33 0 8 5 14 11 14 6 0 9 -6 6 -14 -3 -8 0
-22 7 -31 12 -17 13 -17 19 -1 4 10 3 15 -3 11 -6 -3 -10 -1 -10 4 0 6 5 11
12 11 6 0 3 9 -7 20 -17 18 -17 20 -2 14 9 -3 17 -10 17 -16 0 -5 4 -7 9 -4 5
4 7 -3 4 -15 -4 -15 0 -22 16 -26 11 -3 19 -9 16 -13 -11 -18 8 -41 29 -35 18
5 19 4 6 -7 -22 -19 -18 -44 12 -67 31 -25 39 -26 32 -6 -4 8 -2 15 4 15 5 0
9 -9 8 -19 -1 -12 21 -36 59 -65 138 -107 351 -338 467 -506 145 -211 260
-486 302 -723 26 -145 30 -189 30 -364 1 -192 -1 -196 -60 -90 -25 46 -30 65
-34 159 -5 115 -15 138 -74 182 -33 25 -109 28 -150 7 -52 -28 -70 -75 -76
-191 -6 -122 -24 -166 -98 -243 -54 -56 -89 -77 -129 -77 -51 0 -107 -22 -139
-54 -42 -42 -52 -92 -29 -152 22 -57 70 -90 147 -99 133 -15 248 -150 248
-290 0 -71 14 -125 39 -156 18 -23 18 -24 -16 -69 -81 -107 -249 -289 -263
-285 -8 2 -82 26 -165 54 -411 140 -894 221 -1145 192 -279 -31 -500 -127
-672 -290 -132 -124 -193 -225 -243 -396 -27 -94 -17 -91 -179 -43 -259 76
-612 260 -758 394 l-46 43 36 53 c27 39 51 60 92 80 65 31 90 59 90 100 0 47
-29 85 -90 117 -68 36 -82 52 -110 116 -26 63 -54 84 -105 85 -52 0 -82 -22
-106 -77 -31 -72 -56 -100 -114 -127 -29 -15 -57 -31 -60 -36 -4 -6 -16 3 -28
20 -12 17 -59 81 -104 143 -45 62 -97 140 -117 175 l-35 62 233 0 c225 0 234
1 266 23 46 31 71 67 76 113 7 54 -29 122 -82 151 -37 22 -50 23 -260 23 -122
0 -236 -3 -254 -6 -17 -4 -47 -21 -65 -38 l-33 -32 -6 26 c-11 57 -67 253 -76
271 -10 18 -21 23 -47 20 -16 -2 -16 34 -2 194 35 409 208 837 482 1190 88
114 325 348 442 436 112 85 304 203 440 272 110 55 327 137 455 171 114 31
354 73 482 86 126 12 437 4 578 -15z m-2180 -89 c0 -2 -8 -10 -17 -17 -16 -13
-17 -12 -4 4 13 16 21 21 21 13z m2776 -66 c28 -10 64 -25 80 -34 l29 -16 -35
3 c-19 1 -42 9 -50 17 -8 9 -34 22 -58 30 -24 7 -46 18 -49 23 -4 7 1 7 13 3
10 -5 42 -16 70 -26z m232 -100 c402 -193 796 -533 1014 -875 62 -98 63 -99
51 -92 -6 4 -29 37 -51 75 -43 73 -196 266 -274 346 -29 29 -52 45 -59 40 -8
-5 -9 -3 -4 6 5 8 0 19 -13 29 -33 26 -102 85 -127 108 -16 14 -32 19 -46 16
-15 -4 -20 -3 -15 5 4 7 2 12 -3 12 -6 0 -11 7 -11 16 0 8 -4 13 -9 10 -4 -3
-17 1 -27 9 -19 15 -19 15 0 8 12 -4 17 -3 13 4 -10 16 -47 23 -48 10 -1 -7
-4 -1 -8 13 -4 15 -14 24 -24 24 -9 -1 -14 3 -10 9 4 6 0 8 -10 4 -10 -4 -16
-2 -14 6 1 7 -4 11 -11 9 -8 -1 -11 2 -8 7 6 10 -22 25 -41 22 -6 -1 -15 4
-19 10 -5 8 -3 10 7 4 12 -7 12 -5 1 6 -11 12 -14 12 -22 -1 -8 -13 -10 -12
-10 3 0 9 -3 16 -7 16 -19 -3 -33 2 -33 12 0 5 5 7 12 3 7 -5 8 -3 4 5 -5 7
-14 10 -22 7 -8 -3 -14 -1 -14 4 0 6 -9 6 -25 0 -24 -9 -25 -8 -19 15 7 28
-12 35 -35 13 -10 -11 -11 -9 -5 7 7 18 6 19 -11 5 -11 -9 -16 -10 -11 -2 4 6
2 12 -3 12 -6 0 -11 -5 -11 -12 0 -6 -2 -9 -5 -6 -10 10 7 38 19 31 7 -3 6 -1
-1 7 -11 12 -15 11 -27 -6 -14 -18 -15 -18 -9 5 4 18 3 22 -6 17 -7 -5 -19 0
-27 10 -9 11 -13 13 -9 7 3 -7 1 -13 -4 -13 -6 0 -11 7 -11 15 0 8 -5 15 -11
15 -5 0 -8 -4 -5 -8 2 -4 -4 -8 -14 -8 -11 0 -16 5 -12 15 3 9 1 12 -6 7 -7
-4 -12 -2 -12 5 0 9 -3 9 -14 0 -12 -10 -13 -8 -9 8 3 12 8 21 12 21 3 0 52
-23 109 -50z m-3193 10 c-10 -11 -21 -17 -24 -14 -3 3 3 12 13 20 28 20 32 17
11 -6z m3036 -3 c-10 -9 -11 -8 -5 6 3 10 9 15 12 12 3 -3 0 -11 -7 -18z
m-121 -7 c0 -5 -4 -10 -10 -10 -5 0 -10 5 -10 10 0 6 5 10 10 10 6 0 10 -4 10
-10z m85 1 c3 -5 0 -13 -6 -17 -7 -4 -9 -3 -5 4 3 5 0 13 -6 15 -9 4 -10 6 -1
6 6 1 14 -3 18 -8z m-30 -21 c3 -5 1 -10 -4 -10 -6 0 -11 5 -11 10 0 6 2 10 4
10 3 0 8 -4 11 -10z m101 -4 c18 -19 18 -26 -1 -26 -23 0 -18 -20 7 -29 13 -5
17 -10 11 -14 -6 -4 -18 0 -26 8 -9 8 -22 15 -29 15 -8 0 -7 4 5 11 9 5 17 18
17 27 0 15 -2 15 -10 2 -5 -8 -10 -10 -10 -4 0 11 10 24 17 24 3 0 11 -6 19
-14z m54 -21 c14 -18 13 -19 -1 -8 -9 7 -19 10 -23 6 -4 -4 -4 1 0 10 3 10 7
17 8 15 1 -2 8 -12 16 -23z m-105 6 c3 -5 1 -12 -5 -16 -5 -3 -10 -2 -10 4 0
6 -8 8 -17 5 -15 -5 -16 -4 -3 5 19 13 27 14 35 2z m128 -41 c-3 -12 -8 -19
-11 -16 -5 6 5 36 12 36 2 0 2 -9 -1 -20z m157 -10 c0 -5 -5 -10 -11 -10 -5 0
-7 5 -4 10 3 6 8 10 11 10 2 0 4 -4 4 -10z m-162 -26 c34 -3 36 -4 25 -15 -12
-12 -53 4 -53 22 0 6 -5 7 -12 3 -7 -5 -8 -3 -3 6 7 11 10 10 19 -1 6 -8 17
-14 24 -15z m127 -14 c3 -5 1 -10 -4 -10 -6 0 -11 5 -11 10 0 6 2 10 4 10 3 0
8 -4 11 -10z m85 -10 c0 -5 -5 -10 -11 -10 -5 0 -7 5 -4 10 3 6 8 10 11 10 2
0 4 -4 4 -10z m35 -28 c-3 -3 -11 0 -18 7 -9 10 -8 11 6 5 10 -3 15 -9 12 -12z
m-29 -12 c5 1 10 -4 12 -12 3 -11 2 -11 -6 0 -5 8 -13 13 -18 12 -5 -1 -10 4
-12 12 -3 11 -2 11 6 0 5 -8 13 -13 18 -12z m54 -19 c0 -6 -4 -12 -8 -15 -5
-3 -9 1 -9 9 0 8 4 15 9 15 4 0 8 -4 8 -9z m-44 -16 c17 6 18 6 1 -5 -19 -12
-37 -6 -37 13 0 9 3 8 8 -1 5 -7 17 -10 28 -7z m136 -62 c-6 -2 -10 -9 -6 -14
3 -5 0 -9 -5 -9 -12 0 -14 13 -4 23 3 4 11 7 17 6 6 0 5 -3 -2 -6z m-102 -7
c0 -3 -4 -8 -10 -11 -5 -3 -10 -1 -10 4 0 6 5 11 10 11 6 0 10 -2 10 -4z m50
-36 c0 -5 -2 -10 -4 -10 -3 0 -8 5 -11 10 -3 6 -1 10 4 10 6 0 11 -4 11 -10z
m125 1 c3 -6 -3 -9 -14 -8 -11 0 -17 5 -15 9 7 11 22 10 29 -1z m-112 -26 c-3
-9 -8 -14 -10 -11 -3 3 -2 9 2 15 9 16 15 13 8 -4z m109 -29 c7 4 8 2 4 -5 -5
-8 -12 -9 -19 -2 -7 5 -16 9 -20 9 -5 0 -12 4 -15 8 -4 4 -1 4 6 0 7 -4 12 -2
12 6 0 8 5 6 11 -5 6 -9 15 -14 21 -11z m121 -1 c-3 -9 -8 -14 -10 -11 -3 3
-2 9 2 15 9 16 15 13 8 -4z m-38 -34 c-6 -5 -25 10 -25 20 0 5 6 4 14 -3 8 -7
12 -15 11 -17z m75 -6 c0 -2 -6 -5 -13 -8 -8 -3 -14 1 -14 8 0 7 6 11 14 8 7
-3 13 -6 13 -8z m-66 -13 c3 -5 -1 -9 -9 -9 -8 0 -12 4 -9 9 3 4 7 8 9 8 2 0
6 -4 9 -8z m97 -29 c13 -16 12 -17 -3 -4 -10 7 -18 15 -18 17 0 8 8 3 21 -13z
m-64 -28 c-1 -13 -6 -27 -10 -30 -4 -3 -5 -2 -2 1 2 4 0 16 -6 27 -8 14 -8 18
0 13 6 -4 11 -2 11 3 0 6 2 11 5 11 3 0 4 -11 2 -25z m80 -77 c-3 -8 -6 -5 -6
6 -1 11 2 17 5 13 3 -3 4 -12 1 -19z m-57 8 c0 -2 -7 -7 -16 -10 -8 -3 -12 -2
-9 4 6 10 25 14 25 6z m44 -35 c3 -5 -1 -14 -8 -20 -12 -10 -14 -9 -11 6 2 10
4 19 4 21 2 5 10 2 15 -7z m124 -13 c-2 -6 -12 -12 -22 -14 -14 -2 -15 0 -5
12 14 17 32 19 27 2z m172 -128 c0 -5 -5 -10 -11 -10 -5 0 -7 5 -4 10 3 6 8
10 11 10 2 0 4 -4 4 -10z m-30 -14 c0 -3 -4 -8 -10 -11 -5 -3 -10 -1 -10 4 0
6 5 11 10 11 6 0 10 -2 10 -4z m269 -293 c17 -31 29 -58 27 -60 -1 -2 -17 24
-35 57 -18 33 -30 60 -27 60 2 0 18 -26 35 -57z m76 -149 c48 -105 44 -117 -5
-15 -41 85 -44 91 -35 91 3 0 21 -34 40 -76z m72 -196 c-3 -8 -6 -5 -6 6 -1
11 2 17 5 13 3 -3 4 -12 1 -19z m20 -60 c-3 -8 -6 -5 -6 6 -1 11 2 17 5 13 3
-3 4 -12 1 -19z m40 -130 c-3 -8 -6 -5 -6 6 -1 11 2 17 5 13 3 -3 4 -12 1 -19z
m40 -200 c-3 -8 -6 -5 -6 6 -1 11 2 17 5 13 3 -3 4 -12 1 -19z m-139 -415
c-10 -2 -28 -2 -40 0 -13 2 -5 4 17 4 22 1 32 -1 23 -4z m132 -243 c-6 -12
-14 -20 -17 -17 -2 3 1 14 8 26 17 26 24 19 9 -9z m-1920 -1140 c74 -11 160
-26 190 -34 l55 -13 -76 -36 c-192 -91 -502 -167 -744 -182 -55 -3 -121 -8
-147 -10 -27 -2 -48 -1 -48 3 0 19 62 101 109 145 141 131 355 172 661 127z
m1216 -856 c-5 -18 -3 -24 5 -18 8 5 9 3 5 -5 -5 -7 -14 -10 -20 -8 -12 5 -42
-31 -38 -45 1 -4 -5 -5 -13 -2 -8 4 -15 1 -15 -6 0 -6 -5 -8 -10 -5 -6 4 -17
1 -25 -5 -9 -8 -15 -8 -15 -2 0 6 6 13 13 15 7 3 4 6 -6 6 -10 1 -15 6 -12 11
4 7 13 7 26 0 24 -14 44 -4 30 14 -6 7 -7 16 -3 20 4 4 7 13 7 19 0 5 6 12 13
15 11 3 12 0 3 -16 -14 -26 -14 -42 0 -42 5 0 8 4 4 9 -3 6 3 15 14 20 11 6
23 20 26 31 9 29 18 24 11 -6z m229 -44 c-3 -5 -1 -10 4 -10 6 0 11 4 11 8 0
4 9 8 20 8 27 0 25 -10 -3 -23 -17 -8 -28 -7 -40 2 -9 6 -14 15 -10 18 10 11
25 8 18 -3z m-225 -10 c0 -5 -2 -10 -4 -10 -3 0 -8 5 -11 10 -3 6 -1 10 4 10
6 0 11 -4 11 -10z m-163 -7 c-4 -3 1 -12 11 -20 16 -13 16 -14 -3 -11 -21 3
-34 38 -14 38 7 0 9 -3 6 -7z m623 -2 c0 -5 -9 -7 -20 -4 -11 3 -20 7 -20 9 0
2 9 4 20 4 11 0 20 -4 20 -9z m77 -33 c2 -18 0 -20 -7 -8 -12 18 -13 30 -2 30
4 0 9 -10 9 -22z m-372 2 c-3 -5 0 -10 7 -11 10 0 10 -2 1 -6 -7 -2 -13 -10
-13 -16 0 -7 -10 -18 -22 -26 -23 -14 -23 -14 -5 7 10 11 20 29 22 39 5 24 4
23 11 23 3 0 2 -4 -1 -10z m-225 -10 c0 -5 -5 -10 -11 -10 -5 0 -7 5 -4 10 3
6 8 10 11 10 2 0 4 -4 4 -10z m133 -7 c-4 -11 -3 -14 5 -9 8 5 10 2 6 -9 -5
-11 -10 -13 -17 -6 -9 9 -4 41 7 41 3 0 2 -7 -1 -17z m-253 1 c0 -8 -19 -13
-24 -6 -3 5 1 9 9 9 8 0 15 -2 15 -3z m53 -14 c9 -11 13 -20 7 -20 -5 0 -13 8
-19 18 -8 14 -12 15 -23 4 -11 -11 -10 -16 6 -28 11 -8 15 -14 9 -14 -6 0 -16
7 -23 15 -10 12 -10 18 0 30 16 20 22 19 43 -5z m78 -13 c1 4 1 11 1 14 -2 12
27 5 32 -7 3 -9 -1 -11 -11 -7 -11 4 -14 2 -11 -8 3 -8 11 -13 17 -11 6 1 11
-3 11 -9 0 -6 8 -18 18 -27 10 -10 16 -16 13 -15 -2 2 -11 -3 -20 -10 -14 -10
-14 -10 -4 3 10 14 7 16 -28 16 -33 0 -38 -2 -33 -18 10 -31 -3 -20 -23 21
-13 26 -17 45 -11 55 6 10 5 16 -2 16 -5 0 -10 5 -10 11 0 6 14 1 30 -11 17
-12 31 -18 31 -13z m83 17 c9 -3 16 -14 16 -23 -1 -14 -2 -14 -11 2 -8 14 -14
16 -25 6 -14 -11 -20 1 -7 14 8 8 8 8 27 1z m176 2 c0 -3 -4 -8 -10 -11 -5 -3
-10 -1 -10 4 0 6 5 11 10 11 6 0 10 -2 10 -4z m38 -14 c2 -7 -3 -12 -12 -12
-9 0 -16 7 -16 16 0 17 22 14 28 -4z m122 3 c0 -8 -8 -15 -17 -15 -15 0 -16
-2 -3 -9 8 -6 17 -8 21 -5 4 2 10 0 13 -5 4 -5 2 -12 -3 -16 -6 -3 -8 -13 -5
-23 5 -14 4 -15 -5 -2 -7 10 -11 11 -11 3 0 -7 -5 -13 -12 -13 -6 0 -3 9 7 20
17 19 13 24 -15 22 -3 0 -7 11 -8 25 -1 19 2 24 14 19 8 -3 12 -2 9 4 -3 6 -1
10 4 10 6 0 11 -7 11 -15z m-703 -27 c-3 -8 -6 -5 -6 6 -1 11 2 17 5 13 3 -3
4 -12 1 -19z m131 8 c-10 -7 -15 -16 -11 -19 3 -4 1 -7 -5 -7 -7 0 -12 6 -12
13 0 8 -4 7 -11 -3 -9 -13 -10 -13 -7 0 3 8 15 17 29 21 35 10 36 10 17 -5z
m373 -10 c-12 -7 -19 -14 -16 -17 3 -3 -2 -6 -11 -6 -11 0 -9 6 8 22 13 13 27
20 32 17 5 -3 -1 -10 -13 -16z m-431 -1 c0 -12 -19 -12 -23 0 -4 9 -1 12 9 8
7 -3 14 -7 14 -8z m98 -26 c11 0 12 -2 5 -6 -7 -2 -13 -9 -13 -14 0 -4 6 -7
13 -5 6 1 9 1 4 -1 -4 -3 -4 -10 0 -16 4 -7 0 -7 -9 1 -14 11 -18 10 -27 -5
-6 -10 -11 -13 -11 -6 0 6 5 15 11 18 5 4 8 19 6 33 -2 15 -2 21 0 15 3 -7 12
-13 21 -14z m38 16 c-3 -8 0 -15 6 -15 6 0 9 -3 5 -6 -10 -11 -26 6 -20 21 3
8 7 15 10 15 3 0 3 -7 -1 -15z m154 5 c0 -5 -5 -10 -11 -10 -5 0 -7 5 -4 10 3
6 8 10 11 10 2 0 4 -4 4 -10z m-320 -14 c6 -8 19 -12 28 -9 14 4 14 3 3 -5
-10 -7 -21 -6 -38 5 -24 16 -29 23 -14 23 5 0 14 -6 21 -14z m389 -11 c-10
-10 -18 -11 -29 -4 -13 9 -13 10 2 6 9 -4 19 1 22 10 4 9 9 13 13 9 4 -3 0
-13 -8 -21z m121 3 c0 -5 -10 -6 -21 -3 -14 5 -19 3 -15 -3 3 -6 2 -13 -2 -16
-7 -4 -10 33 -3 41 4 5 41 -11 41 -19z m-613 6 c-3 -3 -12 -4 -19 -1 -8 3 -5
6 6 6 11 1 17 -2 13 -5z m443 -4 c0 -5 -5 -10 -11 -10 -5 0 -7 5 -4 10 3 6 8
10 11 10 2 0 4 -4 4 -10z m-550 -25 c0 -8 4 -15 9 -15 5 0 11 -7 14 -14 4 -10
1 -13 -7 -10 -17 6 -39 54 -26 54 6 0 10 -7 10 -15z m279 1 c9 -10 7 -17 -6
-27 -16 -13 -17 -12 -5 3 8 9 9 19 4 22 -14 8 -35 -21 -26 -35 4 -7 3 -9 -3
-6 -6 4 -13 -2 -16 -12 -3 -12 1 -22 10 -25 11 -5 13 -2 9 9 -3 10 -2 13 5 10
16 -11 5 -28 -19 -30 -12 -1 -20 1 -17 3 3 3 -1 12 -8 20 -9 13 -9 14 1 8 12
-7 17 11 12 44 -1 8 1 12 5 8 4 -4 14 -1 22 7 18 18 18 18 32 1z m378 -8 c0
-13 -1 -17 -4 -10 -3 6 -8 10 -12 8 -4 -3 -13 0 -21 6 -12 8 -12 9 2 4 10 -3
20 -1 23 4 9 14 11 12 12 -12z m85 14 c-6 -5 -19 -17 -27 -28 -15 -19 -15 -19
-8 1 7 21 22 35 38 35 6 0 4 -4 -3 -8z m84 -12 c0 -12 -4 -16 -9 -11 -5 5 -6
14 -3 20 10 15 12 14 12 -9z m-56 0 c0 -5 -8 -10 -17 -10 -15 0 -16 2 -3 10
19 12 20 12 20 0z m-697 -15 c4 -8 2 -17 -3 -20 -6 -4 -10 3 -10 14 0 25 6 27
13 6z m742 -24 c-2 -2 -11 3 -19 12 -8 8 -12 17 -9 21 3 3 12 -2 19 -12 7 -9
11 -19 9 -21z m-287 4 c-3 -3 -9 2 -12 12 -6 14 -5 15 5 6 7 -7 10 -15 7 -18z
m74 13 c-7 -7 -16 -7 -28 0 -14 8 -13 10 10 10 18 0 24 -4 18 -10z m-622 -9
c0 -5 -4 -7 -10 -4 -5 3 -10 -2 -10 -11 0 -10 -3 -15 -6 -11 -9 9 3 37 16 37
5 0 10 -5 10 -11z m125 1 c-3 -5 -1 -10 4 -10 6 0 11 -5 11 -11 0 -8 -5 -8
-15 1 -13 11 -12 30 1 30 3 0 2 -4 -1 -10z m93 -2 c-2 -6 -12 -12 -21 -14 -9
-1 -15 2 -11 7 3 5 10 7 15 4 5 -4 9 -1 9 4 0 6 3 11 6 11 3 0 4 -5 2 -12z
m169 -3 c0 -8 -4 -12 -9 -9 -5 3 -6 10 -3 15 9 13 12 11 12 -6z m266 8 c-26
-10 -12 -22 13 -12 15 5 29 7 32 4 3 -3 0 -5 -6 -5 -7 0 -12 -7 -12 -15 0 -8
-5 -15 -11 -15 -5 0 -7 5 -4 11 4 6 1 10 -6 8 -34 -4 -42 0 -29 16 7 8 18 15
24 14 7 0 6 -2 -1 -6z m587 -3 c-13 -8 -13 -10 0 -10 11 0 11 -3 2 -12 -6 -6
-15 -9 -18 -5 -10 10 4 37 18 37 9 0 8 -3 -2 -10z m-760 -4 c0 -2 -8 -10 -17
-17 -16 -13 -17 -12 -4 4 13 16 21 21 21 13z m-108 -25 c11 -10 8 -10 -13 -2
-15 5 -29 7 -32 5 -3 -3 -8 -1 -11 4 -8 14 42 8 56 -7z m428 5 c-7 -7 -14 -6
-21 1 -9 9 -7 12 9 10 14 -1 18 -5 12 -11z m-775 -6 c-3 -5 -12 -10 -18 -10
-7 0 -6 4 3 10 19 12 23 12 15 0z m933 -15 c-3 -3 -9 2 -12 12 -6 14 -5 15 5
6 7 -7 10 -15 7 -18z m184 5 c-2 -8 3 -10 13 -6 13 4 14 2 5 -14 -6 -11 -13
-20 -16 -20 -3 0 -2 5 1 10 3 6 1 10 -5 10 -7 0 -10 7 -6 18 4 10 -2 7 -13 -8
-19 -24 -25 -10 -7 18 10 16 32 9 28 -8z m-574 -15 c-3 -3 -9 2 -12 12 -6 14
-5 15 5 6 7 -7 10 -15 7 -18z m57 15 c-3 -5 -12 -10 -18 -10 -7 0 -6 4 3 10
19 12 23 12 15 0z m125 0 c0 -5 -5 -10 -11 -10 -5 0 -7 5 -4 10 3 6 8 10 11
10 2 0 4 -4 4 -10z m78 -15 c-3 -3 -9 2 -12 12 -6 14 -5 15 5 6 7 -7 10 -15 7
-18z m250 13 c0 -7 4 -24 8 -37 5 -17 4 -22 -5 -17 -6 4 -9 12 -6 17 8 12 -2
12 -25 -1 -13 -7 -21 -6 -30 5 -6 7 -17 12 -25 9 -7 -3 -15 -1 -19 4 -8 13 30
8 48 -7 13 -11 17 -9 27 13 13 28 25 34 27 14z m-948 -2 c0 -2 -8 -10 -17 -17
-16 -13 -17 -12 -4 4 13 16 21 21 21 13z m87 -21 c-4 -8 -12 -15 -19 -15 -9 0
-8 3 2 10 8 5 11 10 7 10 -5 0 -5 5 -2 11 10 15 19 3 12 -16z m118 15 c3 -6
-1 -7 -9 -4 -18 7 -21 14 -7 14 6 0 13 -4 16 -10z m156 -13 c-10 -9 -11 -8 -5
6 3 10 9 15 12 12 3 -3 0 -11 -7 -18z m163 7 c3 -8 2 -12 -4 -9 -6 3 -10 10
-10 16 0 14 7 11 14 -7z m277 -1 c13 -16 12 -17 -3 -4 -10 7 -18 15 -18 17 0
8 8 3 21 -13z m-960 -21 c-6 -2 -8 -9 -5 -14 4 -7 2 -8 -4 -4 -9 5 -8 12 1 27
7 12 13 15 16 7 2 -7 -1 -14 -8 -16z m69 13 c0 -8 -4 -15 -10 -15 -5 0 -7 7
-4 15 4 8 8 15 10 15 2 0 4 -7 4 -15z m28 -10 c-3 -3 -9 2 -12 12 -6 14 -5 15
5 6 7 -7 10 -15 7 -18z m355 3 c5 1 6 -2 2 -8 -4 -6 -15 -4 -30 6 -21 14 -24
14 -34 -3 -6 -10 -11 -13 -11 -7 0 22 22 34 44 21 12 -6 25 -10 29 -9z m40 2
c-3 -12 -8 -19 -11 -16 -5 6 5 36 12 36 2 0 2 -9 -1 -20z m-523 2 c0 -13 -12
-22 -22 -16 -10 6 -1 24 13 24 5 0 9 -4 9 -8z m70 4 c0 -3 -4 -8 -10 -11 -5
-3 -10 -1 -10 4 0 6 5 11 10 11 6 0 10 -2 10 -4z m305 -6 c3 -6 -1 -7 -9 -4
-18 7 -21 14 -7 14 6 0 13 -4 16 -10z m305 6 c0 -2 -7 -7 -16 -10 -8 -3 -12
-2 -9 4 6 10 25 14 25 6z m270 -16 c0 -5 -5 -10 -11 -10 -5 0 -7 5 -4 10 3 6
8 10 11 10 2 0 4 -4 4 -10z m30 0 c0 -5 -2 -10 -4 -10 -3 0 -8 5 -11 10 -3 6
-1 10 4 10 6 0 11 -4 11 -10z m-183 -22 c-3 -8 -6 -5 -6 6 -1 11 2 17 5 13 3
-3 4 -12 1 -19z m266 4 c-4 -8 1 -10 13 -6 16 5 16 4 4 -5 -19 -14 -43 -14
-35 -1 3 6 -1 10 -9 10 -8 0 -17 3 -19 8 -3 4 7 7 23 7 18 0 26 -4 23 -13z
m-728 -20 c-3 -3 -11 0 -18 7 -9 10 -8 11 6 5 10 -3 15 -9 12 -12z m165 14 c0
-3 -4 -8 -10 -11 -5 -3 -10 -1 -10 4 0 6 5 11 10 11 6 0 10 -2 10 -4z m489
-13 c-7 -10 -14 -19 -15 -21 -1 -2 -4 4 -8 13 -3 9 -2 13 3 10 5 -3 12 -1 16
5 3 5 9 10 12 10 3 0 -1 -8 -8 -17z m-1125 -14 c-10 -4 -13 -8 -6 -8 10 -1 10
-4 -2 -16 -22 -22 -26 -18 -15 14 8 21 15 28 27 24 13 -6 13 -8 -4 -14z m171
-8 c-6 -5 -25 10 -25 20 0 5 6 4 14 -3 8 -7 12 -15 11 -17z m149 -7 c3 -8 2
-12 -4 -9 -6 3 -10 10 -10 16 0 14 7 11 14 -7z m370 -5 c-3 -5 -10 -7 -15 -3
-5 3 -7 10 -3 15 3 5 10 7 15 3 5 -3 7 -10 3 -15z m280 8 c4 4 4 -1 0 -11 -6
-16 -8 -17 -16 -2 -5 9 -14 13 -20 10 -7 -4 -8 -2 -4 5 6 8 12 9 20 2 7 -6 16
-8 20 -4z m-941 -30 c-3 -5 3 -6 15 -3 12 4 23 2 28 -5 5 -9 -2 -11 -29 -6
-34 5 -53 -6 -25 -15 8 -3 7 -6 -4 -10 -11 -5 -15 -1 -13 15 4 33 4 34 20 34
8 0 12 -5 8 -10z m565 2 c-2 -3 4 -14 12 -25 14 -18 14 -18 -2 -5 -10 7 -16
17 -13 21 3 5 0 11 -5 13 -7 4 -6 5 1 4 6 -2 9 -5 7 -8z m65 -15 c-4 -12 -8
-13 -14 -3 -9 15 -2 32 11 24 5 -3 6 -13 3 -21z m68 9 c13 -16 12 -17 -3 -4
-10 7 -18 15 -18 17 0 8 8 3 21 -13z m-531 -18 c-7 -8 -17 -15 -23 -15 -6 0
-2 7 9 15 25 19 30 19 14 0z m-42 -20 c-3 -3 -9 2 -12 12 -6 14 -5 15 5 6 7
-7 10 -15 7 -18z m93 12 c-6 -8 -7 -18 -3 -22 4 -5 2 -5 -5 -1 -14 8 -6 36 9
36 7 0 6 -5 -1 -13z m93 -3 c3 -8 2 -12 -4 -9 -6 3 -10 10 -10 16 0 14 7 11
14 -7z m441 6 c-3 -5 -11 -10 -16 -10 -6 0 -7 5 -4 10 3 6 11 10 16 10 6 0 7
-4 4 -10z m-231 -30 c-6 -6 -10 -3 -10 10 0 13 4 16 10 10 7 -7 7 -13 0 -20z
m183 24 c-3 -3 -12 -4 -19 -1 -8 3 -5 6 6 6 11 1 17 -2 13 -5z m-696 -23 c-13
-8 -13 -12 -1 -28 13 -17 13 -17 -4 -1 -19 16 -15 38 7 38 8 0 7 -4 -2 -9z
m38 -15 c9 -11 9 -16 0 -22 -8 -4 -9 -3 -5 4 4 7 2 12 -3 12 -6 0 -11 5 -11
10 0 14 5 13 19 -4z m26 -26 c-9 -16 -18 -30 -21 -30 -2 0 2 14 11 30 9 17 18
30 21 30 2 0 -2 -13 -11 -30z m28 -5 c-3 -9 -8 -14 -10 -11 -3 3 -2 9 2 15 9
16 15 13 8 -4z m200 8 c-7 -2 -19 -2 -25 0 -7 3 -2 5 12 5 14 0 19 -2 13 -5z
m-263 -23 c0 -5 -5 -10 -11 -10 -5 0 -7 5 -4 10 3 6 8 10 11 10 2 0 4 -4 4
-10z M6386 6721 c-7 -10 22 -37 30 -28 4 3 -1 13 -9 22 -9 8 -18 11 -21 6z
M6105 6666 c-76 -34 -102 -105 -66 -179 52 -108 192 -94 231 21 11 36 11 45
-9 84 -14 29 -34 52 -60 66 -45 25 -55 26 -96 8z M6658 6005 c-4 -4 -18 -31
-32 -60 -23 -45 -34 -56 -77 -74 -49 -22 -72 -51 -61 -79 2 -7 28 -24 57 -37
44 -19 57 -31 81 -76 25 -47 33 -54 59 -54 26 0 33 7 58 55 24 46 36 59 80 80
46 22 52 29 52 55 0 26 -7 33 -49 55 -41 21 -54 34 -75 80 -22 47 -30 55 -56
58 -17 2 -34 0 -37 -3z M3360 5575 c-188 -53 -308 -246 -271 -436 7 -35 25
-86 39 -112 37 -68 129 -150 199 -178 79 -31 195 -31 276 1 76 29 173 118 213
197 26 52 29 68 29 153 0 86 -3 101 -32 162 -81 172 -274 263 -453 213z M5610
5574 c-74 -20 -126 -52 -184 -113 -74 -80 -91 -126 -91 -251 0 -93 3 -111 27
-163 32 -69 116 -155 178 -184 25 -12 74 -27 108 -33 154 -31 323 54 401 200
113 211 -3 474 -239 544 -65 19 -127 19 -200 0z M4515 5022 c-55 -26 -76 -67
-84 -163 -6 -71 -10 -83 -38 -111 -24 -24 -42 -32 -80 -35 -88 -9 -134 31
-146 127 -16 122 -175 138 -223 24 -65 -155 110 -384 311 -409 97 -13 251 49
300 118 14 20 16 19 67 -30 109 -102 256 -117 401 -41 176 93 248 313 135 414
-32 30 -72 37 -110 21 -47 -20 -69 -49 -75 -99 -3 -24 -12 -55 -20 -70 -28
-56 -111 -74 -170 -38 -50 30 -65 62 -69 142 -2 51 -9 80 -22 97 -48 64 -112
83 -177 53z M5786 4600 c-121 -37 -132 -220 -16 -281 31 -17 60 -19 273 -19
201 0 245 3 274 16 88 42 117 153 59 228 -47 62 -66 66 -328 65 -128 0 -246
-5 -262 -9z M6877 2357 c-3 -7 1 -21 9 -32 8 -10 14 -14 14 -8 0 13 32 12 42
-2 5 -6 8 -5 8 2 0 20 -35 34 -50 20 -10 -10 -11 -7 -5 11 7 23 -9 32 -18 9z
M3280 2521 c0 -6 5 -13 10 -16 6 -3 10 1 10 9 0 9 -4 16 -10 16 -5 0 -10 -4
-10 -9z M3206 2511 c-3 -5 1 -14 8 -20 18 -15 28 0 10 16 -7 7 -15 9 -18 4z
M3245 2504 c8 -9 12 -21 8 -27 -3 -7 -2 -9 2 -4 16 14 12 43 -7 44 -16 2 -17
0 -3 -13z M3148 2503 c7 -3 16 -2 19 1 4 3 -2 6 -13 5 -11 0 -14 -3 -6 -6z
M3176 2493 c-4 -9 -4 -14 0 -10 4 4 14 1 23 -6 14 -11 15 -10 1 8 -8 11 -15
21 -16 23 -1 2 -5 -5 -8 -15z M3333 2492 c0 -12 5 -22 9 -22 11 0 10 12 -2 30
-7 12 -9 10 -7 -8z M3093 2480 c1 -10 3 -17 5 -15 3 2 12 0 22 -5 14 -8 16 -5
12 15 -5 31 -42 35 -39 5z m27 0 c0 -5 -2 -10 -4 -10 -3 0 -8 5 -11 10 -3 6
-1 10 4 10 6 0 11 -4 11 -10z M3303 2488 c-12 -20 -12 -35 1 -35 6 0 11 11 11
24 0 27 -1 28 -12 11z M2998 2483 c-25 -3 -38 -9 -38 -19 0 -8 5 -14 11 -14 5
0 7 -6 3 -12 -5 -8 -1 -7 10 2 17 13 17 14 -1 21 -13 6 -8 8 17 8 28 1 32 -2
20 -10 -13 -9 -13 -10 2 -5 10 3 18 -1 20 -10 2 -11 6 -10 15 5 11 18 10 19
-4 14 -12 -5 -15 -2 -10 10 3 9 3 16 -1 15 -4 -1 -24 -3 -44 -5z M3390 2467
c0 -14 -39 -55 -41 -44 -1 4 -2 11 -3 16 -2 17 -16 24 -16 8 0 -9 5 -19 10
-22 6 -4 7 -11 4 -17 -5 -7 -2 -8 6 -3 10 6 12 4 7 -9 -4 -10 -3 -15 3 -11 6
3 10 1 10 -4 0 -17 -15 -13 -38 12 -35 37 -52 49 -52 36 0 -8 -4 -8 -15 1 -12
10 -15 10 -15 -2 0 -8 5 -19 12 -26 9 -9 6 -12 -16 -12 -15 0 -25 -4 -21 -10
3 -5 15 -6 28 -1 22 9 53 -10 40 -23 -10 -10 7 -7 29 5 16 8 19 8 13 -1 -5 -9
-2 -10 13 -6 12 4 30 2 41 -3 15 -8 20 -7 25 5 4 12 2 15 -9 10 -9 -3 -15 0
-15 9 0 8 -4 15 -10 15 -5 0 -10 9 -10 20 0 11 5 20 10 20 24 0 68 -31 74 -52
5 -14 9 -18 13 -10 3 7 0 19 -7 26 -12 16 3 32 20 21 6 -3 10 -2 10 4 0 6 -12
14 -27 17 -16 4 -34 16 -41 26 -15 21 -32 24 -32 5z m20 -17 c-8 -5 -2 -10 19
-15 17 -4 29 -11 26 -16 -10 -15 -65 19 -59 36 4 8 11 12 16 9 6 -4 6 -9 -2
-14z m-100 -45 c6 -3 10 -14 9 -23 0 -11 -3 -12 -6 -4 -2 6 -10 12 -18 12 -7
0 -18 7 -25 15 -10 12 -8 14 9 10 12 -2 26 -7 31 -10z M3453 2466 c-9 -11 -6
-13 15 -13 15 0 21 2 14 4 -6 3 -10 9 -6 14 8 14 -9 10 -23 -5z M2905 2465
c-5 -2 -44 -11 -86 -20 l-77 -17 1 -35 c1 -20 3 -31 5 -24 3 9 8 9 20 -1 9 -8
13 -8 9 -2 -4 7 0 15 9 18 12 4 15 2 10 -9 -3 -8 -1 -15 4 -15 6 0 10 7 10 15
0 8 5 15 10 15 6 0 5 6 -2 14 -7 8 -15 12 -18 11 -3 -2 -12 1 -20 6 -11 8 -5
9 23 5 20 -2 37 -1 37 3 0 5 9 11 20 14 11 3 20 0 20 -6 0 -7 4 -6 10 3 5 8
11 12 14 9 3 -3 -1 -14 -9 -25 -12 -16 -16 -17 -24 -4 -6 8 -13 11 -17 8 -3
-4 0 -14 8 -21 17 -17 48 -5 48 18 0 8 5 15 11 15 5 0 8 4 4 9 -3 5 3 12 12
14 15 4 15 5 -2 5 -11 0 -24 -1 -30 -3z m-135 -56 c0 -5 5 -7 10 -4 6 3 10 2
10 -3 0 -6 -7 -12 -15 -16 -8 -3 -15 -4 -15 -2 0 3 -3 11 -6 20 -3 9 -1 16 5
16 6 0 11 -5 11 -11z M3216 2461 c-3 -5 2 -15 12 -22 15 -12 16 -12 5 2 -7 9
-10 19 -6 22 3 4 4 7 0 7 -3 0 -8 -4 -11 -9z M6756 2462 c-2 -4 -1 -14 3 -21
6 -9 10 -7 14 8 5 20 -7 29 -17 13z M2941 2434 c0 -11 3 -14 6 -6 3 7 2 16 -1
19 -3 4 -6 -2 -5 -13z M3500 2434 c0 -8 5 -12 10 -9 6 3 10 10 10 16 0 5 -4 9
-10 9 -5 0 -10 -7 -10 -16z M3534 2442 c3 -6 2 -13 -3 -17 -6 -3 -8 -12 -4
-20 3 -8 0 -15 -6 -15 -19 0 4 -33 25 -36 18 -3 18 -2 2 10 -22 16 -23 26 -3
26 9 0 20 -11 25 -25 5 -14 12 -25 14 -25 3 0 2 8 -1 17 -6 15 -5 16 9 3 13
-13 14 -16 2 -23 -8 -4 -23 -3 -34 3 -16 9 -22 8 -26 -5 -3 -8 -14 -15 -24
-15 -10 0 -23 -7 -30 -15 -14 -17 0 -21 17 -4 8 8 13 8 17 0 4 -6 2 -11 -5
-11 -7 0 -4 -7 7 -15 16 -13 17 -16 4 -25 -10 -7 -11 -12 -4 -17 21 -16 22
-43 3 -80 -12 -24 -17 -29 -13 -13 3 14 10 29 15 35 14 15 11 23 -8 20 -10 -1
-12 0 -5 2 23 8 12 22 -15 17 -21 -3 -24 -2 -13 5 8 6 15 15 15 21 0 6 6 14
13 19 19 11 -14 23 -42 16 -12 -4 -16 -3 -11 2 14 11 18 43 5 43 -5 0 -10 -4
-10 -10 0 -5 -8 -14 -18 -19 -14 -7 -19 -6 -19 4 0 7 6 11 14 8 12 -5 18 8 14
30 -1 5 4 5 10 1 9 -5 10 -2 5 12 -5 10 -11 27 -13 37 -6 20 -19 22 -29 5 -4
-6 -3 -8 3 -5 6 4 13 0 17 -8 3 -8 1 -17 -5 -20 -5 -4 -6 -11 -3 -17 4 -7 2
-8 -4 -4 -10 6 -30 -18 -30 -37 0 -14 -12 -21 -12 -8 0 7 -5 9 -10 6 -6 -4 -7
-12 -3 -18 4 -7 0 -6 -10 2 -16 13 -14 36 3 26 10 -6 43 25 35 33 -8 9 -75 9
-75 0 0 -17 -29 -7 -35 12 -7 21 -25 28 -25 10 0 -5 -7 -10 -15 -10 -8 0 -15
-4 -15 -10 0 -5 -6 -10 -14 -10 -8 0 -16 -6 -19 -12 -2 -7 -7 -10 -11 -6 -4 3
0 19 9 35 9 15 14 20 11 11 -3 -10 0 -18 5 -18 7 0 9 9 6 21 -7 27 2 51 16 42
6 -3 7 -1 3 6 -10 15 -32 -2 -41 -30 -4 -11 -10 -17 -15 -14 -5 3 -7 -4 -5
-15 2 -11 0 -20 -5 -20 -5 0 -10 9 -12 20 -2 15 -7 17 -18 10 -13 -9 -10 -14
14 -34 16 -13 26 -30 23 -37 -4 -11 -6 -11 -6 -1 -1 7 -6 10 -13 6 -6 -4 -8
-3 -4 4 3 6 2 13 -4 17 -5 3 -10 -1 -10 -9 0 -9 -7 -16 -17 -16 -14 0 -14 2 2
20 10 11 13 20 7 20 -7 0 -12 -4 -12 -10 0 -6 -5 -9 -11 -8 -6 2 -12 -7 -14
-19 -1 -12 2 -20 6 -17 5 3 18 0 29 -6 15 -8 20 -8 20 1 0 18 10 5 15 -19 2
-12 -5 -28 -18 -39 -13 -10 -17 -12 -11 -3 6 8 14 24 18 34 5 16 4 17 -8 7
-11 -10 -17 -8 -25 6 -7 12 -10 13 -11 4 0 -11 -3 -11 -15 -1 -9 7 -14 19 -11
27 3 7 0 13 -6 13 -7 0 -6 5 2 15 10 12 10 15 -1 15 -11 0 -11 2 1 10 9 6 10
10 3 10 -6 0 -15 -5 -18 -10 -4 -7 -13 -4 -23 7 -10 10 -24 19 -32 21 -8 2 -3
-7 12 -20 29 -24 55 -78 38 -78 -6 0 -10 4 -10 8 0 5 -11 15 -25 22 -13 7 -22
17 -18 23 3 5 10 2 15 -7 5 -9 13 -16 18 -16 6 0 2 9 -7 20 -16 18 -19 18 -33
4 -13 -14 -13 -17 9 -35 16 -13 19 -19 8 -19 -8 0 -18 -6 -21 -12 -5 -10 -7
-10 -12 0 -5 10 -11 10 -30 -3 -13 -8 -24 -13 -24 -9 0 4 -6 1 -14 -5 -10 -9
-15 -8 -20 4 -3 9 0 15 9 15 9 0 12 6 9 15 -4 8 -10 15 -16 15 -5 0 -6 -4 -3
-10 3 -5 1 -10 -6 -10 -7 0 -10 -10 -6 -28 6 -30 -4 -55 -19 -50 -5 2 -10 -1
-11 -7 -1 -5 9 -11 23 -12 13 -1 22 1 20 6 -3 4 -1 13 5 21 7 12 9 12 9 1 0
-7 6 -11 14 -8 11 4 13 1 9 -10 -5 -12 -3 -14 7 -8 9 5 11 4 6 -3 -10 -17 6
-15 32 3 20 14 21 14 16 0 -3 -8 -12 -15 -19 -15 -7 0 -16 -6 -19 -12 -5 -10
-7 -10 -12 0 -3 6 -11 9 -16 6 -7 -5 -8 -2 -3 6 6 10 4 12 -9 7 -10 -4 -19 -7
-22 -7 -2 0 0 -8 3 -17 6 -16 5 -16 -10 -4 -9 7 -14 18 -10 25 3 6 0 6 -8 -1
-7 -7 -20 -13 -28 -13 -13 0 -13 2 -3 9 11 6 10 10 -3 15 -15 5 -15 9 -4 23
12 14 12 16 -1 11 -9 -3 -15 -16 -14 -31 1 -15 -3 -24 -7 -21 -5 3 -9 1 -9 -4
0 -5 14 -12 30 -14 17 -3 30 0 30 4 0 5 7 2 16 -6 8 -9 23 -16 32 -16 9 0 27
-3 40 -6 17 -5 21 -3 16 9 -3 8 -1 18 5 22 7 4 11 -4 11 -19 0 -21 5 -26 23
-25 16 1 18 2 5 6 -22 6 -23 17 -3 33 13 11 14 10 9 -4 -3 -9 -1 -16 5 -16 6
0 11 8 11 18 0 12 2 14 8 4 7 -10 14 -8 34 7 14 11 28 17 32 14 3 -3 6 2 7 13
0 11 3 14 6 6 3 -9 9 -10 17 -3 8 7 12 4 13 -12 0 -12 -1 -16 -4 -10 -7 19
-42 -3 -38 -24 1 -10 -2 -26 -7 -35 -7 -14 -5 -18 11 -18 11 0 23 5 27 12 5 8
2 9 -9 5 -24 -9 -21 0 4 14 15 8 19 8 15 0 -4 -6 -2 -11 5 -11 8 0 9 -4 0 -13
-8 -10 -7 -14 4 -14 8 0 12 4 9 8 -6 10 34 32 45 24 5 -3 11 1 14 7 2 7 8 10
12 6 4 -4 0 -17 -9 -30 -13 -18 -16 -19 -16 -5 0 23 -15 22 -17 -2 -1 -15 6
-20 38 -23 22 -2 44 1 51 7 8 7 9 7 5 -1 -7 -12 13 -24 39 -24 8 0 11 6 7 16
-5 13 -8 13 -15 2 -6 -9 -7 -5 -3 11 5 17 4 22 -5 16 -8 -5 -11 -4 -6 3 4 6
13 9 21 6 8 -4 12 -10 9 -15 -3 -5 0 -9 5 -9 6 0 10 -3 10 -7 -3 -19 2 -33 12
-33 6 0 8 9 4 23 -5 20 -5 20 9 -3 9 -14 15 -19 16 -12 0 6 5 12 10 12 6 0 9
-6 8 -12 -2 -8 11 -14 35 -16 35 -3 43 3 38 31 -1 5 3 6 8 3 5 -3 7 -14 4 -25
-4 -15 2 -19 34 -23 21 -3 40 -1 41 4 2 4 10 8 18 8 8 0 14 10 15 23 0 21 1
21 8 2 6 -15 3 -23 -12 -31 -18 -10 -14 -13 33 -19 48 -7 55 -5 72 16 10 14
17 18 16 9 -2 -8 -7 -18 -13 -22 -15 -11 -4 -15 58 -21 48 -5 58 -3 53 9 -3 8
-1 14 4 14 6 0 10 -7 10 -16 0 -10 7 -14 23 -12 16 2 21 9 20 26 -3 26 3 27
37 6 14 -8 17 -13 8 -10 -20 6 -45 -19 -29 -29 6 -3 51 -7 101 -8 52 -1 90 -6
90 -12 0 -5 4 -3 9 5 6 8 7 18 4 24 -4 5 -1 6 6 2 7 -5 19 0 28 10 12 16 12
14 -1 -8 -21 -36 -20 -38 9 -38 17 0 25 5 25 18 0 14 -2 15 -10 2 -5 -8 -11
-12 -14 -9 -3 2 -1 11 4 19 7 11 11 11 24 1 8 -7 14 -16 13 -19 -1 -4 3 -8 8
-9 6 -2 10 6 10 17 0 10 5 23 9 27 5 4 6 2 2 -4 -4 -7 -3 -13 1 -13 5 0 13 10
18 22 6 12 19 23 29 24 18 3 36 20 36 37 0 5 -4 6 -9 2 -11 -6 -26 32 -22 53
1 8 -7 16 -18 19 -12 3 -18 9 -15 14 3 5 14 5 25 -1 13 -7 19 -7 19 0 0 5 -7
10 -15 10 -8 0 -15 5 -15 10 0 17 24 6 53 -24 15 -16 27 -26 27 -21 0 5 10 -1
23 -13 13 -12 27 -19 30 -15 13 12 7 22 -10 16 -12 -5 -14 -3 -8 7 6 9 4 11
-5 5 -9 -5 -11 -4 -6 4 4 6 11 9 16 6 4 -3 6 4 3 16 -4 15 -8 17 -14 8 -9 -16
-39 -21 -39 -7 0 6 7 8 15 4 28 -11 15 3 -18 19 -19 9 -55 17 -80 18 -26 1
-47 5 -47 8 0 4 -7 10 -16 13 -8 3 -13 2 -9 -3 3 -5 2 -11 -2 -14 -5 -2 -2 -2
5 -1 25 6 11 -7 -18 -17 -17 -6 -27 -16 -23 -22 3 -5 1 -7 -5 -4 -11 7 -10 20
3 49 4 10 11 15 16 12 5 -3 9 0 9 7 0 8 -10 9 -30 5 -19 -3 -29 -2 -25 4 3 6
2 10 -4 10 -5 0 -12 -6 -14 -12 -4 -10 -6 -10 -6 -1 -2 21 -67 46 -89 34 -11
-6 -22 -7 -26 -4 -3 3 -6 1 -6 -5 0 -16 23 -15 38 0 9 9 12 9 12 0 0 -7 -5
-12 -11 -12 -6 0 -9 -7 -6 -15 4 -8 2 -17 -4 -20 -5 -4 -6 -11 -3 -17 4 -7 2
-8 -4 -4 -7 4 -12 3 -12 -2 0 -6 7 -13 16 -16 11 -4 14 0 12 16 -2 16 3 23 17
26 15 2 17 1 6 -6 -8 -6 -11 -17 -8 -26 4 -9 2 -16 -3 -16 -6 0 -10 -8 -9 -17
0 -11 3 -13 6 -5 2 6 11 12 18 12 7 0 16 7 19 16 3 8 2 12 -3 9 -5 -3 -13 0
-17 6 -4 8 -3 9 4 5 7 -4 12 -1 12 9 0 8 -7 18 -15 21 -8 4 -15 10 -15 16 0 5
4 6 10 3 6 -3 7 1 4 9 -3 9 -3 16 0 16 4 0 11 -12 16 -26 7 -17 15 -24 25 -20
8 3 15 0 15 -7 0 -7 3 -8 8 -2 4 6 16 11 27 12 17 1 18 0 5 -10 -9 -7 -14 -20
-12 -30 3 -14 -1 -17 -20 -12 -17 4 -27 0 -37 -17 -7 -13 -10 -20 -6 -16 5 4
15 2 23 -5 13 -10 15 -9 9 5 -3 10 -2 20 3 23 6 4 10 -1 10 -9 0 -9 5 -16 11
-16 5 0 7 5 4 10 -4 6 5 5 19 -2 14 -6 26 -15 26 -19 0 -4 9 -11 21 -14 11 -4
18 -12 16 -18 -2 -7 0 -20 5 -29 5 -11 5 -18 0 -18 -5 0 -15 14 -22 30 -12 30
-13 30 -30 10 -10 -11 -24 -18 -32 -15 -9 4 -18 -3 -24 -16 -9 -20 -11 -21
-27 -5 -21 21 -22 37 -2 30 8 -4 12 -10 9 -15 -3 -5 -1 -9 4 -9 10 0 22 23 22
42 0 6 -6 6 -15 -2 -12 -10 -14 -8 -10 9 3 16 -1 21 -16 21 -10 0 -19 5 -19
12 0 6 -8 4 -19 -6 -10 -10 -27 -16 -38 -14 -11 2 -17 -2 -15 -12 1 -10 -2 -9
-13 4 -14 18 -20 15 -16 -8 1 -5 -6 -3 -16 4 -10 8 -20 16 -22 17 -2 1 2 9 9
18 7 9 10 19 6 22 -4 4 -12 1 -17 -7 -9 -12 -10 -12 -5 3 3 11 0 17 -10 17 -8
0 -12 5 -8 11 4 8 9 8 17 0 16 -16 31 -13 18 3 -8 9 -8 16 -2 20 12 8 19 -4
16 -26 -2 -10 1 -18 6 -18 6 0 6 -8 -1 -19 -13 -26 -13 -38 1 -24 6 6 19 9 28
5 14 -5 14 -4 2 12 -9 10 -11 20 -5 24 12 9 16 32 5 32 -5 0 -12 -6 -15 -12
-2 -7 -3 -2 -2 11 3 29 26 41 26 15 0 -14 3 -15 12 -6 16 16 -21 45 -39 31 -8
-8 -10 -4 -6 12 5 18 3 21 -11 16 -10 -4 -20 -7 -22 -7 -3 0 -3 -4 0 -8 8 -13
-11 -35 -23 -28 -16 10 -14 26 3 20 10 -4 13 0 11 13 -2 10 -4 20 -4 23 -1 3
-6 -2 -11 -10 -9 -13 -10 -13 -11 0 0 10 -3 8 -8 -5 -5 -11 -5 -27 0 -36 4 -8
3 -22 -2 -30 -8 -12 -10 -12 -8 1 3 29 -1 39 -13 36 -7 -1 -10 -1 -5 1 4 3 7
11 7 19 0 7 11 21 25 30 14 9 22 21 18 27 -3 6 -1 7 6 3 6 -4 8 -12 5 -18 -4
-6 -1 -14 7 -18 15 -10 49 6 49 22 0 9 -3 9 -12 0 -15 -15 -28 -15 -28 -1 0 5
5 7 10 4 6 -3 10 -1 10 4 0 9 -35 16 -43 9 -1 -2 -13 7 -27 20 -13 12 -32 22
-42 22 -17 0 -57 18 -68 31 -3 3 -15 8 -28 11 -15 4 -20 2 -16 -5 4 -7 -5 1
-20 17 -15 17 -31 26 -41 23 -8 -4 -15 -1 -15 5 0 7 -4 7 -13 -1 -8 -6 -18 -7
-22 -3 -5 4 -5 1 0 -7 5 -9 3 -12 -6 -9 -8 3 -13 12 -11 21 1 8 -3 19 -9 23
-7 4 -9 3 -5 -4z m66 -48 c0 -8 -5 -12 -10 -9 -6 4 -8 11 -5 16 9 14 15 11 15
-7z m30 12 c0 -3 -4 -8 -10 -11 -5 -3 -10 -1 -10 4 0 6 5 11 10 11 6 0 10 -2
10 -4z m20 -20 c0 -3 -4 -8 -10 -11 -5 -3 -10 -1 -10 4 0 6 5 11 10 11 6 0 10
-2 10 -4z m22 -36 c4 -3 -1 -11 -12 -18 -16 -10 -18 -9 -14 3 4 8 1 15 -5 15
-6 0 -11 -5 -11 -12 0 -6 -3 -8 -7 -4 -5 4 1 14 11 22 11 7 22 11 25 7 3 -4 9
-10 13 -13z m-404 -22 c-6 -13 -13 -36 -14 -51 -3 -36 -6 -38 -22 -21 -11 12
-10 14 3 14 9 0 13 5 10 10 -4 6 -12 10 -18 9 -24 -3 -38 1 -33 10 3 5 15 7
26 4 13 -4 20 0 20 9 0 15 19 38 32 38 5 0 3 -10 -4 -22z m102 2 c0 -5 -5 -10
-11 -10 -5 0 -7 5 -4 10 3 6 8 10 11 10 2 0 4 -4 4 -10z m-37 -21 c-8 -8 -13
-7 -18 2 -5 8 -4 10 3 5 7 -4 12 -2 12 5 0 7 3 9 7 6 4 -4 2 -12 -4 -18z m227
11 c0 -5 -4 -10 -10 -10 -5 0 -10 5 -10 10 0 6 5 10 10 10 6 0 10 -4 10 -10z
m118 -2 c-3 -13 3 -18 23 -18 5 0 8 4 4 9 -3 5 -1 12 5 16 5 3 10 -1 10 -9 0
-19 -18 -30 -53 -32 -30 -2 -44 10 -26 22 8 4 9 3 5 -4 -4 -7 -2 -12 3 -12 6
0 11 9 11 20 0 11 5 20 10 20 6 0 10 -6 8 -12z m87 2 c3 -5 1 -10 -4 -10 -6 0
-11 5 -11 10 0 6 2 10 4 10 3 0 8 -4 11 -10z m-475 -30 c-7 -13 -7 -21 2 -26
6 -4 8 -3 5 3 -4 6 0 13 8 17 8 3 15 1 15 -5 0 -6 5 -7 12 -3 7 4 8 3 4 -5 -4
-6 -12 -9 -17 -6 -5 4 -10 1 -10 -4 -1 -6 -2 -15 -3 -21 0 -5 -11 -17 -24 -26
-22 -15 -25 -15 -48 7 -20 19 -24 20 -24 6 0 -19 -15 -23 -25 -6 -9 14 3 59
15 59 6 0 9 -3 8 -7 -2 -5 6 -18 17 -30 15 -18 22 -20 34 -10 14 11 14 10 2
-5 -9 -12 -10 -18 -2 -18 6 0 14 7 17 15 4 8 11 12 18 9 6 -3 3 1 -7 10 -14
11 -17 22 -12 45 4 17 11 29 16 25 5 -3 5 -13 -1 -24z m318 5 c-3 -3 -9 2 -12
12 -6 14 -5 15 5 6 7 -7 10 -15 7 -18z m217 15 c3 -6 -1 -7 -9 -4 -18 7 -21
14 -7 14 6 0 13 -4 16 -10z m-255 -15 c-6 -8 -9 -19 -5 -25 11 -17 0 -11 -19
12 -15 17 -15 20 -3 15 9 -3 19 -2 22 3 4 6 9 10 12 10 3 0 0 -7 -7 -15z m242
-4 c8 -1 4 -28 -5 -37 -4 -4 -7 -1 -7 7 0 12 -2 11 -11 -1 -8 -12 -9 -11 -4 6
5 18 1 22 -19 22 -18 0 -23 -5 -21 -19 2 -11 -1 -19 -7 -19 -5 0 -8 7 -4 15 3
8 0 15 -7 15 -8 0 -7 3 2 9 12 8 54 9 83 2z m-213 -20 c14 -25 -17 -55 -39
-40 -13 9 -13 10 1 6 24 -8 40 12 28 35 -5 10 -7 18 -5 18 3 0 10 -8 15 -19z
m36 -9 c-3 -3 -11 0 -18 7 -9 10 -8 11 6 5 10 -3 15 -9 12 -12z m-235 -2 c0
-7 8 -7 23 1 21 11 21 11 5 -7 -17 -17 -19 -17 -35 -1 -11 11 -13 17 -5 17 7
0 12 -5 12 -10z m270 1 c0 -5 -7 -12 -16 -15 -14 -5 -15 -4 -4 9 14 17 20 19
20 6z m47 -8 c0 -7 -5 -9 -10 -6 -5 3 -13 -1 -18 -8 -6 -10 -8 -8 -7 6 2 22
35 30 35 8z m-651 -5 c4 -6 3 -8 -3 -5 -6 4 -21 -5 -33 -18 -26 -28 -45 -33
-37 -11 4 11 1 13 -10 9 -11 -4 -14 -2 -9 5 4 7 17 10 32 6 17 -4 26 -1 30 10
7 19 20 21 30 4z m298 6 c21 -8 20 -20 0 -28 -12 -5 -15 -2 -10 10 5 12 2 15
-9 10 -9 -3 -13 -2 -10 4 7 12 8 12 29 4z m106 -15 c-7 -11 -14 -18 -17 -15
-3 3 0 12 7 21 18 21 23 19 10 -6z m-350 -13 c0 -2 -9 -2 -20 1 -11 3 -20 9
-20 15 0 5 9 4 20 -2 11 -6 20 -12 20 -14z m648 -11 c-3 -3 -9 2 -12 12 -6 14
-5 15 5 6 7 -7 10 -15 7 -18z m-684 0 c11 -8 16 -18 13 -22 -4 -3 -13 2 -21
12 -10 14 -15 15 -21 5 -5 -8 -2 -17 7 -24 14 -10 14 -13 0 -26 -14 -13 -15
-12 -9 3 3 9 2 19 -3 22 -6 4 -10 -2 -11 -12 0 -16 -1 -16 -8 2 -6 14 -3 25 8
37 20 21 21 21 45 3z m331 5 c3 -6 -1 -7 -9 -4 -18 7 -21 14 -7 14 6 0 13 -4
16 -10z m635 6 c0 -3 -4 -8 -10 -11 -5 -3 -10 -1 -10 4 0 6 5 11 10 11 6 0 10
-2 10 -4z m-606 -22 c3 -8 2 -12 -4 -9 -6 3 -10 10 -10 16 0 14 7 11 14 -7z
m174 -3 c-7 -11 -16 -18 -20 -15 -4 3 -2 11 5 19 18 21 29 18 15 -4z m107 -19
c-6 -8 -32 11 -32 23 0 12 4 11 17 -3 10 -9 16 -18 15 -20z m-754 5 c-10 -9
-11 -8 -5 6 3 10 9 15 12 12 3 -3 0 -11 -7 -18z m271 -16 c-4 -11 -7 -10 -13
5 -12 29 -10 36 5 22 7 -7 11 -19 8 -27z m58 31 c0 -4 -10 -13 -22 -21 -23
-14 -23 -14 -4 8 20 22 26 25 26 13z m90 -1 c0 -15 -16 -22 -35 -15 -13 5 -14
8 -3 15 18 12 38 11 38 0z m190 -21 c8 -5 7 -9 -5 -13 -9 -4 -13 -3 -10 3 3 6
1 10 -4 10 -6 0 -11 8 -11 18 0 13 2 14 9 3 5 -7 14 -17 21 -21z m195 10 c4
-6 3 -10 -2 -9 -20 3 -27 -2 -13 -11 9 -6 10 -10 3 -10 -19 0 -27 21 -12 31
18 11 17 11 24 -1z m-455 -4 c0 -2 -8 -10 -17 -17 -16 -13 -17 -12 -4 4 13 16
21 21 21 13z m335 -14 c-3 -3 -11 0 -18 7 -9 10 -8 11 6 5 10 -3 15 -9 12 -12z
m-465 2 c0 -8 -19 -13 -24 -6 -3 5 1 9 9 9 8 0 15 -2 15 -3z m37 -19 c6 -14 7
-23 3 -20 -5 3 -11 1 -15 -5 -3 -5 -12 -10 -18 -10 -7 0 -4 5 6 11 13 8 15 14
7 30 -6 10 -7 19 -3 19 4 0 13 -11 20 -25z m218 7 c-3 -3 -11 0 -18 7 -9 10
-8 11 6 5 10 -3 15 -9 12 -12z m50 10 c-5 -4 -12 -16 -13 -27 -2 -11 -6 -22
-9 -25 -3 -3 2 43 6 58 1 1 7 2 14 2 7 0 8 -3 2 -8z m735 -6 c0 -8 -5 -18 -10
-21 -8 -5 -7 -11 1 -21 6 -7 16 -11 23 -7 6 4 5 -1 -3 -10 -9 -12 -10 -21 -4
-29 12 -15 13 -49 2 -42 -4 2 -9 1 -12 -3 -2 -5 -2 -2 0 5 2 9 -3 11 -18 7
-15 -5 -19 -4 -14 5 4 6 16 10 26 7 11 -3 19 -2 19 2 0 15 -13 19 -34 11 -18
-6 -22 -4 -23 12 -2 16 1 17 12 8 12 -10 16 -9 21 4 4 9 4 20 0 23 -3 4 -6 -2
-7 -13 0 -17 -1 -16 -9 4 -11 26 -27 29 -33 5 -4 -14 -5 -12 -6 5 -1 17 6 24
30 29 20 4 28 10 25 19 -3 8 -1 14 4 14 6 0 10 -6 10 -14z m-430 0 c0 -3 -4
-8 -10 -11 -5 -3 -10 -1 -10 4 0 6 5 11 10 11 6 0 10 -2 10 -4z m380 -6 c0 -5
-10 -10 -22 -10 -19 0 -20 2 -8 10 19 13 30 13 30 0z m-593 -15 c0 -8 -4 -15
-9 -15 -10 0 -11 14 -1 23 9 10 10 9 10 -8z m144 -3 c-7 -2 -18 1 -23 6 -8 8
-4 9 13 5 13 -4 18 -8 10 -11z m44 -2 c3 -5 1 -10 -4 -10 -6 0 -11 5 -11 10 0
6 2 10 4 10 3 0 8 -4 11 -10z m-595 -21 c0 -5 -4 -9 -8 -9 -5 0 -9 7 -9 15 0
8 4 12 9 9 4 -3 8 -9 8 -15z m141 -2 c-10 -9 -11 -8 -5 6 3 10 9 15 12 12 3
-3 0 -11 -7 -18z m60 -10 c-10 -9 -11 -8 -5 6 3 10 9 15 12 12 3 -3 0 -11 -7
-18z m-88 -12 c-3 -8 -10 -15 -15 -15 -7 0 -6 5 1 13 6 8 7 18 3 22 -4 5 -2 5
5 1 7 -4 10 -13 6 -21z m394 3 c2 -17 0 -19 -7 -8 -5 8 -6 18 -4 22 8 12 10
10 11 -14z m163 18 c0 -3 -4 -8 -10 -11 -5 -3 -10 -1 -10 4 0 6 5 11 10 11 6
0 10 -2 10 -4z m-259 -39 c-10 -9 -11 -8 -5 6 3 10 9 15 12 12 3 -3 0 -11 -7
-18z m429 14 c0 -6 -5 -13 -10 -16 -6 -4 -7 -12 -3 -18 4 -7 0 -6 -10 2 -18
14 -22 22 -9 20 19 -3 25 2 12 11 -13 8 -12 10 3 10 9 0 17 -4 17 -9z m-760
-11 c0 -5 -4 -10 -10 -10 -5 0 -10 5 -10 10 0 6 5 10 10 10 6 0 10 -4 10 -10z
m706 -10 c0 -12 -4 -16 -9 -11 -5 5 -6 14 -3 20 10 15 12 14 12 -9z m-71 0 c4
-6 11 -7 17 -4 7 5 8 2 3 -6 -6 -10 -4 -12 8 -7 10 3 17 3 17 -2 0 -16 -13
-21 -27 -9 -7 6 -17 8 -20 4 -4 -4 -1 -12 7 -17 13 -9 13 -10 0 -6 -8 2 -14
13 -13 23 1 10 -4 22 -10 26 -9 6 -9 8 0 8 6 0 15 -5 18 -10z m-464 -17 c13
-16 12 -17 -3 -4 -10 7 -18 15 -18 17 0 8 8 3 21 -13z m699 -18 c-12 -15 -52
-17 -43 -2 3 4 12 6 20 3 10 -4 17 2 21 16 3 12 7 17 10 10 2 -7 -1 -19 -8
-27z m-602 -6 c-3 -8 -7 -3 -11 10 -4 17 -3 21 5 13 5 -5 8 -16 6 -23z m169
23 c11 8 12 7 7 -6 -3 -9 -12 -16 -20 -16 -8 0 -14 -6 -14 -12 0 -9 -3 -9 -9
1 -12 19 -2 46 12 32 7 -7 15 -7 24 1z m103 -7 c0 -8 -2 -15 -4 -15 -2 0 -6 7
-10 15 -3 8 -1 15 4 15 6 0 10 -7 10 -15z m-240 -16 c0 -5 -4 -9 -8 -9 -5 0
-9 7 -9 15 0 8 4 12 9 9 4 -3 8 -9 8 -15z m264 -4 c-8 -19 -28 -25 -45 -13
-11 8 -10 9 4 4 13 -4 20 0 24 14 3 11 9 17 14 15 4 -3 6 -12 3 -20z m-61 -2
c-6 -15 -19 -17 -27 -4 -7 11 0 18 18 18 8 0 12 -6 9 -14z m-115 -18 c-3 -3
-9 2 -12 12 -6 14 -5 15 5 6 7 -7 10 -15 7 -18z m206 4 c-3 -5 -10 -7 -15 -3
-5 3 -7 10 -3 15 3 5 10 7 15 3 5 -3 7 -10 3 -15z m91 11 c-3 -5 -1 -10 5 -10
6 0 8 -5 4 -11 -4 -8 -9 -7 -15 2 -7 12 -3 29 7 29 3 0 2 -4 -1 -10z m226 -5
c11 6 11 5 2 -5 -12 -14 -33 -6 -33 13 0 8 3 7 9 -2 5 -8 14 -10 22 -6z m-107
-18 c3 4 14 8 22 9 13 2 13 0 -1 -17 -10 -10 -22 -16 -26 -13 -5 3 -9 0 -9 -5
0 -6 -9 -11 -20 -11 -11 0 -20 5 -20 11 0 8 -5 7 -15 -1 -13 -11 -14 -10 -9 4
7 19 9 19 34 6 13 -7 21 -7 25 0 4 6 1 9 -5 8 -7 -2 -14 5 -15 15 -3 17 -2 17
14 3 10 -9 21 -13 25 -9z m-124 -23 c0 -2 -9 -4 -20 -4 -11 0 -20 4 -20 9 0 5
9 7 20 4 11 -3 20 -7 20 -9z M3193 2239 c-2 -23 3 -25 10 -4 4 8 3 16 -1 19
-4 3 -9 -4 -9 -15z M3164 2425 c-12 -8 -24 -11 -28 -7 -4 3 -4 -1 0 -11 7 -19
-3 -22 -26 -7 -11 7 -11 10 -2 10 7 0 11 4 7 10 -8 12 -42 -22 -42 -42 0 -9 6
-14 14 -11 12 5 18 -8 14 -30 -1 -5 3 -6 9 -2 5 3 10 14 10 25 0 20 22 32 45
24 11 -5 13 -2 8 12 -4 10 -2 15 3 11 5 -3 10 3 10 14 0 10 -1 19 -1 19 0 0
-10 -7 -21 -15z m-54 -45 c0 -5 -7 -7 -15 -4 -8 4 -15 8 -15 10 0 2 7 4 15 4
8 0 15 -4 15 -10z M7249 2409 c-19 -17 -21 -22 -9 -29 8 -6 22 -10 30 -10 11
0 11 3 2 12 -16 16 -15 31 1 25 8 -3 14 1 14 9 0 19 -10 18 -38 -7z M2697
2413 c-13 -3 -16 -10 -11 -21 14 -34 16 -62 5 -62 -7 0 -10 4 -7 9 7 10 -16
61 -27 61 -5 0 -5 -5 -1 -12 5 -7 3 -8 -5 -3 -19 11 -98 -23 -121 -52 -24 -31
-25 -43 -4 -69 13 -16 15 -16 10 -1 -3 10 0 17 8 17 9 0 12 -7 9 -19 -3 -10 0
-22 5 -25 6 -4 8 2 5 14 -3 11 0 20 6 20 6 0 11 -5 11 -12 0 -6 3 -8 7 -5 3 4
-3 16 -15 27 -26 25 -27 30 -6 30 8 0 12 -4 9 -10 -3 -5 3 -10 14 -10 28 0 27
18 -1 30 -19 7 -20 9 -4 9 12 1 16 6 13 15 -4 10 -1 13 9 9 8 -3 14 1 14 8 0
11 3 11 10 -1 6 -10 10 -11 10 -2 0 15 26 16 35 1 11 -17 -5 -25 -16 -9 -8 11
-9 10 -4 -7 5 -19 3 -22 -12 -17 -15 5 -16 4 -3 -5 8 -6 12 -11 8 -11 -4 0 -3
-12 2 -26 6 -15 6 -23 1 -19 -5 3 -12 1 -16 -4 -3 -6 -11 -8 -18 -5 -7 2 -17
-4 -24 -15 -10 -16 -9 -20 2 -25 10 -4 15 1 15 14 0 21 16 23 37 3 16 -15 46
-10 51 8 2 9 0 10 -5 4 -9 -12 -28 -13 -39 -2 -4 4 1 7 10 7 13 0 17 6 13 20
-3 11 -1 23 4 26 5 3 7 10 4 15 -4 5 -1 9 4 9 6 0 11 -7 11 -15 0 -17 16 -20
25 -5 3 6 2 10 -3 10 -5 0 -9 6 -9 13 0 7 -3 24 -6 39 -5 18 -2 32 9 42 16 16
13 17 -19 9z m-144 -90 c-7 -2 -13 -12 -13 -20 0 -9 -3 -14 -6 -10 -10 10 4
37 18 36 10 0 10 -2 1 -6z m124 -8 c0 -8 -4 -15 -9 -15 -10 0 -11 14 -1 23 9
10 10 9 10 -8z M2965 2411 c6 -11 4 -13 -8 -8 -9 3 -19 1 -23 -6 -4 -7 -3 -9
1 -4 5 4 19 0 32 -8 19 -13 23 -13 23 -1 0 7 -8 20 -17 27 -14 12 -16 12 -8 0z
M3032 2410 c2 -10 -4 -14 -17 -13 -17 1 -17 0 5 -17 37 -28 54 -11 25 26 -11
13 -14 14 -13 4z M3470 2398 c0 -4 5 -8 11 -8 5 0 7 -5 3 -12 -4 -6 2 -18 12
-26 18 -13 18 -14 -3 -7 -17 4 -23 2 -23 -8 0 -10 7 -13 20 -10 27 7 34 21 21
37 -6 7 -9 20 -6 28 4 9 -1 14 -15 14 -11 0 -20 -4 -20 -8z M2831 2376 c-8
-14 -21 -27 -30 -29 -10 -3 -8 -5 7 -6 13 -1 22 5 22 13 0 8 5 16 12 18 6 2 9
10 7 17 -3 8 -10 3 -18 -13z M2913 2379 c9 -6 14 -16 11 -22 -5 -8 -2 -7 7 1
12 11 12 14 -1 22 -8 5 -19 10 -25 10 -5 -1 -2 -5 8 -11z M2853 2366 c-6 -8
-9 -17 -6 -20 4 -3 1 -6 -5 -6 -7 0 -12 -7 -12 -15 0 -8 -5 -15 -11 -15 -5 0
-7 5 -3 11 4 8 0 8 -15 0 -27 -15 -27 -16 9 -18 17 -1 38 -7 48 -12 14 -8 12
-10 -12 -8 -16 1 -31 -4 -33 -11 -3 -7 1 -10 10 -6 15 5 33 -24 21 -35 -4 -3
-9 0 -11 7 -3 6 -9 12 -14 12 -6 0 -8 -3 -5 -8 5 -9 -22 -48 -32 -44 -4 1 -7
-3 -7 -8 0 -6 -6 -14 -13 -19 -10 -6 -9 -10 7 -14 12 -3 19 -1 15 4 -3 5 0 9
6 9 6 0 9 4 6 9 -3 4 4 17 15 27 17 15 24 16 40 6 15 -10 19 -10 20 0 2 23 -3
43 -13 49 -5 4 -3 9 6 12 9 4 13 13 10 22 -5 13 -2 14 22 5 15 -6 34 -18 41
-28 8 -9 11 -11 7 -3 -5 11 -3 13 9 8 11 -4 17 -1 17 8 0 8 -1 17 -2 18 -2 2
4 12 12 22 9 11 10 16 3 11 -7 -4 -13 -3 -13 3 0 5 5 11 10 13 6 2 1 9 -10 15
-16 11 -18 10 -14 -2 4 -9 0 -23 -7 -32 -8 -9 -9 -14 -3 -10 7 4 15 -1 18 -10
4 -10 4 -14 0 -10 -4 4 -13 2 -19 -3 -9 -8 -14 -6 -19 5 -4 11 -13 14 -26 10
-12 -4 -20 -2 -20 6 0 8 -4 8 -15 -1 -20 -16 -30 -7 -13 11 11 12 24 50 16 49
-2 -1 -8 -7 -15 -14z M7536 2368 c3 -5 12 -7 19 -4 8 3 25 -4 39 -15 14 -11
26 -16 26 -10 0 6 5 11 11 11 5 0 8 -4 5 -8 -2 -4 0 -14 5 -22 7 -12 8 -11 6
5 -3 26 -16 45 -28 45 -6 0 -7 -4 -4 -10 8 -13 -8 -13 -22 1 -13 13 -65 20
-57 7z M2894 2359 c-3 -6 -1 -16 5 -22 8 -8 11 -5 11 11 0 24 -5 28 -16 11z
M7493 2353 c1 -23 34 -29 34 -6 0 6 -5 9 -10 6 -5 -3 -13 1 -18 8 -6 10 -8 8
-6 -8z M2720 2346 c0 -2 7 -7 16 -10 8 -3 12 -2 9 4 -6 10 -25 14 -25 6z
M2611 2324 c0 -11 3 -14 6 -6 3 7 2 16 -1 19 -3 4 -6 -2 -5 -13z M7540 2329
c0 -5 5 -7 10 -4 6 3 10 8 10 11 0 2 -4 4 -10 4 -5 0 -10 -5 -10 -11z M7720
2330 c-11 -7 -11 -10 -2 -10 8 0 10 -5 6 -12 -4 -7 -3 -9 1 -5 7 6 17 37 12
37 -1 0 -9 -5 -17 -10z M2734 2312 c6 -11 -10 -37 -24 -37 -12 0 -11 -14 4
-37 6 -10 19 -18 29 -18 10 0 15 5 12 10 -4 6 -11 8 -16 5 -5 -4 -9 -1 -9 4 0
18 5 26 12 24 4 -2 5 4 1 13 -3 8 -2 14 3 13 21 -4 24 2 10 16 -15 16 -31 21
-22 7z M7598 2303 c5 -10 7 -24 5 -30 -3 -7 0 -13 5 -13 5 0 12 11 14 25 3 13
1 22 -3 19 -5 -3 -9 0 -9 5 0 6 -5 11 -10 11 -7 0 -7 -6 -2 -17z M2610 2286
c-9 -12 -8 -15 9 -13 12 1 21 7 21 14 0 17 -15 16 -30 -1z M7755 2290 c-16 -7
-17 -9 -3 -9 9 -1 20 4 23 9 7 11 7 11 -20 0z M2766 2269 c-10 -15 -12 -27 -6
-33 7 -7 1 -20 -17 -38 -15 -15 -22 -28 -17 -28 6 0 20 11 32 25 12 14 26 25
31 25 10 0 9 55 -1 65 -3 4 -13 -4 -22 -16z m24 -15 c0 -8 -4 -12 -10 -9 -5 3
-10 10 -10 16 0 5 5 9 10 9 6 0 10 -7 10 -16z M2980 2279 c0 -5 5 -7 10 -4 6
3 10 8 10 11 0 2 -4 4 -10 4 -5 0 -10 -5 -10 -11z M7480 2282 c0 -23 54 -37
79 -21 14 9 14 10 -1 5 -12 -3 -18 0 -18 9 0 18 -17 20 -23 3 -3 -10 -7 -10
-20 1 -10 8 -17 9 -17 3z M3926 2264 c-4 -9 -4 -19 -1 -22 2 -3 7 3 11 12 4 9
4 19 1 22 -2 3 -7 -3 -11 -12z M3950 2259 c0 -5 5 -7 10 -4 6 3 10 8 10 11 0
2 -4 4 -10 4 -5 0 -10 -5 -10 -11z M7726 2253 c-6 -14 -5 -15 5 -6 7 7 10 15
7 18 -3 3 -9 -2 -12 -12z M6245 2240 c-12 -5 -14 -9 -6 -9 11 -1 10 -5 -5 -16
-16 -13 -17 -16 -4 -25 22 -14 30 -12 31 8 0 10 3 12 6 5 2 -7 11 -13 19 -13
8 0 23 -9 35 -21 11 -11 24 -18 27 -14 4 4 -1 12 -10 19 -15 11 -15 13 0 24
14 9 12 10 -9 2 -30 -10 -39 -5 -39 19 0 14 2 14 10 1 8 -13 10 -12 10 3 0 9
-4 17 -9 17 -5 0 -15 2 -23 4 -7 3 -22 1 -33 -4z m35 -10 c0 -5 -5 -10 -11
-10 -5 0 -7 5 -4 10 3 6 8 10 11 10 2 0 4 -4 4 -10z m-30 -30 c0 -5 -2 -10 -4
-10 -3 0 -8 5 -11 10 -3 6 -1 10 4 10 6 0 11 -4 11 -10z M2630 2211 c0 -5 5
-13 10 -16 6 -3 10 -2 10 4 0 5 -4 13 -10 16 -5 3 -10 2 -10 -4z M2700 2206
c0 -13 -5 -17 -20 -13 -11 3 -18 2 -15 -3 3 -4 14 -10 25 -13 11 -3 18 -1 15
3 -3 5 -1 10 5 12 6 2 6 8 0 18 -8 13 -10 12 -10 -4z M4033 2183 c9 -14 47
-24 47 -12 0 5 -4 9 -9 9 -5 0 -17 3 -27 7 -11 4 -15 3 -11 -4z M4115 2180
c-3 -5 -1 -10 4 -10 6 0 11 5 11 10 0 6 -2 10 -4 10 -3 0 -8 -4 -11 -10z
M6059 2172 c-8 -10 -14 -23 -12 -29 5 -15 -14 -26 -22 -13 -3 5 -12 10 -18 10
-7 0 -4 -5 6 -11 9 -6 15 -15 11 -20 -3 -6 -12 -5 -22 3 -12 10 -16 10 -20 0
-2 -7 -10 -19 -18 -26 -10 -11 -11 -15 -2 -18 9 -3 9 -6 0 -12 -7 -4 -15 0
-19 9 -3 10 -1 20 4 24 7 4 6 11 -4 20 -12 11 -14 11 -12 0 5 -38 -2 -43 -22
-19 -13 16 -19 19 -15 8 6 -20 -8 -33 -25 -22 -8 4 -7 9 2 16 10 6 7 8 -10 6
-15 -2 -26 3 -28 12 -4 13 -3 13 6 0 9 -13 11 -12 11 3 0 16 -5 18 -42 12 -24
-4 -45 -9 -47 -11 -9 -8 20 -55 29 -49 7 4 9 -3 5 -19 -3 -14 -7 -37 -10 -51
-4 -17 -10 -23 -18 -18 -8 4 -7 1 2 -10 12 -15 11 -17 -11 -15 -20 2 -25 8
-25 30 0 22 3 25 14 16 7 -6 16 -8 20 -4 3 3 1 6 -6 6 -8 0 -7 5 3 16 14 14
14 17 1 30 -18 18 -46 15 -53 -5 -3 -8 0 -11 6 -7 6 3 10 -7 9 -27 -1 -29 -4
-32 -35 -33 -19 -1 -38 -8 -43 -15 -4 -7 -11 -10 -15 -6 -4 4 -14 2 -21 -5
-11 -9 -16 -9 -23 1 -5 10 -9 10 -13 2 -3 -7 -5 -7 -3 1 2 7 10 13 19 13 8 0
19 4 24 9 4 5 -4 7 -19 4 -32 -6 -35 -1 -11 17 11 8 13 14 5 19 -7 4 -12 2
-12 -3 0 -6 -4 -11 -10 -11 -5 0 -7 6 -4 14 3 8 1 17 -5 20 -6 4 -8 -5 -6 -22
2 -19 -1 -29 -10 -29 -7 0 -11 7 -7 15 4 10 1 13 -7 8 -8 -5 -10 -19 -7 -35 3
-14 3 -20 0 -13 -11 24 -29 11 -31 -23 -2 -35 -2 -35 43 -35 24 0 43 3 43 8
-4 24 2 35 13 24 9 -9 15 -7 25 6 13 15 14 15 9 -8 -3 -14 -3 -19 0 -12 3 6
11 9 16 6 7 -5 8 -2 3 6 -6 10 -4 12 10 6 12 -4 22 0 32 14 14 20 16 20 27 4
8 -11 18 -14 27 -9 11 6 12 5 2 -6 -17 -18 -16 -29 2 -29 8 0 14 5 13 11 -2 6
3 14 10 16 8 3 10 -1 6 -12 -5 -13 0 -16 35 -14 22 2 41 7 41 12 0 4 5 5 10 2
6 -3 10 0 10 8 0 25 -12 27 -31 4 -10 -12 -18 -16 -19 -9 0 6 6 12 13 13 6 0
3 4 -8 9 -11 5 -15 9 -9 9 6 1 11 8 11 16 0 11 -4 12 -14 3 -7 -6 -16 -8 -20
-4 -4 3 2 13 13 20 17 13 22 11 47 -17 16 -18 28 -25 27 -17 -4 28 0 41 11 34
8 -5 8 -8 0 -13 -8 -5 -7 -13 3 -27 8 -10 18 -16 22 -12 4 4 2 14 -4 21 -7 8
-9 16 -6 19 7 8 60 -42 57 -53 -2 -5 4 -9 12 -9 17 0 11 25 -14 54 -9 11 -11
17 -5 13 12 -7 59 41 50 51 -3 3 -1 11 5 19 9 10 8 13 -5 13 -10 0 -15 -4 -12
-9 3 -5 -1 -12 -9 -15 -13 -4 -13 -2 -5 14 6 10 10 23 9 27 -4 23 4 24 27 2
18 -17 23 -19 18 -6 -3 9 -1 24 6 32 14 17 45 21 35 5 -3 -5 -1 -10 4 -10 6 0
11 6 11 13 0 8 4 7 11 -3 9 -12 10 -12 5 3 -3 10 -6 20 -6 23 0 2 -7 1 -15 -2
-10 -4 -15 0 -15 11 0 9 5 13 10 10 6 -3 10 1 10 9 0 21 -12 20 -31 -2z m-265
-74 c-3 -4 0 -8 5 -8 6 0 11 6 12 13 0 6 5 2 11 -11 6 -13 17 -21 24 -18 7 3
18 -2 24 -9 7 -8 16 -13 20 -10 4 3 26 -2 49 -10 23 -8 41 -11 41 -8 0 4 2 4
5 1 8 -8 -6 -38 -17 -38 -5 0 -6 5 -3 10 4 6 3 10 -2 9 -21 -4 -34 2 -28 14 4
6 -1 3 -9 -7 -9 -11 -16 -24 -16 -30 0 -6 -5 -5 -12 2 -9 9 -16 8 -29 -4 -16
-14 -18 -14 -24 5 -7 23 -31 28 -38 9 -3 -7 -4 -2 -4 12 1 14 8 30 17 37 15
12 12 14 -22 17 -25 2 -37 33 -13 33 8 0 12 -4 9 -9z m-41 -63 c4 -8 2 -17 -2
-20 -5 -2 -11 4 -14 15 -6 23 8 27 16 5z m197 -32 c0 -10 -20 -40 -20 -31 0 3
-3 13 -6 22 -4 11 -1 16 10 16 9 0 16 -3 16 -7z m-395 -43 c3 -5 1 -10 -4 -10
-6 0 -11 5 -11 10 0 6 2 10 4 10 3 0 8 -4 11 -10z m247 -25 c0 -5 -5 -11 -10
-13 -5 -1 -9 4 -9 13 0 9 4 14 9 13 5 -2 10 -8 10 -13z m-239 -11 c-6 -17 -23
-18 -24 -1 0 10 -2 10 -6 0 -2 -7 -11 -13 -19 -13 -27 0 -3 25 25 26 21 1 28
-2 24 -12z M5833 2053 c-7 -2 -13 -9 -13 -14 0 -6 5 -7 10 -4 6 3 12 0 15 -7
8 -20 60 -15 61 6 2 11 1 12 -3 2 -3 -12 -8 -11 -24 5 -20 20 -25 21 -46 12z
m32 -13 c3 -5 2 -10 -4 -10 -5 0 -13 5 -16 10 -3 6 -2 10 4 10 5 0 13 -4 16
-10z M3080 2140 c-6 -11 -14 -19 -18 -19 -21 4 -31 -3 -25 -17 4 -11 9 -12 16
-5 6 6 18 11 27 11 10 0 16 9 16 25 0 30 -2 31 -16 5z M5953 2145 c-10 -10 -9
-16 0 -24 9 -7 16 -4 26 10 7 12 10 24 7 27 -3 3 -6 -1 -6 -9 0 -10 -3 -10 -8
-3 -5 9 -10 8 -19 -1z M3937 2144 c-3 -4 1 -13 9 -21 17 -18 29 -11 21 12 -7
16 -19 20 -30 9z M4370 2145 c0 -4 7 -19 15 -34 8 -16 11 -32 7 -36 -4 -5 -1
-5 6 -1 16 10 15 -4 -3 -28 -8 -11 -15 -26 -15 -34 0 -17 33 22 43 51 4 11 12
15 19 11 9 -6 9 -9 0 -12 -7 -2 -12 -8 -12 -14 0 -6 6 -6 15 2 12 10 18 10 33
-1 15 -12 16 -12 5 2 -7 9 -10 19 -6 23 4 4 0 4 -10 0 -10 -3 -17 -1 -17 6 0
7 -8 9 -19 5 -11 -3 -22 -1 -26 5 -3 5 -1 10 4 10 6 0 11 6 11 14 0 9 7 13 20
11 11 -2 20 1 20 7 0 6 -14 9 -34 6 -19 -2 -32 0 -30 4 3 4 -2 8 -10 8 -9 0
-16 -2 -16 -5z M4277 2124 c-10 -30 -5 -47 16 -60 18 -10 18 -11 0 -33 -10
-12 -27 -24 -38 -26 -11 -2 -21 -4 -23 -4 -1 -1 2 -10 8 -21 8 -16 8 -18 -4
-14 -8 3 -19 -3 -26 -15 -10 -19 -8 -21 17 -20 25 0 26 1 8 9 -17 7 -17 9 -2
9 19 1 64 41 45 41 -7 0 -3 7 10 15 18 13 26 14 44 4 16 -9 19 -14 9 -17 -7
-2 -17 2 -22 9 -6 11 -11 11 -21 1 -6 -6 -8 -12 -3 -12 4 0 0 -9 -10 -19 -17
-19 -16 -20 11 -17 40 5 41 5 24 16 -11 7 -8 9 13 7 15 -1 26 -6 25 -10 -4
-11 32 -31 39 -23 4 3 1 6 -6 6 -7 0 -9 4 -6 10 4 6 17 4 35 -5 35 -18 50 -20
27 -2 -16 11 -16 14 -2 32 12 14 18 16 21 8 3 -7 12 -13 20 -13 19 0 18 -17
-1 -28 -10 -5 -13 -15 -9 -26 5 -14 9 -15 15 -4 5 7 9 8 9 3 0 -6 9 -11 20
-12 12 -1 20 4 20 13 0 11 -6 13 -19 9 -31 -9 -33 11 -4 30 23 16 24 18 9 27
-9 5 -24 7 -32 4 -8 -3 -14 1 -14 9 0 9 -8 12 -25 9 -14 -2 -25 0 -25 6 0 5
-5 10 -11 10 -5 0 -7 -4 -4 -10 3 -5 2 -10 -3 -10 -5 0 -12 -9 -15 -20 -3 -11
-10 -20 -17 -20 -6 0 -8 5 -5 10 3 6 1 10 -6 10 -6 0 -9 8 -6 20 3 11 0 23 -5
27 -7 3 -8 1 -4 -5 4 -7 3 -12 -2 -12 -14 0 -36 29 -28 37 3 3 6 1 6 -7 0 -10
3 -10 14 -1 10 8 16 9 21 1 9 -14 25 -3 19 14 -5 14 -34 18 -34 5 0 -5 -7 -6
-16 -2 -8 3 -13 12 -10 19 3 7 -4 16 -14 19 -10 3 -20 14 -22 23 -4 14 -5 13
-11 -4z m33 -34 c0 -5 -6 -12 -12 -16 -7 -4 -10 -4 -6 1 4 4 3 14 -4 22 -8 11
-7 12 6 7 9 -3 16 -10 16 -14z m120 -100 c0 -5 -4 -10 -10 -10 -5 0 -10 5 -10
10 0 6 5 10 10 10 6 0 10 -4 10 -10z m90 -10 c0 -5 -2 -10 -4 -10 -3 0 -8 5
-11 10 -3 6 -1 10 4 10 6 0 11 -4 11 -10z M5865 2129 c-4 -6 -5 -13 -2 -16 7
-7 27 6 27 18 0 12 -17 12 -25 -2z M4467 2123 c-4 -3 -7 -13 -7 -22 1 -13 3
-13 11 2 11 19 8 33 -4 20z M4090 2110 c0 -7 -7 -10 -15 -7 -8 4 -17 2 -20 -4
-4 -5 -2 -8 4 -7 5 2 17 -6 26 -17 16 -20 16 -20 10 3 -4 12 -3 21 2 20 4 -2
9 1 11 7 2 5 -1 11 -7 13 -6 2 -11 -2 -11 -8z M4435 2110 c-3 -5 -1 -10 4 -10
6 0 11 5 11 10 0 6 -2 10 -4 10 -3 0 -8 -4 -11 -10z M4499 2117 c-5 -24 -3
-33 6 -39 6 -5 5 -8 -3 -8 -9 0 -10 -5 -3 -19 6 -10 7 -21 3 -25 -3 -4 2 -4
12 0 15 6 17 4 11 -6 -6 -9 -4 -11 4 -5 7 4 11 16 8 26 -6 21 17 46 28 29 3
-5 2 -10 -4 -10 -6 0 -7 -8 -4 -17 6 -15 7 -15 14 3 7 18 8 18 8 1 1 -21 23
-18 29 4 3 11 2 11 -6 1 -7 -11 -11 -10 -17 5 -5 10 -7 25 -6 33 2 13 1 13 -8
0 -7 -10 -11 -11 -11 -2 0 6 -5 12 -11 12 -5 0 -8 -4 -5 -9 3 -5 -1 -14 -9
-21 -8 -7 -12 -17 -8 -23 3 -5 2 -7 -4 -4 -5 4 -10 20 -11 38 -1 28 -10 53
-13 36z M6124 2106 c-3 -8 -15 -11 -30 -8 -16 3 -24 0 -24 -10 0 -8 -12 -20
-26 -27 -27 -12 -30 -46 -4 -46 24 -1 37 -13 35 -34 -2 -24 -15 -41 -15 -19 0
17 -31 48 -48 48 -9 0 -9 -5 0 -20 7 -11 19 -20 26 -20 7 0 11 -4 8 -8 -2 -4
4 -13 15 -20 14 -9 18 -9 17 -1 -2 6 3 14 11 17 10 3 12 0 8 -12 -12 -30 10
-16 23 14 12 28 14 29 30 15 21 -19 26 -19 34 1 3 8 2 13 -3 10 -5 -3 -12 1
-15 10 -4 9 -13 14 -21 10 -23 -8 -18 2 13 29 22 20 24 24 10 25 -10 0 -18 8
-18 17 0 21 -13 8 -17 -17 -2 -14 2 -18 15 -14 14 5 14 4 2 -4 -10 -8 -18 -7
-28 1 -9 7 -10 13 -4 15 6 2 8 10 5 18 -4 10 2 17 16 21 11 3 18 9 15 14 -8
13 -24 11 -30 -5z m-14 -26 c0 -5 -7 -7 -15 -4 -8 4 -15 8 -15 10 0 2 7 4 15
4 8 0 15 -4 15 -10z m-11 -32 c13 -22 13 -22 -4 -8 -17 14 -18 13 -12 -2 3
-10 2 -18 -3 -18 -6 0 -10 5 -10 10 0 14 -27 12 -33 -2 -4 -9 -6 -7 -6 3 -1 9
9 21 22 27 31 15 30 15 46 -10z m16 -57 c-6 -21 -35 -30 -35 -10 0 5 5 7 12 3
8 -5 9 -2 5 10 -4 10 -3 15 3 11 6 -3 10 -1 10 6 0 7 3 10 6 6 3 -3 3 -15 -1
-26z M3065 2090 c3 -5 8 -10 11 -10 2 0 4 5 4 10 0 6 -5 10 -11 10 -5 0 -7 -4
-4 -10z M4603 2093 c-15 -5 -17 -23 -4 -23 5 0 11 7 15 15 3 8 4 15 3 14 -1 0
-8 -3 -14 -6z M5604 2085 c-8 -20 2 -45 18 -45 9 0 9 3 -2 10 -12 8 -12 10 3
16 12 4 23 0 33 -12 8 -11 13 -14 12 -7 -2 6 5 18 15 25 18 13 17 14 -2 14
-11 0 -17 -4 -15 -8 3 -4 0 -8 -5 -8 -6 0 -11 8 -11 18 0 14 -2 15 -10 2 -6
-10 -10 -11 -10 -2 0 17 -19 15 -26 -3z M4733 2069 c2 -24 19 -33 32 -16 3 4
2 5 -2 2 -4 -3 -12 5 -19 17 l-12 23 1 -26z M4750 2080 c0 -5 7 -10 15 -10 8
0 15 5 15 10 0 6 -7 10 -15 10 -8 0 -15 -4 -15 -10z M5520 2079 c0 -5 7 -9 15
-9 8 0 15 -4 15 -9 0 -5 7 -11 14 -14 10 -4 13 -1 9 9 -3 7 0 14 6 14 6 0 11
5 11 11 0 8 -4 9 -13 0 -8 -6 -17 -8 -21 -4 -10 11 -36 12 -36 2z M4634 2058
l-19 -23 23 19 c12 11 22 21 22 23 0 8 -8 2 -26 -19z M4786 2065 c-3 -8 0 -14
7 -12 7 1 12 -5 12 -13 1 -8 6 -24 13 -35 10 -18 11 -18 12 -2 0 9 -6 17 -12
17 -10 0 -10 2 -1 8 8 5 6 13 -7 29 -14 18 -19 20 -24 8z M4844 2067 c-8 -10
-5 -16 13 -24 12 -6 21 -7 18 -3 -3 5 -1 11 5 15 5 3 10 10 10 16 0 13 -33 10
-46 -4z M4901 2061 c-8 -14 -7 -20 3 -24 9 -4 12 -14 9 -27 -3 -13 -11 -19
-19 -16 -17 7 -18 -6 -1 -24 10 -12 9 -12 -6 -1 -23 18 -31 10 -14 -13 12 -17
15 -17 30 -2 9 10 18 12 22 6 3 -5 1 -10 -6 -10 -10 0 -10 -3 -1 -12 7 -7 12
-17 12 -22 0 -6 -5 -3 -11 7 -5 9 -14 17 -19 17 -5 0 -11 -8 -13 -17 -4 -15
-5 -15 -6 2 -1 17 -3 18 -12 5 -9 -13 -10 -12 -5 3 3 10 0 17 -8 17 -23 0 -12
30 20 51 20 13 24 19 12 19 -9 0 -20 -5 -24 -12 -5 -8 -10 -6 -16 8 -8 18 -8
18 -5 -2 6 -30 -17 -56 -52 -60 -23 -3 -29 0 -25 10 3 9 15 13 30 10 22 -4 23
-3 12 15 -9 15 -14 17 -20 8 -4 -7 -8 -8 -8 -4 0 4 -6 2 -14 -5 -8 -7 -12 -16
-9 -21 2 -4 -3 -10 -11 -13 -9 -3 -14 -9 -12 -13 3 -4 1 -13 -5 -21 -7 -12 -9
-10 -9 7 0 12 -4 24 -8 27 -12 7 -44 -33 -36 -46 4 -6 12 1 20 18 13 28 13 28
11 4 l-2 -25 279 -3 c267 -2 280 -1 298 17 22 24 23 35 4 28 -8 -3 -17 1 -20
9 -9 24 -7 27 9 14 8 -7 15 -9 15 -4 0 5 5 2 11 -6 9 -13 10 -13 6 2 -4 12 0
16 13 15 17 -1 16 -3 -5 -32 -26 -36 -43 -69 -22 -42 8 9 20 17 26 17 7 0 9 5
5 12 -4 7 -3 8 4 4 7 -4 12 -15 12 -24 0 -14 2 -15 9 -3 6 9 6 22 0 32 -6 12
-5 20 1 24 6 4 9 2 8 -3 -2 -6 1 -11 6 -11 6 -1 11 6 12 15 3 19 14 32 14 16
0 -7 4 -12 10 -12 5 0 7 7 4 15 -4 8 -1 15 6 15 7 0 10 8 7 20 -3 12 1 24 11
30 16 9 16 9 0 10 -10 0 -18 5 -18 10 0 15 -30 12 -47 -6 -9 -8 -22 -13 -30
-10 -10 4 -11 1 -3 -13 7 -14 6 -21 -2 -23 -7 -3 -5 -7 6 -11 10 -4 15 -3 11
3 -3 6 -2 10 3 10 11 0 25 -30 18 -38 -8 -7 -56 27 -57 41 -1 6 -1 21 0 32 0
14 -1 16 -6 5 -3 -8 -9 -17 -13 -20 -3 -3 -13 -15 -22 -28 -14 -21 -17 -22
-32 -7 -18 19 -36 12 -36 -13 0 -13 2 -14 8 -4 13 19 41 4 35 -18 -7 -26 -30
-45 -30 -25 0 8 4 15 9 15 4 0 8 4 8 9 0 4 -11 7 -25 5 -22 -2 -25 1 -19 18 4
15 3 18 -6 13 -9 -5 -11 -4 -6 3 4 7 2 12 -3 12 -6 0 -11 5 -11 11 0 8 4 8 15
-1 15 -12 35 -6 35 11 0 6 -9 7 -21 4 -16 -5 -19 -4 -14 5 5 8 4 11 -3 6 -5
-3 -12 -3 -15 1 -2 5 -2 3 -1 -4 2 -6 -6 -21 -17 -34 -23 -27 -23 -25 -3 -33
12 -4 15 -2 10 9 -3 8 -2 15 3 15 5 0 11 -11 13 -24 5 -24 5 -24 -29 -8 -18 9
-33 22 -33 29 0 7 -4 13 -8 13 -12 0 -11 -32 1 -48 5 -7 7 -15 4 -18 -8 -8
-28 6 -22 15 2 5 -7 13 -21 19 -21 10 -23 15 -14 32 7 14 8 26 1 38 -10 16
-10 15 -11 -3 0 -14 -3 -16 -8 -7 -5 7 -16 10 -24 7 -9 -4 -18 0 -21 9 -7 18
-27 22 -27 5 0 -5 4 -8 9 -5 14 9 23 -25 11 -39 -8 -9 -6 -14 4 -18 11 -4 13
-1 10 11 -5 14 -3 13 10 -2 9 -11 16 -15 16 -10 0 6 -5 15 -11 21 -6 6 -7 13
-2 16 4 3 13 -1 20 -8 9 -10 9 -17 -1 -31 -13 -17 -51 -30 -41 -14 3 4 -2 10
-10 14 -8 3 -15 1 -15 -5 0 -6 -5 -7 -11 -3 -8 5 -8 9 1 14 7 4 9 13 6 19 -4
6 -1 11 6 11 9 0 9 3 2 8 -6 4 -14 14 -17 22 -4 8 -5 0 -2 -18 3 -28 1 -31
-11 -21 -9 7 -13 21 -11 31 7 23 0 23 -12 -1z m491 -36 c-16 -19 -16 -19 2 -5
17 13 19 13 14 0 -7 -21 -38 -25 -38 -6 0 9 -4 16 -10 16 -5 0 -10 5 -10 11 0
6 7 9 15 5 9 -3 15 0 15 10 0 12 2 13 14 2 12 -11 12 -16 -2 -33z m-97 -32
c-2 -10 -4 -20 -4 -23 -2 -7 -21 23 -21 33 0 4 6 7 14 7 8 0 13 -8 11 -17z
m-334 -28 c1 -18 -16 -15 -28 5 -11 17 -11 18 8 12 11 -5 20 -12 20 -17z m89
5 c0 -5 -5 -10 -11 -10 -5 0 -7 5 -4 10 3 6 8 10 11 10 2 0 4 -4 4 -10z m-33
-32 c2 -17 0 -19 -7 -8 -5 8 -6 18 -4 22 8 12 10 10 11 -14z m-239 -1 c14 6
15 5 2 -9 -15 -16 -31 -7 -29 17 0 6 3 5 5 -2 3 -7 13 -9 22 -6z m72 -2 c0
-12 -19 -12 -23 0 -4 9 -1 12 9 8 7 -3 14 -7 14 -8z m407 0 c0 -8 -3 -13 -5
-10 -3 3 -12 -1 -21 -7 -10 -8 -9 -4 3 10 23 26 23 26 23 7z m-444 -8 c3 -8
-1 -14 -8 -14 -7 0 -11 6 -8 14 3 7 6 13 8 13 2 0 5 -6 8 -13z m232 3 c3 -5 1
-10 -4 -10 -6 0 -11 5 -11 10 0 6 2 10 4 10 3 0 8 -4 11 -10z m72 -5 c5 -4 3
-5 -4 -2 -6 4 -13 3 -15 -2 -1 -5 -9 -3 -16 5 -11 12 -9 13 7 11 11 -2 24 -7
28 -12z M5438 2073 c26 -5 29 -18 5 -31 -10 -6 -14 -16 -10 -26 4 -10 11 -14
17 -11 5 3 10 1 10 -4 0 -6 -10 -10 -22 -8 -14 1 -23 -4 -23 -13 0 -8 -9 -14
-18 -13 -10 0 -16 -1 -13 -4 3 -3 -1 -15 -9 -27 -22 -30 -19 -36 20 -36 19 0
35 5 35 11 0 5 -5 7 -10 4 -6 -3 -17 0 -25 9 -11 11 -12 15 -2 19 6 2 22 -7
35 -20 12 -13 22 -19 22 -14 0 6 5 11 11 11 5 0 7 -4 4 -10 -3 -5 -1 -10 4
-10 10 0 13 9 15 53 1 10 8 22 16 27 12 8 12 11 -2 27 -15 17 -14 48 1 39 4
-3 7 4 7 15 0 16 -7 19 -46 18 -25 -1 -35 -4 -22 -6z m52 -13 c0 -5 -4 -10 -9
-10 -12 0 -8 -27 6 -41 16 -16 -18 -52 -40 -43 -10 3 -17 10 -17 16 0 5 4 7 9
4 11 -7 41 3 41 14 0 5 -9 12 -20 15 -19 6 -19 7 -2 30 18 26 32 32 32 15z
m-40 -112 c0 -4 -4 -8 -9 -8 -6 0 -12 4 -15 8 -3 5 1 9 9 9 8 0 15 -4 15 -9z
m25 -8 c3 -5 1 -10 -4 -10 -6 0 -11 5 -11 10 0 6 2 10 4 10 3 0 8 -4 11 -10z
M5056 2062 c-3 -6 -1 -14 5 -17 14 -9 20 -2 10 14 -6 8 -11 9 -15 3z M5093
2052 c1 -12 6 -18 15 -15 7 3 10 9 5 12 -4 3 -11 10 -15 15 -4 4 -6 -1 -5 -12z
M5250 2061 c0 -6 4 -13 10 -16 6 -3 7 1 4 9 -7 18 -14 21 -14 7z M5523 2046
c3 -7 0 -20 -6 -27 -10 -11 -9 -11 5 0 15 11 15 41 1 41 -3 0 -3 -6 0 -14z
M4735 2021 c-3 -5 -2 -12 3 -15 5 -3 9 1 9 9 0 17 -3 19 -12 6z M5057 2010 c3
-11 9 -17 14 -15 10 7 1 35 -11 35 -5 0 -6 -9 -3 -20z M5111 2014 c0 -11 3
-14 6 -6 3 7 2 16 -1 19 -3 4 -6 -2 -5 -13z M5640 2021 c0 -6 5 -13 10 -16 6
-3 10 1 10 9 0 9 -4 16 -10 16 -5 0 -10 -4 -10 -9z M5676 2011 c-3 -5 1 -11 9
-14 9 -4 12 -1 8 9 -6 16 -10 17 -17 5z M4629 2005 c-1 -3 -2 -8 -3 -12 -1 -5
-5 -15 -10 -23 -5 -8 -6 -12 -1 -8 4 4 14 0 21 -10 13 -18 10 -32 -7 -32 -6 0
-7 5 -3 12 4 7 3 8 -5 4 -6 -4 -9 -12 -6 -17 12 -18 34 -9 46 20 7 16 17 27
21 25 12 -7 9 19 -3 36 -9 12 -10 12 -5 -4 4 -13 2 -17 -8 -13 -10 4 -12 0 -9
-14 3 -10 0 -19 -6 -19 -11 0 -14 9 -14 43 0 16 -5 24 -8 12z M5622 1997 c10
-8 14 -18 10 -22 -4 -5 -1 -5 6 -1 17 10 15 14 -10 26 -21 10 -21 10 -6 -3z
M4567 1989 c7 -7 15 -10 18 -7 3 3 -2 9 -12 12 -14 6 -15 5 -6 -5z M4447 1977
c-3 -8 1 -14 8 -14 7 0 11 6 8 14 -3 7 -6 13 -8 13 -2 0 -5 -6 -8 -13z M4720
1981 c0 -6 4 -13 10 -16 6 -3 7 1 4 9 -7 18 -14 21 -14 7z M5985 1981 c-3 -6
-1 -11 5 -11 6 0 9 -3 7 -7 -3 -5 -1 -17 4 -28 6 -15 8 -12 5 13 -5 39 -11 48
-21 33z M4332 1958 c-24 -24 -13 -38 31 -37 23 0 36 3 30 6 -7 2 -15 3 -19 1
-3 -2 -11 7 -18 20 -9 17 -14 20 -24 10z m18 -18 c0 -5 -5 -10 -11 -10 -5 0
-7 5 -4 10 3 6 8 10 11 10 2 0 4 -4 4 -10z M4548 1963 c7 -3 16 -2 19 1 4 3
-2 6 -13 5 -11 0 -14 -3 -6 -6z M6136 1957 c3 -10 9 -15 12 -12 3 3 0 11 -7
18 -10 9 -11 8 -5 -6z M4580 1930 c0 -11 2 -20 4 -20 2 0 6 9 9 20 3 11 1 20
-4 20 -5 0 -9 -9 -9 -20z M5703 1937 c4 -11 2 -14 -9 -10 -7 3 -14 0 -14 -6 0
-6 9 -11 20 -11 22 0 27 24 8 36 -7 5 -9 2 -5 -9z M5930 1941 c0 -5 5 -13 10
-16 6 -3 10 -2 10 4 0 5 -4 13 -10 16 -5 3 -10 2 -10 -4z M4410 1930 c0 -6 7
-10 15 -10 8 0 15 2 15 4 0 2 -7 6 -15 10 -8 3 -15 1 -15 -4z M5880 1932 c0
-4 10 -9 22 -9 18 -2 20 0 8 7 -18 12 -30 13 -30 2z"/>
</g>
</svg>
