<?xml version="1.0" standalone="no"?>
<!DOCTYPE svg PUBLIC "-//W3C//DTD SVG 20010904//EN"
 "http://www.w3.org/TR/2001/REC-SVG-20010904/DTD/svg10.dtd">
<svg version="1.0" xmlns="http://www.w3.org/2000/svg"
 width="1024.000000pt" height="1024.000000pt" viewBox="0 0 1024.000000 1024.000000"
 preserveAspectRatio="xMidYMid meet">
<metadata>
Created by potrace 1.16, written by Peter Selinger 2001-2019
</metadata>
<g transform="translate(0.000000,1024.000000) scale(0.100000,-0.100000)"
fill="#000000" stroke="none">
<path d="M2514 8659 c-198 -24 -324 -197 -453 -621 -116 -383 -163 -832 -130
-1249 l10 -136 -57 -114 c-265 -530 -270 -1096 -12 -1601 164 -323 329 -510
708 -805 2 -2 -26 -63 -62 -136 -286 -568 -371 -1088 -241 -1452 60 -166 159
-337 273 -470 l51 -60 -64 -7 c-132 -13 -207 -84 -207 -195 0 -57 23 -99 76
-139 l37 -29 2561 -3 c2830 -3 2609 -8 2673 61 41 44 57 88 49 140 -16 108
-100 164 -251 166 l-29 1 41 43 c141 147 269 382 324 592 10 39 24 118 31 177
25 225 -33 524 -177 903 -14 38 -64 145 -111 238 -81 163 -84 170 -65 183 105
74 259 205 348 297 284 293 445 605 520 1002 21 110 23 393 4 510 -30 192
-107 424 -202 616 l-38 76 11 199 c24 425 -20 802 -139 1199 -76 254 -169 442
-258 523 -76 69 -176 104 -279 97 -193 -12 -652 -209 -1033 -443 l-131 -81
-114 35 c-234 73 -503 129 -743 156 -179 19 -682 17 -850 -5 -262 -34 -525
-91 -725 -157 l-94 -31 -101 62 c-301 187 -533 303 -778 390 -170 61 -274 80
-373 68z m285 -433 c176 -66 483 -226 521 -271 8 -9 -20 -30 -112 -85 -327
-194 -634 -430 -836 -644 l-72 -76 6 102 c16 281 53 492 126 718 67 206 90
246 163 284 46 24 76 20 204 -28z m4689 8 c107 -82 242 -573 268 -974 l7 -105
-149 145 c-82 80 -207 191 -279 247 -152 118 -388 274 -501 331 -130 66 -128
61 -43 114 165 102 460 244 559 268 49 12 100 2 138 -26z m-2163 -264 c748
-68 1469 -396 2013 -915 595 -568 803 -1227 578 -1827 -141 -374 -453 -695
-916 -943 -69 -37 -136 -77 -148 -89 -37 -33 -55 -76 -55 -133 0 -66 35 -116
101 -145 55 -25 116 -19 199 18 31 13 57 23 58 22 2 -2 26 -50 55 -108 101
-201 181 -423 241 -670 9 -36 14 -117 14 -235 -1 -167 -3 -187 -28 -270 -29
-97 -84 -211 -142 -299 -86 -130 -251 -277 -375 -335 l-65 -31 -814 -1 c-532
0 -816 3 -820 9 -9 15 -7 1665 2 1680 6 9 75 12 288 12 153 0 279 -2 279 -5 0
-3 -18 -47 -39 -98 -22 -50 -61 -144 -88 -207 -70 -164 -62 -154 -125 -151
-60 3 -97 -18 -123 -69 -32 -61 -8 -183 55 -280 42 -65 146 -163 205 -192 135
-68 311 -68 454 -1 116 54 244 215 281 352 30 111 -56 213 -160 190 -24 -6
-39 -4 -47 4 -13 13 -191 399 -199 433 -4 17 2 22 34 32 51 16 118 87 128 137
14 74 -37 174 -102 201 -28 12 -110 14 -418 14 l-384 1 -4 48 c-18 181 -232
270 -368 154 -51 -44 -73 -84 -80 -148 l-5 -50 -387 -2 c-367 -2 -388 -3 -426
-22 -73 -37 -112 -127 -91 -205 15 -53 82 -124 125 -132 19 -3 34 -11 34 -16
0 -6 -36 -90 -79 -187 -44 -97 -88 -197 -99 -222 l-20 -45 -58 3 c-47 3 -66 0
-92 -17 -172 -108 48 -501 313 -558 98 -21 131 -22 214 -8 117 21 182 55 272
145 63 64 81 89 109 156 54 132 51 207 -13 261 -27 23 -38 26 -83 22 -52 -4
-52 -4 -67 31 -8 20 -53 124 -100 231 l-86 195 276 3 c195 2 280 -1 289 -9 12
-10 14 -150 14 -838 0 -454 -4 -832 -8 -839 -7 -10 -129 -12 -583 -12 -316 0
-682 0 -814 0 -269 0 -266 -1 -400 85 -75 48 -218 190 -272 270 -127 189 -192
411 -179 619 11 181 69 413 162 655 51 131 143 321 156 321 5 0 23 -7 40 -16
115 -59 206 -50 275 29 56 64 51 159 -11 220 -18 17 -84 59 -147 91 -298 155
-569 375 -740 602 -111 148 -211 375 -255 579 -23 108 -23 355 0 485 101 559
555 1139 1197 1529 478 289 947 447 1474 494 91 8 478 6 580 -3z m-1105 -4712
c0 -5 -26 -8 -59 -8 l-58 0 30 62 29 63 29 -55 c15 -30 28 -58 29 -62z m1730
0 c0 -5 -25 -8 -55 -8 -30 0 -55 2 -55 4 0 2 12 30 26 61 l27 58 28 -54 c15
-30 28 -57 29 -61z m-1584 -266 c-21 -40 -78 -87 -125 -101 -50 -15 -143 -14
-178 1 -43 19 -96 63 -116 97 l-18 31 223 2 c123 2 224 2 226 1 2 0 -4 -15
-12 -31z m1764 18 c0 -20 -76 -94 -115 -111 -46 -21 -139 -25 -196 -8 -46 14
-104 61 -124 100 l-16 29 226 0 c143 0 225 -4 225 -10z M3240 5951 c-73 -26
-153 -109 -175 -183 -35 -118 -9 -222 76 -307 62 -62 118 -85 204 -85 120 1
216 60 273 169 36 69 38 178 4 247 -30 60 -89 121 -144 148 -63 31 -168 36
-238 11z M6591 5949 c-134 -53 -216 -210 -177 -341 69 -240 351 -312 516 -131
131 143 97 347 -75 449 -51 31 -71 37 -135 40 -60 3 -86 0 -129 -17z M4520
5792 c-53 -26 -72 -71 -68 -162 4 -91 25 -137 90 -203 69 -69 143 -100 240
-100 66 0 86 4 141 31 35 17 72 40 81 51 18 20 19 20 64 -15 48 -36 153 -74
206 -74 43 0 140 26 174 47 50 30 113 97 137 144 36 69 42 155 17 212 -38 85
-127 114 -182 59 -32 -33 -52 -91 -43 -133 8 -40 -50 -99 -97 -99 -65 0 -120
47 -120 102 0 80 -50 146 -117 154 -21 3 -49 -1 -63 -8 -38 -20 -70 -75 -70
-120 0 -54 -25 -97 -65 -114 -52 -21 -81 -17 -120 17 -33 29 -35 34 -34 90 2
69 -17 104 -66 125 -45 18 -63 18 -105 -4z M2553 5509 c-81 -16 -117 -105 -73
-177 31 -51 68 -61 213 -59 l127 2 31 32 c25 24 33 42 37 82 4 47 2 53 -31 86
-29 29 -43 35 -78 36 -24 0 -78 2 -119 3 -41 1 -90 -1 -107 -5z M7295 5510
c-63 -7 -91 -23 -110 -60 -26 -50 -19 -95 19 -138 l34 -37 134 -2 c148 -2 182
7 211 56 34 58 8 150 -48 171 -31 12 -174 18 -240 10z"/>
</g>
</svg>
