<?xml version="1.0" standalone="no"?>
<!DOCTYPE svg PUBLIC "-//W3C//DTD SVG 20010904//EN"
 "http://www.w3.org/TR/2001/REC-SVG-20010904/DTD/svg10.dtd">
<svg version="1.0" xmlns="http://www.w3.org/2000/svg"
 width="1024.000000pt" height="1024.000000pt" viewBox="0 0 1024.000000 1024.000000"
 preserveAspectRatio="xMidYMid meet">
<metadata>
Created by potrace 1.16, written by Peter Selinger 2001-2019
</metadata>
<g transform="translate(0.000000,1024.000000) scale(0.100000,-0.100000)"
fill="#000000" stroke="none">
<path d="M2284 8490 c-29 -12 -62 -56 -74 -99 -19 -69 -44 -97 -107 -120 -81
-29 -86 -33 -106 -74 -34 -67 9 -137 91 -151 57 -9 90 -40 127 -122 27 -59 41
-77 68 -90 63 -30 130 11 155 95 20 65 53 96 124 116 74 20 87 29 104 72 26
61 -17 124 -99 145 -68 17 -111 60 -127 127 -20 85 -88 129 -156 101z M3248
7906 c-133 -47 -173 -137 -230 -512 -40 -267 -29 -826 23 -1097 l9 -50 -76
-121 c-82 -131 -176 -319 -217 -431 -86 -241 -125 -444 -136 -707 -4 -92 -10
-170 -13 -173 -3 -4 -23 4 -45 17 -146 91 -367 129 -543 94 -322 -65 -567
-301 -656 -631 -40 -151 -30 -341 86 -1550 30 -311 56 -422 141 -605 95 -202
290 -441 472 -578 l69 -51 -369 -3 c-409 -3 -401 -2 -443 -71 -36 -58 -17
-137 44 -180 l31 -22 3715 0 c2043 0 3731 3 3750 7 44 9 80 49 80 90 0 21 12
44 40 75 22 25 45 64 51 87 20 75 -8 172 -65 225 l-25 24 39 45 c81 92 76 206
-13 299 l-30 32 25 21 c32 24 78 114 78 150 0 49 -29 126 -62 164 l-33 38 38
41 c78 84 72 202 -14 293 l-29 30 26 25 c88 81 90 215 5 311 l-31 35 40 42
c81 85 76 204 -13 298 l-30 32 30 28 c46 43 67 91 67 153 0 62 -19 107 -67
157 l-30 32 27 22 c43 33 70 96 70 159 -1 63 -21 109 -70 161 l-34 35 29 22
c16 12 41 46 56 77 23 47 27 64 22 109 -7 69 -45 143 -97 190 -35 32 -138 87
-201 109 -9 3 -20 22 -24 43 -3 21 -18 61 -32 88 -141 278 -422 445 -713 422
-88 -6 -202 -37 -270 -71 -51 -26 -60 -24 -60 11 0 38 -56 245 -95 349 -56
151 -133 308 -213 433 l-72 112 19 133 c70 478 60 879 -29 1260 -38 166 -94
243 -197 273 -73 21 -153 11 -309 -42 -360 -119 -659 -279 -1011 -541 l-73
-54 -77 11 c-272 38 -518 41 -758 10 l-160 -21 -55 40 c-347 253 -687 434
-1023 545 -198 66 -270 77 -339 52z m2267 -930 c240 -43 408 -98 620 -201 230
-112 448 -268 622 -443 352 -355 560 -783 589 -1215 6 -89 5 -95 -28 -176
l-34 -84 -52 -18 c-131 -45 -209 -105 -251 -194 -44 -95 -36 -172 29 -253 l39
-50 -21 -18 c-33 -30 -66 -96 -73 -145 -9 -63 8 -119 54 -170 l39 -44 -38 -42
c-45 -48 -64 -108 -56 -173 5 -44 4 -46 -62 -122 -118 -135 -359 -331 -370
-300 -2 6 -15 35 -30 64 -48 95 -141 121 -221 61 -58 -45 -67 -81 -80 -343
-18 -371 -42 -558 -112 -904 -60 -295 -120 -444 -218 -545 -86 -88 -180 -121
-348 -121 -87 0 -94 2 -88 18 95 227 255 994 255 1225 0 138 -114 224 -227
170 -56 -26 -82 -76 -94 -179 -15 -132 -26 -210 -60 -404 -35 -207 -118 -572
-132 -586 -6 -6 -57 191 -101 386 -30 133 -79 441 -101 632 -12 103 -71 163
-163 163 -71 0 -111 -26 -142 -91 -20 -39 -21 -54 -15 -122 30 -334 159 -929
250 -1153 13 -33 21 -60 17 -60 -4 -1 -50 -1 -102 0 -113 3 -209 23 -266 56
-96 56 -184 189 -233 348 -96 317 -167 806 -185 1275 -6 147 -17 183 -71 231
-48 42 -96 48 -153 19 -49 -24 -92 -82 -92 -125 0 -13 -4 -23 -9 -23 -5 0 -42
22 -83 49 -218 146 -434 395 -567 651 -137 265 -198 503 -208 806 -9 273 15
449 93 683 159 480 490 886 944 1158 215 129 414 212 641 268 123 30 181 40
339 59 85 10 468 -3 555 -18z m2637 -1877 c82 -27 161 -81 210 -143 39 -49 88
-136 88 -156 0 -7 -143 -10 -436 -10 l-436 0 6 31 c14 69 93 173 174 229 101
69 273 90 394 49z m-5868 -500 c161 -31 324 -198 380 -389 9 -30 23 -129 31
-220 9 -91 22 -232 30 -315 8 -82 35 -357 60 -610 49 -495 59 -549 122 -665
35 -64 90 -141 123 -170 11 -9 20 -38 24 -74 13 -115 87 -295 176 -426 23 -34
75 -96 114 -138 l71 -75 -235 6 c-248 6 -335 17 -489 63 -415 125 -777 488
-875 876 -20 80 -28 142 -66 533 -52 537 -90 994 -90 1084 0 159 49 281 160
392 128 129 266 167 464 128z m5661 -49 l430 0 -2 -72 c-2 -39 -6 -74 -9 -77
-9 -9 -652 -13 -781 -6 l-113 7 0 80 c0 78 1 80 23 74 12 -3 216 -6 452 -6z
m433 -454 l3 -74 -168 -7 c-164 -8 -676 1 -720 12 -21 5 -23 11 -23 77 l0 71
452 -3 453 -2 3 -74z m2 -383 l0 -71 -32 -8 c-42 -10 -732 -7 -813 3 l-60 8
-5 70 -5 70 457 0 458 0 0 -72z m-5264 -220 c27 -38 97 -117 156 -177 l107
-109 -30 -41 c-88 -120 -151 -225 -181 -297 l-33 -82 -7 59 c-3 32 -18 187
-32 344 -14 157 -28 304 -30 328 -2 23 -2 42 -1 42 2 0 25 -30 51 -67z m4107
-58 c-3 -9 -8 -14 -10 -11 -3 3 -2 9 2 15 9 16 15 13 8 -4z m540 3 c12 -6 27
-18 33 -26 10 -13 48 -14 282 -9 149 4 276 8 282 9 7 2 11 -24 13 -73 l2 -77
-90 -6 c-223 -17 -795 -1 -816 22 -4 4 -4 33 -2 65 l5 57 85 0 c76 0 88 3 115
25 32 27 58 31 91 13z m-738 -194 l26 -26 -27 -29 -27 -28 -33 27 -34 27 28
26 c34 34 36 34 67 3z m198 -189 c-3 -9 -8 -14 -10 -11 -3 3 -2 9 2 15 9 16
15 13 8 -4z m763 -20 l390 0 3 -76 2 -77 -158 -7 c-164 -8 -691 0 -730 11 -21
6 -23 12 -23 86 l0 79 63 -8 c34 -4 238 -8 453 -8z m-4251 -25 c24 -16 54 -34
68 -39 23 -9 24 -15 30 -123 20 -346 115 -852 201 -1070 34 -88 94 -196 121
-218 44 -37 -15 -36 -175 2 -371 88 -620 406 -620 792 0 183 48 337 156 501
58 88 143 185 163 185 7 0 32 -13 56 -30z m2960 -11 c89 -82 178 -220 224
-346 16 -43 42 -105 57 -137 l28 -59 -21 -37 c-30 -51 -37 -99 -23 -163 22
-110 -32 -249 -164 -414 -36 -45 -92 -103 -123 -128 -119 -93 -294 -164 -445
-180 l-68 -7 54 86 c124 197 230 663 276 1211 6 71 13 131 15 134 10 10 131
81 138 81 4 0 28 -19 52 -41z m1331 -313 l350 0 3 -76 2 -77 -92 -6 c-136 -10
-513 -8 -678 3 -79 6 -145 11 -145 12 -1 2 0 38 2 81 l4 78 101 -8 c56 -4 260
-8 453 -7z m-36 -361 l386 0 -1 -75 0 -75 -80 -8 c-87 -9 -726 -1 -787 9 l-38
6 0 79 0 80 68 -8 c37 -4 240 -8 452 -8z m379 -370 c2 -3 6 -35 9 -73 l4 -69
-38 -6 c-51 -9 -651 -9 -776 0 l-98 6 0 76 0 76 447 -3 c247 -2 450 -5 452 -7z
m8 -405 l4 -40 -455 0 -456 0 0 29 c0 16 -2 35 -5 43 -4 11 75 13 452 11 l457
-2 3 -41z m-1417 -20 c0 -5 -8 -10 -17 -10 -15 0 -16 2 -3 10 19 12 20 12 20
0z m1811 -13 c-10 -9 -11 -8 -5 6 3 10 9 15 12 12 3 -3 0 -11 -7 -18z M3770
5480 c-104 -22 -203 -97 -250 -190 -95 -187 -14 -419 178 -508 48 -23 70 -27
142 -26 120 1 184 28 265 109 79 79 107 146 108 257 1 66 -3 85 -32 143 -44
89 -122 167 -196 194 -68 25 -153 34 -215 21z M6380 5474 c-145 -40 -242 -149
-271 -304 -27 -152 65 -316 220 -389 47 -22 69 -26 141 -26 150 1 260 67 331
197 32 60 34 68 34 163 0 91 -3 105 -29 154 -87 166 -262 251 -426 205z M5021
5192 c-67 -36 -89 -122 -50 -192 l22 -38 -33 -46 c-38 -53 -98 -86 -156 -86
-34 0 -46 7 -89 50 -59 60 -98 75 -153 60 -82 -21 -130 -120 -102 -206 29 -85
145 -171 264 -193 131 -24 298 31 389 128 l47 50 55 -55 c97 -97 247 -148 371
-125 237 44 358 237 232 368 -62 64 -141 53 -209 -28 -39 -47 -43 -49 -90 -49
-58 0 -92 16 -135 62 -59 64 -58 63 -34 113 38 78 13 162 -55 191 -53 22 -231
19 -274 -4z M8241 7783 c-55 -29 -71 -60 -87 -169 -18 -120 -34 -172 -75 -236
-64 -99 -142 -144 -293 -169 -66 -10 -86 -18 -114 -44 -28 -26 -35 -40 -39
-81 -4 -40 0 -55 19 -84 30 -45 55 -56 151 -69 103 -14 176 -51 239 -121 64
-69 94 -136 112 -250 18 -107 34 -141 81 -170 64 -39 142 -13 180 60 7 14 18
60 24 102 31 224 149 349 355 377 101 14 135 34 160 93 18 45 19 49 2 92 -24
62 -55 81 -160 99 -219 38 -319 147 -353 381 -8 55 -22 114 -31 130 -38 65
-111 90 -171 59z m186 -674 l52 -36 -48 -31 c-52 -34 -90 -78 -117 -136 l-18
-36 -12 30 c-20 47 -65 98 -121 137 l-52 36 44 29 c52 34 100 87 122 133 l16
33 41 -61 c24 -36 63 -77 93 -98z M2278 7475 c-34 -19 -48 -44 -48 -85 0 -41
56 -100 95 -100 17 0 39 12 61 34 43 43 45 83 7 126 -34 36 -78 46 -115 25z
M974 1490 c-50 -20 -81 -81 -74 -145 7 -69 86 -123 151 -104 63 18 99 63 99
124 0 94 -92 159 -176 125z M9194 1482 c-35 -22 -64 -76 -64 -119 0 -35 31
-87 66 -110 80 -52 194 20 194 122 0 28 -9 45 -38 76 -47 51 -107 62 -158 31z"/>
</g>
</svg>
