<?xml version="1.0" standalone="no"?>
<!DOCTYPE svg PUBLIC "-//W3C//DTD SVG 20010904//EN"
 "http://www.w3.org/TR/2001/REC-SVG-20010904/DTD/svg10.dtd">
<svg version="1.0" xmlns="http://www.w3.org/2000/svg"
 width="1024.000000pt" height="1024.000000pt" viewBox="0 0 1024.000000 1024.000000"
 preserveAspectRatio="xMidYMid meet">
<metadata>
Created by potrace 1.16, written by Peter Selinger 2001-2019
</metadata>
<g transform="translate(0.000000,1024.000000) scale(0.100000,-0.100000)"
fill="#000000" stroke="none">
<path d="M2409 9066 c-98 -21 -172 -85 -204 -175 -13 -38 -15 -184 -15 -1130
0 -1170 -1 -1137 51 -1225 18 -30 18 -36 5 -74 -25 -70 -56 -228 -71 -365 -64
-573 103 -1121 490 -1602 101 -126 208 -232 357 -352 l118 -95 -78 -61 c-173
-136 -263 -210 -354 -292 -287 -257 -455 -530 -530 -863 -21 -93 -22 -123 -25
-734 -3 -461 -1 -648 7 -679 23 -84 122 -150 203 -135 44 8 112 57 131 95 13
23 16 109 22 483 l7 454 26 16 c541 322 680 402 685 397 2 -2 16 -58 30 -124
81 -365 195 -697 352 -1024 l84 -174 0 -139 c0 -182 20 -232 112 -279 85 -44
194 -6 237 83 19 40 21 61 21 210 0 186 -6 167 94 278 175 195 437 315 766
350 288 32 641 -55 855 -208 68 -49 179 -157 221 -213 l34 -47 0 -161 c0 -206
15 -247 102 -292 79 -41 187 -11 236 65 26 39 27 48 30 195 l4 154 78 161
c157 323 298 744 370 1098 6 33 17 58 24 58 7 0 57 -26 112 -58 54 -32 191
-112 304 -177 113 -65 224 -130 247 -144 l42 -26 1 -444 c0 -432 1 -446 21
-488 25 -51 78 -89 138 -99 62 -10 142 33 178 94 l27 46 4 606 c3 508 1 621
-12 705 -33 218 -112 425 -229 603 -94 143 -309 358 -557 556 -102 81 -186
151 -187 154 -1 4 32 32 74 62 172 125 434 403 560 597 133 204 253 501 308
763 36 169 46 474 20 655 -18 132 -47 274 -71 347 -15 45 -14 49 4 75 55 81
52 22 55 1207 l2 1091 -33 68 c-55 111 -148 164 -272 155 -67 -5 -104 -22
-390 -183 -91 -51 -284 -159 -430 -240 -146 -81 -362 -203 -481 -271 -119 -68
-227 -128 -241 -134 -20 -10 -47 -5 -154 24 -297 82 -557 117 -864 117 -312 0
-572 -36 -862 -117 l-128 -36 -72 40 c-103 56 -482 266 -688 382 -571 321
-753 417 -810 424 -19 3 -60 -1 -91 -8z m506 -646 c253 -141 593 -334 658
-374 9 -6 17 -14 17 -17 0 -4 -42 -30 -92 -59 -235 -133 -427 -279 -613 -465
-100 -100 -253 -283 -302 -361 -9 -15 -12 145 -12 724 l-1 743 23 -12 c12 -7
157 -87 322 -179z m4623 -922 l-3 -373 -53 78 c-110 161 -304 368 -467 498
-100 80 -246 179 -381 259 l-116 68 38 24 c40 25 312 181 739 422 l240 136 3
-370 c1 -204 1 -538 0 -742z m-2113 473 c531 -80 999 -285 1385 -607 118 -98
298 -289 385 -409 171 -234 292 -506 347 -777 20 -97 23 -142 22 -323 0 -191
-3 -221 -28 -335 -73 -332 -220 -599 -471 -858 -119 -124 -213 -202 -365 -302
-422 -278 -962 -439 -1540 -457 -511 -16 -1023 87 -1457 292 -575 272 -978
724 -1107 1242 -42 168 -50 241 -50 423 0 182 8 255 50 424 82 327 261 637
528 914 396 410 956 688 1551 771 215 30 211 29 425 26 126 -3 241 -11 325
-24z m-1710 -4211 c39 -15 103 -38 143 -51 l72 -23 0 -245 c0 -149 4 -262 11
-286 15 -54 82 -120 137 -134 67 -18 143 10 191 70 35 45 42 104 39 302 -2
127 0 187 8 187 5 0 57 -9 115 -19 200 -37 326 -46 634 -45 309 0 415 9 643
53 l92 18 0 -196 c0 -108 5 -213 11 -234 11 -43 59 -102 98 -121 96 -49 207
-10 252 89 16 35 19 69 19 301 l0 260 58 18 c31 10 109 39 172 63 63 25 126
49 139 54 l23 9 -5 -327 c-4 -258 -10 -356 -25 -458 -40 -257 -96 -505 -167
-739 -33 -108 -151 -435 -160 -445 -3 -2 -26 17 -52 43 -116 115 -408 273
-598 325 -158 44 -271 62 -430 68 -434 18 -891 -134 -1166 -386 l-66 -60 -36
87 c-98 237 -175 490 -237 775 -65 301 -81 446 -87 805 l-6 313 54 -22 c30
-12 86 -34 124 -49z m-539 -606 c-9 -4 -257 -149 -376 -219 -177 -104 -250
-145 -250 -140 0 15 68 173 101 234 70 129 184 254 419 459 l95 83 6 -208 c4
-114 6 -208 5 -209z m4077 147 c94 -90 164 -180 216 -281 40 -78 87 -207 78
-216 -3 -3 -103 52 -224 122 -327 190 -388 229 -385 244 2 8 6 100 9 206 l6
192 111 -96 c61 -54 146 -131 189 -171z M3585 6369 c-140 -23 -286 -137 -344
-270 -11 -25 -25 -77 -32 -117 -58 -352 318 -644 640 -496 251 114 352 400
228 639 -69 131 -198 224 -342 245 -79 11 -81 11 -150 -1z M6356 6369 c-83
-13 -187 -72 -249 -139 -94 -101 -135 -222 -124 -363 13 -171 148 -342 313
-397 55 -19 83 -22 168 -18 95 3 109 6 177 40 96 48 143 88 191 162 104 161
103 352 -2 516 -67 104 -184 179 -311 200 -72 11 -93 11 -163 -1z M4896 5910
c-64 -19 -106 -85 -106 -166 0 -61 25 -111 71 -143 l38 -26 1 -76 c0 -63 -4
-82 -23 -109 -64 -95 -200 -97 -263 -3 -12 19 -24 56 -27 89 -9 91 -63 147
-140 147 -152 0 -213 -183 -122 -369 35 -72 120 -163 185 -198 170 -93 387
-68 509 58 l34 35 56 -46 c83 -68 147 -94 246 -101 244 -15 454 166 472 409 7
80 -17 143 -68 181 -44 33 -81 41 -127 28 -62 -16 -90 -55 -106 -144 -16 -92
-37 -124 -99 -150 -40 -17 -51 -18 -88 -7 -23 7 -60 30 -83 51 -41 38 -41 39
-44 122 l-4 83 36 18 c87 41 110 178 45 261 -43 54 -85 66 -231 65 -73 0 -146
-5 -162 -9z M1406 6016 c-32 -34 -49 -69 -83 -181 l-18 -60 -60 -18 c-118 -36
-151 -51 -187 -87 -32 -32 -38 -44 -38 -80 0 -36 6 -48 38 -80 36 -36 64 -48
192 -84 l56 -15 33 -107 c41 -134 74 -174 144 -174 78 0 112 43 157 196 11 40
26 76 33 81 6 6 50 22 97 38 47 15 100 36 118 47 42 26 66 71 58 112 -13 62
-59 97 -189 141 l-90 30 -27 85 c-47 151 -79 190 -158 190 -38 0 -49 -5 -76
-34z M8540 6012 c-30 -30 -43 -56 -65 -127 -14 -50 -30 -96 -34 -104 -4 -8
-44 -25 -90 -38 -144 -41 -198 -89 -188 -166 8 -62 52 -97 162 -131 50 -15 96
-30 104 -35 8 -4 28 -52 46 -106 17 -55 37 -110 45 -121 32 -51 116 -70 166
-37 32 21 56 69 84 168 12 44 26 85 32 92 5 6 32 17 61 23 181 43 251 116 202
211 -21 40 -75 72 -177 103 l-87 26 -16 52 c-8 28 -15 57 -15 63 0 7 -13 38
-30 71 -51 103 -131 125 -200 56z M1895 4543 c-28 -8 -463 -250 -504 -281 -63
-47 -86 -136 -56 -210 39 -92 148 -148 234 -118 64 22 453 248 498 289 23 21
47 55 54 74 25 77 -9 172 -80 219 -37 24 -109 37 -146 27z M8128 4540 c-86
-26 -142 -101 -142 -190 0 -58 27 -105 80 -144 63 -46 456 -265 494 -276 70
-20 175 32 210 104 39 81 17 178 -52 229 -40 30 -394 231 -463 263 -52 25 -81
28 -127 14z M2868 2020 c-45 -24 -75 -62 -87 -109 -14 -53 -14 -443 0 -493 14
-54 72 -112 127 -129 51 -15 105 -2 152 37 60 51 62 61 61 337 -2 249 -2 252
-27 294 -45 77 -146 105 -226 63z M7085 2023 c-44 -23 -65 -44 -86 -85 -17
-33 -18 -59 -16 -285 2 -239 3 -249 25 -285 27 -43 72 -74 124 -83 49 -9 136
30 169 76 24 33 24 38 27 284 2 137 0 260 -3 272 -7 30 -61 90 -96 109 -37 18
-106 17 -144 -3z"/>
</g>
</svg>
