<?xml version="1.0" standalone="no"?>
<!DOCTYPE svg PUBLIC "-//W3C//DTD SVG 20010904//EN"
 "http://www.w3.org/TR/2001/REC-SVG-20010904/DTD/svg10.dtd">
<svg version="1.0" xmlns="http://www.w3.org/2000/svg"
 width="1024.000000pt" height="1024.000000pt" viewBox="0 0 1024.000000 1024.000000"
 preserveAspectRatio="xMidYMid meet">
<metadata>
Created by potrace 1.16, written by Peter Selinger 2001-2019
</metadata>
<g transform="translate(0.000000,1024.000000) scale(0.100000,-0.100000)"
fill="#000000" stroke="none">
<path d="M3616 8729 c-110 -27 -170 -109 -273 -374 -150 -385 -212 -780 -199
-1256 l6 -236 -44 -94 c-118 -249 -186 -567 -186 -861 1 -255 68 -536 186
-771 44 -87 171 -279 214 -325 l31 -32 -30 -53 c-40 -70 -141 -293 -206 -452
-108 -268 -190 -590 -220 -865 -7 -64 -8 -64 -81 -132 -179 -168 -273 -363
-304 -633 -18 -150 1 -328 52 -485 43 -134 172 -372 288 -531 l48 -66 -142
-22 c-353 -54 -465 -99 -426 -171 38 -71 398 -137 1060 -194 460 -40 1363 -61
2330 -53 1099 9 1450 25 2055 92 551 62 722 106 713 183 -7 57 -116 96 -390
137 -89 14 -167 25 -172 25 -5 0 0 10 11 22 37 39 169 253 226 365 62 121 107
255 132 388 14 70 16 123 12 240 -6 176 -28 276 -86 401 -57 122 -105 189
-203 285 l-87 87 -6 83 -7 84 63 24 c159 59 357 181 476 294 221 210 360 457
442 785 49 196 51 232 54 837 l2 570 27 57 c81 170 78 409 -8 580 -69 139
-179 251 -313 322 -187 98 -442 112 -644 36 -81 -30 -195 -109 -260 -180 l-56
-60 -19 33 c-19 30 -20 46 -15 307 6 293 -3 453 -38 660 -62 367 -206 765
-319 881 -56 58 -133 85 -216 75 -144 -17 -515 -197 -709 -344 -148 -112 -343
-295 -486 -455 l-34 -38 -145 21 c-197 30 -442 30 -633 2 l-138 -21 -66 72
c-291 314 -579 527 -907 671 -196 85 -280 105 -360 85z m3502 -320 c42 -44
155 -371 195 -564 54 -255 62 -353 62 -740 l0 -360 47 -90 c121 -235 183 -519
173 -795 -6 -155 -29 -272 -80 -419 -46 -132 -67 -173 -157 -307 -334 -502
-985 -754 -1945 -754 -540 0 -943 66 -1297 212 -394 162 -685 474 -821 881
-48 144 -65 262 -65 459 0 273 48 487 160 710 l50 100 0 271 c0 389 18 610 71
872 28 134 101 356 150 455 33 66 44 80 64 80 36 0 306 -140 432 -224 131 -87
229 -165 350 -279 87 -82 293 -311 293 -325 0 -4 -36 -16 -80 -28 l-80 -20
-26 37 c-36 52 -271 279 -374 362 -99 80 -294 211 -354 238 -63 29 -102 25
-141 -14 -18 -18 -38 -51 -44 -73 -22 -84 -70 -356 -86 -489 -18 -159 -33
-735 -19 -735 5 0 50 46 100 103 153 174 327 301 569 418 120 58 328 139 356
139 12 0 11 -55 -1 -121 -18 -92 -61 -169 -139 -246 -39 -39 -71 -77 -71 -85
0 -26 32 -58 81 -83 270 -137 662 1 793 279 41 86 56 161 56 273 l0 103 64 0
64 0 4 -117 c7 -184 61 -309 185 -430 169 -165 502 -211 700 -97 71 41 70 80
-6 137 -93 69 -150 182 -159 316 -5 70 -4 74 14 67 10 -4 60 -21 109 -38 195
-66 408 -174 549 -281 91 -67 225 -195 287 -273 28 -35 55 -64 61 -64 7 0 8
119 5 353 -4 323 -6 364 -30 502 -35 202 -73 368 -91 404 -36 69 -102 88 -182
52 -56 -26 -242 -151 -334 -225 -136 -109 -373 -352 -406 -414 -3 -6 -164 44
-161 50 8 24 148 187 237 277 230 233 477 407 750 527 89 40 94 40 118 13z
m1303 -1655 c173 -51 303 -190 324 -345 6 -42 3 -56 -24 -106 -34 -62 -39 -82
-16 -63 14 11 14 10 5 -14 -12 -33 -42 -75 -53 -76 -5 0 -5 5 -2 10 3 6 1 10
-5 10 -7 0 -10 -7 -7 -15 6 -14 -44 -65 -64 -65 -5 0 -9 69 -9 161 l0 161 -29
29 c-23 23 -38 29 -71 29 -33 0 -48 -6 -71 -29 l-29 -29 0 -180 c0 -205 7
-192 -96 -192 l-64 0 0 186 0 186 -29 29 c-33 33 -75 38 -121 14 -37 -19 -44
-42 -42 -143 3 -96 -1 -106 -31 -91 l-22 12 23 -25 c16 -17 22 -37 22 -67 l0
-43 -27 17 c-57 36 -124 131 -122 175 0 10 2 11 6 3 2 -7 10 -13 18 -13 7 0
18 -7 25 -15 7 -8 16 -15 19 -15 4 0 -12 21 -36 46 -50 55 -55 87 -24 177 24
68 65 130 120 180 46 41 142 93 199 106 61 15 175 12 233 -5z m-481 -944 c63
-32 202 -68 292 -75 95 -8 236 12 352 50 39 13 71 22 71 22 0 -1 -3 -218 -6
-482 -5 -452 -7 -486 -28 -579 -94 -411 -314 -709 -654 -886 -54 -29 -99 -50
-101 -49 -1 2 -15 49 -31 104 -62 216 -194 542 -306 751 l-61 115 26 32 c131
161 203 277 267 432 52 129 107 341 122 478 6 59 13 107 15 107 1 0 20 -9 42
-20z m-530 -1612 c91 -210 173 -489 196 -665 l7 -53 -77 0 c-96 0 -251 -23
-342 -51 -252 -77 -492 -295 -628 -569 -118 -237 -168 -453 -168 -730 -1 -175
9 -260 44 -378 11 -40 19 -74 17 -76 -3 -3 -262 -36 -284 -36 -4 0 10 19 29
43 20 24 58 90 85 148 84 177 112 346 91 539 -26 247 -111 429 -276 594 -64
63 -198 156 -282 195 l-52 24 54 57 c162 170 190 430 67 631 -17 27 -31 51
-31 53 0 3 26 7 58 11 488 55 915 177 1312 373 94 47 95 47 112 27 9 -11 40
-73 68 -137z m-3823 101 c340 -177 737 -292 1223 -354 74 -10 136 -19 138 -20
2 -2 -11 -25 -28 -51 -67 -107 -94 -266 -66 -388 21 -87 73 -187 131 -250 25
-27 44 -50 43 -51 -2 -2 -28 -15 -58 -30 -97 -49 -163 -96 -244 -174 -125
-121 -208 -253 -255 -405 -32 -103 -54 -295 -47 -401 11 -168 81 -361 174
-483 18 -24 32 -45 30 -47 -4 -4 -270 24 -275 29 -2 1 9 52 24 112 26 103 28
121 28 344 0 207 -3 249 -23 350 -28 138 -76 271 -144 400 -146 276 -378 473
-655 556 -71 21 -116 27 -230 31 -168 6 -155 -13 -117 172 31 154 62 267 113
408 38 108 126 303 136 303 2 0 49 -23 102 -51z m1910 -394 c64 -19 136 -74
167 -128 13 -23 32 -73 41 -112 31 -127 4 -226 -86 -310 -69 -64 -108 -78
-214 -79 -70 0 -100 5 -135 21 -53 25 -120 91 -150 151 -23 44 -38 156 -26
188 6 16 8 16 22 -2 15 -17 15 -17 0 8 -16 28 -12 58 18 116 67 130 217 190
363 147z m-2047 -738 c123 -30 253 -111 366 -229 126 -132 189 -240 239 -414
36 -126 35 -131 -22 -90 -123 87 -235 125 -393 133 -158 8 -253 -11 -385 -77
-126 -62 -214 -141 -294 -260 l-59 -88 -26 57 c-66 147 -89 381 -52 521 23 86
78 203 110 235 14 14 26 31 26 36 0 23 112 119 173 149 101 49 194 58 317 27z
m4122 12 c92 -20 158 -58 239 -138 82 -83 135 -167 171 -276 20 -62 23 -89 23
-225 -1 -166 -12 -227 -61 -337 l-24 -56 -40 62 c-102 157 -267 282 -445 337
-86 26 -334 27 -419 1 -82 -26 -173 -71 -236 -118 -28 -22 -53 -39 -55 -37 -9
9 71 252 107 324 151 305 488 516 740 463z m-1966 -247 c183 -58 336 -187 418
-352 53 -108 76 -201 75 -310 0 -168 -49 -315 -150 -451 -85 -115 -176 -180
-327 -232 -79 -28 -99 -31 -217 -31 -111 -1 -140 2 -200 22 -306 103 -495 362
-495 682 0 198 63 352 200 491 98 99 197 156 327 189 100 25 276 22 369 -8z
m-1926 -662 c238 -38 454 -286 389 -447 -7 -15 -11 -38 -10 -51 1 -33 -44
-106 -92 -147 -22 -19 -44 -35 -49 -35 -4 0 -8 75 -8 166 0 94 -4 174 -10 185
-13 22 -61 49 -90 49 -33 0 -75 -26 -88 -55 -8 -17 -12 -90 -12 -215 l0 -190
-80 0 -80 0 -2 98 c-1 53 -2 143 -2 200 l-1 104 -33 29 c-41 37 -89 39 -130 4
l-29 -24 -6 -177 c-3 -97 -8 -179 -11 -181 -10 -10 -108 52 -141 89 -46 50
-85 130 -85 172 0 39 37 149 48 142 4 -2 8 7 8 20 3 37 77 126 143 173 123 86
232 113 371 91z m3682 -20 c171 -53 307 -205 340 -381 10 -52 9 -58 -18 -105
-47 -83 -92 -130 -152 -162 l-58 -31 4 158 c5 186 -3 224 -53 248 -44 21 -98
11 -125 -24 -19 -24 -20 -39 -20 -224 l0 -199 -90 0 c-100 0 -99 -1 -80 75 7
28 8 28 9 5 1 -16 4 -21 9 -13 4 7 24 13 44 15 20 1 35 5 32 9 -2 4 6 10 18
12 13 2 -10 5 -51 6 l-74 1 6 132 c4 97 2 140 -7 163 -25 59 -112 71 -163 23
-21 -20 -23 -30 -24 -142 -1 -67 -4 -145 -7 -174 l-7 -54 -42 31 c-23 16 -54
49 -71 73 -31 46 -58 115 -48 125 3 4 6 -2 6 -12 0 -10 3 -15 7 -12 3 4 13 1
22 -6 8 -6 3 4 -12 24 -39 52 -37 107 8 196 58 116 160 201 295 244 78 25 219
25 302 -1z M4310 6698 c-78 -30 -169 -123 -199 -203 -25 -68 -31 -174 -12
-242 19 -69 85 -158 151 -201 72 -49 140 -66 234 -60 129 8 246 92 304 216 23
49 27 70 27 152 0 84 -4 102 -28 152 -35 70 -102 140 -171 175 -43 23 -66 27
-151 30 -84 3 -109 0 -155 -19z m65 -112 c101 -43 96 -195 -7 -234 -46 -18
-78 -10 -123 29 -63 56 -52 145 24 196 40 27 59 28 106 9z M6233 6702 c-312
-111 -322 -548 -16 -684 31 -13 77 -22 130 -26 70 -4 93 -1 144 18 80 30 168
111 206 188 25 50 28 68 28 152 0 87 -3 101 -32 161 -39 79 -102 140 -181 177
-75 35 -201 41 -279 14z m54 -129 c35 -23 53 -59 53 -107 0 -84 -77 -142 -155
-116 -51 17 -85 62 -85 113 0 106 102 166 187 110z M5220 6143 c-8 -3 -26 -15
-38 -27 -97 -87 -47 -256 76 -256 l32 0 0 -72 c-1 -93 -12 -140 -44 -187 -112
-161 -355 -85 -356 112 0 83 -65 127 -144 97 -45 -17 -66 -65 -66 -152 0 -111
27 -176 104 -254 69 -69 118 -97 208 -120 125 -32 278 14 368 112 l42 45 54
-51 c61 -58 137 -96 222 -112 168 -31 368 88 431 257 25 67 28 182 7 224 -36
68 -109 80 -162 27 -28 -28 -34 -42 -34 -77 -1 -138 -136 -234 -258 -183 -93
38 -142 125 -142 252 l0 82 36 0 c29 0 44 8 74 38 54 53 60 96 26 166 -39 80
-58 86 -258 85 -89 0 -170 -3 -178 -6z M7462 6130 c0 -14 4 -38 8 -55 l8 -30
0 30 c0 17 -4 41 -8 55 l-8 25 0 -25z M3894 5923 c-67 -12 -95 -124 -45 -177
28 -30 32 -31 274 -87 199 -46 221 -45 258 15 23 38 24 67 4 106 -22 42 -53
55 -242 99 -191 44 -220 49 -249 44z M6855 5923 c-360 -86 -380 -92 -407 -123
-51 -56 -32 -146 35 -169 27 -10 62 -4 242 40 241 60 265 73 265 149 0 34 -6
48 -34 76 -33 33 -53 38 -101 27z M4245 5545 c-22 -7 -110 -34 -195 -59 -121
-36 -160 -52 -183 -74 -60 -60 -38 -160 39 -181 34 -9 57 -4 223 51 219 71
236 79 256 118 28 54 13 105 -41 141 -33 22 -44 22 -99 4z M6473 5544 c-40
-20 -67 -74 -59 -118 6 -29 31 -62 62 -79 28 -16 396 -127 419 -127 42 0 95
59 95 104 0 46 -21 88 -52 104 -24 13 -352 115 -403 126 -19 3 -42 0 -62 -10z
M8220 6098 c0 -9 15 -12 52 -9 39 3 48 6 33 12 -32 12 -85 10 -85 -3z M5355
3640 c-44 -18 -78 -67 -83 -119 -5 -59 11 -91 61 -121 80 -49 194 8 213 105
16 89 -101 173 -191 135z M5145 3590 c10 -11 20 -20 23 -20 3 0 -3 9 -13 20
-10 11 -20 20 -23 20 -3 0 3 -9 13 -20z M5245 2821 c-96 -27 -184 -80 -255
-151 -231 -232 -225 -594 14 -834 114 -114 236 -166 393 -166 282 0 520 197
579 480 62 293 -126 600 -411 675 -80 20 -242 19 -320 -4z m256 -175 c78 -18
209 -98 209 -127 0 -5 -128 -9 -305 -9 -181 0 -305 4 -305 9 0 15 71 70 125
97 88 43 181 53 276 30z m-211 -381 l0 -65 -134 0 c-151 0 -146 -3 -146 81 l0
49 140 0 140 0 0 -65z m510 0 l0 -65 -140 0 -140 0 0 65 0 65 140 0 140 0 0
-65z m-90 -254 c0 -16 -89 -88 -135 -110 -106 -50 -278 -42 -375 17 -32 20
-100 84 -100 94 0 4 137 8 305 8 178 0 305 -4 305 -9z M3147 1957 c-11 -30 -8
-54 8 -61 16 -6 18 11 6 54 -6 22 -8 23 -14 7z M3964 1714 l-39 -36 43 32 c37
28 49 40 39 40 -2 0 -21 -16 -43 -36z M3598 1633 c17 -2 47 -2 65 0 17 2 3 4
-33 4 -36 0 -50 -2 -32 -4z M7651 1912 c-2 -41 -31 -96 -79 -147 -26 -27 -38
-42 -27 -33 11 8 34 23 51 31 33 17 79 91 68 108 -3 5 0 16 6 24 7 8 10 20 7
27 -3 8 -6 5 -7 -7 l-1 -20 -9 20 c-8 19 -9 19 -9 -3z"/>
</g>
</svg>
