<?xml version="1.0" encoding="UTF-8"?>
<svg viewBox="0 0 1024 1024" xmlns="http://www.w3.org/2000/svg" fill="currentColor">
<g transform="translate(0.000000,1024.000000) scale(0.100000,-0.100000)">
<path d="M2966 7875 c-48 -17 -100 -67 -126 -120 -19 -40 -20 -66 -23 -836
l-3 -794 -24 -100 c-21 -87 -24 -125 -24 -290 -1 -176 1 -198 27 -296 109
-419 386 -783 768 -1010 38 -23 69 -43 69 -46 0 -3 -8 -17 -19 -31 -84 -120
-155 -341 -171 -530 -16 -193 9 -373 71 -527 16 -38 29 -71 29 -72 0 -2 -51
-3 -112 -3 -155 -1 -213 -29 -253 -122 -41 -99 5 -207 110 -258 41 -20 64 -20
1476 -20 1534 0 1498 -1 1568 49 25 18 43 21 133 21 204 0 354 33 513 113 224
112 367 253 471 462 171 347 155 665 -49 970 -54 81 -75 103 -121 127 -81 42
-204 2 -244 -80 -43 -85 -37 -125 41 -249 66 -104 85 -152 98 -254 25 -197
-71 -413 -247 -557 -60 -50 -181 -108 -247 -121 -43 -8 -48 -7 -42 8 52 134
69 238 68 411 -1 220 -42 380 -149 577 -24 46 -44 86 -44 90 0 5 21 21 48 37
419 260 690 620 784 1044 27 122 31 421 6 542 -13 64 -14 184 -11 840 2 421 2
788 -2 816 -8 67 -58 149 -113 189 -40 27 -51 30 -120 30 -86 0 -79 3 -637
-262 -126 -60 -283 -134 -347 -163 l-117 -53 -113 36 c-288 91 -517 127 -816
127 -293 0 -505 -32 -773 -116 l-145 -46 -284 132 c-339 158 -585 270 -697
316 -90 37 -143 42 -207 19z m612 -635 l115 -55 -99 -66 c-117 -78 -247 -190
-328 -282 -32 -37 -61 -67 -65 -67 -6 0 -6 102 -3 482 l2 167 132 -62 c73 -34
184 -87 246 -117z m3372 -152 l-1 -333 -57 61 c-31 34 -91 92 -132 129 -74 67
-270 220 -293 228 -16 6 -13 7 63 52 58 34 394 192 413 194 4 1 7 -149 7 -331z
m-1470 58 c317 -64 584 -173 846 -348 233 -155 447 -386 554 -597 43 -85 86
-218 100 -304 20 -122 8 -312 -25 -417 -129 -405 -479 -723 -990 -896 -161
-55 -204 -86 -230 -164 -13 -39 -14 -57 -5 -89 19 -71 84 -127 165 -145 26 -6
138 18 231 49 17 5 27 -4 62 -57 50 -77 97 -192 117 -288 20 -94 19 -262 -1
-353 -23 -100 -79 -212 -136 -269 l-47 -48 -281 0 -280 0 0 283 c0 252 -2 286
-19 322 -63 140 -267 153 -346 23 -19 -31 -20 -55 -23 -330 l-3 -298 -378 0
-378 0 -8 239 c-4 132 -4 244 -1 249 11 19 -14 117 -40 154 -48 68 -157 98
-237 64 -43 -17 -93 -76 -106 -123 -6 -22 -11 -153 -11 -313 l-1 -275 -42 46
c-100 108 -147 251 -147 443 0 206 43 338 170 527 3 4 43 -6 90 -22 100 -34
130 -35 190 -8 56 25 86 53 111 101 25 50 24 84 -6 144 -30 60 -79 94 -178
124 -299 90 -598 273 -781 478 -111 125 -202 289 -248 447 -31 108 -33 350 -4
465 57 223 186 433 391 635 303 300 718 499 1180 569 153 24 166 24 375 21
176 -3 212 -7 370 -39z M3953 5990 c-184 -38 -292 -246 -211 -405 30 -59 100
-127 155 -151 58 -26 167 -24 225 4 56 27 132 107 158 165 24 52 25 128 4 191
-23 68 -111 160 -172 180 -66 21 -111 26 -159 16z M6038 5987 c-128 -37 -207
-145 -207 -287 -2 -204 214 -343 400 -258 112 51 174 144 173 258 -2 191 -188
337 -366 287z M4999 5557 c-100 -37 -156 -126 -147 -228 10 -97 98 -178 202
-187 42 -3 61 1 105 25 74 39 114 96 119 171 10 149 -143 269 -279 219z M1925
5812 c-127 -59 -151 -227 -45 -315 47 -40 90 -47 295 -47 178 0 194 1 235 23
133 68 146 224 26 321 l-38 31 -216 3 c-194 2 -221 0 -257 -16z M7725 5815
c-130 -45 -161 -229 -55 -319 49 -41 94 -47 313 -44 230 3 257 11 308 81 40
55 46 112 20 173 -28 62 -47 82 -96 105 -35 16 -67 19 -245 18 -150 0 -216 -4
-245 -14z M1935 5240 c-70 -22 -119 -97 -119 -181 1 -69 28 -118 87 -157 40
-27 42 -27 251 -30 203 -3 213 -2 256 20 25 13 59 42 77 66 28 37 33 52 33 98
0 71 -28 126 -82 161 l-41 28 -216 2 c-119 1 -229 -2 -246 -7z M7704 5230
c-111 -55 -134 -210 -43 -301 55 -55 89 -61 323 -57 198 3 202 3 248 30 34 21
53 41 72 80 29 58 31 79 15 129 -18 53 -58 99 -103 120 -36 16 -68 19 -256 19
-196 0 -219 -2 -256 -20z M2605 3177 c-57 -23 -74 -38 -102 -84 -96 -164 82
-358 247 -271 63 34 110 105 110 168 0 130 -141 234 -255 187z M7381 3168
c-118 -61 -149 -205 -65 -298 90 -100 233 -86 310 29 39 60 42 109 9 176 -50
103 -159 143 -254 93z M4999 2497 c-28 -15 -54 -40 -73 -70 l-29 -46 2 -233 1
-233 -78 81 c-99 104 -142 134 -196 134 -119 0 -218 -126 -186 -235 10 -33 61
-88 284 -309 149 -148 285 -275 303 -282 91 -39 123 -17 416 282 139 141 260
268 269 283 55 82 -27 236 -137 257 -69 13 -113 -11 -212 -113 l-92 -96 -3
236 -3 235 -30 44 c-60 85 -151 110 -236 65z"/>
</g>
</svg>
