<?xml version="1.0" encoding="UTF-8"?>
<svg viewBox="0 0 1024 1024" xmlns="http://www.w3.org/2000/svg" fill="currentColor">
<g transform="translate(0.000000,1024.000000) scale(0.100000,-0.100000)">
<path d="M2605 8521 c-155 -38 -264 -193 -374 -535 -44 -135 -112 -404 -131
-516 -16 -101 -40 -460 -40 -614 l0 -139 -49 -86 c-195 -340 -323 -853 -308
-1231 22 -530 205 -1029 525 -1426 164 -204 442 -439 630 -531 61 -31 86 -38
129 -37 123 3 219 106 211 226 -6 89 -36 124 -191 225 -389 253 -610 522 -755
918 -84 231 -118 459 -109 735 9 266 51 473 140 696 53 130 78 182 165 333
l65 114 -12 81 c-22 161 -9 476 29 693 23 128 91 370 147 523 36 99 40 105 68
108 21 2 67 -15 144 -53 193 -95 300 -160 476 -290 73 -54 142 -110 225 -183
129 -113 168 -135 239 -135 68 0 132 28 199 88 80 71 262 148 497 211 72 20
141 37 155 39 14 2 36 6 50 9 160 31 458 44 625 26 170 -17 262 -36 475 -97
30 -9 123 -45 205 -80 116 -50 160 -74 195 -108 64 -61 117 -85 188 -85 76 0
116 17 192 82 188 160 234 197 241 192 4 -2 10 4 13 14 4 11 16 24 29 31 12 6
34 19 48 29 233 155 307 201 406 251 65 32 132 62 150 66 30 6 33 4 52 -33 32
-63 99 -264 141 -427 72 -274 74 -294 75 -660 l1 -330 64 -105 c159 -262 268
-595 288 -882 28 -389 -40 -736 -209 -1068 -156 -304 -345 -501 -704 -734
-104 -67 -145 -125 -145 -201 0 -67 13 -101 53 -143 104 -109 219 -99 418 36
367 247 629 550 796 916 322 704 303 1442 -54 2138 l-68 133 -1 230 c-2 313
-40 572 -133 905 -82 294 -170 490 -261 580 -81 81 -134 104 -245 104 -111 1
-182 -20 -366 -110 -236 -115 -461 -261 -715 -464 l-56 -44 -42 16 c-22 9 -83
34 -134 57 -212 94 -456 163 -712 202 -195 30 -593 33 -770 5 -317 -49 -549
-114 -788 -224 l-132 -60 -34 27 c-286 220 -396 293 -626 418 -281 151 -459
204 -585 174z M3402 5939 c-97 -18 -186 -89 -239 -191 -25 -48 -27 -63 -28
-158 0 -91 3 -111 24 -150 51 -98 130 -168 215 -191 74 -20 179 -14 240 14 74
34 149 107 183 176 25 49 28 68 28 151 0 84 -3 102 -28 152 -70 142 -237 226
-395 197z M6728 5938 c-154 -20 -274 -143 -296 -304 -14 -104 15 -194 91 -280
75 -85 168 -125 279 -117 92 5 165 38 229 102 73 73 102 145 102 253 1 69 -3
85 -37 152 -72 146 -203 216 -368 194z M4560 5762 c-19 -9 -45 -33 -58 -52
-22 -33 -23 -42 -20 -165 3 -126 4 -132 37 -192 69 -129 193 -212 327 -221 95
-6 161 11 228 59 l55 40 46 -36 c95 -72 251 -86 368 -32 75 34 168 123 201
192 49 105 60 262 24 335 -43 84 -119 110 -199 69 -53 -27 -78 -81 -79 -169 0
-126 -37 -181 -120 -184 -60 -1 -94 29 -100 90 -7 60 -30 97 -75 118 -95 46
-205 -20 -205 -122 0 -67 -81 -109 -148 -75 -54 28 -72 71 -72 169 0 68 -4 87
-23 115 -49 73 -118 96 -187 61z M2615 5536 c-50 -23 -68 -51 -73 -115 -4 -56
-2 -61 30 -96 l34 -38 120 -1 c150 -2 177 7 205 70 27 59 19 103 -26 152 l-33
37 -114 3 c-79 1 -122 -2 -143 -12z M7380 5532 c-73 -36 -90 -154 -30 -214
l28 -28 139 0 139 0 27 28 c71 74 47 186 -46 221 -48 18 -216 14 -257 -7z
M2775 5021 c-55 -15 -110 -32 -122 -39 -29 -16 -63 -82 -63 -120 0 -40 38 -94
83 -115 37 -19 38 -19 164 12 128 31 154 45 179 93 43 82 -28 200 -118 197
-12 0 -68 -13 -123 -28z M7294 5031 c-36 -22 -64 -75 -64 -123 0 -39 30 -92
61 -109 46 -24 234 -70 266 -64 41 7 89 56 104 105 10 33 9 44 -9 82 -27 55
-54 71 -179 102 -121 31 -139 32 -179 7z M4945 4794 c-295 -45 -527 -188 -700
-429 -81 -113 -126 -212 -165 -356 l-22 -86 -73 -7 c-205 -19 -357 -96 -475
-243 -121 -150 -166 -295 -158 -507 6 -140 25 -207 91 -318 52 -89 162 -200
250 -251 l66 -39 3 -81 c2 -45 5 -167 6 -271 4 -221 10 -263 62 -371 92 -191
250 -317 455 -365 81 -19 122 -20 848 -20 863 -1 834 -3 1007 81 154 76 278
228 332 407 16 55 21 105 24 282 3 118 4 243 4 276 l0 61 65 39 c130 75 233
190 295 328 43 95 59 183 56 310 -2 95 -7 124 -34 204 -69 200 -184 332 -367
418 -74 35 -196 64 -268 64 l-44 0 -7 43 c-14 87 -85 256 -150 356 -136 209
-335 362 -574 441 -145 47 -353 61 -527 34z m395 -448 c238 -82 396 -278 433
-537 4 -24 0 -44 -9 -58 -15 -21 -16 -21 -633 -21 -466 0 -620 3 -629 12 -18
18 -15 74 8 163 60 233 240 404 485 461 91 21 254 12 345 -20z m-1210 -862
c70 -21 159 -108 179 -174 43 -145 -27 -300 -162 -360 -64 -29 -178 -22 -246
15 -147 80 -190 238 -108 389 67 123 195 172 337 130z m2216 -12 c137 -70 194
-203 148 -348 -24 -79 -99 -156 -171 -177 -71 -21 -165 -13 -231 19 -212 104
-194 425 29 513 68 27 165 24 225 -7z m-918 -173 l99 -1 7 -109 c8 -128 42
-245 102 -342 21 -34 40 -64 44 -67 3 -3 19 -22 35 -43 54 -73 185 -160 288
-193 55 -17 56 -18 63 -61 3 -24 5 -131 2 -237 l-4 -194 -30 -48 c-18 -30 -48
-60 -78 -79 l-49 -30 -776 0 c-738 0 -778 1 -811 19 -49 26 -79 55 -103 101
-20 37 -22 55 -23 230 0 105 1 211 4 236 4 45 5 47 45 59 89 26 217 101 276
161 136 136 211 316 211 504 l0 94 38 3 c33 3 373 1 660 -3z M5025 2957 c-115
-45 -185 -148 -185 -274 0 -64 18 -112 65 -169 l35 -42 3 -124 c4 -159 25
-202 114 -234 57 -20 104 -17 161 12 82 41 96 73 101 224 l3 125 33 37 c42 46
52 64 65 123 28 123 -74 290 -198 325 -49 13 -159 12 -197 -3z"/>
</g>
</svg>
