<?xml version="1.0" encoding="UTF-8"?>
<svg viewBox="0 0 1024 1024" xmlns="http://www.w3.org/2000/svg" fill="currentColor">
<g transform="translate(0.000000,1024.000000) scale(0.100000,-0.100000)">
<path d="M5058 9537 c-24 -22 -32 -43 -72 -179 -21 -70 -42 -88 -146 -123 -95
-32 -125 -61 -116 -114 7 -47 31 -69 95 -87 128 -35 149 -54 181 -158 43 -142
57 -161 122 -161 55 0 80 32 114 145 15 50 37 101 49 114 12 13 58 35 103 50
90 30 122 59 122 108 0 41 -45 83 -107 101 -112 34 -132 54 -165 168 -23 84
-44 128 -67 146 -27 21 -85 16 -113 -10z M3743 9142 c-133 -71 -112 -281 32
-321 115 -31 236 92 205 209 -28 105 -146 160 -237 112z M6355 9146 c-66 -30
-111 -111 -100 -181 16 -113 139 -177 242 -128 48 22 93 94 93 147 0 52 -34
120 -72 148 -38 27 -120 34 -163 14z M2055 8898 c-87 -31 -124 -94 -136 -232
-8 -84 -16 -186 -36 -441 -9 -123 -9 -954 0 -1085 4 -52 12 -160 17 -240 5
-80 13 -186 16 -237 l7 -91 -62 -137 c-138 -302 -217 -617 -243 -962 l-12
-162 -458 1 c-433 0 -459 -1 -490 -19 -102 -59 -105 -206 -6 -260 30 -17 69
-18 501 -18 521 0 480 6 492 -74 13 -87 74 -306 118 -421 103 -269 239 -489
465 -752 235 -273 485 -463 882 -668 l185 -95 -12 -85 c-45 -316 -60 -590 -44
-804 6 -83 14 -166 17 -186 6 -35 6 -36 -53 -59 -173 -72 -297 -210 -333 -372
-19 -85 -9 -202 23 -272 l26 -57 -72 0 c-40 -1 -298 -1 -573 0 -276 0 -523 -4
-548 -9 -120 -22 -164 -161 -77 -245 21 -20 43 -29 87 -35 90 -13 6741 -12
6788 0 51 14 92 55 106 108 10 38 9 48 -12 89 -44 88 -37 87 -478 89 -212 2
-482 3 -601 3 l-217 0 26 63 c98 240 -38 525 -301 633 l-69 28 6 46 c14 112
18 542 7 670 -11 125 -34 307 -47 373 -5 26 -2 29 148 100 487 234 819 513
1136 957 167 235 285 518 349 838 l27 132 46 0 c774 5 907 8 926 18 37 20 72
69 79 112 5 32 2 50 -17 87 -43 85 -26 83 -553 83 l-461 0 -12 188 c-12 198
-28 307 -67 462 -36 143 -109 349 -176 494 -50 110 -59 137 -55 171 3 22 8 69
11 105 3 36 9 115 15 175 31 331 33 1274 5 1543 -30 280 -38 329 -61 369 -26
46 -106 93 -157 93 -44 0 -153 -35 -317 -100 -397 -159 -825 -380 -1131 -584
-62 -42 -119 -76 -126 -76 -7 0 -50 15 -95 34 -431 176 -997 264 -1527 235
-420 -22 -847 -111 -1143 -239 l-90 -38 -116 77 c-306 204 -727 421 -1132 584
-260 104 -325 119 -395 95z m228 -367 c23 -11 96 -43 162 -71 181 -79 445
-208 586 -287 115 -64 299 -180 299 -188 0 -2 -25 -17 -55 -34 -165 -93 -479
-325 -660 -488 -97 -87 -274 -277 -352 -377 l-38 -49 -7 34 c-16 76 -30 575
-24 829 8 323 29 650 42 650 3 0 24 -9 47 -19z m5742 -217 c23 -331 22 -1142
-1 -1253 -4 -20 -12 -14 -70 60 -78 100 -283 310 -409 418 -149 128 -368 287
-579 419 l-49 30 69 45 c143 92 407 238 590 325 220 104 424 193 431 188 2 -1
10 -105 18 -232z m-2721 -194 c588 -43 1156 -231 1666 -553 379 -240 685 -536
916 -887 262 -400 392 -802 406 -1265 l3 -100 -165 0 c-172 -1 -189 -4 -238
-48 -27 -25 -45 -88 -37 -129 10 -43 61 -96 105 -108 20 -6 101 -11 179 -11
132 -1 141 -2 141 -20 0 -18 -42 -216 -56 -266 -8 -29 -9 -29 -42 3 -62 59
-172 104 -252 104 -92 -1 -165 -69 -157 -149 7 -60 45 -97 115 -111 77 -14
120 -38 153 -83 42 -58 38 -88 -23 -190 -119 -200 -358 -472 -544 -620 -351
-277 -821 -491 -1376 -627 -152 -37 -377 -77 -483 -86 -44 -3 -114 -9 -155
-13 -125 -12 -497 -13 -640 -1 -628 49 -1202 218 -1704 499 -213 120 -370 237
-538 404 -193 191 -408 494 -408 574 0 68 80 132 182 147 57 9 104 50 114 101
14 75 -63 155 -151 155 -90 0 -208 -50 -258 -110 l-26 -30 -15 53 c-25 86 -56
220 -56 244 0 21 3 22 159 25 143 3 162 5 188 24 70 52 91 126 55 194 -27 49
-79 73 -163 73 -42 1 -69 5 -69 11 0 8 -3 8 -8 1 -4 -6 -43 -11 -90 -10 -67 0
-83 3 -87 16 -8 23 13 276 31 389 62 387 233 768 515 1142 99 132 423 450 571
559 451 335 998 566 1568 663 241 41 449 52 674 36z m-1580 -5275 c284 -88
538 -141 891 -187 228 -29 759 -32 985 -5 354 43 662 108 938 198 51 17 95 29
97 28 9 -11 37 -327 42 -480 8 -234 -17 -522 -62 -740 -24 -119 -101 -256
-191 -341 -46 -42 -143 -97 -213 -118 -35 -11 -67 -20 -72 -20 -4 0 -2 18 6
40 20 56 91 385 110 510 9 58 17 139 18 181 2 69 0 79 -26 112 -50 66 -122 85
-193 51 -54 -26 -74 -70 -110 -252 -36 -184 -113 -506 -141 -592 l-18 -55
-127 -3 c-146 -4 -139 -9 -113 88 20 75 92 493 105 612 15 147 13 274 -6 314
-35 73 -121 100 -202 64 -55 -25 -78 -65 -92 -164 -45 -326 -61 -421 -69 -424
-6 -2 -8 -16 -5 -31 6 -27 -44 -311 -71 -406 l-14 -50 -74 -3 -74 -3 -17 83
c-42 202 -91 492 -116 678 -11 85 -25 177 -31 204 -30 127 -168 176 -255 90
-50 -50 -57 -93 -44 -248 16 -185 55 -451 94 -637 18 -88 30 -161 27 -163 -3
-2 -61 -4 -127 -5 l-121 -2 -10 38 c-6 21 -24 85 -41 143 -36 121 -95 378
-122 526 -26 146 -61 200 -137 214 -76 13 -151 -37 -173 -116 -26 -92 29 -455
106 -693 33 -105 33 -103 -28 -84 -166 49 -304 167 -374 321 -86 189 -132 628
-105 1017 13 183 31 345 38 345 3 0 55 -16 117 -35z m-330 -1466 c20 -40 60
-101 87 -137 28 -35 49 -65 47 -67 -2 -2 -40 1 -85 5 -94 10 -152 33 -207 81
-98 85 -86 214 26 293 l52 36 22 -70 c12 -38 38 -101 58 -141z m3588 176 c137
-93 104 -283 -60 -346 -51 -19 -200 -44 -209 -35 -2 2 7 16 21 31 65 70 135
199 172 318 10 31 23 57 29 57 5 0 27 -11 47 -25z M3358 6119 c-87 -12 -218
-60 -288 -106 -75 -49 -198 -176 -239 -246 -123 -210 -144 -487 -54 -701 91
-218 293 -390 523 -447 77 -19 250 -17 330 5 36 9 107 38 159 63 78 37 108 59
181 131 98 97 153 187 197 317 24 72 27 95 27 225 1 163 -15 237 -80 360 -95
182 -287 337 -474 384 -77 19 -203 26 -282 15z m168 -248 c96 -44 128 -156 68
-237 -29 -40 -218 -178 -280 -205 -52 -24 -90 -20 -142 11 -72 44 -96 151 -49
221 29 44 145 141 227 190 74 44 113 49 176 20z m-306 -626 c11 -10 24 -33 31
-52 23 -71 -49 -155 -119 -138 -38 9 -81 53 -88 91 -7 37 14 84 48 109 29 20
101 15 128 -10z M6685 6120 c-239 -33 -469 -205 -570 -425 -112 -242 -96 -535
41 -741 202 -304 555 -426 877 -302 365 140 556 525 456 915 -64 253 -289 481
-530 538 -83 19 -199 26 -274 15z m168 -244 c42 -17 83 -66 98 -116 17 -55 -2
-114 -50 -158 -45 -42 -191 -142 -250 -172 -82 -41 -186 -8 -227 72 -20 39
-15 112 11 151 20 32 243 203 290 223 39 17 88 17 128 0z m-325 -622 c26 -18
52 -65 52 -94 0 -61 -65 -117 -124 -106 -39 8 -82 50 -90 91 -8 38 20 95 54
112 34 17 81 16 108 -3z M4983 5625 c-135 -68 -152 -247 -32 -334 23 -17 49
-31 57 -31 19 0 11 -56 -18 -116 -39 -79 -115 -112 -184 -79 -55 26 -77 72
-85 172 -6 80 -9 87 -39 114 -64 57 -146 25 -172 -67 -17 -58 -2 -182 29 -241
33 -66 98 -130 165 -163 52 -26 74 -31 134 -31 102 0 164 22 228 85 l54 52 42
-44 c79 -80 181 -113 286 -92 114 24 195 87 249 197 35 72 44 211 18 267 -33
68 -103 85 -157 37 -29 -26 -33 -35 -39 -108 -12 -138 -59 -199 -147 -190 -65
7 -112 57 -147 158 l-14 39 34 16 c79 37 133 127 122 206 -8 57 -53 118 -112
150 -43 24 -61 28 -136 28 -71 0 -93 -4 -136 -25z M997 7549 c-25 -15 -44 -57
-61 -137 -27 -130 -45 -146 -189 -179 -83 -19 -117 -47 -117 -99 0 -57 41 -90
134 -108 43 -8 89 -22 102 -31 29 -19 60 -78 74 -142 6 -26 15 -61 22 -76 11
-29 54 -57 87 -57 33 0 80 48 91 93 41 159 65 188 177 213 114 25 155 75 122
147 -14 30 -39 46 -107 63 -118 31 -149 64 -172 179 -15 82 -28 111 -56 130
-26 17 -80 19 -107 4z M9120 7532 c-17 -17 -31 -45 -35 -68 -25 -146 -57 -193
-151 -219 -122 -34 -146 -52 -146 -110 0 -51 24 -82 74 -95 163 -40 180 -53
215 -172 28 -97 44 -125 81 -139 63 -24 112 17 136 118 31 125 60 155 177 179
88 18 132 53 132 104 0 52 -32 83 -99 98 -149 33 -176 58 -209 199 -23 97 -52
133 -107 133 -30 0 -46 -7 -68 -28z M833 5945 c-85 -37 -98 -177 -21 -227 49
-32 344 -142 379 -141 49 1 84 26 109 79 19 38 20 48 10 79 -26 79 -74 108
-310 191 -106 38 -121 39 -167 19z M9161 5901 c-85 -33 -165 -68 -179 -78 -33
-24 -62 -80 -62 -118 0 -36 30 -88 64 -110 38 -25 82 -21 191 20 215 80 274
116 295 180 14 43 -11 107 -52 136 -54 39 -89 35 -257 -30z M1315 4794 c-11
-3 -119 -28 -240 -55 -121 -28 -236 -58 -255 -67 -107 -52 -105 -192 4 -249
20 -10 45 -14 76 -10 67 8 485 114 519 131 33 17 65 77 65 121 0 85 -85 150
-169 129z M8834 4789 c-101 -29 -115 -182 -21 -243 31 -21 491 -136 541 -136
88 0 158 87 137 167 -14 51 -34 77 -73 96 -34 16 -441 111 -513 120 -22 3 -54
1 -71 -4z M1155 4176 c-42 -20 -85 -63 -101 -103 -28 -66 15 -148 91 -173 51
-17 108 3 159 54 68 68 69 144 3 205 -32 29 -108 38 -152 17z M8970 4183 c-23
-9 -60 -45 -76 -75 -36 -70 0 -149 90 -193 49 -24 58 -25 97 -15 76 21 123 94
105 165 -9 34 -59 90 -100 109 -33 16 -86 20 -116 9z M895 3544 c-140 -51
-171 -249 -53 -337 75 -56 172 -56 240 1 32 28 78 113 78 147 0 73 -55 155
-125 186 -48 22 -86 23 -140 3z M9200 3544 c-172 -75 -155 -321 26 -374 90
-27 207 42 233 137 14 50 14 63 -4 114 -39 109 -157 166 -255 123z M1602 3113
c-47 -23 -75 -67 -79 -127 -7 -93 55 -153 149 -144 117 12 174 152 96 236 -50
52 -106 65 -166 35z M8535 3123 c-54 -15 -105 -82 -105 -138 0 -74 65 -145
133 -145 152 0 209 173 86 261 -26 20 -83 30 -114 22z M2184 2871 c-37 -23
-310 -318 -341 -369 -29 -47 -29 -90 0 -133 47 -71 134 -86 201 -35 35 26 288
301 319 346 22 32 22 104 0 141 -19 32 -85 69 -124 69 -13 0 -38 -8 -55 -19z
M7934 2876 c-65 -28 -102 -123 -71 -182 23 -45 302 -346 345 -371 45 -28 74
-28 130 -3 34 15 47 29 63 66 24 54 21 75 -23 137 -46 63 -271 306 -315 340
-40 30 -80 34 -129 13z M2565 2541 c-29 -17 -182 -237 -234 -336 -27 -51 -27
-94 2 -136 52 -78 143 -87 207 -20 60 63 212 320 218 367 12 105 -103 180
-193 125z M7534 2541 c-35 -21 -64 -75 -64 -118 0 -18 19 -62 48 -109 170
-277 176 -285 238 -303 46 -13 92 -1 129 33 41 39 51 75 36 127 -18 60 -222
362 -255 377 -39 18 -96 15 -132 -7z M1154 2296 c-119 -52 -114 -232 8 -281
73 -29 151 3 189 76 63 125 -68 261 -197 205z M8951 2292 c-56 -28 -76 -64
-76 -137 0 -59 3 -66 34 -99 61 -63 132 -70 199 -19 63 48 80 124 41 193 -40
71 -127 99 -198 62z M1065 1065 c-47 -46 -17 -125 49 -125 34 0 76 41 76 75 0
14 -11 37 -25 50 -13 14 -36 25 -50 25 -14 0 -37 -11 -50 -25z M1325 1065
c-14 -13 -25 -36 -25 -50 0 -33 41 -75 73 -75 38 0 77 36 77 71 0 37 -40 79
-75 79 -14 0 -37 -11 -50 -25z M8812 1070 c-46 -44 -15 -130 47 -130 30 1 53
16 69 47 17 32 15 47 -13 77 -29 32 -72 34 -103 6z M9076 1069 c-66 -52 -1
-153 79 -123 17 7 45 54 45 77 0 22 -50 67 -75 67 -12 0 -34 -9 -49 -21z"/>
</g>
</svg>
