<?xml version="1.0" encoding="UTF-8"?>
<svg viewBox="0 0 1024 1024" xmlns="http://www.w3.org/2000/svg" fill="#000000">
<g transform="translate(0.000000,1024.000000) scale(0.100000,-0.100000)">
<path d="M6666 8200 c-145 -26 -587 -238 -803 -386 l-95 -66 -107 31 c-158 45
-267 61 -461 68 -247 8 -468 -19 -648 -79 l-69 -23 -49 34 c-158 113 -459 271
-699 368 -117 47 -123 48 -225 48 -98 0 -109 -2 -159 -30 -67 -37 -124 -101
-153 -174 -23 -56 -23 -57 -28 -731 l-5 -675 -42 -120 c-32 -94 -83 -323 -83
-376 0 -5 -93 -9 -207 -9 -181 0 -213 -3 -249 -19 -108 -49 -114 -208 -12
-271 30 -18 51 -20 245 -20 l211 0 7 -52 c3 -29 8 -60 11 -69 3 -12 -11 -20
-58 -34 -421 -123 -445 -133 -474 -202 -20 -46 -17 -89 8 -135 28 -50 76 -80
131 -80 25 -1 118 23 232 59 105 33 202 63 216 66 25 6 27 2 63 -88 45 -113
157 -311 234 -414 66 -87 250 -281 335 -352 62 -53 92 -65 133 -55 14 4 99 76
189 161 181 171 202 182 244 129 34 -43 50 -22 -194 -250 -107 -100 -139 -137
-183 -210 -29 -49 -65 -125 -79 -169 l-27 -80 -4 -374 -4 -373 -39 6 c-109 17
-229 106 -269 199 -18 40 -24 76 -27 157 -5 148 -10 166 -50 211 -83 92 -213
63 -259 -57 -13 -35 -15 -69 -12 -181 5 -161 24 -227 92 -332 114 -176 284
-287 481 -314 l83 -11 4 -201 c4 -184 7 -206 30 -273 34 -94 103 -203 170
-269 60 -60 80 -75 152 -115 l51 -28 -33 0 c-21 0 -32 -4 -30 -11 4 -13 124
-23 263 -22 50 1 144 1 209 2 86 0 122 4 128 13 11 18 10 30 -2 23 -6 -3 -10
-2 -10 3 0 5 -21 7 -47 5 l-48 -4 46 28 c75 46 114 80 163 142 44 57 116 192
116 218 0 10 34 13 143 13 l143 0 49 -97 c40 -79 65 -114 130 -178 47 -48 104
-93 139 -112 l59 -30 -47 3 c-27 2 -46 -1 -46 -7 0 -6 5 -7 10 -4 6 3 10 2 10
-2 0 -9 156 -19 260 -16 255 6 308 8 304 15 -3 4 0 8 5 8 6 0 11 -5 11 -11 0
-6 14 -9 33 -7 31 3 41 20 15 24 -31 5 -44 10 -51 19 -6 7 -10 6 -13 -2 -4
-10 -51 -9 -61 1 -2 2 27 21 63 42 91 53 174 147 230 259 75 152 75 153 72
936 l-3 684 -29 85 c-63 188 -124 273 -333 463 -85 76 -143 137 -143 147 0 10
12 28 26 39 51 40 69 31 199 -100 212 -214 238 -228 329 -167 69 45 283 260
353 353 106 141 200 310 257 463 15 39 32 72 38 72 6 0 100 -30 210 -66 116
-38 218 -66 244 -66 88 -2 173 91 158 173 -17 86 -51 116 -174 152 -178 53
-353 107 -357 111 -2 2 -1 33 3 70 l7 66 207 0 c199 0 208 1 241 23 102 69
105 187 6 261 -26 20 -43 21 -248 24 l-219 3 0 28 c0 55 -42 233 -86 363 l-44
132 0 643 c0 621 -1 646 -20 704 -38 111 -97 181 -190 223 -65 29 -127 38
-194 26z m-2981 -388 c168 -77 412 -199 418 -209 3 -5 -42 -37 -100 -73 -186
-115 -340 -242 -448 -368 -33 -39 -62 -71 -65 -71 -3 -1 -4 175 -2 391 2 281
6 394 14 399 14 9 19 7 183 -69z m3069 -336 l5 -389 -48 54 c-143 160 -352
330 -528 429 -24 13 -43 26 -43 30 0 14 124 78 346 180 186 85 242 106 251 97
8 -9 13 -122 17 -401z m-1456 53 c687 -74 1317 -544 1513 -1129 62 -187 73
-264 74 -505 0 -211 -1 -224 -29 -330 -54 -202 -120 -357 -208 -482 -51 -73
-228 -273 -241 -273 -5 0 -46 38 -92 84 -60 61 -99 92 -146 114 -176 82 -351
54 -472 -77 -77 -84 -100 -150 -95 -278 2 -79 8 -108 27 -147 33 -68 133 -171
216 -224 39 -24 85 -58 104 -76 50 -47 105 -133 132 -206 l24 -65 0 -690 0
-690 -26 -56 c-31 -65 -82 -120 -142 -151 -32 -17 -59 -22 -112 -22 -79 -1
-127 18 -176 68 -43 43 -56 72 -64 141 -9 76 -24 112 -66 160 -63 71 -79 75
-384 75 -151 0 -286 -5 -306 -10 -86 -24 -141 -85 -159 -178 -26 -129 -33
-146 -80 -193 -94 -94 -240 -91 -349 7 -29 26 -62 69 -78 102 l-28 57 0 695
c0 779 -4 737 74 857 50 78 91 117 186 178 94 61 172 140 211 216 27 50 29 62
29 164 0 105 -2 114 -33 177 -37 75 -105 143 -180 180 -41 20 -62 23 -162 23
-111 0 -118 -1 -185 -34 -52 -26 -92 -56 -154 -120 l-84 -86 -89 94 c-185 196
-312 438 -373 711 -26 114 -31 388 -11 527 68 460 413 923 874 1170 215 116
496 203 722 226 79 8 247 6 338 -4z M6710 7855 c-7 -9 -11 -17 -9 -20 3 -2 10
5 17 15 14 24 10 26 -8 5z M3965 6084 c-48 -15 -107 -52 -133 -84 -7 -8 -25
-37 -40 -65 -23 -43 -27 -62 -27 -135 0 -100 21 -155 80 -215 122 -121 312
-114 430 17 199 221 -26 572 -310 482z M6100 6087 c-100 -28 -164 -91 -199
-195 -25 -73 -26 -111 -6 -180 37 -122 157 -212 284 -212 209 0 353 205 285
404 -21 60 -101 149 -156 170 -56 23 -153 29 -208 13z M4993 5800 c-46 -19
-71 -93 -53 -158 11 -42 68 -102 96 -102 28 0 -10 -81 -47 -100 -40 -22 -109
-3 -109 30 0 5 -12 22 -26 39 -32 39 -71 41 -104 6 -45 -48 -7 -144 81 -202
79 -52 196 -38 258 32 l29 34 19 -21 c39 -45 105 -78 155 -78 153 0 292 191
182 250 -37 20 -74 3 -102 -48 -38 -68 -104 -69 -149 -3 -31 45 -29 55 11 79
47 28 68 63 68 115 1 52 -29 108 -67 125 -30 14 -209 15 -242 2z M4675 4141
c-46 -20 -67 -48 -85 -108 -11 -37 -10 -46 9 -86 12 -24 47 -69 79 -100 31
-30 93 -91 137 -136 l79 -81 -141 -142 c-149 -152 -173 -185 -173 -243 0 -113
122 -192 218 -141 15 8 92 80 172 160 l145 146 155 -155 c168 -168 193 -183
261 -165 45 12 94 51 114 91 18 33 19 92 4 122 -6 12 -79 91 -163 175 l-151
154 138 133 c77 73 148 145 158 161 66 100 -42 247 -169 229 -45 -6 -54 -14
-194 -158 l-148 -152 -147 147 c-178 177 -206 191 -298 149z M4806 2031 c-4
-5 3 -7 14 -4 23 6 26 13 6 13 -8 0 -17 -4 -20 -9z M6376 2025 c-3 -8 -1 -15
4 -15 6 0 10 7 10 15 0 8 -2 15 -4 15 -2 0 -6 -7 -10 -15z M4765 2020 c-3 -5
-2 -10 4 -10 5 0 13 5 16 10 3 6 2 10 -4 10 -5 0 -13 -4 -16 -10z"/>
</g>
</svg>
