<?xml version="1.0" encoding="UTF-8"?>
<svg viewBox="0 0 1024 1024" xmlns="http://www.w3.org/2000/svg" fill="#000000">
<g transform="translate(0.000000,1024.000000) scale(0.100000,-0.100000)">
<path d="M4305 8375 c-120 -48 -189 -159 -190 -300 0 -82 30 -158 89 -223 l36
-40 -2 -280 -3 -280 -175 105 c-346 208 -1013 614 -1285 784 -146 90 -178 102
-295 103 -86 0 -101 -2 -162 -31 -118 -55 -197 -163 -217 -295 -5 -35 -10
-447 -10 -947 l-1 -883 -39 -122 c-106 -324 -145 -636 -122 -970 55 -805 494
-1462 1266 -1893 50 -27 120 -64 157 -81 105 -49 107 -56 64 -260 -84 -399
-94 -534 -46 -672 28 -84 97 -187 163 -245 65 -57 193 -120 272 -134 91 -16
2594 -7 2660 10 72 18 127 43 194 88 158 107 243 274 243 476 0 76 -38 314
-83 517 -24 109 -24 150 -1 170 9 9 71 43 138 77 427 216 748 491 997 856 127
186 222 396 286 629 69 252 76 306 76 626 0 255 -3 299 -24 415 -24 135 -89
376 -119 442 -16 35 -17 117 -22 988 l-5 950 -27 58 c-38 81 -124 168 -201
203 -55 25 -73 28 -162 28 -127 0 -127 0 -459 -208 -425 -266 -1250 -770
-1278 -781 -10 -4 -12 51 -10 277 l3 282 35 43 c60 73 79 126 79 223 0 104
-22 158 -92 228 -117 117 -316 124 -441 17 -84 -72 -128 -215 -102 -325 l13
-53 -34 -29 c-19 -16 -104 -82 -190 -147 l-155 -119 -75 54 c-41 29 -126 93
-189 142 -97 75 -114 93 -112 113 2 13 4 65 5 114 2 81 -1 95 -26 143 -84 160
-257 224 -422 157z m-954 -1269 c283 -170 583 -349 668 -398 l154 -88 962 0
961 0 479 288 c447 269 924 558 970 588 20 13 20 11 18 -684 -1 -383 2 -730 6
-772 5 -48 23 -113 50 -182 80 -208 118 -393 128 -618 16 -385 -91 -760 -300
-1057 -75 -107 -284 -320 -387 -395 -552 -403 -1337 -614 -2120 -568 -699 40
-1246 214 -1723 548 -368 258 -614 633 -693 1057 -26 139 -26 535 -1 675 25
133 60 251 109 366 l42 99 4 772 4 771 77 -46 c42 -26 309 -186 592 -356z
m842 -4366 c545 -145 1267 -143 1880 5 71 17 105 21 123 15 13 -5 24 -11 24
-13 0 -2 16 -82 35 -178 40 -199 41 -216 18 -241 -15 -17 -64 -18 -1153 -18
-1116 0 -1137 0 -1155 20 -17 18 -16 27 19 211 36 189 50 229 83 229 8 0 64
-13 126 -30z M3545 5880 c-262 -42 -460 -239 -497 -493 -40 -280 124 -550 387
-636 321 -105 678 81 759 395 20 76 21 240 2 309 -35 131 -161 293 -280 358
-102 56 -260 85 -371 67z M6530 5880 c-154 -21 -295 -106 -392 -238 -122 -165
-142 -414 -48 -602 178 -355 662 -429 945 -146 113 113 165 241 165 406 0 169
-49 289 -165 406 -134 134 -321 199 -505 174z M5030 5145 c-110 -30 -213 -128
-241 -228 -17 -60 -15 -165 5 -211 9 -22 34 -63 56 -91 l39 -50 2 -111 c3
-101 1 -113 -21 -148 -40 -66 -138 -94 -214 -62 -18 7 -48 33 -67 56 -106 132
-132 150 -214 150 -151 0 -221 -168 -139 -335 40 -83 149 -191 239 -237 73
-37 187 -68 252 -68 110 1 248 52 340 127 l54 44 47 -42 c94 -83 203 -122 337
-123 153 0 279 51 393 159 159 149 189 348 66 441 -33 25 -46 29 -104 29 -57
0 -72 -4 -103 -28 -20 -15 -55 -55 -78 -88 -81 -120 -214 -134 -297 -33 -32
38 -32 39 -32 152 l0 114 35 42 c48 59 77 129 82 200 17 218 -218 401 -437
341z"/>
</g>
</svg>
