<?xml version="1.0" encoding="UTF-8"?>
<svg viewBox="0 0 1024 1024" xmlns="http://www.w3.org/2000/svg" fill="#000000">
<g transform="translate(0.000000,1024.000000) scale(0.100000,-0.100000)">
<path d="M6081 9528 c-5 -13 -11 -36 -15 -53 -10 -44 -28 -63 -87 -93 -45 -23
-54 -32 -54 -54 0 -23 9 -32 55 -55 55 -28 58 -31 104 -133 22 -48 78 -30 91
29 12 55 41 88 94 106 39 13 52 22 57 42 8 31 -7 47 -71 70 -47 17 -52 23 -75
79 -33 79 -37 84 -66 84 -16 0 -27 -8 -33 -22z M2140 9303 c-115 -47 -147
-199 -58 -279 12 -12 68 -47 123 -79 55 -32 140 -82 188 -113 105 -65 152 -75
214 -43 78 39 112 117 87 201 -18 59 -51 90 -181 166 -54 32 -132 78 -173 102
-61 37 -85 46 -130 49 -30 1 -62 0 -70 -4z M7729 9255 c-35 -19 -53 -63 -40
-97 19 -50 84 -74 122 -45 81 62 7 191 -82 142z M8910 9074 c-45 -20 -68 -41
-91 -86 -37 -73 -33 -85 137 -339 85 -129 171 -251 191 -271 68 -70 139 -74
211 -13 54 47 79 110 62 159 -13 41 -287 465 -328 510 -51 54 -116 69 -182 40z
M4454 9056 c-64 -28 -66 -119 -3 -151 40 -21 57 -19 90 14 36 36 38 80 7 115
-30 32 -56 38 -94 22z M1438 8588 c-8 -7 -23 -36 -32 -64 -19 -58 -34 -75 -97
-107 -56 -29 -69 -50 -46 -75 10 -11 31 -22 46 -25 43 -9 77 -46 96 -105 13
-40 22 -53 41 -58 33 -9 59 16 74 72 14 47 46 80 89 91 36 8 61 32 61 58 0 21
-5 25 -83 59 -26 11 -42 27 -53 53 -47 112 -62 127 -96 101z M5137 8465 c-139
-49 -171 -241 -55 -328 79 -59 164 -59 230 1 75 68 92 134 55 215 -26 57 -69
96 -126 116 -43 14 -57 13 -104 -4z M8110 8167 c-54 -27 -64 -94 -21 -138 38
-37 79 -38 115 -3 38 39 36 93 -5 128 -34 29 -52 32 -89 13z M2844 7941 c-44
-20 -90 -69 -110 -118 -38 -90 -137 -531 -168 -753 -40 -273 -58 -479 -63
-705 l-6 -240 -49 -83 c-179 -304 -277 -587 -318 -917 -6 -49 -13 -91 -15 -93
-1 -2 -77 4 -168 12 -90 9 -207 16 -259 16 -103 0 -138 -14 -180 -71 -43 -57
-37 -162 12 -214 37 -40 93 -53 320 -75 311 -30 274 -15 289 -113 7 -45 21
-117 31 -160 13 -56 15 -80 6 -83 -6 -2 -74 -15 -151 -29 -218 -39 -377 -76
-417 -96 -98 -49 -125 -176 -55 -256 39 -44 80 -65 131 -65 36 -1 438 73 566
103 36 8 47 8 53 -3 180 -315 342 -524 546 -704 65 -58 211 -168 289 -220 2
-1 -12 -33 -31 -70 -50 -100 -124 -301 -159 -434 -26 -96 -31 -139 -35 -265
-5 -133 -3 -160 16 -228 12 -43 35 -106 52 -140 32 -63 142 -218 178 -251 11
-10 17 -25 14 -34 -4 -13 -3 -14 5 -4 7 11 22 5 68 -30 71 -51 91 -65 123 -78
20 -9 21 -12 10 -28 -13 -15 -12 -16 4 -3 15 12 24 11 62 -4 29 -11 43 -21 38
-28 -5 -9 -3 -9 8 -1 10 8 21 9 39 1 14 -5 36 -12 50 -14 47 -7 52 -11 40 -33
-6 -11 -7 -20 -2 -20 6 0 12 9 15 21 4 14 11 19 24 15 20 -6 171 -19 218 -19
17 0 33 -5 37 -11 5 -7 8 -7 8 2 0 10 14 13 53 11 46 -2 57 -7 102 -48 28 -25
78 -59 112 -76 34 -16 62 -37 63 -45 0 -13 1 -13 10 0 9 13 14 8 12 -12 -1 -3
5 -9 13 -12 10 -3 12 0 8 11 -4 11 -3 14 5 9 7 -4 25 -10 40 -12 15 -3 28 -8
29 -12 2 -4 26 -5 54 -3 36 2 54 -1 60 -10 5 -8 9 -9 9 -3 0 6 21 12 48 13 59
2 74 5 90 14 7 5 12 3 12 -5 0 -9 3 -9 8 -2 4 6 26 18 50 27 l43 17 35 -36
c20 -19 38 -33 41 -30 3 3 -6 16 -20 28 -25 24 -37 43 -27 43 3 0 16 10 29 22
19 17 28 20 38 12 7 -6 13 -17 13 -23 0 -6 4 -18 10 -26 7 -12 12 -11 29 9 12
14 25 20 33 15 14 -7 11 -5 -35 36 -19 16 -26 19 -22 8 4 -9 2 -19 -3 -22 -6
-3 -12 0 -15 8 -3 8 13 31 39 55 l45 41 87 -6 c48 -4 90 -12 94 -18 6 -8 8 -8
8 0 0 7 26 11 68 12 37 1 99 6 137 10 39 5 71 6 73 1 2 -5 8 -9 13 -9 5 0 30
-20 56 -45 25 -25 50 -45 55 -45 6 0 22 -8 36 -19 41 -28 148 -61 218 -68 39
-4 61 -10 57 -16 -4 -6 -1 -7 8 -1 16 10 18 10 98 18 33 3 72 11 86 18 22 10
28 9 36 -3 7 -12 9 -11 9 2 0 9 11 20 24 23 13 3 32 9 42 13 14 5 16 3 11 -11
-4 -10 -3 -15 3 -11 6 3 10 15 10 27 0 14 5 18 16 14 8 -3 12 -2 9 4 -3 6 0
10 7 10 7 0 19 9 26 21 8 12 19 18 28 15 8 -3 12 -2 9 3 -9 16 16 25 27 10 7
-10 8 -8 3 7 -5 20 10 35 31 33 4 0 10 4 13 10 5 7 18 8 41 1 19 -5 36 -6 39
-2 9 11 41 11 41 0 0 -5 6 -6 12 -2 14 9 26 10 108 15 30 2 61 0 69 -5 10 -7
12 -6 6 4 -6 10 -4 12 8 7 10 -3 17 -2 17 3 0 17 39 11 49 -7 5 -10 13 -14 18
-9 4 5 2 11 -4 13 -7 3 -13 9 -13 15 0 6 7 8 15 4 8 -3 15 -2 15 3 0 5 11 11
25 13 14 3 25 1 25 -6 0 -8 2 -8 8 0 12 17 72 35 72 21 0 -6 7 -1 16 11 8 12
19 20 24 17 4 -3 13 2 20 10 10 12 16 13 28 3 11 -9 14 -9 9 -1 -5 8 6 18 30
30 21 9 43 22 48 28 6 6 30 27 55 46 50 38 126 114 165 165 43 56 105 191 127
277 28 106 30 292 4 422 -25 130 -90 322 -154 459 -33 69 -52 121 -46 123 28
9 169 109 254 181 121 101 245 231 338 355 72 96 197 296 222 356 7 17 20 31
29 31 9 0 70 -11 136 -25 187 -38 406 -75 448 -75 49 0 109 31 138 71 27 38
36 117 19 159 -17 41 -81 97 -127 109 -37 11 -389 83 -465 96 -31 5 -38 10
-38 28 1 44 48 299 56 307 5 4 118 19 252 34 144 15 255 32 271 41 126 64 117
235 -14 300 -49 25 -52 25 -185 15 -74 -6 -171 -15 -215 -20 -119 -15 -113
-17 -120 38 -23 186 -75 405 -135 570 -36 99 -125 278 -189 382 l-48 77 -6
254 c-7 295 -24 472 -72 764 -36 219 -112 567 -140 645 -30 83 -63 129 -118
160 -95 54 -164 42 -450 -79 -287 -122 -685 -335 -941 -503 -48 -32 -91 -56
-95 -54 -29 18 -330 68 -555 91 -316 34 -737 4 -1035 -74 l-74 -20 -91 58
c-318 202 -914 499 -1184 590 -75 26 -162 26 -218 2z m4475 -613 c52 -267 101
-633 101 -755 l0 -33 -49 38 c-66 52 -118 61 -179 30 -56 -28 -82 -62 -89
-116 -11 -79 2 -106 96 -205 190 -200 315 -366 418 -557 61 -113 131 -297 157
-414 27 -117 53 -322 43 -333 -4 -3 -98 -21 -210 -38 -260 -41 -306 -51 -345
-75 -92 -56 -106 -188 -28 -266 58 -58 87 -59 337 -19 122 19 227 35 234 35
12 0 0 -87 -26 -183 -10 -39 -11 -39 -52 -34 -352 49 -392 52 -441 33 -92 -35
-134 -154 -84 -241 35 -61 85 -80 267 -105 85 -11 156 -22 158 -24 14 -14
-105 -191 -211 -315 -203 -237 -516 -453 -851 -588 -120 -48 -370 -123 -477
-143 -123 -22 -192 -90 -190 -186 1 -75 53 -143 125 -163 36 -10 62 -8 182 14
223 42 203 41 199 14 -34 -236 -84 -448 -145 -626 -83 -240 -178 -380 -294
-434 -151 -72 -301 -10 -379 156 -50 106 -97 309 -122 520 -11 102 -55 163
-130 184 -50 14 -103 -4 -146 -50 l-36 -38 -16 23 c-8 13 -31 34 -51 46 -29
18 -47 22 -91 18 -45 -4 -61 -10 -89 -38 -45 -43 -51 -64 -75 -252 -38 -291
-92 -443 -191 -532 -59 -53 -138 -82 -197 -71 -191 34 -310 204 -421 596 -42
147 -116 507 -107 516 3 3 52 -4 108 -15 233 -48 276 -48 338 4 67 57 81 141
35 219 -32 56 -69 75 -198 104 -114 26 -296 85 -441 142 -384 153 -757 433
-962 724 -79 112 -110 162 -103 169 2 2 79 15 172 29 187 29 219 42 255 105
39 71 20 158 -48 215 -48 41 -85 43 -307 11 -138 -19 -206 -25 -213 -18 -12
12 -54 203 -47 211 4 3 93 -8 199 -25 270 -43 270 -43 310 -32 70 20 128 92
128 160 0 62 -40 129 -93 156 -30 16 -281 64 -439 85 -54 7 -101 15 -106 18
-23 15 32 323 83 471 106 303 266 553 535 835 37 39 75 85 84 103 63 123 -50
268 -182 232 -24 -6 -62 -28 -84 -48 l-41 -37 7 105 c8 122 40 378 62 500 19
106 76 384 81 389 6 9 156 -56 338 -147 187 -93 451 -237 460 -252 2 -4 -41
-32 -97 -61 -66 -36 -111 -67 -132 -92 -28 -35 -31 -46 -31 -105 0 -79 22
-118 82 -148 65 -32 113 -23 273 49 251 113 457 175 734 222 367 62 706 57
1076 -16 224 -44 401 -102 653 -214 156 -69 180 -73 239 -47 93 41 133 144 89
229 -24 49 -55 72 -173 133 l-88 46 113 66 c235 138 643 345 683 347 6 1 28
-87 53 -211z m-3824 -4450 c20 -9 25 -18 25 -49 0 -50 36 -296 60 -412 51
-249 99 -418 150 -532 l29 -65 -34 0 c-51 0 -182 45 -250 85 -75 45 -117 92
-158 175 -27 56 -32 78 -35 163 -5 110 6 178 50 317 25 79 109 297 125 323 6
9 7 9 38 -5z m3409 -80 c122 -263 164 -504 116 -661 -27 -87 -92 -173 -169
-224 -58 -40 -175 -85 -253 -99 l-38 -6 24 54 c85 191 191 641 211 893 9 112
12 123 38 128 12 2 23 5 25 6 2 0 23 -41 46 -91z m-1730 -945 c3 -16 8 -38 12
-50 6 -20 3 -23 -25 -23 -36 0 -35 -3 -20 56 13 50 24 56 33 17z m-294 -540
c0 -14 -19 -38 -25 -32 -8 8 5 39 16 39 5 0 9 -3 9 -7z M3771 5459 c-117 -37
-190 -100 -245 -211 -91 -180 -58 -372 86 -503 34 -30 87 -68 117 -83 51 -24
67 -27 166 -27 105 0 113 2 180 34 169 83 267 267 235 442 -47 265 -295 425
-539 348z M6330 5464 c-133 -36 -219 -107 -279 -234 -34 -71 -36 -80 -36 -180
0 -99 2 -109 34 -173 42 -88 120 -165 206 -208 174 -85 391 -29 510 132 77
105 102 229 70 352 -21 81 -47 127 -109 194 -103 112 -252 156 -396 117z
M4728 5031 l-33 -29 -3 -115 c-4 -141 13 -193 90 -262 101 -91 226 -98 339
-19 l39 27 23 -20 c118 -109 326 -66 415 85 26 45 27 53 27 175 l0 129 -34 30
c-30 27 -39 30 -80 25 -72 -8 -91 -38 -91 -140 0 -129 -41 -174 -125 -135 -27
12 -27 12 -25 80 1 40 -3 52 -32 84 -29 31 -41 37 -77 37 -35 0 -49 -6 -74
-31 -27 -27 -31 -38 -32 -88 0 -46 -5 -60 -24 -75 -30 -25 -76 -24 -101 1 -16
16 -20 33 -20 95 0 91 -18 138 -59 159 -46 24 -86 20 -123 -13z M1739 7211
c-35 -34 -39 -44 -39 -88 0 -77 47 -123 126 -123 29 0 44 8 75 39 33 33 39 45
39 81 0 76 -52 130 -125 130 -30 0 -45 -8 -76 -39z M9193 6918 c-16 -13 -43
-39 -59 -58 -15 -19 -59 -69 -96 -111 -77 -87 -103 -137 -94 -185 18 -91 134
-145 208 -96 52 34 245 248 257 285 13 39 3 96 -24 131 -45 59 -136 75 -192
34z M716 6578 c-235 -31 -409 -284 -352 -509 67 -262 347 -397 591 -286 152
70 259 256 239 416 -32 255 -230 412 -478 379z m102 -312 c91 -47 101 -156 20
-206 -103 -62 -218 44 -163 151 17 32 69 69 98 69 10 0 30 -6 45 -14z M9375
4905 c-36 -35 -35 -96 1 -124 49 -38 109 -21 133 38 10 24 10 34 -3 60 -29 56
-90 68 -131 26z M9524 3996 c-40 -40 -44 -78 -14 -145 26 -57 25 -65 -10 -128
-39 -69 -39 -104 1 -137 56 -47 106 -32 144 44 28 54 28 55 104 40 61 -11 90
-1 114 40 24 40 21 67 -11 99 -19 20 -42 30 -79 35 -59 7 -64 13 -87 83 -20
59 -63 103 -103 103 -15 0 -38 -13 -59 -34z M395 3731 c-75 -31 -91 -141 -28
-191 67 -53 163 2 163 94 0 38 -5 48 -35 75 -36 31 -63 37 -100 22z M1443
3085 c-12 -8 -29 -39 -39 -68 -9 -28 -18 -55 -20 -59 -3 -4 -28 9 -57 28 -62
41 -100 42 -130 2 -31 -42 -17 -71 59 -122 l66 -44 -43 -28 c-97 -61 -116 -95
-83 -142 24 -34 73 -29 128 13 26 19 48 35 51 35 2 0 9 -17 15 -39 23 -85 82
-117 128 -68 27 28 27 43 3 106 -10 28 -17 52 -14 54 2 3 30 3 62 0 50 -5 61
-3 80 16 30 30 27 74 -5 100 -20 16 -41 21 -84 21 l-57 0 18 57 c24 71 24 115
1 136 -23 21 -51 22 -79 2z M9535 2539 c-34 -20 -66 -53 -82 -83 -28 -55 -19
-98 52 -239 180 -355 208 -396 283 -417 92 -24 202 59 202 154 0 14 -58 142
-130 285 -146 292 -154 303 -249 308 -31 2 -65 -2 -76 -8z M8443 2299 c-103
-66 -58 -229 64 -229 39 0 50 5 84 39 34 33 39 45 39 83 0 99 -105 159 -187
107z M1835 2035 c-37 -36 -34 -86 7 -120 37 -31 71 -28 106 11 70 78 -39 184
-113 109z M2965 1809 c-4 -6 -5 -12 -2 -15 2 -3 7 2 10 11 7 17 1 20 -8 4z
M7290 1796 c0 -2 7 -6 15 -10 8 -3 15 -1 15 4 0 6 -7 10 -15 10 -8 0 -15 -2
-15 -4z M3026 1763 c-6 -14 -5 -15 5 -6 7 7 10 15 7 18 -3 3 -9 -2 -12 -12z
M7265 1770 c-3 -5 -1 -10 4 -10 6 0 11 5 11 10 0 6 -2 10 -4 10 -3 0 -8 -4
-11 -10z M2880 1759 c0 -5 5 -7 10 -4 6 3 10 8 10 11 0 2 -4 4 -10 4 -5 0 -10
-5 -10 -11z M2833 1749 c9 -6 15 -14 12 -20 -4 -5 -1 -9 4 -9 17 0 13 27 -5
34 -24 9 -31 7 -11 -5z M7350 1749 c0 -5 5 -7 10 -4 6 3 10 8 10 11 0 2 -4 4
-10 4 -5 0 -10 -5 -10 -11z M2740 1740 c0 -5 5 -10 10 -10 6 0 10 5 10 10 0 6
-4 10 -10 10 -5 0 -10 -4 -10 -10z M2905 1740 c-3 -5 -1 -10 4 -10 6 0 11 5
11 10 0 6 -2 10 -4 10 -3 0 -8 -4 -11 -10z M2960 1739 c0 -5 5 -7 10 -4 6 3
10 8 10 11 0 2 -4 4 -10 4 -5 0 -10 -5 -10 -11z M2991 1727 c-13 -21 -12 -21
5 -5 10 10 16 20 13 22 -3 3 -11 -5 -18 -17z M7530 1740 c0 -5 5 -10 11 -10 5
0 7 5 4 10 -3 6 -8 10 -11 10 -2 0 -4 -4 -4 -10z M2586 1727 c3 -10 9 -15 12
-12 3 3 0 11 -7 18 -10 9 -11 8 -5 -6z M2780 1728 c0 -4 7 -8 15 -8 8 0 15 4
15 8 0 5 -7 9 -15 9 -8 0 -15 -4 -15 -9z M7230 1730 c0 -5 5 -10 11 -10 5 0 7
5 4 10 -3 6 -8 10 -11 10 -2 0 -4 -4 -4 -10z M7425 1730 c-3 -5 -1 -10 4 -10
6 0 11 5 11 10 0 6 -2 10 -4 10 -3 0 -8 -4 -11 -10z M2925 1720 c-3 -5 -1 -10
4 -10 6 0 11 5 11 10 0 6 -2 10 -4 10 -3 0 -8 -4 -11 -10z M2682 1700 c0 -14
2 -19 5 -12 2 6 2 18 0 25 -3 6 -5 1 -5 -13z M2820 1710 c0 -5 5 -10 11 -10 5
0 7 5 4 10 -3 6 -8 10 -11 10 -2 0 -4 -4 -4 -10z M2880 1710 c0 -5 5 -10 11
-10 5 0 7 5 4 10 -3 6 -8 10 -11 10 -2 0 -4 -4 -4 -10z M3045 1710 c-3 -5 -1
-10 4 -10 6 0 11 5 11 10 0 6 -2 10 -4 10 -3 0 -8 -4 -11 -10z M7380 1710 c0
-5 5 -10 10 -10 6 0 10 5 10 10 0 6 -4 10 -10 10 -5 0 -10 -4 -10 -10z M7504
1709 c-3 -6 -3 -13 0 -16 3 -4 6 -1 6 5 0 6 7 9 15 6 8 -4 15 -4 15 -1 0 11
-30 16 -36 6z M7700 1710 c0 -5 5 -10 11 -10 5 0 7 5 4 10 -3 6 -8 10 -11 10
-2 0 -4 -4 -4 -10z M2480 1696 c0 -2 7 -7 16 -10 8 -3 12 -2 9 4 -6 10 -25 14
-25 6z M2850 1690 c-9 -6 -10 -10 -3 -10 6 0 15 5 18 10 8 12 4 12 -15 0z
M3065 1691 c-3 -5 -2 -12 3 -15 5 -3 9 1 9 9 0 17 -3 19 -12 6z M7190 1690 c0
-5 5 -10 11 -10 5 0 7 5 4 10 -3 6 -8 10 -11 10 -2 0 -4 -4 -4 -10z M7250
1690 c0 -5 5 -10 10 -10 6 0 10 5 10 10 0 6 -4 10 -10 10 -5 0 -10 -4 -10 -10z
M7600 1689 c0 -5 5 -7 10 -4 6 3 10 8 10 11 0 2 -4 4 -10 4 -5 0 -10 -5 -10
-11z M2728 1659 c-9 -16 -14 -29 -9 -29 8 0 34 50 29 56 -2 1 -11 -11 -20 -27z
M2790 1679 c0 -5 5 -7 10 -4 6 3 10 8 10 11 0 2 -4 4 -10 4 -5 0 -10 -5 -10
-11z M2894 1682 c-6 -4 -14 -18 -18 -32 -6 -24 -6 -24 9 3 16 28 30 34 38 17
3 -6 4 -5 3 2 -3 15 -18 20 -32 10z M2944 1665 c-9 -14 -15 -27 -13 -30 3 -2
12 10 21 26 21 36 15 39 -8 4z M7316 1675 c-9 -26 -7 -32 5 -12 6 10 9 21 6
23 -2 3 -7 -2 -11 -11z M7435 1680 c-3 -5 -1 -10 4 -10 6 0 11 5 11 10 0 6 -2
10 -4 10 -3 0 -8 -4 -11 -10z M7540 1681 c0 -5 7 -11 14 -14 10 -4 13 -1 9 9
-6 15 -23 19 -23 5z M7630 1680 c-9 -6 -10 -10 -3 -10 6 0 15 5 18 10 8 12 4
12 -15 0z M2550 1665 c-19 -22 -8 -25 13 -3 9 10 13 18 8 18 -5 0 -14 -7 -21
-15z M3020 1676 c0 -2 7 -9 15 -16 9 -7 15 -8 15 -2 0 5 -7 12 -15 16 -8 3
-15 4 -15 2z M7220 1676 c0 -4 7 -14 15 -22 8 -9 15 -11 15 -6 0 5 -7 15 -15
22 -8 7 -15 9 -15 6z M7270 1656 c-15 -39 -12 -46 6 -13 9 16 13 31 10 34 -3
3 -10 -6 -16 -21z M7365 1670 c-3 -5 -1 -10 4 -10 6 0 11 5 11 10 0 6 -2 10
-4 10 -3 0 -8 -4 -11 -10z M7660 1672 c0 -5 7 -9 15 -9 8 0 15 4 15 9 0 4 -7
8 -15 8 -8 0 -15 -4 -15 -8z M2595 1660 c4 -6 11 -8 16 -5 14 9 11 15 -7 15
-8 0 -12 -5 -9 -10z M2816 1655 c-3 -8 -1 -15 4 -15 6 0 10 7 10 15 0 8 -2 15
-4 15 -2 0 -6 -7 -10 -15z M3095 1660 c-3 -5 -1 -10 4 -10 6 0 11 5 11 10 0 6
-2 10 -4 10 -3 0 -8 -4 -11 -10z M7171 1656 c-7 -8 -8 -17 -3 -20 6 -3 12 3
15 14 6 24 4 25 -12 6z M7460 1655 c0 -8 2 -15 4 -15 2 0 6 7 10 15 3 8 1 15
-4 15 -6 0 -10 -7 -10 -15z M7495 1660 c-3 -5 -1 -10 4 -10 6 0 11 5 11 10 0
6 -2 10 -4 10 -3 0 -8 -4 -11 -10z M7578 1651 c-9 -11 -14 -22 -11 -25 4 -3
13 3 21 15 18 26 11 34 -10 10z M7705 1660 c-3 -5 -1 -10 4 -10 6 0 11 5 11
10 0 6 -2 10 -4 10 -3 0 -8 -4 -11 -10z M2656 1644 c-11 -7 -17 -17 -13 -20 3
-4 14 1 23 10 21 22 15 28 -10 10z M3001 1643 c-7 -8 -11 -16 -8 -19 2 -2 10
2 17 11 17 20 9 27 -9 8z M7200 1644 c0 -8 5 -12 10 -9 6 4 8 11 5 16 -9 14
-15 11 -15 -7z M7335 1650 c-3 -5 -1 -10 4 -10 6 0 11 5 11 10 0 6 -2 10 -4
10 -3 0 -8 -4 -11 -10z M7425 1649 c-4 -6 -5 -12 -2 -15 2 -3 7 2 10 11 7 17
1 20 -8 4z M7520 1650 c0 -5 5 -10 10 -10 6 0 10 5 10 10 0 6 -4 10 -10 10 -5
0 -10 -4 -10 -10z M7620 1646 c0 -8 -5 -16 -11 -18 -7 -2 -10 -9 -8 -15 2 -6
12 -1 22 12 10 15 13 26 7 30 -5 3 -10 0 -10 -9z M7740 1650 c0 -5 5 -10 10
-10 6 0 10 5 10 10 0 6 -4 10 -10 10 -5 0 -10 -4 -10 -10z M2616 1635 c-3 -9
-6 -24 -5 -33 0 -9 5 -4 10 12 9 32 6 48 -5 21z M2888 1615 c-9 -20 -13 -37
-9 -40 8 -4 36 64 29 70 -2 3 -11 -11 -20 -30z M2960 1640 c0 -5 5 -10 10 -10
6 0 10 5 10 10 0 6 -4 10 -10 10 -5 0 -10 -4 -10 -10z M3074 1635 c26 -19 40
-19 57 2 13 15 12 15 -8 2 -18 -11 -25 -11 -35 -1 -6 6 -17 12 -22 12 -6 0 -2
-7 8 -15z M7385 1640 c-3 -5 -1 -10 4 -10 6 0 11 5 11 10 0 6 -2 10 -4 10 -3
0 -8 -4 -11 -10z M7656 1635 c3 -7 12 -16 19 -19 9 -3 12 0 9 9 -3 7 -12 16
-19 19 -9 3 -12 0 -9 -9z M2565 1630 c3 -5 11 -10 16 -10 6 0 7 5 4 10 -3 6
-11 10 -16 10 -6 0 -7 -4 -4 -10z M2785 1615 c0 -18 3 -21 13 -13 6 6 12 14
12 18 0 4 -6 10 -12 13 -8 3 -13 -4 -13 -18z M3023 1622 c-3 -12 -9 -22 -14
-22 -5 0 -9 -4 -9 -10 0 -5 4 -10 8 -10 11 0 34 51 27 58 -3 4 -8 -4 -12 -16z
M7290 1625 c0 -8 2 -15 4 -15 2 0 6 7 10 15 3 8 1 15 -4 15 -6 0 -10 -7 -10
-15z M7710 1630 c0 -5 5 -10 11 -10 5 0 7 5 4 10 -3 6 -8 10 -11 10 -2 0 -4
-4 -4 -10z M7785 1629 c-4 -6 -4 -13 -1 -16 3 -4 6 -1 6 6 0 8 7 10 21 6 15
-5 19 -4 15 4 -9 14 -33 14 -41 0z M2470 1620 c0 -5 5 -10 10 -10 6 0 10 5 10
10 0 6 -4 10 -10 10 -5 0 -10 -4 -10 -10z M2667 1608 c-10 -11 -15 -23 -11
-26 3 -4 9 -1 11 6 3 6 11 12 19 12 8 0 14 7 14 15 0 20 -11 18 -33 -7z M2728
1609 c-10 -10 -18 -23 -18 -29 0 -5 -7 -7 -15 -4 -8 4 -15 1 -15 -5 0 -20 24
-12 47 16 13 14 23 30 23 35 0 11 -2 10 -22 -13z M2823 1605 c-12 -13 -19 -26
-16 -29 3 -3 15 6 25 20 26 32 20 38 -9 9z M7156 1617 c3 -10 9 -15 12 -12 3
3 0 11 -7 18 -10 9 -11 8 -5 -6z M7220 1618 c0 -7 -7 -22 -16 -33 -12 -16 -16
-17 -23 -6 -5 8 -11 9 -15 3 -9 -14 24 -24 39 -12 9 8 15 8 20 0 10 -16 22
-12 28 10 6 22 -8 28 -16 8 -2 -7 -7 -10 -11 -6 -4 3 -3 16 4 27 7 14 7 21 0
21 -5 0 -10 -6 -10 -12z M7320 1619 c0 -5 5 -7 10 -4 6 3 10 8 10 11 0 2 -4 4
-10 4 -5 0 -10 -5 -10 -11z M7350 1621 c0 -6 5 -13 10 -16 6 -3 10 1 10 9 0 9
-4 16 -10 16 -5 0 -10 -4 -10 -9z M7486 1616 c10 -8 21 -12 24 -10 5 6 -21 24
-34 24 -6 0 -1 -6 10 -14z M7185 1610 c-3 -5 -1 -10 4 -10 6 0 11 5 11 10 0 6
-2 10 -4 10 -3 0 -8 -4 -11 -10z M2540 1600 c0 -5 7 -7 15 -4 8 4 15 8 15 10
0 2 -7 4 -15 4 -8 0 -15 -4 -15 -10z M2976 1593 c-4 -9 -3 -20 1 -24 4 -4 9 3
9 17 2 28 -1 31 -10 7z M3113 1590 c-8 -12 -9 -21 -3 -25 6 -3 10 1 10 10 0 9
4 13 10 10 6 -3 7 1 4 9 -8 20 -7 20 -21 -4z M7635 1600 c3 -5 8 -10 11 -10 2
0 4 5 4 10 0 6 -5 10 -11 10 -5 0 -7 -4 -4 -10z M7096 1588 c3 -4 9 -8 15 -8
5 0 9 4 9 8 0 5 -7 9 -15 9 -8 0 -12 -4 -9 -9z M7136 1583 c-6 -14 -5 -15 5
-6 7 7 10 15 7 18 -3 3 -9 -2 -12 -12z M7270 1589 c0 -5 5 -7 10 -4 6 3 10 8
10 11 0 2 -4 4 -10 4 -5 0 -10 -5 -10 -11z M7324 1585 c23 -18 36 -19 36 -4 0
5 -4 7 -10 4 -5 -3 -10 -1 -10 4 0 6 -8 11 -17 11 -16 -1 -16 -2 1 -15z M7410
1580 c-6 -11 -7 -20 -2 -20 6 0 12 9 15 20 3 11 3 20 1 20 -2 0 -8 -9 -14 -20z
M7452 1587 c-18 -21 -33 -67 -22 -67 6 0 10 9 10 20 0 11 4 20 9 20 9 0 24 30
18 37 -2 2 -9 -2 -15 -10z M7575 1590 c3 -5 8 -10 11 -10 2 0 4 5 4 10 0 6 -5
10 -11 10 -5 0 -7 -4 -4 -10z M7767 1593 c-4 -3 -7 -11 -7 -17 0 -6 5 -5 12 2
6 6 9 14 7 17 -3 3 -9 2 -12 -2z M2501 1574 c0 -11 3 -14 6 -6 3 7 2 16 -1 19
-3 4 -6 -2 -5 -13z M2575 1580 c-16 -7 -17 -9 -3 -9 9 -1 20 4 23 9 7 11 7 11
-20 0z M2741 1569 c-7 -12 -10 -23 -8 -26 3 -3 11 5 17 17 15 28 8 35 -9 9z
M2891 1554 c-13 -19 -22 -36 -20 -39 3 -2 15 12 28 31 13 19 22 36 20 39 -3 2
-15 -12 -28 -31z M3160 1580 c0 -5 5 -10 10 -10 6 0 10 5 10 10 0 6 -4 10 -10
10 -5 0 -10 -4 -10 -10z M7480 1584 c0 -17 17 -36 24 -26 3 5 -1 15 -9 22 -8
7 -15 9 -15 4z M7613 1574 c-17 -18 -16 -25 2 -18 10 4 15 0 15 -12 0 -14 3
-15 12 -6 9 9 10 15 2 20 -6 4 -13 12 -15 19 -3 8 -8 7 -16 -3z M7666 1583
c-11 -11 -6 -23 9 -23 8 0 15 4 15 9 0 13 -16 22 -24 14z M7721 1574 c0 -11 3
-14 6 -6 3 7 2 16 -1 19 -3 4 -6 -2 -5 -13z M7810 1581 c0 -5 5 -13 10 -16 6
-3 10 -2 10 4 0 5 -4 13 -10 16 -5 3 -10 2 -10 -4z M2615 1570 c-3 -5 -1 -10
4 -10 6 0 11 5 11 10 0 6 -2 10 -4 10 -3 0 -8 -4 -11 -10z M2840 1569 c0 -5 5
-7 10 -4 6 3 10 8 10 11 0 2 -4 4 -10 4 -5 0 -10 -5 -10 -11z M3065 1570 c-3
-5 -1 -10 4 -10 6 0 11 5 11 10 0 6 -2 10 -4 10 -3 0 -8 -4 -11 -10z M3256
1565 c-9 -26 -7 -32 5 -12 6 10 9 21 6 23 -2 3 -7 -2 -11 -11z M7050 1576 c0
-2 7 -9 15 -16 9 -7 15 -8 15 -2 0 5 -7 12 -15 16 -8 3 -15 4 -15 2z M2531
1554 c0 -11 3 -14 6 -6 3 7 2 16 -1 19 -3 4 -6 -2 -5 -13z M2780 1561 c0 -5 5
-13 10 -16 6 -3 10 -2 10 4 0 5 -4 13 -10 16 -5 3 -10 2 -10 -4z M3140 1557
c0 -9 5 -17 10 -17 6 0 10 -6 10 -14 0 -7 7 -19 15 -26 10 -9 15 -9 15 -1 0 6
-4 11 -10 11 -15 0 -12 16 6 34 14 15 14 16 0 16 -9 0 -16 -6 -16 -12 0 -8 -7
-5 -15 6 -13 17 -15 18 -15 3z M7366 1545 c-14 -21 -15 -30 -5 -39 9 -8 10 -8
4 3 -5 9 -2 19 10 27 9 7 15 18 13 25 -2 7 -12 0 -22 -16z M7790 1555 c0 -8 4
-15 10 -15 5 0 7 7 4 15 -4 8 -8 15 -10 15 -2 0 -4 -7 -4 -15z M2957 1549 c7
-7 15 -10 18 -7 3 3 -2 9 -12 12 -14 6 -15 5 -6 -5z M3021 1538 c0 -14 -7 -29
-13 -31 -10 -4 -10 -6 0 -6 16 -1 25 22 19 46 -3 12 -5 9 -6 -9z M3082 1536
c-13 -29 -2 -80 13 -57 4 8 2 17 -6 21 -10 7 -10 11 0 24 7 8 11 20 9 27 -2 6
-9 0 -16 -15z M3280 1534 c-6 -14 -14 -23 -19 -19 -5 3 -12 2 -15 -3 -2 -4 4
-8 14 -9 12 -1 22 8 29 28 12 36 4 39 -9 3z M7100 1550 c-8 -5 -10 -10 -5 -10
6 0 17 5 25 10 8 5 11 10 5 10 -5 0 -17 -5 -25 -10z M7254 1545 c-4 -8 -10
-12 -15 -9 -5 3 -9 0 -9 -5 0 -6 7 -11 15 -11 8 0 15 -7 15 -15 0 -8 -4 -15
-9 -15 -5 0 -14 7 -21 15 -18 22 -25 19 -27 -12 -1 -22 1 -24 8 -10 9 15 12
15 33 2 22 -15 24 -14 29 4 3 11 2 22 -1 26 -11 11 -10 36 1 32 7 -2 13 -13
15 -25 4 -24 22 -31 22 -9 0 14 -31 47 -44 47 -3 0 -9 -7 -12 -15z M7327 1553
c-4 -3 -7 -11 -7 -17 0 -6 5 -5 12 2 6 6 9 14 7 17 -3 3 -9 2 -12 -2z M7571
1544 c0 -11 3 -14 6 -6 3 7 2 16 -1 19 -3 4 -6 -2 -5 -13z M2665 1539 c-4 -6
-5 -12 -2 -15 2 -3 7 2 10 11 7 17 1 20 -8 4z M2825 1540 c3 -5 8 -10 11 -10
2 0 4 5 4 10 0 6 -5 10 -11 10 -5 0 -7 -4 -4 -10z M2911 1534 c-10 -12 -10
-19 -2 -27 8 -8 11 -7 11 6 0 11 5 14 18 10 15 -6 15 -5 3 10 -16 20 -13 20
-30 1z M3050 1540 c0 -5 5 -10 11 -10 5 0 7 5 4 10 -3 6 -8 10 -11 10 -2 0 -4
-4 -4 -10z M7463 1528 c-2 -18 0 -20 7 -8 12 18 13 30 2 30 -4 0 -9 -10 -9
-22z M7520 1539 c0 -5 5 -7 10 -4 6 3 10 8 10 11 0 2 -4 4 -10 4 -5 0 -10 -5
-10 -11z M2560 1530 c0 -5 5 -10 11 -10 7 0 9 -11 6 -26 -3 -17 -1 -22 6 -15
11 11 1 61 -13 61 -6 0 -10 -4 -10 -10z M2622 1520 c-14 -23 -15 -30 -4 -30 4
0 12 11 19 25 13 30 3 33 -15 5z M2702 1528 c5 -15 28 -23 28 -10 0 5 -7 13
-16 16 -10 4 -14 1 -12 -6z M2760 1529 c0 -5 5 -7 10 -4 6 3 10 8 10 11 0 2
-4 4 -10 4 -5 0 -10 -5 -10 -11z M2985 1530 c-3 -5 -1 -10 4 -10 6 0 11 5 11
10 0 6 -2 10 -4 10 -3 0 -8 -4 -11 -10z M7125 1529 c-4 -6 -5 -12 -2 -15 2 -3
7 2 10 11 7 17 1 20 -8 4z M7162 1521 c-12 -10 -22 -25 -22 -32 1 -9 4 -8 11
4 8 14 14 15 24 7 10 -8 13 -5 11 15 0 14 -1 25 -2 25 -1 0 -11 -8 -22 -19z
M7395 1530 c-3 -5 -1 -10 4 -10 6 0 11 5 11 10 0 6 -2 10 -4 10 -3 0 -8 -4
-11 -10z M7607 1533 c-4 -3 -7 -11 -7 -17 0 -6 5 -5 12 2 6 6 9 14 7 17 -3 3
-9 2 -12 -2z M7751 1524 c0 -11 3 -14 6 -6 3 7 2 16 -1 19 -3 4 -6 -2 -5 -13z
M2790 1526 c0 -2 7 -7 16 -10 8 -3 12 -2 9 4 -6 10 -25 14 -25 6z M6987 1523
c-4 -7 4 -17 21 -25 29 -15 52 -13 52 4 0 5 -9 6 -20 3 -12 -4 -20 -2 -20 5 0
6 -4 9 -9 6 -5 -4 -11 -1 -13 6 -3 9 -6 9 -11 1z M7087 1523 c-4 -3 -7 -11 -7
-17 0 -6 5 -5 12 2 6 6 9 14 7 17 -3 3 -9 2 -12 -2z M7540 1520 c0 -5 5 -10
10 -10 6 0 10 5 10 10 0 6 -4 10 -10 10 -5 0 -10 -4 -10 -10z M7650 1516 c0
-8 5 -18 12 -22 7 -5 8 -3 3 6 -4 7 -2 16 6 21 11 7 10 9 -3 9 -10 0 -18 -6
-18 -14z M2682 1500 c0 -14 2 -19 5 -12 2 6 2 18 0 25 -3 6 -5 1 -5 -13z
M2840 1511 c0 -6 5 -13 10 -16 6 -3 10 1 10 9 0 9 -4 16 -10 16 -5 0 -10 -4
-10 -9z M2955 1510 c-3 -5 -1 -10 4 -10 6 0 11 5 11 10 0 6 -2 10 -4 10 -3 0
-8 -4 -11 -10z M3110 1504 c0 -8 5 -12 10 -9 6 4 8 11 5 16 -9 14 -15 11 -15
-7z M7485 1510 c-3 -5 -2 -10 4 -10 5 0 13 5 16 10 3 6 2 10 -4 10 -5 0 -13
-4 -16 -10z M7780 1510 c0 -5 5 -10 10 -10 6 0 10 5 10 10 0 6 -4 10 -10 10
-5 0 -10 -4 -10 -10z M2525 1500 c-3 -5 -1 -10 4 -10 6 0 11 5 11 10 0 6 -2
10 -4 10 -3 0 -8 -4 -11 -10z M2740 1495 c-11 -13 -10 -14 4 -9 9 3 16 10 16
15 0 13 -6 11 -20 -6z M3023 1485 c-32 -34 -29 -40 7 -15 17 12 30 26 30 31 0
15 -14 9 -37 -16z M3205 1500 c-3 -5 -1 -10 4 -10 6 0 11 5 11 10 0 6 -2 10
-4 10 -3 0 -8 -4 -11 -10z M6930 1500 c0 -5 5 -10 10 -10 6 0 10 5 10 10 0 6
-4 10 -10 10 -5 0 -10 -4 -10 -10z M7430 1500 c-13 -8 -12 -10 3 -10 9 0 17 5
17 10 0 12 -1 12 -20 0z M7620 1495 c0 -8 5 -15 10 -15 6 0 10 7 10 15 0 8 -4
15 -10 15 -5 0 -10 -7 -10 -15z M7720 1494 c0 -8 5 -12 10 -9 6 4 8 11 5 16
-9 14 -15 11 -15 -7z M2640 1489 c0 -5 5 -7 10 -4 6 3 10 8 10 11 0 2 -4 4
-10 4 -5 0 -10 -5 -10 -11z M2780 1490 c0 -5 5 -10 10 -10 6 0 10 5 10 10 0 6
-4 10 -10 10 -5 0 -10 -4 -10 -10z M2880 1490 c0 -5 5 -10 10 -10 6 0 10 5 10
10 0 6 -4 10 -10 10 -5 0 -10 -4 -10 -10z M2926 1491 c-3 -5 1 -14 8 -20 12
-10 13 -8 9 8 -6 23 -9 25 -17 12z M2966 1468 l-19 -33 22 23 c12 12 21 27 19
33 -2 5 -12 -5 -22 -23z M3140 1490 c0 -5 5 -10 10 -10 6 0 10 5 10 10 0 6 -4
10 -10 10 -5 0 -10 -4 -10 -10z M3281 1474 c-16 -37 -9 -39 11 -3 9 16 14 29
9 29 -4 0 -13 -12 -20 -26z M3385 1489 c-4 -6 -5 -12 -2 -15 2 -3 7 2 10 11 7
17 1 20 -8 4z M3413 1485 c-3 -9 -3 -18 -1 -21 3 -3 8 4 11 16 6 23 -1 27 -10
5z M7110 1492 c0 -6 5 -14 10 -17 6 -4 7 -11 4 -17 -4 -7 -2 -8 5 -4 9 6 9 12
-1 24 -7 10 -14 19 -15 21 -2 2 -3 -1 -3 -7z M7316 1485 c-3 -8 -12 -12 -21
-9 -8 3 -15 1 -15 -5 0 -16 29 -14 46 3 16 17 18 26 5 26 -5 0 -11 -7 -15 -15z
M7372 1488 c-7 -7 -12 -16 -12 -20 0 -15 15 -8 28 12 13 22 3 27 -16 8z M7520
1490 c0 -5 5 -10 11 -10 5 0 7 5 4 10 -3 6 -8 10 -11 10 -2 0 -4 -4 -4 -10z
M7576 1483 c-6 -14 -5 -15 5 -6 7 7 10 15 7 18 -3 3 -9 -2 -12 -12z M7685
1490 c3 -5 8 -10 11 -10 2 0 4 5 4 10 0 6 -5 10 -11 10 -5 0 -7 -4 -4 -10z
M2820 1480 c0 -5 5 -10 11 -10 5 0 7 5 4 10 -3 6 -8 10 -11 10 -2 0 -4 -4 -4
-10z M3350 1479 c0 -6 -7 -9 -15 -5 -8 3 -15 1 -15 -4 0 -15 26 -12 40 5 9 10
9 15 1 15 -6 0 -11 -5 -11 -11z M6905 1480 c3 -5 8 -10 11 -10 2 0 4 5 4 10 0
6 -5 10 -11 10 -5 0 -7 -4 -4 -10z M7041 1459 c-17 -17 -31 -36 -31 -42 0 -7
7 -4 14 6 7 9 18 17 25 17 6 0 11 4 11 9 0 5 7 17 16 25 8 9 11 16 5 16 -5 0
-23 -14 -40 -31z M7460 1479 c0 -5 5 -7 10 -4 6 3 10 8 10 11 0 2 -4 4 -10 4
-5 0 -10 -5 -10 -11z M3120 1470 c0 -5 5 -10 11 -10 5 0 7 5 4 10 -3 6 -8 10
-11 10 -2 0 -4 -4 -4 -10z M3157 1460 c-21 -25 -22 -31 -3 -24 8 3 16 14 19
25 6 24 5 24 -16 -1z M3191 1470 c-1 -23 15 -45 23 -31 4 6 3 11 -3 11 -5 0
-12 8 -14 18 -3 12 -5 13 -6 2z M7005 1470 c-3 -5 -1 -10 4 -10 6 0 11 5 11
10 0 6 -2 10 -4 10 -3 0 -8 -4 -11 -10z M7167 1473 c-4 -3 -7 -11 -7 -17 0 -6
5 -5 12 2 6 6 9 14 7 17 -3 3 -9 2 -12 -2z M7500 1466 c0 -8 -6 -17 -12 -19
-8 -3 -6 -6 5 -6 11 -1 17 6 17 19 0 11 -2 20 -5 20 -3 0 -5 -6 -5 -14z M2700
1462 c0 -4 10 -9 22 -9 18 -2 20 0 8 7 -18 12 -30 13 -30 2z M2760 1461 c0 -9
24 -21 41 -21 5 0 9 8 9 18 0 15 -2 15 -11 2 -8 -11 -12 -12 -16 -2 -5 14 -23
16 -23 3z M2907 1463 c-4 -3 -7 -11 -7 -17 0 -6 5 -5 12 2 6 6 9 14 7 17 -3 3
-9 2 -12 -2z M3100 1458 c0 -10 -4 -18 -10 -18 -5 0 -10 -5 -10 -11 0 -8 4 -8
14 0 17 14 31 -2 20 -21 -5 -10 -4 -10 5 -2 10 9 10 18 -3 40 -10 20 -15 24
-16 12z M3245 1460 c-3 -5 -1 -10 4 -10 6 0 11 5 11 10 0 6 -2 10 -4 10 -3 0
-8 -4 -11 -10z M6930 1455 c0 -8 2 -15 4 -15 2 0 6 7 10 15 3 8 1 15 -4 15 -6
0 -10 -7 -10 -15z M7090 1460 c0 -5 5 -10 11 -10 5 0 7 5 4 10 -3 6 -8 10 -11
10 -2 0 -4 -4 -4 -10z M7220 1460 c0 -5 5 -10 10 -10 6 0 10 5 10 10 0 6 -4
10 -10 10 -5 0 -10 -4 -10 -10z M7391 1444 c-6 -15 -7 -24 -1 -24 6 0 10 7 10
15 0 8 9 15 20 15 25 0 26 15 1 17 -11 1 -23 -8 -30 -23z M7595 1460 c3 -5 8
-10 11 -10 2 0 4 5 4 10 0 6 -5 10 -11 10 -5 0 -7 -4 -4 -10z M7650 1460 c-13
-8 -12 -10 3 -10 9 0 17 5 17 10 0 12 -1 12 -20 0z M2615 1450 c3 -5 8 -10 11
-10 2 0 4 5 4 10 0 6 -5 10 -11 10 -5 0 -7 -4 -4 -10z M3375 1450 c3 -5 8 -10
11 -10 2 0 4 5 4 10 0 6 -5 10 -11 10 -5 0 -7 -4 -4 -10z M3475 1449 c-4 -6
-5 -12 -2 -15 2 -3 7 2 10 11 7 17 1 20 -8 4z M3500 1449 c0 -5 5 -7 10 -4 6
3 10 8 10 11 0 2 -4 4 -10 4 -5 0 -10 -5 -10 -11z M6807 1428 c-10 -17 -16
-33 -13 -35 2 -3 10 6 17 19 6 12 16 26 22 29 5 4 5 9 0 12 -5 3 -16 -8 -26
-25z M6970 1456 c0 -2 7 -9 15 -16 13 -11 14 -10 9 4 -5 14 -24 23 -24 12z
M7190 1450 c0 -5 5 -10 11 -10 5 0 7 5 4 10 -3 6 -8 10 -11 10 -2 0 -4 -4 -4
-10z M7540 1450 c0 -5 7 -10 15 -10 8 0 15 5 15 10 0 6 -7 10 -15 10 -8 0 -15
-4 -15 -10z M7700 1450 c0 -5 5 -10 10 -10 6 0 10 5 10 10 0 6 -4 10 -10 10
-5 0 -10 -4 -10 -10z M2530 1440 c0 -5 5 -10 10 -10 6 0 10 5 10 10 0 6 -4 10
-10 10 -5 0 -10 -4 -10 -10z M3036 1438 c5 -7 2 -9 -8 -5 -11 4 -18 -1 -21
-14 -4 -17 -3 -18 9 -8 8 6 14 8 14 3 0 -11 20 18 20 29 0 4 -5 7 -11 7 -5 0
-7 -5 -3 -12z M3436 1435 c-9 -26 -7 -32 5 -12 6 10 9 21 6 23 -2 3 -7 -2 -11
-11z M3531 1443 c-1 -17 16 -25 25 -12 4 7 3 9 -4 5 -5 -3 -13 0 -15 6 -4 9
-6 10 -6 1z M6760 1442 c0 -12 19 -26 26 -19 2 2 -2 10 -11 17 -9 8 -15 8 -15
2z M6852 1435 c-7 -8 -9 -15 -4 -15 5 0 15 7 22 15 16 19 -1 19 -18 0z M6900
1440 c0 -7 10 -21 21 -31 21 -18 23 -18 35 -1 16 21 17 32 4 32 -5 0 -10 -7
-10 -15 0 -21 -9 -19 -31 7 -11 12 -19 16 -19 8z M7250 1428 c0 -12 1 -19 3
-17 1 2 9 12 16 22 12 14 11 17 -3 17 -10 0 -16 -8 -16 -22z M2920 1418 c-12
-22 -12 -22 6 -6 10 10 15 20 12 24 -4 3 -12 -5 -18 -18z M2981 1424 c0 -11 3
-14 6 -6 3 7 2 16 -1 19 -3 4 -6 -2 -5 -13z M3231 1423 c-7 -8 -11 -16 -8 -19
2 -2 10 2 17 11 17 20 9 27 -9 8z M3351 1429 c3 -17 -11 -52 -24 -60 -5 -4 -4
-10 3 -14 7 -4 13 1 17 14 4 17 8 19 19 10 10 -8 14 -8 14 0 0 6 -5 11 -11 11
-6 0 -8 8 -4 19 3 11 1 22 -5 26 -7 4 -10 1 -9 -6z M7075 1430 c-3 -5 -1 -10
4 -10 6 0 11 5 11 10 0 6 -2 10 -4 10 -3 0 -8 -4 -11 -10z M7110 1429 c0 -14
-25 -39 -39 -39 -6 0 -11 -5 -11 -11 0 -12 16 -4 48 24 23 22 29 37 12 37 -5
0 -10 -5 -10 -11z M7291 1423 c-18 -20 -6 -29 14 -10 8 9 12 18 8 20 -5 3 -14
-2 -22 -10z M7440 1431 c0 -5 -8 -11 -17 -13 -12 -2 -14 -6 -7 -10 6 -4 19 1
29 12 10 12 13 20 7 20 -7 0 -12 -4 -12 -9z M7616 1425 c4 -8 8 -15 10 -15 2
0 4 7 4 15 0 8 -4 15 -10 15 -5 0 -7 -7 -4 -15z M2700 1420 c0 -5 5 -10 10
-10 6 0 10 5 10 10 0 6 -4 10 -10 10 -5 0 -10 -4 -10 -10z M2769 1416 c6 -7 9
-22 5 -32 -5 -17 -4 -17 5 -2 12 18 5 48 -11 48 -7 0 -6 -5 1 -14z M2880 1420
c0 -5 5 -10 10 -10 6 0 10 5 10 10 0 6 -4 10 -10 10 -5 0 -10 -4 -10 -10z
M3170 1420 c0 -5 5 -10 10 -10 6 0 10 5 10 10 0 6 -4 10 -10 10 -5 0 -10 -4
-10 -10z M3285 1420 c-4 -6 -9 -9 -13 -6 -10 5 -53 -42 -44 -48 5 -3 15 4 22
15 8 10 20 19 26 19 7 0 14 7 18 15 6 17 0 20 -9 5z M3490 1419 c0 -5 5 -7 10
-4 6 3 10 8 10 11 0 2 -4 4 -10 4 -5 0 -10 -5 -10 -11z M7216 1415 c-3 -8 -1
-15 4 -15 6 0 10 7 10 15 0 8 -2 15 -4 15 -2 0 -6 -7 -10 -15z M7345 1420 c-3
-5 -2 -10 4 -10 5 0 13 5 16 10 3 6 2 10 -4 10 -5 0 -13 -4 -16 -10z M7520
1421 c0 -5 5 -13 10 -16 6 -3 10 -2 10 4 0 5 -4 13 -10 16 -5 3 -10 2 -10 -4z
M7573 1412 c1 -14 5 -18 11 -12 7 7 6 14 -1 21 -9 9 -12 7 -10 -9z M7660 1419
c0 -5 5 -7 10 -4 6 3 10 8 10 11 0 2 -4 4 -10 4 -5 0 -10 -5 -10 -11z M2815
1410 c3 -5 8 -10 11 -10 2 0 4 5 4 10 0 6 -5 10 -11 10 -5 0 -7 -4 -4 -10z
M2854 1412 c4 -7 2 -21 -5 -30 -12 -15 -11 -15 6 0 16 15 17 20 6 30 -11 11
-13 10 -7 0z M3057 1405 c-4 -8 -13 -15 -22 -15 -9 0 -15 -8 -14 -22 1 -17 2
-19 6 -5 2 9 10 17 18 17 12 0 30 29 21 37 -2 2 -6 -3 -9 -12z M3315 1410 c-3
-5 -1 -10 4 -10 6 0 11 5 11 10 0 6 -2 10 -4 10 -3 0 -8 -4 -11 -10z M3450
1410 c0 -5 5 -10 10 -10 6 0 10 5 10 10 0 6 -4 10 -10 10 -5 0 -10 -4 -10 -10z
M3516 1404 c-4 -9 -4 -19 -1 -22 2 -3 7 3 11 12 4 9 4 19 1 22 -2 3 -7 -3 -11
-12z M3723 1385 c-1 -19 3 -38 8 -41 5 -3 7 -10 4 -15 -4 -5 -1 -9 4 -9 6 0
11 -8 11 -17 0 -10 9 -1 20 20 11 20 20 40 20 44 -1 5 -8 -5 -17 -22 -9 -16
-18 -25 -20 -18 -2 7 1 22 7 33 6 12 9 24 7 27 -3 2 -8 -5 -12 -16 -9 -29 -29
-27 -22 2 4 12 3 28 -1 34 -5 8 -8 -2 -9 -22z M6673 1404 c-15 -16 -16 -24 -4
-24 8 0 24 30 19 35 -2 2 -9 -3 -15 -11z M6740 1410 c0 -5 5 -10 11 -10 5 0 7
5 4 10 -3 6 -8 10 -11 10 -2 0 -4 -4 -4 -10z M7040 1410 c0 -5 5 -10 10 -10 6
0 10 5 10 10 0 6 -4 10 -10 10 -5 0 -10 -4 -10 -10z M7150 1410 c0 -5 5 -10
11 -10 5 0 7 5 4 10 -3 6 -8 10 -11 10 -2 0 -4 -4 -4 -10z M7470 1410 c0 -5 5
-10 10 -10 6 0 10 5 10 10 0 6 -4 10 -10 10 -5 0 -10 -4 -10 -10z M3132 1390
c-7 -11 -9 -20 -4 -20 4 0 13 9 20 20 7 11 9 20 4 20 -4 0 -13 -9 -20 -20z
M3196 1395 c-3 -9 -11 -13 -17 -10 -10 7 -38 -21 -39 -40 0 -5 7 1 16 13 8 12
19 20 24 17 9 -6 35 23 28 31 -3 3 -8 -2 -12 -11z M3690 1396 c0 -15 -3 -16
-14 -7 -12 10 -17 8 -25 -8 -16 -28 -13 -38 3 -15 8 10 18 16 22 12 4 -4 1
-14 -6 -23 -11 -13 -10 -14 4 -9 9 3 16 12 16 19 0 7 4 15 10 17 6 2 6 8 0 18
-8 13 -10 12 -10 -4z M3780 1401 c0 -6 4 -13 10 -16 6 -3 7 1 4 9 -7 18 -14
21 -14 7z M3828 1393 c-8 -10 -18 -25 -22 -33 -4 -8 2 -4 14 9 18 21 23 22 31
10 5 -7 9 -9 9 -4 0 6 -4 16 -8 23 -7 10 -12 8 -24 -5z M6338 1384 c2 -14 12
-28 21 -32 9 -3 19 -10 23 -16 5 -7 8 -6 8 2 0 8 -9 16 -20 19 -11 3 -20 14
-20 24 0 10 -4 20 -9 23 -4 3 -6 -6 -3 -20z M6360 1405 c0 -5 5 -17 10 -25 5
-8 10 -10 10 -5 0 6 -5 17 -10 25 -5 8 -10 11 -10 5z M6400 1394 c0 -8 5 -12
10 -9 6 3 10 10 10 16 0 5 -4 9 -10 9 -5 0 -10 -7 -10 -16z M6460 1400 c0 -5
5 -10 10 -10 6 0 10 5 10 10 0 6 -4 10 -10 10 -5 0 -10 -4 -10 -10z M6555
1399 c-4 -6 -5 -12 -2 -15 2 -3 7 2 10 11 7 17 1 20 -8 4z M6850 1400 c0 -5 5
-10 11 -10 5 0 7 5 4 10 -3 6 -8 10 -11 10 -2 0 -4 -4 -4 -10z M2725 1390 c-3
-5 -1 -10 4 -10 6 0 11 5 11 10 0 6 -2 10 -4 10 -3 0 -8 -4 -11 -10z M3090
1390 c0 -5 5 -10 11 -10 5 0 7 5 4 10 -3 6 -8 10 -11 10 -2 0 -4 -4 -4 -10z
M3616 1372 c-5 -23 -12 -32 -22 -28 -8 3 -14 1 -14 -4 0 -6 7 -10 15 -10 18 0
38 35 32 58 -2 10 -6 4 -11 -16z M3940 1389 c0 -5 5 -7 10 -4 6 3 10 8 10 11
0 2 -4 4 -10 4 -5 0 -10 -5 -10 -11z M4000 1390 c0 -5 5 -10 10 -10 6 0 10 5
10 10 0 6 -4 10 -10 10 -5 0 -10 -4 -10 -10z M4945 1389 c-4 -6 -5 -12 -2 -15
2 -3 7 2 10 11 7 17 1 20 -8 4z M6300 1394 c0 -6 7 -19 16 -30 14 -18 14 -18
3 6 -14 31 -19 36 -19 24z M6521 1388 c-1 -21 -17 -24 -25 -5 -3 6 -3 -1 1
-18 3 -16 8 -33 10 -37 6 -12 23 -10 23 3 0 5 -4 7 -10 4 -5 -3 -10 0 -10 9 0
8 5 16 11 18 6 2 9 13 6 23 -4 17 -5 17 -6 3z M6581 1384 c0 -11 3 -14 6 -6 3
7 2 16 -1 19 -3 4 -6 -2 -5 -13z M6635 1389 c-4 -6 -5 -12 -2 -15 2 -3 7 2 10
11 7 17 1 20 -8 4z M7190 1391 c0 -5 5 -13 10 -16 6 -3 10 -2 10 4 0 5 -4 13
-10 16 -5 3 -10 2 -10 -4z M7320 1389 c0 -5 5 -7 10 -4 6 3 10 8 10 11 0 2 -4
4 -10 4 -5 0 -10 -5 -10 -11z M7361 1383 c-7 -8 -10 -17 -6 -21 3 -3 10 0 15
7 4 8 15 11 24 8 9 -4 16 -3 16 2 0 16 -35 18 -49 4z M2920 1380 c0 -5 5 -10
10 -10 6 0 10 5 10 10 0 6 -4 10 -10 10 -5 0 -10 -4 -10 -10z M2954 1372 c-8
-13 -8 -20 1 -29 9 -8 12 -4 12 18 0 16 -1 29 -1 29 -1 0 -6 -8 -12 -18z
M2985 1380 c-3 -5 -1 -10 4 -10 6 0 11 5 11 10 0 6 -2 10 -4 10 -3 0 -8 -4
-11 -10z M3430 1379 c0 -5 5 -7 10 -4 6 3 10 8 10 11 0 2 -4 4 -10 4 -5 0 -10
-5 -10 -11z M3530 1369 c-7 -11 -10 -23 -7 -25 2 -2 9 7 15 21 14 30 7 33 -8
4z M3910 1381 c0 -10 19 -25 25 -20 1 2 -3 10 -11 17 -8 7 -14 8 -14 3z M3956
1356 c-19 -40 -20 -55 -5 -76 8 -12 9 -10 4 8 -4 14 0 38 10 58 9 20 15 38 12
40 -2 3 -12 -11 -21 -30z M4970 1381 c0 -6 4 -13 10 -16 6 -3 7 1 4 9 -7 18
-14 21 -14 7z M5196 1359 c-18 -30 -18 -30 -35 -10 -10 11 -21 18 -24 14 -4
-3 5 -14 18 -25 15 -12 22 -25 18 -36 -3 -9 4 -3 15 14 19 29 37 74 30 74 -2
0 -12 -14 -22 -31z M6760 1380 c0 -5 5 -10 10 -10 6 0 10 5 10 10 0 6 -4 10
-10 10 -5 0 -10 -4 -10 -10z M6900 1379 c0 -5 5 -7 10 -4 6 3 10 8 10 11 0 2
-4 4 -10 4 -5 0 -10 -5 -10 -11z M6960 1379 c0 -5 5 -7 10 -4 6 3 10 8 10 11
0 2 -4 4 -10 4 -5 0 -10 -5 -10 -11z M7260 1380 c0 -5 5 -10 10 -10 6 0 10 5
10 10 0 6 -4 10 -10 10 -5 0 -10 -4 -10 -10z M7500 1374 c0 -8 5 -12 10 -9 6
4 8 11 5 16 -9 14 -15 11 -15 -7z M3390 1358 c-12 -22 -12 -22 6 -6 10 10 15
20 12 24 -4 3 -12 -5 -18 -18z M3565 1370 c-3 -5 -1 -10 4 -10 6 0 11 5 11 10
0 6 -2 10 -4 10 -3 0 -8 -4 -11 -10z M4896 1364 c-9 -24 -7 -27 9 -10 17 17
19 26 6 26 -5 0 -12 -7 -15 -16z M5070 1365 c-7 -9 -8 -15 -2 -15 5 0 12 7 16
15 3 8 4 15 2 15 -2 0 -9 -7 -16 -15z M5170 1369 c0 -5 5 -7 10 -4 6 3 10 8
10 11 0 2 -4 4 -10 4 -5 0 -10 -5 -10 -11z M6450 1365 c-11 -13 -10 -14 4 -9
11 4 16 1 16 -10 0 -20 -14 -20 -34 0 -17 17 -19 14 -10 -10 3 -9 13 -16 21
-16 12 0 14 -7 9 -32 -4 -24 -3 -29 4 -18 5 8 10 24 10 36 0 11 4 24 9 30 6 5
5 16 -3 27 -12 15 -15 16 -26 2z M6867 1373 c-4 -3 -7 -11 -7 -17 0 -6 5 -5
12 2 6 6 9 14 7 17 -3 3 -9 2 -12 -2z M6926 1365 c-9 -26 -7 -32 5 -12 6 10 9
21 6 23 -2 3 -7 -2 -11 -11z M7160 1370 c0 -5 5 -10 11 -10 5 0 7 5 4 10 -3 6
-8 10 -11 10 -2 0 -4 -4 -4 -10z M7295 1370 c-3 -5 -1 -10 4 -10 6 0 11 5 11
10 0 6 -2 10 -4 10 -3 0 -8 -4 -11 -10z M3456 1355 c4 -8 8 -15 10 -15 2 0 4
7 4 15 0 8 -4 15 -10 15 -5 0 -7 -7 -4 -15z M4011 1340 c-5 -16 -6 -30 -1 -30
5 0 16 -7 24 -16 15 -14 16 -14 16 0 0 9 -7 16 -15 16 -18 0 -18 1 -5 34 5 14
6 26 1 26 -5 0 -14 -13 -20 -30z M6600 1361 c0 -5 7 -11 15 -15 8 -3 15 -1 15
3 0 5 -7 11 -15 15 -8 3 -15 1 -15 -3z M6735 1360 c-3 -5 -1 -10 4 -10 6 0 11
5 11 10 0 6 -2 10 -4 10 -3 0 -8 -4 -11 -10z M6795 1360 c-3 -5 -2 -10 4 -10
5 0 13 5 16 10 3 6 2 10 -4 10 -5 0 -13 -4 -16 -10z M6980 1364 c0 -10 28 -33
33 -27 3 3 0 12 -8 19 -14 15 -25 18 -25 8z M7095 1359 c-9 -14 -2 -20 14 -10
8 6 9 11 3 15 -6 3 -14 1 -17 -5z M7215 1360 c-3 -5 -2 -10 4 -10 5 0 13 5 16
10 3 6 2 10 -4 10 -5 0 -13 -4 -16 -10z M3195 1350 c-3 -5 -2 -10 4 -10 5 0
13 5 16 10 3 6 2 10 -4 10 -5 0 -13 -4 -16 -10z M3830 1344 c0 -10 -6 -14 -15
-10 -17 6 -19 -2 -6 -22 6 -10 12 -7 24 12 20 29 21 36 7 36 -5 0 -10 -7 -10
-16z M3891 1344 c0 -11 3 -14 6 -6 3 7 2 16 -1 19 -3 4 -6 -2 -5 -13z M4051
1344 c0 -11 3 -14 6 -6 3 7 2 16 -1 19 -3 4 -6 -2 -5 -13z M4950 1351 c0 -5 5
-13 10 -16 6 -3 10 -2 10 4 0 5 -4 13 -10 16 -5 3 -10 2 -10 -4z M5310 1349
c0 -5 5 -7 10 -4 6 3 10 8 10 11 0 2 -4 4 -10 4 -5 0 -10 -5 -10 -11z M6554
1351 c4 -5 1 -12 -4 -14 -6 -3 -5 -4 2 -3 15 3 23 26 8 26 -6 0 -9 -4 -6 -9z
M6665 1350 c3 -5 10 -10 16 -10 5 0 9 5 9 10 0 6 -7 10 -16 10 -8 0 -12 -4 -9
-10z M6945 1350 c-3 -5 -1 -10 4 -10 6 0 11 5 11 10 0 6 -2 10 -4 10 -3 0 -8
-4 -11 -10z M7040 1349 c0 -5 5 -7 10 -4 6 3 10 8 10 11 0 2 -4 4 -10 4 -5 0
-10 -5 -10 -11z M7141 1344 c0 -11 3 -14 6 -6 3 7 2 16 -1 19 -3 4 -6 -2 -5
-13z M3305 1340 c-3 -5 -1 -10 4 -10 6 0 11 5 11 10 0 6 -2 10 -4 10 -3 0 -8
-4 -11 -10z M3417 1343 c-4 -3 -7 -11 -7 -17 0 -6 5 -5 12 2 6 6 9 14 7 17 -3
3 -9 2 -12 -2z M3480 1334 c0 -8 5 -12 10 -9 6 4 8 11 5 16 -9 14 -15 11 -15
-7z M5250 1339 c0 -5 5 -7 10 -4 6 3 10 8 10 11 0 2 -4 4 -10 4 -5 0 -10 -5
-10 -11z M5336 1334 c-10 -26 -7 -41 9 -41 8 0 15 4 15 9 0 4 -4 8 -10 8 -5 0
-10 5 -10 11 0 6 7 8 16 5 14 -5 15 -4 4 9 -15 19 -16 19 -24 -1z M6290 1339
c0 -5 5 -7 10 -4 6 3 10 8 10 11 0 2 -4 4 -10 4 -5 0 -10 -5 -10 -11z M6706
1342 c-3 -6 -1 -14 5 -17 14 -9 20 -2 10 14 -6 8 -11 9 -15 3z M7185 1340 c3
-5 8 -10 11 -10 2 0 4 5 4 10 0 6 -5 10 -11 10 -5 0 -7 -4 -4 -10z M7245 1340
c-3 -5 -1 -10 4 -10 6 0 11 5 11 10 0 6 -2 10 -4 10 -3 0 -8 -4 -11 -10z
M7337 1329 c4 -13 8 -18 11 -10 2 7 -1 18 -6 23 -8 8 -9 4 -5 -13z M2986 1325
c4 -8 11 -15 16 -15 6 0 5 6 -2 15 -7 8 -14 15 -16 15 -2 0 -1 -7 2 -15z
M3160 1330 c0 -6 4 -9 9 -6 5 4 12 1 14 -4 3 -6 4 -5 3 2 -3 15 -26 23 -26 8z
M3346 1328 c3 -4 9 -8 15 -8 5 0 9 4 9 8 0 5 -7 9 -15 9 -8 0 -12 -4 -9 -9z
M3535 1330 c-3 -5 -1 -10 4 -10 6 0 11 5 11 10 0 6 -2 10 -4 10 -3 0 -8 -4
-11 -10z M3618 1318 c-10 -10 -14 -18 -9 -18 10 0 36 29 30 34 -2 1 -12 -6
-21 -16z M3700 1329 c0 -5 5 -7 10 -4 6 3 10 8 10 11 0 2 -4 4 -10 4 -5 0 -10
-5 -10 -11z M3860 1330 c0 -5 5 -10 11 -10 5 0 7 5 4 10 -3 6 -8 10 -11 10 -2
0 -4 -4 -4 -10z M3972 1320 c-7 -11 -8 -20 -3 -20 9 0 24 30 18 36 -1 2 -8 -6
-15 -16z M4072 1324 c-7 -8 -8 -14 -3 -14 10 0 25 19 20 25 -2 1 -10 -3 -17
-11z M4915 1330 c-3 -5 -1 -10 4 -10 6 0 11 5 11 10 0 6 -2 10 -4 10 -3 0 -8
-4 -11 -10z M4980 1330 c0 -5 5 -10 10 -10 6 0 10 5 10 10 0 6 -4 10 -10 10
-5 0 -10 -4 -10 -10z M5045 1330 c-3 -5 -2 -10 4 -10 5 0 13 5 16 10 3 6 2 10
-4 10 -5 0 -13 -4 -16 -10z M5073 1314 c-12 -13 -17 -26 -12 -30 5 -3 12 2 15
10 3 9 13 16 21 16 9 0 13 -6 9 -15 -3 -8 -1 -15 4 -15 14 0 12 22 -3 41 -12
16 -15 15 -34 -7z M6220 1330 c0 -5 5 -10 10 -10 6 0 10 5 10 10 0 6 -4 10
-10 10 -5 0 -10 -4 -10 -10z M6320 1330 c0 -5 5 -10 10 -10 6 0 10 5 10 10 0
6 -4 10 -10 10 -5 0 -10 -4 -10 -10z M6400 1307 c0 -20 4 -37 8 -37 10 0 9 56
-1 66 -4 4 -7 -9 -7 -29z M6633 1313 c-11 -22 -10 -29 2 -43 19 -21 19 -27 0
-33 -12 -4 -11 -5 1 -3 24 2 28 21 8 40 -15 16 -15 18 0 35 17 19 21 31 9 31
-5 0 -14 -12 -20 -27z M6760 1330 c0 -5 7 -10 16 -10 8 0 12 5 9 10 -3 6 -10
10 -16 10 -5 0 -9 -4 -9 -10z M3070 1320 c0 -5 5 -10 11 -10 5 0 7 5 4 10 -3
6 -8 10 -11 10 -2 0 -4 -4 -4 -10z M3650 1310 c-30 -26 -22 -34 9 -9 13 11 22
22 19 24 -3 3 -15 -4 -28 -15z M6253 1315 c-15 -16 -16 -25 -5 -25 4 0 13 9
20 20 14 23 3 26 -15 5z M6902 1318 c-14 -14 -16 -28 -3 -28 5 0 11 9 14 20 6
23 5 24 -11 8z M6970 1319 c0 -5 5 -7 10 -4 6 3 10 8 10 11 0 2 -4 4 -10 4 -5
0 -10 -5 -10 -11z M2945 1310 c-3 -5 -1 -10 4 -10 6 0 11 5 11 10 0 6 -2 10
-4 10 -3 0 -8 -4 -11 -10z M3125 1310 c3 -5 8 -10 11 -10 2 0 4 5 4 10 0 6 -5
10 -11 10 -5 0 -7 -4 -4 -10z M3320 1310 c0 -5 5 -10 10 -10 6 0 10 5 10 10 0
6 -4 10 -10 10 -5 0 -10 -4 -10 -10z M3385 1310 c-3 -5 -1 -10 4 -10 6 0 11 5
11 10 0 6 -2 10 -4 10 -3 0 -8 -4 -11 -10z M3440 1309 c0 -5 5 -7 10 -4 6 3
10 8 10 11 0 2 -4 4 -10 4 -5 0 -10 -5 -10 -11z M3560 1311 c0 -5 7 -12 16
-15 14 -5 15 -4 4 9 -14 17 -20 19 -20 6z M4101 1304 c0 -11 3 -14 6 -6 3 7 2
16 -1 19 -3 4 -6 -2 -5 -13z M4941 1309 c0 -9 -8 -22 -16 -29 -9 -7 -13 -15
-11 -18 10 -9 37 29 33 46 -4 14 -5 14 -6 1z M5007 1313 c-10 -10 -8 -33 2
-33 6 0 9 9 8 20 -1 23 -1 22 -10 13z M5425 1310 c-3 -5 -1 -10 4 -10 6 0 11
5 11 10 0 6 -2 10 -4 10 -3 0 -8 -4 -11 -10z M6374 1301 c3 -17 -2 -30 -16
-43 -12 -10 -19 -20 -16 -23 2 -3 14 6 27 18 18 20 20 28 11 48 l-11 24 5 -24z
M6485 1310 c-3 -5 -1 -10 4 -10 6 0 11 5 11 10 0 6 -2 10 -4 10 -3 0 -8 -4
-11 -10z M6680 1310 c0 -5 5 -10 10 -10 6 0 10 5 10 10 0 6 -4 10 -10 10 -5 0
-10 -4 -10 -10z M6735 1310 c-3 -5 -1 -10 4 -10 6 0 11 5 11 10 0 6 -2 10 -4
10 -3 0 -8 -4 -11 -10z M6796 1311 c-4 -5 -2 -12 3 -15 5 -4 12 -2 15 3 4 5 2
12 -3 15 -5 4 -12 2 -15 -3z M7160 1310 c0 -5 5 -10 10 -10 6 0 10 5 10 10 0
6 -4 10 -10 10 -5 0 -10 -4 -10 -10z M7225 1310 c-3 -5 -1 -10 4 -10 6 0 11 5
11 10 0 6 -2 10 -4 10 -3 0 -8 -4 -11 -10z M3240 1306 c0 -2 7 -6 15 -10 8 -3
15 -1 15 4 0 6 -7 10 -15 10 -8 0 -15 -2 -15 -4z M3500 1306 c0 -2 7 -6 15
-10 8 -3 15 -1 15 4 0 6 -7 10 -15 10 -8 0 -15 -2 -15 -4z M3780 1294 c0 -8 5
-12 10 -9 6 3 10 10 10 16 0 5 -4 9 -10 9 -5 0 -10 -7 -10 -16z M3840 1299 c0
-5 5 -7 10 -4 6 3 10 8 10 11 0 2 -4 4 -10 4 -5 0 -10 -5 -10 -11z M3895 1300
c-3 -5 -1 -10 4 -10 6 0 11 5 11 10 0 6 -2 10 -4 10 -3 0 -8 -4 -11 -10z
M4967 1299 c6 -6 9 -18 6 -25 -3 -8 0 -14 6 -14 6 0 11 4 11 9 0 19 -12 41
-23 41 -8 0 -8 -3 0 -11z M5200 1300 c0 -5 5 -10 10 -10 6 0 10 5 10 10 0 6
-4 10 -10 10 -5 0 -10 -4 -10 -10z M5271 1294 c0 -11 3 -14 6 -6 3 7 2 16 -1
19 -3 4 -6 -2 -5 -13z M5377 1303 c-4 -3 -7 -11 -7 -17 0 -6 5 -5 12 2 6 6 9
14 7 17 -3 3 -9 2 -12 -2z M5480 1301 c0 -7 -7 -11 -14 -8 -10 4 -13 1 -9 -9
3 -7 9 -14 13 -14 10 0 22 31 15 38 -3 3 -5 0 -5 -7z M6300 1300 c0 -5 5 -10
10 -10 6 0 10 5 10 10 0 6 -4 10 -10 10 -5 0 -10 -4 -10 -10z M6341 1298 c-1
-10 -6 -18 -12 -18 -5 0 -7 -5 -3 -11 9 -15 28 16 20 34 -2 7 -5 4 -5 -5z
M6560 1299 c0 -5 5 -7 10 -4 6 3 10 8 10 11 0 2 -4 4 -10 4 -5 0 -10 -5 -10
-11z M6593 1294 c-7 -7 -13 -19 -13 -26 0 -7 7 -2 16 10 18 26 16 37 -3 16z
M3415 1290 c-3 -5 -1 -10 4 -10 6 0 11 5 11 10 0 6 -2 10 -4 10 -3 0 -8 -4
-11 -10z M3997 1293 c-4 -3 1 -12 11 -19 14 -10 15 -15 5 -25 -7 -7 -13 -18
-13 -23 0 -6 5 -4 10 4 9 13 11 13 20 0 14 -22 12 -4 -4 35 -16 36 -18 39 -29
28z M4065 1290 c-3 -5 -1 -10 4 -10 6 0 11 5 11 10 0 6 -2 10 -4 10 -3 0 -8
-4 -11 -10z M4127 1293 c-9 -14 9 -27 23 -18 6 3 10 12 10 18 0 8 -3 7 -9 -2
-7 -11 -9 -11 -13 0 -3 9 -6 10 -11 2z M5495 1270 c-9 -17 -11 -30 -5 -30 5 0
12 11 16 25 3 14 11 22 17 18 6 -3 7 -1 3 5 -10 17 -14 15 -31 -18z M6985
1290 c-3 -6 1 -7 9 -4 18 7 21 14 7 14 -6 0 -13 -4 -16 -10z M7320 1289 c0 -5
5 -7 10 -4 6 3 10 8 10 11 0 2 -4 4 -10 4 -5 0 -10 -5 -10 -11z M3540 1280 c0
-5 5 -10 10 -10 6 0 10 5 10 10 0 6 -4 10 -10 10 -5 0 -10 -4 -10 -10z M3866
1273 c-6 -14 -5 -15 5 -6 7 7 10 15 7 18 -3 3 -9 -2 -12 -12z M5426 1273 c-6
-14 -5 -15 5 -6 7 7 10 15 7 18 -3 3 -9 -2 -12 -12z M6180 1281 c0 -4 -12 -20
-26 -35 -15 -14 -23 -26 -18 -26 15 1 44 26 44 39 0 6 5 11 10 11 6 0 10 5 10
10 0 6 -4 10 -10 10 -5 0 -10 -4 -10 -9z M6265 1279 c-11 -16 -1 -19 13 -3 7
8 8 14 3 14 -5 0 -13 -5 -16 -11z M6505 1280 c-3 -5 1 -10 10 -10 9 0 13 5 10
10 -3 6 -8 10 -10 10 -2 0 -7 -4 -10 -10z M6705 1280 c3 -5 8 -10 11 -10 2 0
4 5 4 10 0 6 -5 10 -11 10 -5 0 -7 -4 -4 -10z M6778 1270 c12 -11 24 -20 27
-20 3 0 0 9 -7 20 -7 11 -19 20 -27 20 -11 0 -9 -6 7 -20z M6820 1280 c0 -5 5
-10 10 -10 6 0 10 5 10 10 0 6 -4 10 -10 10 -5 0 -10 -4 -10 -10z M6920 1286
c0 -2 7 -6 15 -10 8 -3 15 -1 15 4 0 6 -7 10 -15 10 -8 0 -15 -2 -15 -4z
M7135 1280 c3 -5 8 -10 11 -10 2 0 4 5 4 10 0 6 -5 10 -11 10 -5 0 -7 -4 -4
-10z M7205 1280 c3 -5 8 -10 11 -10 2 0 4 5 4 10 0 6 -5 10 -11 10 -5 0 -7 -4
-4 -10z M3600 1269 c0 -5 5 -7 10 -4 6 3 10 8 10 11 0 2 -4 4 -10 4 -5 0 -10
-5 -10 -11z M3730 1269 c0 -5 5 -7 10 -4 6 3 10 8 10 11 0 2 -4 4 -10 4 -5 0
-10 -5 -10 -11z M3811 1271 c-8 -6 -9 -11 -3 -15 6 -3 14 -1 17 5 9 14 2 20
-14 10z M3910 1265 c-7 -8 -17 -12 -24 -8 -6 4 -4 -1 4 -11 11 -14 15 -15 19
-5 2 8 9 17 15 21 6 4 8 10 5 13 -4 3 -12 -1 -19 -10z M4102 1266 c7 -8 15
-12 17 -11 5 6 -10 25 -20 25 -5 0 -4 -6 3 -14z M4170 1270 c0 -5 5 -10 10
-10 6 0 10 5 10 10 0 6 -4 10 -10 10 -5 0 -10 -4 -10 -10z M4790 1270 c0 -5 5
-10 10 -10 6 0 10 5 10 10 0 6 -4 10 -10 10 -5 0 -10 -4 -10 -10z M5035 1270
c-3 -5 -1 -10 4 -10 6 0 11 5 11 10 0 6 -2 10 -4 10 -3 0 -8 -4 -11 -10z
M5180 1271 c0 -5 5 -13 10 -16 6 -3 10 -2 10 4 0 5 -4 13 -10 16 -5 3 -10 2
-10 -4z M6220 1271 c0 -6 5 -13 10 -16 6 -3 10 1 10 9 0 9 -4 16 -10 16 -5 0
-10 -4 -10 -9z M6543 1265 c-8 -9 -9 -16 -3 -20 6 -3 13 1 16 10 9 21 2 26
-13 10z M6880 1270 c8 -5 22 -9 30 -9 10 0 8 3 -5 9 -27 12 -43 12 -25 0z
M3385 1260 c3 -5 8 -10 11 -10 2 0 4 5 4 10 0 6 -5 10 -11 10 -5 0 -7 -4 -4
-10z M3442 1258 c2 -6 10 -14 16 -16 7 -2 10 2 6 12 -7 18 -28 22 -22 4z
M3500 1260 c0 -5 5 -10 10 -10 6 0 10 5 10 10 0 6 -4 10 -10 10 -5 0 -10 -4
-10 -10z M3566 1255 c-3 -8 -1 -15 4 -15 6 0 10 7 10 15 0 8 -2 15 -4 15 -2 0
-6 -7 -10 -15z M3640 1259 c0 -5 5 -7 10 -4 6 3 10 8 10 11 0 2 -4 4 -10 4 -5
0 -10 -5 -10 -11z M3700 1254 c0 -8 5 -12 10 -9 6 4 8 11 5 16 -9 14 -15 11
-15 -7z M3754 1256 c-3 -9 -12 -16 -20 -16 -8 0 -14 -5 -14 -10 0 -7 6 -7 19
0 23 12 35 29 27 37 -3 3 -8 -2 -12 -11z M3970 1260 c0 -5 5 -10 10 -10 6 0
10 5 10 10 0 6 -4 10 -10 10 -5 0 -10 -4 -10 -10z M4946 1262 c-3 -6 -1 -14 5
-17 15 -10 25 3 12 16 -7 7 -13 7 -17 1z M5216 1262 c-4 -7 -2 -12 5 -12 7 0
9 -8 6 -21 -4 -16 -3 -19 5 -11 8 8 8 18 1 34 -6 15 -12 18 -17 10z M5250
1261 c0 -5 5 -13 10 -16 6 -3 10 -2 10 4 0 5 -4 13 -10 16 -5 3 -10 2 -10 -4z
M5350 1255 c0 -8 2 -15 4 -15 2 0 6 7 10 15 3 8 1 15 -4 15 -6 0 -10 -7 -10
-15z M5380 1256 c0 -9 5 -16 10 -16 6 0 10 4 10 9 0 6 -4 13 -10 16 -5 3 -10
-1 -10 -9z M6301 1254 c0 -11 3 -14 6 -6 3 7 2 16 -1 19 -3 4 -6 -2 -5 -13z
M6463 1243 c-12 -13 -18 -23 -12 -23 14 0 42 28 37 38 -2 4 -13 -3 -25 -15z
M6737 1264 c-8 -8 1 -24 14 -24 5 0 9 7 9 15 0 15 -12 20 -23 9z M6845 1260
c-3 -5 -1 -10 4 -10 6 0 11 5 11 10 0 6 -2 10 -4 10 -3 0 -8 -4 -11 -10z
M6960 1260 c0 -5 5 -10 10 -10 6 0 10 5 10 10 0 6 -4 10 -10 10 -5 0 -10 -4
-10 -10z M3840 1251 c0 -5 5 -13 10 -16 6 -3 10 -2 10 4 0 5 -4 13 -10 16 -5
3 -10 2 -10 -4z M4080 1255 c0 -5 5 -17 10 -25 5 -8 10 -10 10 -5 0 6 -5 17
-10 25 -5 8 -10 11 -10 5z M4820 1250 c0 -5 5 -10 11 -10 5 0 7 5 4 10 -3 6
-8 10 -11 10 -2 0 -4 -4 -4 -10z M4885 1249 c-4 -6 -5 -12 -2 -15 2 -3 7 2 10
11 7 17 1 20 -8 4z M5000 1250 c0 -5 7 -10 16 -10 8 0 12 5 9 10 -3 6 -10 10
-16 10 -5 0 -9 -4 -9 -10z M5061 1244 c0 -11 3 -14 6 -6 3 7 2 16 -1 19 -3 4
-6 -2 -5 -13z M5109 1239 c-9 -18 -13 -19 -21 -8 -8 12 -9 12 -6 0 7 -24 22
-22 41 4 10 14 13 25 8 25 -6 0 -15 -10 -22 -21z M5440 1250 c0 -5 5 -10 10
-10 6 0 10 5 10 10 0 6 -4 10 -10 10 -5 0 -10 -4 -10 -10z M5510 1250 c0 -5 5
-10 10 -10 6 0 15 -11 20 -25 5 -14 15 -25 22 -25 9 0 8 3 -2 10 -12 8 -13 13
-2 30 17 27 15 38 -2 14 -14 -18 -15 -18 -21 -1 -8 18 -25 24 -25 7z M3530
1230 c-6 -11 -8 -20 -6 -20 3 0 10 9 16 20 6 11 8 20 6 20 -3 0 -10 -9 -16
-20z M3610 1239 c0 -5 5 -7 10 -4 6 3 10 8 10 11 0 2 -4 4 -10 4 -5 0 -10 -5
-10 -11z M3662 1234 c-7 -8 -8 -14 -3 -14 10 0 25 19 20 25 -2 1 -10 -3 -17
-11z M3780 1240 c0 -5 5 -10 10 -10 6 0 10 5 10 10 0 6 -4 10 -10 10 -5 0 -10
-4 -10 -10z M4190 1235 c-7 -9 -8 -15 -2 -15 5 0 12 7 16 15 3 8 4 15 2 15 -2
0 -9 -7 -16 -15z M4690 1240 c0 -5 5 -10 11 -10 5 0 7 5 4 10 -3 6 -8 10 -11
10 -2 0 -4 -4 -4 -10z M5610 1239 c0 -5 5 -7 10 -4 6 3 10 8 10 11 0 2 -4 4
-10 4 -5 0 -10 -5 -10 -11z M6180 1224 c-13 -13 -19 -24 -12 -24 6 0 12 4 12
9 0 5 9 13 20 16 11 3 20 11 20 16 0 15 -13 9 -40 -17z M6386 1234 c-3 -9 -4
-19 -1 -22 3 -3 5 1 5 9 0 11 2 11 10 -1 5 -8 10 -10 10 -5 0 6 -4 16 -9 23
-6 11 -10 10 -15 -4z M3410 1231 c0 -5 5 -13 10 -16 6 -3 10 -2 10 4 0 5 -4
13 -10 16 -5 3 -10 2 -10 -4z M4125 1229 c-4 -6 -5 -12 -2 -15 2 -3 7 2 10 11
7 17 1 20 -8 4z M4920 1230 c0 -5 5 -10 10 -10 6 0 10 5 10 10 0 6 -4 10 -10
10 -5 0 -10 -4 -10 -10z M6080 1230 c0 -5 5 -10 11 -10 5 0 7 5 4 10 -3 6 -8
10 -11 10 -2 0 -4 -4 -4 -10z M6245 1230 c-3 -5 -1 -10 4 -10 6 0 11 5 11 10
0 6 -2 10 -4 10 -3 0 -8 -4 -11 -10z M6510 1229 c0 -5 5 -7 10 -4 6 3 10 8 10
11 0 2 -4 4 -10 4 -5 0 -10 -5 -10 -11z M6560 1232 c0 -5 7 -9 15 -9 8 0 15 4
15 9 0 4 -7 8 -15 8 -8 0 -15 -4 -15 -8z M3960 1226 c0 -4 7 -14 15 -22 8 -9
15 -11 15 -6 0 5 -7 15 -15 22 -8 7 -15 9 -15 6z M4061 1214 c0 -11 3 -14 6
-6 3 7 2 16 -1 19 -3 4 -6 -2 -5 -13z M4227 1216 c-11 -8 -14 -17 -8 -20 5 -4
15 3 21 14 13 23 11 24 -13 6z M4665 1220 c3 -5 8 -10 11 -10 2 0 4 5 4 10 0
6 -5 10 -11 10 -5 0 -7 -4 -4 -10z M4840 1220 c0 -5 5 -10 10 -10 6 0 10 5 10
10 0 6 -4 10 -10 10 -5 0 -10 -4 -10 -10z M4980 1219 c0 -5 5 -7 10 -4 6 3 10
8 10 11 0 2 -4 4 -10 4 -5 0 -10 -5 -10 -11z M5035 1220 c3 -5 8 -10 11 -10 2
0 4 5 4 10 0 6 -5 10 -11 10 -5 0 -7 -4 -4 -10z M5135 1221 c-3 -5 -1 -12 5
-16 5 -3 10 1 10 9 0 18 -6 21 -15 7z M5275 1220 c3 -5 8 -10 11 -10 2 0 4 5
4 10 0 6 -5 10 -11 10 -5 0 -7 -4 -4 -10z M5335 1220 c-3 -5 -1 -10 4 -10 6 0
11 5 11 10 0 6 -2 10 -4 10 -3 0 -8 -4 -11 -10z M5401 1214 c0 -11 3 -14 6 -6
3 7 2 16 -1 19 -3 4 -6 -2 -5 -13z M5433 1206 c0 -18 3 -24 9 -18 7 7 7 16 0
28 -8 14 -9 13 -9 -10z M5460 1219 c0 -5 5 -7 10 -4 6 3 10 8 10 11 0 2 -4 4
-10 4 -5 0 -10 -5 -10 -11z M5570 1220 c0 -5 5 -10 10 -10 6 0 10 5 10 10 0 6
-4 10 -10 10 -5 0 -10 -4 -10 -10z M6661 1214 c0 -11 3 -14 6 -6 3 7 2 16 -1
19 -3 4 -6 -2 -5 -13z M3700 1210 c0 -5 5 -10 11 -10 5 0 7 5 4 10 -3 6 -8 10
-11 10 -2 0 -4 -4 -4 -10z M3810 1210 c0 -5 5 -10 10 -10 6 0 10 5 10 10 0 6
-4 10 -10 10 -5 0 -10 -4 -10 -10z M3875 1210 c-3 -5 -1 -10 4 -10 6 0 11 5
11 10 0 6 -2 10 -4 10 -3 0 -8 -4 -11 -10z M4262 1208 c-7 -7 -12 -16 -12 -21
0 -5 7 -1 16 8 9 9 14 18 12 20 -2 3 -10 -1 -16 -7z M4322 1200 c-7 -11 -8
-20 -3 -20 9 0 24 30 18 36 -1 2 -8 -6 -15 -16z M4693 1204 c-7 -7 -9 -15 -5
-17 4 -3 13 1 19 9 7 7 9 15 5 17 -4 3 -13 -1 -19 -9z M5500 1209 c0 -5 -4 -7
-10 -4 -5 3 -10 2 -10 -3 0 -17 13 -21 26 -7 16 16 18 25 4 25 -5 0 -10 -5
-10 -11z M5597 1194 c-20 -27 -14 -32 10 -9 8 8 13 19 11 24 -2 5 -11 -2 -21
-15z M6280 1210 c0 -5 5 -10 10 -10 6 0 10 5 10 10 0 6 -4 10 -10 10 -5 0 -10
-4 -10 -10z M6485 1210 c-3 -5 -1 -10 4 -10 6 0 11 5 11 10 0 6 -2 10 -4 10
-3 0 -8 -4 -11 -10z M6540 1210 c0 -5 5 -10 11 -10 5 0 7 5 4 10 -3 6 -8 10
-11 10 -2 0 -4 -4 -4 -10z M6610 1212 c0 -12 19 -26 26 -19 2 2 -2 10 -11 17
-9 8 -15 8 -15 2z M6805 1210 c3 -5 8 -10 11 -10 2 0 4 5 4 10 0 6 -5 10 -11
10 -5 0 -7 -4 -4 -10z M4020 1199 c0 -5 5 -7 10 -4 6 3 10 8 10 11 0 2 -4 4
-10 4 -5 0 -10 -5 -10 -11z M4431 1194 c-7 -8 -11 -17 -9 -20 3 -2 13 5 23 16
10 11 14 20 9 20 -5 -1 -15 -8 -23 -16z M4570 1201 c0 -6 4 -13 10 -16 6 -3 7
1 4 9 -7 18 -14 21 -14 7z M4635 1200 c3 -5 8 -10 11 -10 2 0 4 5 4 10 0 6 -5
10 -11 10 -5 0 -7 -4 -4 -10z M4750 1200 c0 -5 5 -10 10 -10 6 0 10 5 10 10 0
6 -4 10 -10 10 -5 0 -10 -4 -10 -10z M4820 1194 c0 -8 5 -12 10 -9 6 4 8 11 5
16 -9 14 -15 11 -15 -7z M4945 1200 c3 -5 8 -10 11 -10 2 0 4 5 4 10 0 6 -5
10 -11 10 -5 0 -7 -4 -4 -10z M5010 1200 c0 -5 5 -10 11 -10 5 0 7 5 4 10 -3
6 -8 10 -11 10 -2 0 -4 -4 -4 -10z M5060 1200 c0 -5 5 -10 10 -10 6 0 10 5 10
10 0 6 -4 10 -10 10 -5 0 -10 -4 -10 -10z M5168 1191 c-26 -25 -22 -36 4 -12
11 11 26 18 31 14 6 -3 7 -1 3 5 -10 16 -18 14 -38 -7z M5250 1200 c0 -5 5
-10 11 -10 5 0 7 5 4 10 -3 6 -8 10 -11 10 -2 0 -4 -4 -4 -10z M5310 1200 c0
-5 5 -10 11 -10 5 0 7 5 4 10 -3 6 -8 10 -11 10 -2 0 -4 -4 -4 -10z M5735
1199 c-4 -6 -5 -12 -2 -15 2 -3 7 2 10 11 7 17 1 20 -8 4z M5833 1194 c-15
-16 -16 -24 -4 -24 8 0 24 30 19 35 -2 2 -9 -3 -15 -11z M5973 1195 c-3 -9 -3
-18 -1 -21 3 -3 8 4 11 16 6 23 -1 27 -10 5z M6100 1200 c0 -5 5 -10 10 -10 6
0 10 5 10 10 0 6 -4 10 -10 10 -5 0 -10 -4 -10 -10z M6220 1200 c0 -5 -7 -10
-15 -10 -8 0 -15 -4 -15 -10 0 -6 10 -5 25 2 25 11 34 28 15 28 -5 0 -10 -4
-10 -10z M6420 1199 c0 -5 5 -7 10 -4 6 3 10 8 10 11 0 2 -4 4 -10 4 -5 0 -10
-5 -10 -11z M3650 1196 c0 -2 7 -7 16 -10 8 -3 12 -2 9 4 -6 10 -25 14 -25 6z
M3940 1191 c0 -6 4 -13 10 -16 6 -3 7 1 4 9 -7 18 -14 21 -14 7z M4100 1191
c0 -6 4 -13 10 -16 6 -3 7 1 4 9 -7 18 -14 21 -14 7z M4135 1190 c3 -5 8 -10
11 -10 2 0 4 5 4 10 0 6 -5 10 -11 10 -5 0 -7 -4 -4 -10z M4611 1184 c0 -11 3
-14 6 -6 3 7 2 16 -1 19 -3 4 -6 -2 -5 -13z M4880 1190 c0 -5 5 -10 11 -10 5
0 7 5 4 10 -3 6 -8 10 -11 10 -2 0 -4 -4 -4 -10z M5350 1185 c-8 -9 -8 -15 -2
-15 12 0 26 19 19 26 -2 2 -10 -2 -17 -11z M6002 1180 c0 -14 2 -19 5 -12 2 6
2 18 0 25 -3 6 -5 1 -5 -13z M890 1179 c-63 -25 -85 -59 -231 -350 -107 -212
-111 -223 -107 -273 7 -90 68 -146 158 -146 46 0 85 17 117 52 23 25 266 476
284 526 13 37 -1 97 -33 137 -41 52 -129 77 -188 54z M3840 1186 c0 -2 7 -9
15 -16 13 -11 14 -10 9 4 -5 14 -24 23 -24 12z M3900 1181 c0 -6 5 -13 10 -16
6 -3 10 1 10 9 0 9 -4 16 -10 16 -5 0 -10 -4 -10 -9z M4001 1174 c0 -11 3 -14
6 -6 3 7 2 16 -1 19 -3 4 -6 -2 -5 -13z M4040 1180 c0 -5 5 -10 11 -10 5 0 7
5 4 10 -3 6 -8 10 -11 10 -2 0 -4 -4 -4 -10z M4186 1175 c-9 -26 -7 -32 5 -12
6 10 9 21 6 23 -2 3 -7 -2 -11 -11z M4460 1175 c-7 -9 -10 -18 -6 -22 3 -3 6
-1 6 5 0 6 8 12 18 14 11 2 13 6 6 11 -7 4 -17 0 -24 -8z M4520 1180 c0 -7 24
-20 36 -20 13 0 1 19 -16 23 -11 3 -20 2 -20 -3z M4660 1180 c0 -5 5 -10 11
-10 5 0 7 5 4 10 -3 6 -8 10 -11 10 -2 0 -4 -4 -4 -10z M4720 1174 c0 -8 5
-12 10 -9 6 3 10 10 10 16 0 5 -4 9 -10 9 -5 0 -10 -7 -10 -16z M4780 1180 c0
-5 5 -10 10 -10 6 0 10 5 10 10 0 6 -4 10 -10 10 -5 0 -10 -4 -10 -10z M4848
1183 c-3 -4 3 -16 14 -25 21 -21 24 -11 4 15 -8 10 -16 15 -18 10z M4920 1175
c0 -8 2 -15 4 -15 2 0 6 7 10 15 3 8 1 15 -4 15 -6 0 -10 -7 -10 -15z M5220
1180 c0 -5 5 -10 11 -10 5 0 7 5 4 10 -3 6 -8 10 -11 10 -2 0 -4 -4 -4 -10z
M5280 1180 c0 -5 5 -10 11 -10 5 0 7 5 4 10 -3 6 -8 10 -11 10 -2 0 -4 -4 -4
-10z M5460 1174 c0 -8 5 -12 10 -9 6 4 8 11 5 16 -9 14 -15 11 -15 -7z M5522
1174 c-7 -8 -8 -14 -3 -14 10 0 25 19 20 25 -2 1 -10 -3 -17 -11z M5700 1182
c0 -5 7 -15 15 -22 8 -7 15 -9 15 -6 0 4 -7 14 -15 22 -8 9 -15 11 -15 6z
M5760 1180 c0 -5 5 -10 10 -10 6 0 10 5 10 10 0 6 -4 10 -10 10 -5 0 -10 -4
-10 -10z M5940 1178 c0 -9 5 -20 10 -23 13 -8 13 5 0 25 -8 13 -10 13 -10 -2z
M6066 1175 c-3 -8 -1 -15 4 -15 6 0 10 7 10 15 0 8 -2 15 -4 15 -2 0 -6 -7
-10 -15z M6262 1170 c0 -14 2 -19 5 -12 2 6 2 18 0 25 -3 6 -5 1 -5 -13z
M6300 1174 c0 -8 5 -12 10 -9 6 3 10 10 10 16 0 5 -4 9 -10 9 -5 0 -10 -7 -10
-16z M6385 1180 c3 -5 8 -10 11 -10 2 0 4 5 4 10 0 6 -5 10 -11 10 -5 0 -7 -4
-4 -10z M4155 1170 c-3 -5 -1 -10 4 -10 6 0 11 5 11 10 0 6 -2 10 -4 10 -3 0
-8 -4 -11 -10z M4280 1170 c0 -5 5 -10 10 -10 6 0 10 5 10 10 0 6 -4 10 -10
10 -5 0 -10 -4 -10 -10z M4980 1169 c0 -5 5 -7 10 -4 6 3 10 8 10 11 0 2 -4 4
-10 4 -5 0 -10 -5 -10 -11z M5035 1170 c3 -5 8 -10 11 -10 2 0 4 5 4 10 0 6
-5 10 -11 10 -5 0 -7 -4 -4 -10z M5085 1170 c3 -5 11 -10 16 -10 6 0 7 5 4 10
-3 6 -11 10 -16 10 -6 0 -7 -4 -4 -10z M5405 1170 c-3 -5 -1 -10 4 -10 6 0 11
5 11 10 0 6 -2 10 -4 10 -3 0 -8 -4 -11 -10z M5667 1174 c-3 -5 1 -15 9 -22
16 -14 18 -5 5 17 -5 7 -11 9 -14 5z M5900 1170 c0 -5 5 -10 10 -10 6 0 10 5
10 10 0 6 -4 10 -10 10 -5 0 -10 -4 -10 -10z M6125 1170 c3 -5 8 -10 11 -10 2
0 4 5 4 10 0 6 -5 10 -11 10 -5 0 -7 -4 -4 -10z M4220 1159 c0 -5 5 -7 10 -4
6 3 10 8 10 11 0 2 -4 4 -10 4 -5 0 -10 -5 -10 -11z M4756 1157 c3 -10 9 -15
12 -12 3 3 0 11 -7 18 -10 9 -11 8 -5 -6z M4805 1160 c-3 -5 -1 -10 4 -10 6 0
11 5 11 10 0 6 -2 10 -4 10 -3 0 -8 -4 -11 -10z M5180 1160 c-8 -5 -11 -12 -7
-16 4 -4 15 0 24 9 18 18 8 23 -17 7z M6020 1155 c0 -8 4 -15 10 -15 5 0 7 7
4 15 -4 8 -8 15 -10 15 -2 0 -4 -7 -4 -15z M4315 1150 c-3 -5 -1 -10 4 -10 6
0 11 5 11 10 0 6 -2 10 -4 10 -3 0 -8 -4 -11 -10z M4630 1150 c0 -5 5 -10 10
-10 6 0 10 5 10 10 0 6 -4 10 -10 10 -5 0 -10 -4 -10 -10z M4940 1151 c0 -5 7
-12 16 -15 14 -5 15 -4 4 9 -14 17 -20 19 -20 6z M5005 1150 c-3 -5 1 -10 9
-10 9 0 16 5 16 10 0 6 -4 10 -9 10 -6 0 -13 -4 -16 -10z M5065 1150 c-3 -5
-1 -10 4 -10 6 0 11 5 11 10 0 6 -2 10 -4 10 -3 0 -8 -4 -11 -10z M5120 1149
c0 -5 5 -7 10 -4 6 3 10 8 10 11 0 2 -4 4 -10 4 -5 0 -10 -5 -10 -11z M5240
1156 c0 -2 9 -6 20 -9 11 -3 18 -1 14 4 -5 9 -34 13 -34 5z M5360 1150 c0 -6
7 -10 15 -10 8 0 15 2 15 4 0 2 -7 6 -15 10 -8 3 -15 1 -15 -4z M5473 1144
c-15 -16 -16 -24 -4 -24 8 0 24 30 19 35 -2 2 -9 -3 -15 -11z M5600 1150 c0
-5 5 -10 10 -10 6 0 10 5 10 10 0 6 -4 10 -10 10 -5 0 -10 -4 -10 -10z M5795
1150 c3 -5 8 -10 11 -10 2 0 4 5 4 10 0 6 -5 10 -11 10 -5 0 -7 -4 -4 -10z
M4131 1134 c0 -11 3 -14 6 -6 3 7 2 16 -1 19 -3 4 -6 -2 -5 -13z M4250 1140
c0 -5 5 -10 10 -10 6 0 10 5 10 10 0 6 -4 10 -10 10 -5 0 -10 -4 -10 -10z
M4485 1140 c-3 -5 -2 -10 4 -10 5 0 13 5 16 10 3 6 2 10 -4 10 -5 0 -13 -4
-16 -10z M5740 1139 c0 -5 5 -7 10 -4 6 3 10 8 10 11 0 2 -4 4 -10 4 -5 0 -10
-5 -10 -11z M6210 1139 c0 -5 5 -7 10 -4 6 3 10 8 10 11 0 2 -4 4 -10 4 -5 0
-10 -5 -10 -11z M6321 1134 c0 -11 3 -14 6 -6 3 7 2 16 -1 19 -3 4 -6 -2 -5
-13z M3930 1131 c0 -6 4 -13 10 -16 6 -3 7 1 4 9 -7 18 -14 21 -14 7z M4365
1130 c3 -5 8 -10 11 -10 2 0 4 5 4 10 0 6 -5 10 -11 10 -5 0 -7 -4 -4 -10z
M4606 1131 c-3 -5 1 -11 9 -14 9 -4 12 -1 8 9 -6 16 -10 17 -17 5z M4726 1131
c-3 -5 1 -11 9 -14 9 -4 12 -1 8 9 -6 16 -10 17 -17 5z M4780 1130 c0 -5 5
-10 11 -10 5 0 7 5 4 10 -3 6 -8 10 -11 10 -2 0 -4 -4 -4 -10z M4840 1129 c0
-5 5 -7 10 -4 6 3 10 8 10 11 0 2 -4 4 -10 4 -5 0 -10 -5 -10 -11z M5285 1130
c-3 -5 -1 -10 4 -10 6 0 11 5 11 10 0 6 -2 10 -4 10 -3 0 -8 -4 -11 -10z
M5340 1130 c0 -5 5 -10 11 -10 5 0 7 5 4 10 -3 6 -8 10 -11 10 -2 0 -4 -4 -4
-10z M5530 1131 c0 -10 19 -25 25 -20 1 2 -3 10 -11 17 -8 7 -14 8 -14 3z
M5781 1124 c0 -11 3 -14 6 -6 3 7 2 16 -1 19 -3 4 -6 -2 -5 -13z M5841 1124
c0 -11 3 -14 6 -6 3 7 2 16 -1 19 -3 4 -6 -2 -5 -13z M5890 1129 c0 -5 5 -7
10 -4 6 3 10 8 10 11 0 2 -4 4 -10 4 -5 0 -10 -5 -10 -11z M5980 1129 c0 -5 5
-7 10 -4 6 3 10 8 10 11 0 2 -4 4 -10 4 -5 0 -10 -5 -10 -11z M5040 1120 c0
-5 5 -10 10 -10 6 0 10 5 10 10 0 6 -4 10 -10 10 -5 0 -10 -4 -10 -10z M4925
1111 c-3 -5 -1 -12 5 -16 5 -3 10 1 10 9 0 18 -6 21 -15 7z M5660 1109 c0 -5
5 -7 10 -4 6 3 10 8 10 11 0 2 -4 4 -10 4 -5 0 -10 -5 -10 -11z M4865 1100 c3
-5 8 -10 11 -10 2 0 4 5 4 10 0 6 -5 10 -11 10 -5 0 -7 -4 -4 -10z M5251 1094
c0 -11 3 -14 6 -6 3 7 2 16 -1 19 -3 4 -6 -2 -5 -13z M6782 640 c-72 -44 -80
-133 -16 -189 51 -45 105 -44 149 4 42 43 51 82 31 129 -16 39 -67 76 -106 76
-14 0 -40 -9 -58 -20z M3661 606 c-34 -36 -33 -92 3 -122 32 -28 46 -29 85 -9
34 17 55 62 45 99 -14 57 -92 76 -133 32z M5141 595 c-78 -24 -141 -107 -141
-185 0 -43 29 -107 61 -137 41 -37 114 -65 154 -57 95 17 185 128 172 210 -9
56 -53 121 -100 148 -56 32 -93 38 -146 21z M7927 598 c-51 -14 -104 -77 -113
-134 -12 -81 38 -162 114 -184 24 -8 139 -10 333 -8 l296 3 36 25 c42 28 77
91 77 139 0 45 -33 105 -77 138 l-36 28 -296 2 c-177 1 -311 -3 -334 -9z"/>
</g>
</svg>
