<?xml version="1.0" encoding="UTF-8"?>
<svg viewBox="0 0 1024 1024" xmlns="http://www.w3.org/2000/svg" fill="#000000">
<g transform="translate(0.000000,1024.000000) scale(0.100000,-0.100000)">
<path d="M715 8686 c-39 -17 -55 -36 -99 -117 -164 -300 -255 -689 -261 -1114
l-2 -190 -45 -95 c-105 -223 -168 -483 -168 -695 l0 -114 -70 -7 -70 -7 0
-118 0 -119 74 0 73 0 26 -107 c16 -70 22 -110 15 -114 -6 -4 -43 -12 -83 -18
-106 -17 -106 -18 -103 -136 3 -98 3 -100 30 -109 20 -7 58 -4 139 12 62 13
113 21 114 20 2 -2 17 -32 35 -68 70 -139 169 -281 298 -426 l81 -92 -118
-233 c-243 -483 -431 -1008 -505 -1411 -73 -397 -57 -717 49 -961 67 -155 235
-375 342 -448 51 -35 242 -131 293 -148 74 -23 179 -42 275 -48 l100 -6 66
-58 c71 -64 196 -128 295 -154 76 -19 192 -24 280 -13 38 5 81 10 97 11 15 1
27 5 27 8 0 4 19 14 43 24 23 9 67 32 98 50 l55 34 317 1 317 2 61 -41 c73
-49 199 -91 292 -98 89 -7 236 13 317 44 78 30 178 93 240 150 31 30 46 38 48
28 3 -13 5 -13 18 0 10 10 37 15 75 16 32 1 62 2 67 3 6 2 25 6 97 20 48 10
185 61 250 93 255 128 448 380 526 688 52 209 58 375 23 660 -52 424 -258
1051 -515 1571 -54 111 -99 205 -99 208 0 4 50 61 111 129 115 127 208 258
279 389 38 71 44 77 68 73 15 -3 66 -12 114 -20 103 -19 128 -14 168 31 36 42
40 93 10 141 -26 43 -46 52 -148 66 -48 7 -87 17 -87 23 1 31 50 210 59 216 6
4 54 8 106 8 75 0 100 4 116 18 45 36 57 98 29 152 -24 45 -62 60 -159 60
l-84 0 -7 108 c-16 239 -74 480 -169 690 l-55 122 -5 223 c-6 268 -29 441 -86
643 -60 211 -154 429 -216 503 -62 74 -110 76 -275 11 -196 -78 -393 -207
-624 -409 -27 -24 -62 -54 -77 -66 l-26 -23 -79 24 c-362 113 -842 124 -1247
29 -34 -7 -90 -23 -125 -34 l-64 -20 -86 80 c-158 148 -398 317 -546 385 -91
41 -220 84 -254 84 -14 -1 -39 -7 -56 -14z m198 -327 c169 -87 363 -233 534
-402 114 -113 125 -122 161 -122 26 0 53 10 79 27 50 33 203 80 344 107 244
46 491 47 749 2 133 -24 303 -74 343 -103 36 -26 81 -38 112 -30 13 4 78 58
144 120 66 63 150 138 188 168 149 120 377 258 417 252 58 -8 167 -334 202
-604 12 -95 15 -171 10 -312 -3 -103 -5 -198 -6 -210 0 -13 24 -70 54 -125
104 -194 173 -441 183 -654 l6 -121 -59 -7 c-254 -29 -351 -51 -386 -85 -51
-51 -50 -130 3 -174 38 -32 51 -32 250 0 88 14 162 24 165 22 4 -4 -33 -165
-41 -177 -2 -4 -59 1 -127 10 -68 10 -149 18 -180 18 -50 1 -60 -3 -86 -29
-55 -55 -47 -151 15 -183 16 -9 82 -23 148 -32 66 -9 122 -18 124 -21 16 -16
-118 -199 -232 -316 -109 -113 -203 -188 -329 -265 -487 -297 -1191 -399
-1843 -268 -562 113 -950 349 -1215 740 -48 71 -68 115 -53 115 42 1 258 42
270 51 46 38 55 109 20 160 -34 51 -58 55 -204 36 -207 -27 -182 -33 -210 47
-30 92 -31 120 0 113 12 -3 91 -15 175 -28 173 -26 193 -23 230 31 36 53 17
126 -42 165 -26 18 -232 59 -345 71 l-74 7 6 136 c10 219 59 404 166 627 l58
120 -5 195 c-3 148 -1 226 13 329 27 216 103 487 165 588 23 38 45 40 103 11z
m101 -3503 c169 -105 500 -228 726 -269 119 -22 196 -41 202 -51 5 -7 8 -7 8
-1 0 7 36 7 113 -1 68 -8 225 -12 400 -10 189 1 291 -2 298 -9 7 -7 9 -6 7 4
-2 7 7 15 19 17 318 54 538 108 732 181 98 36 264 116 332 159 25 15 40 20 45
13 31 -51 173 -339 214 -434 105 -246 133 -325 119 -341 -10 -12 -9 -13 3 -9
14 6 41 -55 79 -180 5 -16 20 -62 33 -102 50 -145 118 -439 130 -563 3 -30 8
-79 11 -108 8 -77 8 -280 0 -327 -52 -319 -194 -531 -439 -655 -70 -35 -184
-75 -193 -67 -3 4 35 104 50 132 6 11 12 28 14 38 2 9 16 61 32 115 72 246
140 671 163 1018 l12 186 -24 45 c-26 50 -62 73 -114 73 -94 0 -120 -41 -135
-215 -39 -440 -76 -680 -146 -945 -85 -322 -143 -456 -244 -564 -160 -170
-468 -176 -582 -10 -86 126 -88 254 -14 809 51 379 74 582 68 606 -16 62 -64
99 -131 99 -45 0 -84 -26 -108 -71 -8 -16 -31 -136 -50 -267 -50 -331 -50
-329 -78 -597 -14 -132 -29 -269 -33 -305 -7 -59 5 -185 22 -241 6 -18 0 -19
-145 -19 -128 0 -151 2 -147 14 35 91 27 270 -34 746 -56 441 -87 637 -105
677 -25 52 -77 73 -145 60 -41 -8 -71 -38 -87 -83 -11 -35 -13 -13 53 -544 57
-459 69 -588 62 -680 -10 -146 -69 -246 -174 -293 -111 -50 -226 -45 -353 14
-80 37 -138 92 -195 184 -149 241 -276 816 -310 1400 -8 134 -17 167 -56 200
-59 49 -164 22 -195 -50 -48 -115 29 -789 136 -1200 18 -66 32 -129 33 -140 1
-11 5 -22 9 -25 4 -3 23 -42 42 -88 40 -93 40 -94 -55 -61 -137 45 -229 102
-332 201 -153 149 -232 340 -252 614 -13 182 53 598 129 814 8 25 30 92 47
150 18 58 47 143 66 190 19 47 55 138 80 204 53 138 187 421 205 433 7 4 13
13 13 18 0 18 77 155 87 155 6 0 42 -20 82 -44z M862 8087 c-12 -12 -26 -45
-31 -72 -15 -72 -31 -245 -31 -334 0 -93 15 -121 64 -121 27 0 50 16 147 106
63 59 128 117 145 130 17 13 36 35 44 48 18 35 0 60 -114 150 -154 123 -184
136 -224 93z M3859 8087 c-72 -45 -215 -166 -227 -191 -16 -35 -2 -64 56 -112
26 -22 93 -81 149 -131 114 -103 136 -111 180 -67 26 26 26 27 20 138 -7 123
-31 296 -49 339 -20 51 -70 61 -129 24z M1281 6928 c-81 -23 -158 -99 -192
-189 -91 -240 155 -489 394 -399 70 26 143 95 177 165 72 150 -19 365 -177
419 -51 18 -149 20 -202 4z M3344 6928 c-59 -19 -126 -80 -163 -148 -33 -60
-36 -71 -36 -150 0 -97 18 -141 86 -215 56 -61 125 -89 219 -90 62 0 85 5 132
28 67 33 121 90 155 164 67 145 -21 345 -174 403 -59 22 -164 26 -219 8z
M2346 6440 c-98 -30 -120 -152 -41 -218 l35 -28 -16 -54 c-11 -36 -29 -67 -54
-92 -34 -35 -42 -38 -93 -38 -59 0 -70 8 -81 54 -11 46 -58 86 -101 86 -29 0
-45 -8 -71 -34 -29 -29 -34 -41 -34 -83 0 -119 125 -223 271 -225 85 -2 143
19 200 69 l49 45 41 -37 c59 -53 120 -78 193 -77 82 0 137 16 187 55 72 55
102 100 107 162 4 52 3 56 -31 90 -62 62 -143 39 -169 -47 -9 -32 -19 -44 -47
-55 -68 -29 -144 18 -176 106 -22 63 -19 79 20 122 41 45 45 85 17 138 -33 61
-119 87 -206 61z M1074 6166 c-29 -29 -34 -41 -34 -80 0 -57 20 -98 55 -114
60 -28 130 -5 161 53 24 44 12 99 -31 142 -27 27 -41 33 -75 33 -34 0 -48 -6
-76 -34z M3618 6184 c-53 -28 -74 -113 -43 -173 8 -16 31 -36 51 -46 31 -15
43 -16 77 -5 80 24 112 89 79 164 -31 69 -101 95 -164 60z M970 4856 c0 -2 8
-10 18 -17 15 -13 16 -12 3 4 -13 16 -21 21 -21 13z M3750 4804 c0 -6 5 -15
12 -22 16 -16 -4 -16 -21 1 -9 7 -11 7 -8 1 9 -15 -17 -25 -32 -13 -8 6 -8 5
-1 -3 13 -16 40 -19 40 -5 0 6 12 0 28 -14 15 -13 21 -17 15 -9 -19 21 -16 34
5 19 9 -7 6 0 -8 16 -14 17 -26 32 -27 34 -2 2 -3 0 -3 -5z M3823 4793 c11
-12 16 -26 13 -31 -3 -5 1 -9 9 -9 17 0 5 27 -22 48 -17 13 -17 12 0 -8z
M3795 4780 c10 -11 20 -20 23 -20 3 0 -3 9 -13 20 -10 11 -20 20 -23 20 -3 0
3 -9 13 -20z M862 4731 c-6 -17 -9 -31 -6 -31 7 0 25 52 20 57 -2 2 -8 -10
-14 -26z M1019 4743 c-13 -16 -12 -17 4 -4 9 7 17 15 17 17 0 8 -8 3 -21 -13z
M1089 4743 c-13 -16 -12 -17 4 -4 9 7 17 15 17 17 0 8 -8 3 -21 -13z M1116
4743 c-6 -14 -5 -15 5 -6 7 7 10 15 7 18 -3 3 -9 -2 -12 -12z M3670 4726 c0
-2 8 -10 18 -17 15 -13 16 -12 3 4 -13 16 -21 21 -21 13z M1146 4705 c-9 -26
-7 -32 5 -12 6 10 9 21 6 23 -2 3 -7 -2 -11 -11z M1170 4699 c-7 -11 -10 -23
-7 -25 2 -2 9 7 15 21 14 30 7 33 -8 4z M3713 4705 c0 -8 4 -12 9 -9 5 3 6 10
3 15 -9 13 -12 11 -12 -6z M3770 4716 c0 -2 8 -10 18 -17 15 -13 16 -12 3 4
-13 16 -21 21 -21 13z M1190 4690 c-6 -11 -8 -20 -6 -20 3 0 10 9 16 20 6 11
8 20 6 20 -3 0 -10 -9 -16 -20z M3550 4706 c0 -2 8 -10 18 -17 15 -13 16 -12
3 4 -13 16 -21 21 -21 13z M1235 4689 c-4 -6 -5 -12 -2 -15 2 -3 7 2 10 11 7
17 1 20 -8 4z M3510 4696 c0 -2 7 -9 15 -16 9 -7 15 -8 15 -2 0 5 -7 12 -15
16 -8 3 -15 4 -15 2z M3670 4696 c0 -2 8 -10 18 -17 15 -13 16 -12 3 4 -13 16
-21 21 -21 13z M830 4680 c0 -5 5 -10 11 -10 5 0 7 5 4 10 -3 6 -8 10 -11 10
-2 0 -4 -4 -4 -10z M3554 4671 c7 -11 46 -35 46 -28 0 3 -12 12 -26 22 -15 9
-23 12 -20 6z M1350 4666 c0 -2 7 -9 15 -16 9 -7 15 -8 15 -2 0 5 -7 12 -15
16 -8 3 -15 4 -15 2z M3446 4647 c3 -10 9 -15 12 -12 3 3 0 11 -7 18 -10 9
-11 8 -5 -6z M814 4639 c-3 -6 -2 -15 3 -20 5 -5 9 -1 9 11 0 23 -2 24 -12 9z
M1176 4637 c3 -10 9 -15 12 -12 3 3 0 11 -7 18 -10 9 -11 8 -5 -6z M1346 4637
c3 -10 9 -15 12 -12 3 3 0 11 -7 18 -10 9 -11 8 -5 -6z M1309 4638 c-6 -21 -5
-37 2 -32 5 3 9 0 9 -7 0 -7 3 -9 6 -6 4 4 2 13 -4 20 -7 8 -9 17 -5 20 3 4 3
7 0 7 -4 0 -7 -1 -8 -2z M1490 4631 c0 -6 4 -13 10 -16 6 -3 7 1 4 9 -7 18
-14 21 -14 7z M3362 4611 c0 -17 1 -31 3 -31 7 0 12 39 5 49 -4 7 -7 -1 -8
-18z M3342 4610 c0 -14 2 -19 5 -12 2 6 2 18 0 25 -3 6 -5 1 -5 -13z M3516
4617 c3 -10 9 -15 12 -12 3 3 0 11 -7 18 -10 9 -11 8 -5 -6z M1470 4611 c0 -5
7 -12 16 -15 14 -5 15 -4 4 9 -14 17 -20 19 -20 6z M3427 4603 c3 -7 6 -13 8
-13 2 0 5 6 8 13 3 8 -1 14 -8 14 -7 0 -11 -6 -8 -14z M3195 4589 c-4 -6 -5
-12 -2 -15 2 -3 7 2 10 11 7 17 1 20 -8 4z M783 4565 c-3 -9 -3 -18 -1 -21 3
-3 8 4 11 16 6 23 -1 27 -10 5z M3227 4564 c5 -12 3 -15 -6 -9 -8 4 -6 -4 4
-19 20 -29 30 -35 17 -8 -5 9 -7 22 -5 29 2 6 -1 14 -6 18 -7 4 -8 0 -4 -11z
M1700 4561 c0 -11 29 -35 35 -29 2 2 -4 12 -15 21 -11 9 -20 13 -20 8z M3030
4562 c0 -6 4 -13 10 -17 5 -3 8 -11 6 -18 -1 -7 -1 -8 2 -4 2 4 10 2 18 -4 10
-8 18 -9 25 -2 8 8 7 13 -2 18 -8 5 -10 4 -5 -3 14 -23 -13 -11 -33 14 -12 15
-21 22 -21 16z M1530 4557 c0 -2 6 -10 14 -16 11 -9 16 -9 22 1 4 7 4 10 -1 6
-4 -4 -14 -3 -22 3 -7 6 -13 9 -13 6z M1586 4543 c-6 -14 -5 -15 5 -6 7 7 10
15 7 18 -3 3 -9 -2 -12 -12z M1666 4548 c3 -5 10 -6 15 -3 13 9 11 12 -6 12
-8 0 -12 -4 -9 -9z M2970 4556 c0 -2 8 -10 18 -17 15 -13 16 -12 3 4 -13 16
-21 21 -21 13z M1800 4541 c0 -7 -5 -9 -12 -5 -7 5 -8 3 -3 -5 5 -9 10 -10 18
-2 6 6 8 14 4 18 -4 3 -7 1 -7 -6z M1825 4539 c-4 -6 -5 -12 -2 -15 2 -3 7 2
10 11 7 17 1 20 -8 4z M3014 4536 c1 -8 5 -18 8 -22 4 -3 5 1 4 10 -1 8 -5 18
-8 22 -4 3 -5 -1 -4 -10z M1650 4536 c0 -2 8 -10 18 -17 15 -13 16 -12 3 4
-13 16 -21 21 -21 13z M1755 4529 c-4 -6 -5 -12 -2 -15 2 -3 7 2 10 11 7 17 1
20 -8 4z M1906 4525 c-9 -26 -7 -32 5 -12 6 10 9 21 6 23 -2 3 -7 -2 -11 -11z
M2880 4533 c0 -5 10 -19 21 -33 l20 -25 -16 33 c-15 30 -25 41 -25 25z M2940
4531 c0 -5 5 -13 10 -16 6 -3 10 -2 10 4 0 5 -4 13 -10 16 -5 3 -10 2 -10 -4z
M754 4510 c0 -13 4 -16 10 -10 7 7 7 13 0 20 -6 6 -10 3 -10 -10z M2977 4519
c7 -7 15 -10 18 -7 3 3 -2 9 -12 12 -14 6 -15 5 -6 -5z M2021 4508 c0 -9 4
-20 9 -23 6 -4 8 -16 4 -28 -6 -22 -6 -22 9 -2 9 11 11 22 6 23 -5 2 -6 9 -3
14 4 6 2 8 -4 4 -6 -3 -13 2 -15 11 -4 16 -5 16 -6 1z M1860 4501 c0 -6 4 -13
10 -16 6 -3 7 1 4 9 -7 18 -14 21 -14 7z M2170 4501 c0 -6 4 -13 10 -16 6 -3
7 1 4 9 -7 18 -14 21 -14 7z M1706 4485 c-9 -26 -7 -32 5 -12 6 10 9 21 6 23
-2 3 -7 -2 -11 -11z M1912 4475 c-17 -37 -14 -45 4 -12 9 16 14 31 11 33 -2 2
-9 -7 -15 -21z M2104 4487 c-2 -7 -1 -24 4 -37 8 -22 9 -22 22 9 10 24 15 29
22 19 8 -10 9 -10 6 1 -5 19 -47 25 -54 8z m20 -12 c-4 -8 -8 -15 -10 -15 -2
0 -4 7 -4 15 0 8 4 15 10 15 5 0 7 -7 4 -15z M2197 4480 c-3 -13 -4 -26 -2
-29 3 -2 5 1 5 8 0 8 7 6 18 -6 9 -10 14 -14 10 -8 -4 6 -11 22 -16 35 l-9 24
-6 -24z M2321 4484 c0 -11 3 -14 6 -6 3 7 2 16 -1 19 -3 4 -6 -2 -5 -13z
M2343 4482 c-3 -9 -8 -20 -10 -24 -2 -4 0 -9 5 -12 4 -2 9 5 9 16 2 28 12 35
23 18 9 -13 10 -13 10 0 0 13 1 13 11 0 8 -12 10 -12 7 -1 -6 22 -47 24 -55 3z
M2851 4480 c14 -31 19 -36 19 -24 0 6 -7 19 -16 30 -14 18 -14 18 -3 -6z
M1960 4469 c0 -5 -4 -8 -9 -5 -5 3 -15 -2 -22 -12 -12 -15 -12 -15 1 -5 8 6
19 11 25 11 5 0 11 5 13 11 2 6 1 11 -2 11 -3 0 -6 -5 -6 -11z M2700 4464 c8
-10 15 -20 16 -22 1 -2 4 1 7 5 3 5 -4 15 -16 23 -21 12 -21 12 -7 -6z M2825
4471 c-3 -5 -2 -12 3 -15 5 -3 9 1 9 9 0 17 -3 19 -12 6z M2956 4457 c3 -10 9
-15 12 -12 3 3 0 11 -7 18 -10 9 -11 8 -5 -6z M2006 4447 c3 -10 9 -15 12 -12
3 3 0 11 -7 18 -10 9 -11 8 -5 -6z M2270 4451 c0 -6 4 -13 10 -16 6 -3 7 1 4
9 -7 18 -14 21 -14 7z M2491 4444 c0 -11 3 -14 6 -6 3 7 2 16 -1 19 -3 4 -6
-2 -5 -13z M2080 4433 c0 -10 4 -24 9 -31 5 -9 8 -3 7 17 -1 32 -16 45 -16 14z
M2810 4443 c0 -6 8 -17 18 -24 16 -13 16 -13 2 6 -8 11 -16 22 -17 24 -2 2 -3
0 -3 -6z M2383 4423 c-3 -10 -8 -22 -11 -27 -3 -5 0 -6 5 -3 11 7 25 47 17 47
-3 0 -7 -8 -11 -17z M2467 4427 c-3 -8 1 -14 8 -14 7 0 11 6 8 14 -3 7 -6 13
-8 13 -2 0 -5 -6 -8 -13z M2165 4419 c-4 -6 -5 -12 -2 -15 2 -3 7 2 10 11 7
17 1 20 -8 4z M2320 4424 c0 -6 7 -19 16 -30 14 -18 14 -18 3 6 -14 31 -19 36
-19 24z M716 4407 c3 -10 9 -15 12 -12 3 3 0 11 -7 18 -10 9 -11 8 -5 -6z
M2130 4400 c-6 -11 -8 -20 -6 -20 3 0 10 9 16 20 6 11 8 20 6 20 -3 0 -10 -9
-16 -20z M704 4363 c-3 -10 -10 -29 -16 -43 -7 -18 -6 -22 1 -14 12 11 33 74
25 74 -3 0 -7 -8 -10 -17z M669 4273 c-13 -16 -12 -17 4 -4 9 7 17 15 17 17 0
8 -8 3 -21 -13z M4146 4172 c-3 -5 1 -9 9 -9 8 0 12 4 9 9 -3 4 -7 8 -9 8 -2
0 -6 -4 -9 -8z M620 4138 c0 -9 7 -19 16 -22 15 -6 15 -4 3 11 -7 10 -15 20
-16 22 -2 2 -3 -3 -3 -11z M600 4101 c0 -6 4 -13 10 -16 6 -3 7 1 4 9 -7 18
-14 21 -14 7z M4350 3531 c0 -6 4 -13 10 -16 6 -3 7 1 4 9 -7 18 -14 21 -14 7z
M4416 3457 c3 -10 9 -15 12 -12 3 3 0 11 -7 18 -10 9 -11 8 -5 -6z M4381 2938
c5 -10 11 -18 12 -18 2 0 3 8 3 18 0 10 -6 19 -13 19 -8 0 -9 -6 -2 -19z
M4471 2944 c0 -11 3 -14 6 -6 3 7 2 16 -1 19 -3 4 -6 -2 -5 -13z M455 2819
c-4 -6 -5 -12 -2 -15 2 -3 7 2 10 11 7 17 1 20 -8 4z M437 2774 c3 -7 1 -14
-5 -14 -6 0 -12 4 -14 9 -1 5 -12 -3 -22 -17 l-20 -27 22 19 c26 23 28 15 6
-22 l-16 -27 19 23 c14 18 21 20 31 10 9 -9 12 -9 12 0 0 7 -5 12 -12 12 -6 0
-4 8 6 19 15 16 15 19 2 24 -10 4 -13 1 -9 -9z M469 2758 c-7 -14 -2 -55 6
-55 6 0 11 8 11 18 0 10 -5 15 -10 12 -5 -4 -7 1 -3 10 5 13 1 25 -4 15z
M4436 2707 c3 -10 9 -15 12 -12 3 3 0 11 -7 18 -10 9 -11 8 -5 -6z M496 2619
c-17 -17 -17 -19 -2 -34 11 -11 16 -12 16 -4 0 7 12 2 28 -12 15 -13 21 -17
15 -9 -19 21 -16 34 5 19 15 -13 16 -12 4 3 -8 9 -10 23 -6 30 4 7 3 10 -1 5
-5 -4 -15 -1 -24 7 -14 12 -19 11 -35 -5z m37 -12 c3 -8 -3 -13 -14 -13 -19 0
-24 8 -12 19 10 11 20 8 26 -6z M606 2525 c4 -8 11 -15 16 -15 6 0 5 6 -2 15
-7 8 -14 15 -16 15 -2 0 -1 -7 2 -15z M610 2494 c0 -1 8 -8 17 -15 14 -12 16
-12 9 0 -6 9 -5 12 5 9 8 -3 13 -16 12 -29 l-3 -24 15 25 c8 14 15 23 15 20 1
-3 3 -18 5 -34 2 -16 12 -36 21 -45 14 -13 16 -13 7 -1 -6 8 -14 26 -18 40
l-8 25 24 -20 c13 -11 9 -4 -9 16 -23 25 -41 35 -62 35 -17 0 -30 -1 -30 -2z
M4145 2480 c10 -11 20 -20 23 -20 3 0 -3 9 -13 20 -10 11 -20 20 -23 20 -3 0
3 -9 13 -20z M4035 2398 c1 -10 8 -24 15 -31 12 -10 12 -9 2 4 -10 14 -10 20
3 32 14 14 13 16 -3 14 -11 0 -18 -8 -17 -19z M646 2397 c3 -10 9 -15 12 -12
3 3 0 11 -7 18 -10 9 -11 8 -5 -6z M4140 2391 c0 -6 4 -13 10 -16 6 -3 7 1 4
9 -7 18 -14 21 -14 7z M763 2376 c3 -8 0 -17 -8 -20 -7 -2 -16 2 -19 11 -4 9
-9 13 -12 10 -3 -3 1 -16 10 -29 9 -12 16 -16 16 -9 0 11 3 11 15 1 13 -11 14
-10 9 4 -5 12 -2 15 11 10 16 -6 16 -5 -1 14 -21 25 -28 28 -21 8z M4010 2376
c0 -2 8 -10 18 -17 15 -13 16 -12 3 4 -13 16 -21 21 -21 13z M4070 2361 c0 -6
4 -13 10 -16 6 -3 7 1 4 9 -7 18 -14 21 -14 7z M1755 2335 c-42 -41 -29 -155
22 -195 58 -45 143 -1 143 75 0 40 -22 100 -47 127 -25 27 -88 24 -118 -7z
M2947 2340 c-28 -22 -47 -74 -47 -128 0 -67 81 -114 141 -82 62 34 65 200 4
224 -32 12 -73 6 -98 -14z M724 2321 c9 -16 12 -32 8 -36 -4 -5 -1 -5 5 -1 10
6 10 14 -2 37 -9 16 -18 29 -21 29 -2 0 2 -13 10 -29z M826 2325 c-9 -26 -7
-32 5 -12 6 10 9 21 6 23 -2 3 -7 -2 -11 -11z M786 2303 c-6 -14 -5 -15 5 -6
7 7 10 15 7 18 -3 3 -9 -2 -12 -12z M1402 2277 c-40 -43 -22 -142 33 -185 39
-31 80 -28 117 8 25 26 29 35 23 63 -9 41 -32 86 -58 115 -28 31 -86 30 -115
-1z M3312 2293 c-19 -8 -52 -78 -58 -127 -6 -39 -3 -48 19 -70 39 -39 86 -36
125 9 57 65 60 144 7 179 -24 16 -67 20 -93 9z M3975 2249 c-4 -6 -4 -13 -1
-16 3 -4 6 -1 6 6 0 7 5 9 12 5 7 -4 8 -3 4 4 -9 15 -13 15 -21 1z M892 2215
c-9 -18 -8 -26 1 -31 7 -4 9 -4 5 1 -4 4 -3 16 3 27 6 11 9 22 6 24 -2 2 -9
-7 -15 -21z M736 2217 c3 -10 9 -15 12 -12 3 3 0 11 -7 18 -10 9 -11 8 -5 -6z
M804 2219 c-3 -6 -2 -15 3 -20 5 -5 9 -1 9 11 0 23 -2 24 -12 9z M2425 2122
c1 -23 6 -46 10 -50 4 -4 5 2 1 13 -3 11 -1 27 4 35 10 16 13 10 13 -33 0 -10
2 -15 5 -12 3 3 15 -4 27 -15 17 -16 22 -17 22 -6 0 8 -4 13 -8 11 -3 -3 -12
2 -19 10 -7 8 -10 15 -6 15 4 0 -1 11 -10 25 -9 14 -20 23 -24 20 -5 -3 -11 3
-13 12 -3 10 -3 -1 -2 -25z M2400 2125 c0 -14 -3 -15 -15 -5 -13 11 -14 10 -9
-5 5 -13 4 -16 -5 -10 -8 4 -6 -4 4 -19 20 -31 30 -35 15 -6 -13 24 -2 27 15
4 9 -13 11 -11 9 16 -2 34 -14 55 -14 25z M2440 2051 c0 -6 4 -13 10 -16 6 -3
7 1 4 9 -7 18 -14 21 -14 7z M7667 8096 c-172 -46 -302 -131 -412 -271 -34
-43 -87 -133 -137 -235 -45 -91 -187 -379 -316 -640 -129 -261 -305 -619 -392
-795 -87 -176 -269 -545 -405 -820 -136 -275 -282 -572 -325 -660 -43 -88
-169 -344 -280 -570 -319 -648 -337 -694 -347 -890 -20 -390 227 -723 628
-847 l74 -23 2030 -3 c1428 -2 2049 0 2094 8 99 17 205 54 286 101 l75 43 0
880 0 881 -146 300 c-81 165 -264 536 -407 825 -143 289 -361 732 -484 985
-124 253 -291 593 -370 755 -80 162 -178 363 -218 445 -90 183 -133 252 -212
331 -104 105 -238 181 -368 209 -107 23 -262 19 -368 -9z m276 -764 c16 -15
59 -90 96 -167 38 -77 192 -392 343 -700 152 -308 293 -598 316 -645 22 -47
121 -251 221 -453 100 -203 181 -370 181 -372 0 -2 95 -196 211 -431 620
-1257 599 -1213 599 -1272 0 -92 -55 -171 -139 -200 -48 -17 -3782 -17 -3832
-1 -114 39 -170 163 -123 275 21 51 390 804 757 1544 672 1357 1147 2326 1147
2340 0 19 65 93 93 106 43 19 95 9 130 -24z M7753 6276 c-135 -44 -229 -150
-248 -277 -7 -44 16 -301 55 -634 10 -88 28 -254 40 -370 11 -115 26 -231 31
-257 48 -212 350 -241 440 -43 12 28 25 106 39 245 11 113 36 349 55 525 50
462 52 494 44 547 -16 102 -84 189 -184 239 -52 25 -79 32 -147 35 -54 3 -98
-1 -125 -10z M7767 4240 c-165 -42 -275 -197 -265 -375 4 -89 34 -152 105
-223 77 -78 147 -107 253 -107 101 0 170 27 244 95 185 170 135 484 -93 588
-62 28 -176 39 -244 22z M5908 7347 c-43 -36 -59 -86 -42 -131 3 -9 80 -84
171 -166 160 -146 166 -150 208 -150 35 0 52 6 78 30 19 17 37 42 40 58 11 57
-19 94 -241 291 -95 84 -107 91 -145 91 -29 0 -50 -7 -69 -23z M9633 7319
c-83 -74 -253 -241 -269 -264 -55 -78 44 -191 135 -153 32 13 238 201 304 276
51 59 52 109 3 158 -28 28 -42 34 -75 34 -35 0 -49 -7 -98 -51z M5674 6880
c-36 -14 -64 -59 -64 -102 0 -52 23 -84 73 -102 100 -36 361 -106 397 -106 83
0 132 106 80 173 -24 30 -56 43 -264 102 -164 46 -186 50 -222 35z M9785 6835
c-99 -30 -190 -60 -202 -66 -12 -7 -30 -28 -39 -47 -13 -29 -14 -41 -5 -73 14
-46 53 -79 93 -79 60 0 407 107 438 135 63 57 5 187 -82 184 -12 0 -104 -24
-203 -54z M4413 2000 c14 -19 27 -44 30 -55 4 -18 5 -17 6 3 1 14 -12 36 -30
55 l-31 32 25 -35z M4386 1998 c5 -13 1 -16 -15 -13 -12 2 -19 0 -16 -5 3 -5
14 -7 25 -5 12 2 19 1 17 -3 -3 -4 -1 -16 4 -27 l8 -20 0 20 c1 17 3 17 11 5
5 -8 10 -10 10 -5 0 6 -11 24 -25 40 -14 17 -22 22 -19 13z M332 1984 c-7 -8
-11 -25 -9 -37 4 -20 4 -20 6 3 l2 25 14 -25 c9 -15 14 -19 15 -10 0 13 1 13
10 0 8 -12 10 -11 10 7 0 12 -7 29 -16 37 -18 19 -16 19 -32 0z M490 1986 c0
-4 7 -14 15 -22 8 -9 15 -11 15 -6 0 5 -7 15 -15 22 -8 7 -15 9 -15 6z M4520
1970 c-6 -11 -8 -20 -6 -20 3 0 10 9 16 20 6 11 8 20 6 20 -3 0 -10 -9 -16
-20z M180 1976 c0 -2 8 -10 18 -17 15 -13 16 -12 3 4 -13 16 -21 21 -21 13z
M4310 1961 c0 -6 4 -13 10 -16 6 -3 7 1 4 9 -7 18 -14 21 -14 7z M386 1925
c-9 -26 -7 -32 5 -12 6 10 9 21 6 23 -2 3 -7 -2 -11 -11z M512 1915 c-7 -14
-12 -36 -11 -48 1 -21 1 -20 9 3 4 14 8 18 9 11 1 -12 4 -12 13 -3 10 10 10
14 0 21 -7 4 -10 15 -6 24 10 27 -2 20 -14 -8z M4230 1912 c0 -6 -8 -9 -17 -7
-13 2 -18 -4 -19 -24 -1 -14 1 -20 3 -12 5 11 7 11 15 0 6 -10 7 -7 3 9 -7 26
11 27 33 2 11 -12 11 -11 1 10 -15 31 -19 36 -19 22z M4282 1884 c-7 -8 -8
-14 -3 -14 10 0 25 19 20 25 -2 1 -10 -3 -17 -11z M4320 1891 c0 -6 4 -13 10
-16 6 -3 7 1 4 9 -7 18 -14 21 -14 7z M680 1850 c-6 -11 -8 -20 -6 -20 3 0 10
9 16 20 6 11 8 20 6 20 -3 0 -10 -9 -16 -20z M690 1818 c-12 -24 -14 -35 -6
-25 11 14 15 15 20 5 3 -7 3 -2 0 11 -5 17 -3 21 6 16 9 -6 11 -4 5 5 -4 7 -2
16 6 21 10 6 10 9 2 9 -7 0 -22 -19 -33 -42z M732 1825 c-17 -37 -14 -45 4
-12 9 16 14 31 11 33 -2 2 -9 -7 -15 -21z M4214 1829 c-3 -6 -2 -15 3 -20 5
-5 9 -1 9 11 0 23 -2 24 -12 9z M835 1819 c-4 -6 -5 -12 -2 -15 2 -3 7 2 10
11 7 17 1 20 -8 4z M3912 1800 c0 -19 2 -27 5 -17 2 9 2 25 0 35 -3 9 -5 1 -5
-18z M750 1811 c0 -5 5 -13 10 -16 6 -3 10 -2 10 4 0 5 -4 13 -10 16 -5 3 -10
2 -10 -4z M795 1809 c-4 -6 -5 -12 -2 -15 2 -3 7 2 10 11 7 17 1 20 -8 4z
M4030 1816 c0 -2 8 -10 18 -17 15 -13 16 -12 3 4 -13 16 -21 21 -21 13z M3816
1795 c-9 -26 -7 -32 5 -12 6 10 9 21 6 23 -2 3 -7 -2 -11 -11z M3851 1793 c7
-12 15 -20 18 -17 3 2 -3 12 -13 22 -17 16 -18 16 -5 -5z M3931 1794 c0 -11 3
-14 6 -6 3 7 2 16 -1 19 -3 4 -6 -2 -5 -13z M981 1784 c0 -11 3 -14 6 -6 3 7
2 16 -1 19 -3 4 -6 -2 -5 -13z M1002 1795 c4 -4 3 -16 -2 -26 -7 -12 -6 -20 2
-25 7 -4 10 -4 6 1 -4 4 -3 16 2 26 7 12 6 20 -2 25 -7 4 -10 4 -6 -1z M746
1776 c5 -13 4 -17 -4 -12 -8 5 -10 2 -5 -10 6 -15 7 -15 16 1 6 11 5 21 -3 28
-8 9 -9 7 -4 -7z M951 1774 c0 -11 3 -14 6 -6 3 7 2 16 -1 19 -3 4 -6 -2 -5
-13z M1035 1770 c3 -5 8 -10 11 -10 2 0 4 5 4 10 0 6 -5 10 -11 10 -5 0 -7 -4
-4 -10z M3691 1763 c7 -12 15 -20 18 -17 3 2 -3 12 -13 22 -17 16 -18 16 -5
-5z M3766 1767 c3 -10 9 -15 12 -12 3 3 0 11 -7 18 -10 9 -11 8 -5 -6z M4055
1769 c-4 -6 -5 -12 -2 -15 2 -3 7 2 10 11 7 17 1 20 -8 4z M1081 1764 c-1 -7
8 -22 19 -35 10 -13 19 -18 20 -11 0 6 -4 12 -8 12 -5 0 -14 10 -20 23 -6 12
-11 17 -11 11z M846 1747 c3 -10 9 -15 12 -12 3 3 0 11 -7 18 -10 9 -11 8 -5
-6z M1032 1738 c7 -15 15 -23 17 -17 2 6 -4 18 -13 27 -15 15 -15 15 -4 -10z
M1060 1751 c0 -6 4 -13 10 -16 6 -3 7 1 4 9 -7 18 -14 21 -14 7z M3656 1748
c3 -5 10 -6 15 -3 13 9 11 12 -6 12 -8 0 -12 -4 -9 -9z M3750 1753 c0 -7 5
-15 11 -19 6 -3 9 -15 6 -25 -3 -11 -1 -17 4 -13 5 3 9 11 9 17 -1 16 -30 54
-30 40z M3846 1727 c3 -10 9 -15 12 -12 3 3 0 11 -7 18 -10 9 -11 8 -5 -6z
M3656 1717 c3 -10 9 -15 12 -12 3 3 0 11 -7 18 -10 9 -11 8 -5 -6z M3683 1706
c0 -14 7 -31 16 -38 13 -10 14 -10 4 2 -7 8 -13 18 -13 23 0 4 6 5 13 1 7 -5
7 -1 -3 12 -8 10 -15 20 -16 22 -1 2 -1 -9 -1 -22z M2396 1695 c-9 -26 -7 -32
5 -12 6 10 9 21 6 23 -2 3 -7 -2 -11 -11z M2076 1687 c3 -10 9 -15 12 -12 3 3
0 11 -7 18 -10 9 -11 8 -5 -6z M2100 1690 c0 -5 5 -10 11 -10 5 0 7 5 4 10 -3
6 -8 10 -11 10 -2 0 -4 -4 -4 -10z M2125 1677 c-6 -21 -10 -25 -16 -15 -7 10
-9 10 -9 0 0 -7 -4 -10 -10 -7 -6 3 -7 -1 -3 -10 5 -13 7 -14 14 -3 7 10 9 10
9 -2 1 -8 8 -2 16 13 8 16 13 34 11 40 -3 7 -8 -1 -12 -16z M2155 1689 c-4 -6
-5 -12 -2 -15 2 -3 7 2 10 11 7 17 1 20 -8 4z M2695 1681 c-7 -23 -21 -28 -27
-9 -3 8 -7 6 -11 -5 -4 -10 -2 -16 6 -14 7 1 11 -4 10 -10 -5 -23 6 -14 22 18
9 17 14 33 12 36 -3 2 -8 -5 -12 -16z M3651 1683 c7 -12 15 -20 18 -17 3 2 -3
12 -13 22 -17 16 -18 16 -5 -5z M3740 1691 c0 -7 -5 -9 -12 -5 -7 5 -8 3 -3
-5 5 -9 10 -10 18 -2 6 6 8 14 4 18 -4 3 -7 1 -7 -6z M1216 1673 c-6 -14 -5
-15 5 -6 7 7 10 15 7 18 -3 3 -9 -2 -12 -12z M2616 1683 c-4 -5 -13 -8 -19 -8
-7 0 -12 -12 -12 -27 -1 -16 0 -28 1 -28 1 0 11 16 23 35 20 34 22 43 7 28z
M3586 1677 c3 -10 9 -15 12 -12 3 3 0 11 -7 18 -10 9 -11 8 -5 -6z M2352 1655
c-17 -37 -14 -45 4 -12 9 16 14 31 11 33 -2 2 -9 -7 -15 -21z M2416 1663 c-6
-14 -5 -15 5 -6 7 7 10 15 7 18 -3 3 -9 -2 -12 -12z M2152 1628 c-6 -17 -9
-34 -7 -37 3 -2 5 2 5 10 0 12 2 11 11 -1 8 -12 9 -10 4 9 -5 15 -3 21 3 17 6
-4 8 2 5 14 -3 11 -6 20 -7 20 -1 0 -7 -14 -14 -32z M2202 1644 c-7 -8 -8 -14
-3 -14 10 0 25 19 20 25 -2 1 -10 -3 -17 -11z M2233 1647 c-3 -6 -1 -7 5 -3 5
3 12 1 14 -6 3 -8 6 -7 10 3 7 17 -19 22 -29 6z M2711 1644 c0 -11 3 -14 6 -6
3 7 2 16 -1 19 -3 4 -6 -2 -5 -13z M2036 1637 c3 -10 9 -15 12 -12 3 3 0 11
-7 18 -10 9 -11 8 -5 -6z M2426 1605 c-9 -26 -7 -32 5 -12 6 10 9 21 6 23 -2
3 -7 -2 -11 -11z M2699 1573 c-13 -16 -12 -17 4 -4 9 7 17 15 17 17 0 8 -8 3
-21 -13z"/>
</g>
</svg>
