<?xml version="1.0" encoding="UTF-8"?>
<svg viewBox="0 0 1024 1024" xmlns="http://www.w3.org/2000/svg" fill="currentColor">
<g transform="translate(0.000000,1024.000000) scale(0.100000,-0.100000)">
<path d="M4657 8412 c-9 -9 -21 -39 -27 -66 -21 -93 -64 -144 -151 -176 -74
-28 -96 -51 -83 -88 5 -15 20 -30 34 -34 14 -4 44 -12 68 -18 64 -17 109 -62
128 -129 21 -71 29 -81 69 -81 40 0 48 10 69 84 10 32 28 69 42 83 28 28 83
53 117 53 34 0 77 37 77 65 0 30 -16 42 -81 61 -79 24 -131 79 -159 172 -27
89 -65 116 -103 74z M6111 8341 c-11 -11 -24 -44 -31 -75 -22 -108 -89 -177
-207 -212 -61 -18 -78 -35 -69 -69 5 -19 16 -27 49 -35 72 -17 148 -61 178
-103 28 -38 38 -63 59 -144 8 -34 16 -44 37 -49 40 -11 56 7 78 87 12 41 29
87 40 102 23 36 88 81 140 97 75 23 90 34 90 64 0 32 -6 36 -87 61 -99 31
-162 102 -188 213 -7 32 -20 58 -33 67 -28 19 -33 19 -56 -4z M3733 7815 c-13
-9 -25 -31 -29 -53 -9 -50 -17 -58 -77 -78 -62 -20 -87 -40 -87 -69 0 -32 29
-54 85 -64 52 -10 75 -31 75 -67 0 -34 37 -74 69 -74 35 0 58 25 69 75 9 43
28 57 96 72 32 6 42 14 53 41 12 30 12 34 -11 57 -14 14 -36 25 -50 25 -49 0
-72 19 -90 76 -22 71 -57 91 -103 59z M4622 7343 c-32 -6 -198 -64 -297 -103
-127 -50 -331 -154 -445 -226 l-105 -66 -140 28 c-126 26 -160 29 -340 29
-211 0 -252 -5 -459 -56 l-118 -30 -127 70 c-224 125 -452 220 -670 282 -129
36 -195 38 -242 6 -44 -29 -63 -69 -93 -202 -78 -346 -87 -758 -21 -1049 l23
-101 -23 -55 c-40 -96 -71 -224 -90 -377 l-7 -53 -96 0 c-180 0 -276 -26 -312
-85 -32 -51 -27 -100 15 -142 35 -35 36 -35 98 -29 34 4 116 9 183 12 l121 6
6 -38 c13 -80 13 -80 -61 -104 -105 -34 -208 -87 -236 -121 -34 -40 -37 -114
-5 -148 23 -24 77 -51 104 -51 9 0 66 20 128 44 168 65 156 66 199 -8 143
-244 332 -415 618 -561 60 -31 110 -60 110 -63 0 -4 -55 -119 -121 -257 -216
-447 -277 -603 -303 -786 -17 -115 -19 -202 -7 -289 5 -30 7 -57 5 -59 -6 -6
-85 49 -112 78 -40 42 -70 95 -93 163 -31 91 -23 196 26 349 46 141 43 175
-15 230 -41 40 -91 55 -143 43 -79 -17 -120 -81 -164 -259 -23 -92 -27 -131
-27 -240 0 -114 4 -140 27 -210 61 -184 187 -332 356 -415 67 -34 246 -84 268
-75 7 2 38 -18 69 -46 106 -96 222 -157 385 -201 l84 -23 740 0 740 0 129 28
c70 15 141 34 156 42 78 40 111 145 71 222 -20 40 -67 83 -90 83 -15 0 -17 -3
38 101 52 100 97 230 127 369 15 68 19 127 19 295 -1 194 -3 219 -29 330 -29
124 -93 313 -152 448 -19 43 -34 84 -34 92 0 8 39 35 88 61 215 116 415 288
517 444 26 41 50 77 52 79 1 2 31 -15 65 -38 73 -49 97 -49 166 -1 23 17 44
30 46 30 2 0 23 -30 47 -67 24 -38 93 -118 154 -178 118 -119 229 -198 383
-275 50 -25 91 -49 91 -54 1 -5 -19 -53 -44 -107 -140 -305 -196 -568 -181
-853 11 -216 60 -409 150 -582 l41 -80 -41 -26 c-100 -62 -99 -209 2 -280 29
-21 72 -35 174 -55 l135 -28 730 0 c684 0 735 1 805 19 152 38 290 110 390
202 40 37 54 43 131 57 160 29 282 92 393 203 198 199 247 439 160 774 -33
125 -63 176 -121 202 -60 26 -113 17 -163 -29 -56 -50 -59 -86 -20 -220 41
-139 50 -272 25 -359 -28 -100 -103 -197 -184 -239 l-31 -15 8 32 c4 18 7 101
7 183 0 133 -3 163 -29 260 -42 162 -77 245 -293 695 -49 102 -93 196 -99 210
-11 24 -8 26 106 86 287 148 469 312 604 542 55 95 36 92 210 31 139 -50 177
-50 222 -5 28 28 34 42 34 76 0 88 -55 133 -235 190 -55 18 -101 33 -102 35
-2 1 2 27 8 58 l12 57 81 0 c44 -1 117 -7 160 -15 91 -16 127 -7 164 40 39 49
23 133 -33 169 -40 27 -149 46 -261 46 l-101 0 -7 31 c-3 17 -6 45 -6 61 0 47
-29 175 -67 296 l-35 112 28 143 c27 135 29 155 29 407 0 267 -4 312 -46 525
-51 261 -99 312 -260 278 -232 -48 -535 -171 -805 -326 l-81 -47 -94 24 c-204
54 -261 61 -494 60 -199 0 -232 -3 -343 -27 l-122 -26 -88 52 c-212 129 -427
228 -653 302 -140 46 -239 53 -286 20 -40 -30 -75 -109 -121 -275 -74 -266
-98 -470 -89 -760 3 -107 11 -214 17 -238 9 -39 7 -52 -24 -135 -19 -51 -42
-130 -51 -177 -24 -120 -26 -122 -40 -53 -8 34 -32 115 -54 179 l-41 117 16
121 c18 134 15 480 -6 611 -33 215 -122 522 -167 575 -14 17 -38 37 -54 45
-26 14 -96 18 -147 8z m6 -378 c50 -131 92 -368 92 -528 l0 -97 -102 106
c-114 118 -296 261 -407 319 -39 21 -71 41 -71 44 0 17 287 158 405 199 54 19
61 15 83 -43z m1050 21 c85 -32 292 -133 339 -164 24 -15 24 -15 -38 -49 -169
-94 -325 -219 -453 -365 -33 -37 -61 -66 -62 -65 -5 6 16 323 26 382 24 151
68 295 90 295 6 0 50 -15 98 -34z m-3597 -91 c85 -36 182 -82 217 -101 l63
-35 -123 -82 c-134 -88 -300 -245 -373 -351 l-40 -58 -8 43 c-20 105 4 439 44
613 11 45 13 48 39 43 15 -3 96 -36 181 -72z m6242 8 c36 -155 55 -408 42
-548 l-7 -75 -62 78 c-106 131 -276 276 -422 360 -62 35 -78 52 -50 52 7 0 24
8 37 19 44 34 385 176 430 180 13 1 21 -16 32 -66z m-4792 -208 c660 -115
1227 -665 1285 -1243 l6 -67 -73 -19 c-94 -24 -139 -64 -139 -123 0 -68 65
-106 143 -85 37 10 37 10 31 -16 -3 -15 -7 -32 -9 -38 -2 -6 -35 -13 -73 -16
-78 -6 -115 -26 -131 -71 -20 -56 19 -115 94 -140 16 -6 -98 -149 -170 -213
-36 -33 -92 -76 -123 -97 -77 -52 -260 -140 -352 -170 -247 -81 -618 -127
-865 -107 -504 42 -842 162 -1084 386 -69 64 -171 187 -171 205 0 5 10 9 21 9
29 0 99 72 99 102 0 61 -63 101 -153 97 l-62 -3 -9 37 c-5 20 -7 39 -4 42 3 3
27 1 53 -5 61 -14 99 -5 125 27 50 64 4 146 -100 177 -29 9 -64 16 -77 16 -21
0 -23 4 -23 49 0 114 48 286 118 426 129 259 408 537 680 678 174 90 388 155
585 177 93 11 271 4 378 -15z m3603 -1 c174 -30 392 -115 571 -222 170 -101
369 -286 483 -447 126 -178 208 -386 219 -556 l6 -86 -49 -8 c-107 -16 -174
-64 -174 -126 0 -44 30 -85 68 -93 15 -4 48 -2 75 3 51 9 54 5 41 -46 -6 -21
-12 -23 -71 -23 -101 0 -143 -31 -143 -105 0 -51 44 -95 95 -95 l36 0 -18 -32
c-27 -49 -210 -229 -278 -275 -399 -267 -1040 -364 -1615 -242 -336 71 -599
202 -763 378 -51 56 -117 142 -117 155 0 2 15 9 34 16 49 16 78 51 78 95 0 68
-63 110 -154 102 -57 -5 -58 -4 -64 21 -3 15 -8 33 -10 40 -3 11 9 12 59 7 76
-7 121 15 132 64 14 66 -50 129 -155 151 l-63 13 7 78 c35 417 368 858 816
1080 172 86 396 151 595 173 70 7 267 -3 359 -20z m-2025 -1673 c22 -67 12
-87 -28 -53 -19 15 -20 21 -9 60 12 47 19 45 37 -7z m-1059 -1063 c66 -155
124 -331 141 -428 21 -114 18 -385 -5 -490 -42 -196 -158 -433 -271 -559 l-37
-41 -143 0 -142 0 22 118 c13 64 37 204 55 310 31 188 32 195 15 237 -55 144
-249 137 -292 -11 -7 -21 -28 -151 -48 -289 -20 -137 -38 -251 -40 -253 -8 -9
-10 -1 -117 493 -23 109 -79 165 -164 165 -46 0 -106 -33 -128 -72 -35 -58
-29 -103 74 -551 17 -71 30 -133 30 -138 0 -12 -248 -10 -345 3 -203 26 -353
121 -414 259 -64 147 -51 389 35 606 14 37 98 214 185 393 88 179 159 330 159
337 0 22 18 23 111 3 179 -36 305 -51 504 -57 227 -6 375 7 606 56 74 16 139
29 146 30 6 0 35 -54 63 -121z m2325 83 c353 -70 683 -68 1042 7 l132 28 17
-46 c9 -25 87 -191 174 -370 166 -342 198 -423 224 -559 27 -144 15 -298 -33
-406 -41 -92 -142 -171 -272 -213 -93 -29 -125 -34 -312 -41 -185 -7 -174 -11
-157 62 35 147 110 522 110 550 0 49 -39 116 -80 139 -44 24 -120 20 -158 -9
-47 -35 -63 -78 -103 -276 -48 -242 -70 -339 -78 -355 -4 -7 -28 112 -55 265
-26 153 -55 293 -64 312 -24 48 -62 73 -119 78 -92 8 -163 -56 -163 -147 0
-51 58 -410 84 -523 25 -105 35 -97 -124 -97 l-141 0 -32 36 c-97 109 -207
314 -251 465 -64 221 -62 477 6 704 26 89 133 368 159 417 6 12 17 17 27 14 9
-3 85 -19 167 -35z M2439 5590 c-227 -39 -328 -314 -177 -484 61 -70 116 -98
203 -104 95 -6 158 15 223 73 80 72 114 175 92 278 -32 157 -186 264 -341 237z
M4021 5573 c-53 -19 -128 -91 -156 -148 -28 -57 -32 -173 -9 -233 23 -61 97
-139 159 -168 60 -28 159 -32 225 -9 109 39 196 163 194 280 -1 107 -70 216
-169 268 -54 28 -182 33 -244 10z M3229 5211 c-32 -33 -38 -75 -14 -107 21
-28 18 -62 -10 -89 -42 -43 -92 -27 -110 35 -14 48 -34 70 -65 70 -60 0 -78
-73 -35 -146 61 -104 197 -128 282 -51 l22 20 31 -26 c79 -67 192 -52 264 33
56 67 55 152 -2 167 -34 8 -55 -7 -70 -53 -23 -70 -75 -93 -124 -54 -35 27
-40 55 -17 84 47 60 -1 146 -81 146 -33 0 -48 -6 -71 -29z M5994 5586 c-185
-45 -283 -250 -201 -418 52 -105 147 -167 258 -168 94 0 154 24 215 85 111
111 123 260 29 387 -43 59 -96 95 -166 114 -63 16 -68 16 -135 0z M7580 5573
c-65 -23 -142 -105 -165 -173 -40 -119 -14 -227 73 -313 123 -121 299 -120
419 3 58 59 76 102 81 188 3 58 0 83 -18 127 -28 68 -109 146 -176 169 -59 20
-155 19 -214 -1z M6823 5222 c-43 -33 -52 -104 -17 -133 21 -18 17 -38 -15
-70 -51 -51 -97 -34 -124 46 -16 46 -35 60 -69 52 -31 -8 -52 -54 -43 -96 10
-45 58 -105 100 -125 70 -34 162 -19 208 32 18 20 18 20 50 -9 54 -50 117 -60
182 -30 81 36 139 134 113 188 -18 39 -61 52 -88 28 -11 -10 -20 -24 -20 -32
0 -28 -31 -73 -55 -79 -30 -7 -71 17 -87 51 -8 18 -7 28 6 46 43 62 -5 149
-81 149 -21 0 -48 -8 -60 -18z"/>
</g>
</svg>
