<?xml version="1.0" encoding="UTF-8"?>
<svg viewBox="0 0 1024 1024" xmlns="http://www.w3.org/2000/svg" fill="#000000">
<g transform="translate(0.000000,1024.000000) scale(0.100000,-0.100000)">
<path d="M5051 9053 c-49 -25 -86 -86 -85 -143 1 -84 56 -148 136 -157 57 -7
108 15 143 61 98 129 -49 310 -194 239z M4140 8839 c-76 -30 -118 -129 -89
-206 16 -43 69 -92 113 -104 106 -29 221 91 186 195 -31 96 -127 148 -210 115z
M5974 8830 c-74 -37 -108 -145 -69 -220 18 -35 70 -75 109 -84 57 -14 138 32
172 96 20 38 17 85 -7 135 -40 83 -126 114 -205 73z M2532 8635 c-197 -45
-350 -182 -418 -376 l-29 -84 -3 -955 c-3 -983 -1 -1044 37 -1190 19 -70 19
-74 1 -138 -38 -136 -71 -355 -83 -545 -3 -47 -9 -64 -31 -85 l-26 -27 -283
-5 c-282 -5 -284 -5 -320 -30 -106 -72 -99 -218 12 -277 43 -22 51 -23 316
-23 340 0 325 7 355 -175 6 -38 22 -117 36 -173 29 -124 30 -146 6 -170 -17
-17 -213 -99 -487 -202 -153 -58 -221 -96 -285 -160 -95 -95 -136 -212 -128
-361 8 -141 -5 -114 406 -824 258 -446 269 -463 336 -531 174 -174 421 -189
630 -37 28 21 152 119 276 219 301 242 373 294 399 294 28 0 110 -43 206 -108
62 -42 70 -51 69 -77 -1 -17 -32 -102 -69 -189 -73 -173 -80 -213 -48 -268 23
-39 86 -78 129 -78 51 0 93 38 206 185 59 77 119 150 134 163 32 28 39 27 186
-35 116 -49 145 -74 134 -117 -3 -14 -15 -83 -25 -153 -11 -70 -36 -232 -55
-359 -41 -262 -42 -297 -20 -394 35 -156 172 -291 339 -335 50 -13 154 -15
676 -15 585 0 620 1 695 20 178 46 307 176 343 348 20 97 12 172 -75 693 -35
209 -37 229 -22 250 10 16 54 39 137 72 66 26 129 47 139 47 24 0 54 -32 151
-165 122 -166 130 -175 166 -192 83 -40 205 41 205 136 0 21 -28 101 -70 197
-38 90 -72 174 -76 188 -5 23 3 31 94 90 123 79 155 96 183 96 28 0 87 -43
407 -294 145 -114 287 -222 316 -241 185 -123 415 -105 579 45 70 64 103 112
232 335 230 399 367 637 424 735 68 117 87 166 100 260 20 149 -25 285 -129
394 -70 73 -113 99 -276 161 -326 126 -455 179 -484 196 -38 24 -38 16 9 254
41 208 47 228 72 251 19 18 43 19 308 24 197 3 293 9 307 17 37 21 83 81 89
117 13 69 -30 146 -99 177 -37 17 -70 19 -306 19 -339 0 -316 -12 -335 180
-18 172 -29 243 -66 412 l-31 137 21 83 c11 46 25 115 31 153 6 42 10 433 10
987 0 1021 1 1011 -66 1148 -68 136 -218 259 -369 301 -30 8 -94 14 -160 13
-163 -1 -212 -18 -546 -194 -355 -187 -572 -313 -788 -457 -117 -79 -220 -143
-228 -143 -8 0 -49 9 -91 19 -109 28 -277 58 -422 76 -151 19 -157 21 -172 48
-6 12 -22 93 -34 182 -29 194 -43 237 -90 266 -50 30 -123 23 -165 -17 -37
-36 -53 -92 -74 -264 -19 -155 -26 -177 -57 -189 -13 -5 -106 -22 -207 -36
-102 -15 -241 -40 -310 -56 -69 -16 -130 -29 -137 -29 -7 0 -93 54 -192 119
-181 120 -384 244 -522 318 -396 214 -599 312 -704 339 -86 22 -218 27 -294 9z
m425 -611 c392 -201 785 -444 1034 -640 85 -67 129 -94 155 -94 12 0 75 20
140 45 135 52 393 117 534 137 146 19 501 17 634 -6 172 -28 378 -82 505 -132
85 -33 125 -44 149 -40 21 3 86 45 185 119 188 141 342 244 571 382 227 136
536 301 601 320 89 26 168 -12 197 -94 10 -28 13 -239 13 -971 l0 -935 -24
-85 c-37 -129 -37 -156 -2 -272 52 -173 73 -319 78 -550 6 -219 -5 -332 -49
-537 -111 -521 -462 -1071 -898 -1408 -296 -228 -658 -408 -1005 -498 -690
-180 -1379 -77 -2013 299 -456 271 -777 612 -1005 1071 -99 199 -188 466 -223
667 -46 273 -21 696 57 960 35 119 36 134 4 259 l-25 99 2 954 c3 946 3 955
24 983 23 31 97 73 130 73 12 0 116 -48 231 -106z m-620 -4119 c12 -8 42 -52
66 -97 95 -173 246 -395 367 -538 68 -80 83 -106 76 -134 -4 -16 -82 -85 -236
-208 -257 -204 -286 -223 -328 -213 -46 10 -72 46 -197 265 -65 113 -171 294
-237 404 -126 209 -138 240 -106 288 13 19 80 52 265 131 320 135 294 127 330
102z m5810 -69 c109 -46 222 -92 252 -103 127 -43 141 -99 59 -233 -28 -47
-133 -227 -234 -400 -100 -173 -194 -329 -208 -346 -35 -42 -69 -50 -115 -27
-37 19 -453 342 -483 377 -33 36 -23 69 47 150 116 138 265 359 374 559 41 74
71 107 98 107 6 0 101 -38 210 -84z m-3200 -1637 c141 -11 336 -7 477 12 86
11 122 3 143 -31 13 -20 93 -521 93 -582 0 -47 -33 -87 -80 -96 -19 -4 -239
-7 -488 -7 l-454 0 -30 34 c-28 32 -30 38 -25 90 13 121 78 534 87 551 19 36
52 52 97 46 23 -3 104 -11 180 -17z M3665 5443 c-195 -31 -354 -172 -407 -362
-49 -178 0 -361 132 -491 96 -95 208 -140 345 -140 274 1 495 218 498 490 3
276 -193 489 -462 504 -42 2 -89 2 -106 -1z M6394 5435 c-85 -18 -152 -55
-224 -121 -68 -64 -100 -113 -130 -198 -64 -186 -17 -379 127 -523 95 -96 207
-143 338 -143 197 0 366 103 450 274 96 193 62 404 -91 565 -126 134 -291 185
-470 146z m177 -286 c118 -36 184 -182 130 -287 -92 -179 -373 -133 -389 63
-8 99 47 189 134 220 48 17 76 18 125 4z M4935 4723 c-39 -8 -100 -59 -129
-107 -75 -120 -30 -276 101 -353 l45 -26 -4 -102 c-3 -91 -6 -107 -31 -143
-110 -166 -339 -115 -366 82 -22 159 -179 205 -256 75 -16 -27 -20 -51 -19
-114 1 -99 27 -171 92 -258 89 -117 195 -175 338 -184 132 -9 246 34 353 133
l61 56 60 -55 c113 -102 224 -144 359 -134 244 17 431 212 431 448 0 104 -38
166 -113 184 -63 16 -157 -63 -157 -131 0 -50 -20 -103 -53 -141 -80 -91 -213
-84 -299 17 -44 51 -58 98 -58 193 l0 76 37 18 c53 25 109 86 127 140 42 122
1 240 -104 301 -44 26 -50 27 -220 29 -96 0 -184 -1 -195 -4z M3123 4230 c-30
-15 -48 -34 -62 -64 -26 -52 -26 -69 -2 -122 14 -31 30 -47 63 -63 41 -19 60
-21 234 -21 160 0 194 3 224 18 98 49 108 180 18 244 -32 22 -42 23 -233 26
-187 3 -203 1 -242 -18z M6685 4243 c-93 -24 -134 -141 -76 -221 39 -55 84
-64 302 -60 184 3 196 4 227 26 90 65 80 189 -18 240 -42 21 -56 22 -230 21
-102 -1 -194 -4 -205 -6z M1630 6202 c-49 -24 -83 -91 -77 -155 10 -112 131
-182 227 -132 44 23 82 79 87 130 5 36 0 53 -22 90 -14 25 -41 55 -58 66 -40
24 -110 25 -157 1z M8464 6210 c-38 -15 -82 -77 -89 -124 -9 -59 8 -108 51
-145 41 -36 71 -45 124 -38 73 9 140 84 140 154 0 43 -41 115 -79 140 -35 24
-105 30 -147 13z M3140 1818 c-77 -53 -98 -130 -58 -208 17 -33 35 -51 71 -69
45 -23 53 -24 95 -13 85 22 142 110 121 187 -29 104 -148 158 -229 103z M6950
1823 c-54 -28 -80 -75 -80 -144 0 -54 3 -63 36 -99 69 -76 164 -74 233 6 36
41 46 72 37 122 -16 101 -136 162 -226 115z"/>
</g>
</svg>
