<?xml version="1.0" encoding="UTF-8"?>
<svg viewBox="0 0 1024 1024" xmlns="http://www.w3.org/2000/svg" fill="currentColor">
<g transform="translate(0.000000,1024.000000) scale(0.100000,-0.100000)">
<path d="M6726 8059 c-95 -22 -315 -141 -547 -296 -143 -95 -158 -103 -183
-93 -63 24 -280 73 -401 91 -306 45 -696 15 -986 -77 -90 -28 -81 -31 -199 51
-110 77 -247 158 -374 222 -251 126 -342 135 -420 42 -137 -163 -306 -842
-306 -1230 0 -116 -1 -122 -34 -187 -166 -331 -191 -796 -60 -1135 51 -134
105 -231 196 -352 83 -110 232 -265 320 -333 42 -31 46 -38 35 -53 -39 -55
-299 -447 -341 -514 -75 -122 -125 -214 -142 -264 -38 -111 -33 -282 10 -377
81 -177 227 -272 422 -277 l84 -2 0 -162 c0 -190 15 -276 65 -378 57 -115 130
-202 217 -262 108 -72 190 -97 313 -91 86 4 100 7 181 47 145 72 250 197 295
349 l12 42 391 0 391 0 23 -64 c35 -98 112 -207 184 -261 75 -57 95 -67 177
-94 271 -89 580 97 680 409 37 116 41 183 41 651 l0 456 23 20 c12 11 157 122
323 246 165 125 331 253 369 284 80 67 162 182 189 263 41 126 29 286 -31 403
-48 96 -149 182 -258 222 -27 10 -54 22 -59 26 -5 5 0 33 13 66 76 206 101
557 55 777 -20 98 -81 279 -117 351 -30 59 -31 64 -38 255 -10 254 -53 497
-142 790 -117 386 -197 480 -371 439z m-2818 -346 c119 -63 282 -169 282 -183
0 -5 -9 -12 -20 -15 -68 -22 -371 -246 -497 -369 -35 -33 -63 -56 -63 -50 0 6
14 76 30 155 35 162 76 310 115 414 14 39 29 78 32 88 3 9 7 17 10 17 2 0 52
-26 111 -57z m2877 -30 c45 -107 96 -286 130 -452 14 -68 25 -127 25 -130 0
-4 -24 15 -52 42 -130 121 -294 242 -466 341 -46 27 -80 52 -75 56 64 54 360
229 389 230 7 0 29 -39 49 -87z m-1369 -173 c510 -41 974 -256 1319 -611 61
-63 132 -143 157 -179 140 -200 240 -452 254 -645 3 -44 7 -96 9 -115 5 -59
-16 -230 -40 -325 -12 -50 -43 -134 -68 -187 -40 -85 -50 -99 -86 -118 -44
-22 -66 -43 -226 -210 -256 -269 -535 -422 -935 -513 -216 -50 -315 -60 -545
-60 -224 0 -332 13 -560 68 -690 166 -1192 604 -1281 1119 -19 109 -14 342 10
451 64 289 227 568 460 788 118 110 314 246 474 326 217 109 496 188 743 210
137 12 172 12 315 1z m1921 -2436 c77 -62 103 -131 83 -221 -21 -92 -48 -119
-371 -374 -195 -154 -370 -284 -442 -329 -108 -68 -101 -25 -105 -630 -3 -423
-7 -537 -19 -584 -41 -165 -159 -276 -293 -276 -114 1 -190 66 -236 203 -30
91 -77 150 -153 195 l-46 27 -475 0 c-467 0 -476 0 -515 -22 -46 -24 -111 -86
-130 -123 -7 -14 -20 -51 -29 -81 -26 -87 -68 -144 -131 -174 -132 -65 -261
-13 -350 140 -43 72 -56 130 -56 245 1 170 83 1425 94 1437 2 2 37 -12 78 -31
267 -123 676 -206 1014 -206 361 0 801 97 1128 248 162 75 361 218 496 356 36
36 69 62 75 59 6 -3 8 -3 4 2 -12 13 103 124 157 151 42 21 61 25 117 22 57
-3 73 -8 105 -34z m-3483 -909 c-6 -99 -17 -271 -24 -383 l-13 -203 -28 -15
c-15 -7 -50 -14 -76 -14 -142 1 -227 161 -159 305 36 78 303 503 310 493 1 -1
-3 -84 -10 -183z M4236 6175 c-124 -44 -178 -203 -110 -325 17 -29 49 -67 73
-84 39 -28 50 -31 115 -31 63 0 79 4 122 30 137 85 153 265 34 368 -66 57
-151 72 -234 42z M6145 6178 c-48 -17 -93 -55 -122 -105 -22 -38 -27 -59 -27
-113 -1 -57 3 -73 29 -116 87 -139 280 -150 375 -21 43 59 55 109 42 174 -29
141 -169 226 -297 181z M4875 6025 c-23 -22 -25 -32 -25 -107 0 -98 19 -147
73 -195 47 -41 131 -67 191 -58 48 8 146 59 146 77 0 6 10 2 23 -9 76 -71 202
-89 293 -42 37 19 57 39 82 79 32 53 33 58 30 143 -3 83 -5 90 -31 113 -34 29
-76 31 -110 4 -23 -18 -26 -29 -29 -92 -3 -63 -6 -73 -29 -91 -31 -22 -73 -17
-113 14 -23 18 -24 21 -10 47 21 41 17 71 -15 103 -25 25 -37 29 -84 29 -72 0
-107 -26 -107 -79 0 -20 7 -46 15 -58 14 -20 13 -23 -12 -42 -32 -26 -65 -35
-92 -26 -39 12 -51 34 -51 91 0 59 -19 108 -45 118 -35 13 -76 6 -100 -19z
M3832 5659 c-68 -20 -80 -124 -21 -173 29 -25 36 -26 150 -26 69 0 130 5 142
11 63 32 77 111 28 160 -25 25 -37 29 -83 29 -29 0 -82 2 -118 5 -36 2 -80 0
-98 -6z M6512 5661 c-64 -5 -77 -10 -98 -34 -41 -47 -28 -124 25 -152 41 -20
240 -21 280 -1 56 30 68 107 22 158 -26 29 -34 32 -92 34 -35 1 -97 -1 -137
-5z M6921 4897 c-13 -21 -12 -21 5 -5 10 10 16 20 13 22 -3 3 -11 -5 -18 -17z
M2682 7170 c-29 -12 -52 -66 -52 -121 0 -35 -6 -48 -38 -79 -33 -34 -46 -39
-100 -46 -69 -7 -92 -26 -92 -77 0 -47 40 -77 101 -77 46 0 55 -4 90 -39 30
-30 39 -47 39 -72 0 -85 29 -129 84 -129 46 0 76 38 86 110 8 56 14 70 44 98
30 26 44 32 82 32 37 0 51 5 75 29 56 56 22 119 -68 128 -93 9 -121 39 -133
142 -7 53 -14 70 -35 88 -28 25 -46 27 -83 13z m62 -286 l28 -34 -26 -27 c-14
-14 -26 -29 -26 -33 0 -4 -16 8 -36 27 l-36 34 26 24 c14 13 26 29 26 35 0 18
14 10 44 -26z M7804 7170 c-33 -13 -54 -50 -54 -95 0 -86 -53 -140 -149 -152
-58 -7 -81 -28 -81 -76 0 -43 40 -77 92 -77 83 0 138 -59 138 -148 0 -55 31
-92 76 -92 49 0 81 34 88 96 4 27 10 60 14 74 11 37 67 70 119 70 36 0 50 6
74 29 57 58 24 117 -72 127 -92 11 -121 42 -134 147 -4 32 -15 66 -24 77 -19
23 -58 32 -87 20z m50 -356 c-23 -24 -34 -30 -34 -19 0 9 -13 23 -29 33 l-29
16 31 36 32 35 31 -32 31 -33 -33 -36z M3403 2460 c-54 -32 -68 -83 -38 -140
41 -79 156 -77 205 3 24 39 25 61 4 97 -35 59 -111 77 -171 40z M7023 2460
c-70 -42 -63 -154 11 -185 46 -19 70 -19 113 2 104 49 66 203 -50 203 -24 0
-56 -8 -74 -20z"/>
</g>
</svg>
