<?xml version="1.0" encoding="UTF-8"?>
<svg viewBox="0 0 1024 1024" xmlns="http://www.w3.org/2000/svg" fill="currentColor">
<g transform="translate(0.000000,1024.000000) scale(0.100000,-0.100000)">
<path d="M7511 8709 c-111 -22 -292 -94 -522 -209 -286 -143 -498 -268 -721
-427 l-116 -83 -119 35 c-319 94 -554 128 -898 129 -381 1 -562 -26 -971 -140
-106 -30 -75 -42 -289 111 -198 141 -367 241 -620 365 -625 308 -763 298 -888
-60 -86 -247 -170 -711 -198 -1095 -17 -241 -18 -846 -1 -905 13 -43 12 -48
-22 -121 -51 -112 -132 -354 -171 -509 -110 -436 -112 -957 -5 -1358 93 -347
286 -737 506 -1024 l44 -57 -94 -100 c-220 -233 -344 -492 -376 -789 -38 -351
135 -727 421 -918 145 -96 291 -144 469 -153 110 -6 117 -7 155 -38 85 -67
-47 -63 2001 -63 1273 0 1869 3 1903 11 27 6 73 25 103 42 47 29 67 34 173 45
143 14 241 40 353 92 318 149 530 473 549 840 14 277 -105 608 -306 850 -25
30 -73 84 -108 120 l-62 66 75 96 c157 204 313 489 403 735 47 131 103 353
126 503 22 140 31 542 16 692 -31 294 -114 604 -243 907 -38 91 -39 96 -26
135 10 32 13 123 11 406 -2 599 -33 894 -138 1330 -90 371 -157 496 -289 535
-55 17 -61 17 -125 4z m-12 -569 c77 -337 130 -722 146 -1075 l6 -130 -72 80
c-265 294 -581 555 -871 721 -38 21 -68 41 -68 45 0 13 134 106 260 181 243
145 556 298 571 280 3 -4 16 -50 28 -102z m-4678 76 c202 -77 590 -295 738
-414 l25 -20 -60 -37 c-382 -242 -606 -428 -863 -714 l-84 -94 7 153 c16 355
73 790 137 1034 6 23 15 58 20 79 5 20 11 37 13 37 2 0 32 -11 67 -24z m2499
-486 c833 -75 1606 -516 2131 -1215 248 -330 426 -789 455 -1173 l7 -92 -194
0 c-183 0 -196 -2 -234 -23 -28 -16 -48 -38 -69 -79 -36 -72 -31 -130 17 -185
51 -58 73 -63 287 -63 l191 0 -5 -42 c-14 -111 -29 -218 -32 -218 -1 0 -57 20
-124 45 -163 61 -209 71 -258 57 -54 -16 -91 -48 -113 -96 -24 -53 -24 -97 1
-146 30 -59 88 -94 266 -159 58 -22 108 -41 110 -44 10 -9 -102 -243 -171
-356 -69 -116 -133 -205 -211 -298 l-44 -51 -64 21 -64 21 -4 145 c-4 173 -22
226 -96 291 -85 75 64 70 -1992 70 -2036 0 -1911 4 -1986 -62 -78 -69 -107
-163 -103 -336 l3 -106 -64 -25 -64 -24 -29 34 c-79 93 -190 251 -245 347 -50
88 -152 307 -152 326 0 2 54 26 120 51 183 72 250 124 265 206 8 41 -13 100
-48 137 -28 30 -89 62 -119 62 -31 0 -124 -30 -236 -75 -51 -21 -95 -35 -98
-32 -5 5 -27 126 -38 209 l-5 47 207 3 c198 3 208 4 240 26 41 29 72 90 72
138 0 54 -36 121 -83 155 l-40 29 -186 0 c-102 0 -192 4 -200 9 -12 8 -12 29
3 143 40 321 141 612 313 900 221 371 529 695 884 931 556 369 1211 550 1799
497z m1360 -4043 c-8 -8 -82 -65 -165 -127 -82 -62 -222 -170 -310 -240 -88
-69 -216 -169 -285 -221 -69 -53 -222 -172 -340 -265 -387 -305 -414 -324
-462 -324 -46 0 -85 26 -353 237 -72 56 -213 166 -315 244 -102 79 -282 218
-400 309 -118 92 -282 217 -365 279 -82 63 -152 115 -154 117 -2 2 708 4 1579
4 1326 0 1582 -2 1570 -13z m-3266 -498 c139 -43 276 -159 336 -284 89 -187
77 -423 -31 -611 -123 -216 -398 -423 -615 -463 -371 -69 -679 201 -651 569
24 311 313 688 602 785 114 39 244 40 359 4z m3761 -7 c105 -35 203 -102 307
-211 272 -286 358 -612 230 -871 -35 -71 -140 -176 -218 -217 -158 -84 -368
-83 -540 2 -95 46 -223 139 -307 221 -195 193 -276 440 -217 668 87 339 410
517 745 408z m-2640 -787 c247 -195 421 -324 466 -345 29 -13 66 -20 109 -20
112 0 95 -11 730 484 171 133 157 129 165 48 31 -311 136 -545 344 -764 l54
-58 -1292 0 -1293 0 72 77 c187 200 307 467 326 726 l7 97 86 -67 c47 -37 149
-117 226 -178z M3391 6034 c-133 -36 -275 -149 -339 -271 -40 -76 -72 -198
-72 -272 1 -251 163 -478 399 -558 81 -28 226 -31 316 -7 179 46 325 189 392
381 69 200 5 447 -154 594 -114 106 -226 149 -385 148 -57 0 -127 -7 -157 -15z
m149 -406 c76 -52 98 -125 61 -202 -23 -47 -82 -86 -131 -86 -45 0 -109 40
-130 81 -70 136 79 289 200 207z M6536 6039 c-191 -47 -358 -218 -411 -420
-57 -213 33 -465 215 -601 96 -72 208 -108 338 -108 436 0 703 490 478 875
-59 101 -169 193 -281 235 -48 18 -84 24 -180 26 -66 2 -137 -1 -159 -7z m305
-425 c62 -59 75 -123 39 -193 -21 -42 -85 -81 -131 -81 -42 1 -105 36 -127 72
-30 49 -30 124 1 168 51 76 157 92 218 34z M4960 5504 c-99 -44 -147 -161
-106 -257 16 -38 71 -92 108 -106 24 -9 26 -13 21 -53 -9 -66 -40 -141 -72
-172 -39 -38 -97 -45 -132 -17 -24 19 -27 28 -31 109 -3 68 -9 96 -26 124 -58
94 -193 87 -245 -12 -15 -29 -18 -53 -15 -146 4 -102 7 -118 36 -177 107 -218
386 -274 559 -113 l57 53 43 -44 c24 -24 69 -56 101 -71 49 -23 70 -27 147
-27 76 0 99 5 147 27 117 54 192 163 211 307 17 129 -7 209 -75 252 -44 27
-118 22 -154 -12 -42 -39 -54 -73 -54 -149 0 -100 -24 -139 -87 -140 -68 0
-136 91 -149 202 -6 53 -5 55 19 62 37 9 85 52 107 97 42 81 11 187 -69 244
-42 29 -46 30 -174 33 -102 1 -140 -2 -167 -14z M1460 8679 c-62 -25 -88 -67
-110 -184 -18 -91 -63 -177 -120 -228 -46 -41 -78 -57 -202 -102 -60 -21 -91
-46 -112 -89 -21 -46 -20 -88 4 -136 22 -43 45 -58 130 -85 184 -59 282 -166
305 -332 27 -201 265 -208 315 -9 6 23 16 53 21 67 17 44 89 108 142 127 117
41 139 128 48 189 -72 49 -171 21 -217 -60 l-21 -37 -12 41 c-16 52 -91 134
-138 150 l-36 12 30 12 c49 21 110 82 130 130 10 25 20 45 23 45 3 -1 14 -15
25 -32 36 -56 69 -73 142 -73 62 0 66 1 100 39 31 33 35 43 29 74 -7 46 -38
77 -123 121 -86 45 -126 102 -143 201 -14 86 -39 126 -93 150 -46 22 -79 24
-117 9z M8623 8634 c-43 -21 -59 -48 -83 -140 -12 -42 -25 -84 -30 -93 -18
-34 -74 -78 -143 -111 -57 -28 -76 -42 -90 -71 -15 -31 -16 -41 -5 -74 36
-107 190 -111 265 -7 l29 40 18 -50 c20 -57 72 -119 118 -141 l31 -15 -39 -20
c-54 -28 -81 -60 -109 -127 -20 -51 -24 -55 -30 -34 -4 13 -19 37 -34 53 -89
97 -251 61 -251 -55 0 -49 30 -84 89 -104 58 -19 125 -74 151 -124 10 -20 24
-66 30 -101 15 -81 33 -112 80 -139 46 -26 95 -27 140 -2 52 28 70 60 91 161
22 110 57 185 113 241 48 48 76 63 169 95 112 38 167 92 167 164 0 71 -46 118
-150 156 -104 37 -139 56 -182 101 -52 54 -87 130 -108 235 -10 50 -27 102
-37 117 -42 57 -134 77 -200 45z M1279 6517 c-70 -46 -69 -42 -69 -527 0 -432
0 -436 23 -480 60 -120 233 -118 288 4 17 38 19 73 19 466 0 422 0 426 -22
470 -32 63 -77 90 -148 90 -43 0 -66 -6 -91 -23z M8760 6298 c-18 -13 -43 -36
-54 -51 -20 -28 -21 -39 -23 -480 l-3 -452 23 -39 c32 -56 67 -79 130 -84 74
-6 127 22 156 81 21 44 22 53 19 495 -3 439 -4 451 -24 479 -37 49 -82 73
-139 73 -38 0 -61 -6 -85 -22z M8762 3879 c-48 -24 -82 -78 -82 -131 0 -104
-51 -169 -155 -198 -38 -11 -81 -28 -95 -39 -86 -63 -82 -197 7 -257 18 -12
60 -27 95 -34 50 -9 69 -19 95 -46 34 -37 53 -87 53 -144 1 -54 33 -114 74
-140 31 -18 47 -22 93 -18 50 4 60 9 94 45 29 31 39 52 44 89 13 102 17 115
47 150 36 41 64 57 132 73 27 7 62 21 77 31 58 42 76 137 38 199 -30 50 -56
67 -128 87 -43 11 -77 29 -102 51 -38 34 -46 56 -64 175 -10 68 -82 128 -152
128 -15 0 -47 -10 -71 -21z m134 -448 c15 -12 34 -21 43 -21 9 0 -1 -10 -21
-22 -22 -12 -47 -39 -60 -64 l-23 -44 -18 35 c-10 20 -36 49 -59 65 -25 19
-35 30 -24 30 29 0 63 29 81 71 l19 41 18 -35 c9 -19 30 -45 44 -56z M1300
2890 c-48 -25 -67 -63 -78 -152 -16 -130 -44 -162 -172 -203 -72 -23 -104 -46
-125 -91 -21 -46 -16 -120 11 -157 25 -34 78 -63 138 -77 92 -21 126 -60 146
-170 14 -77 31 -108 75 -139 64 -44 165 -21 210 48 14 20 27 60 31 91 13 110
46 147 154 175 36 9 75 23 88 31 59 38 80 134 44 204 -21 42 -72 78 -122 86
-57 9 -112 45 -136 88 -13 22 -26 72 -32 116 -6 54 -17 89 -32 110 -42 59
-132 77 -200 40z m105 -443 c11 -17 34 -41 51 -52 l30 -20 -30 -20 c-17 -11
-40 -37 -51 -58 -22 -41 -35 -47 -35 -17 0 10 -18 38 -40 61 -29 31 -37 45
-28 51 7 4 16 8 20 8 4 0 18 18 30 40 13 22 25 40 28 40 3 -1 14 -15 25 -33z"/>
</g>
</svg>
