<?xml version="1.0" encoding="UTF-8"?>
<svg viewBox="0 0 1024 1024" xmlns="http://www.w3.org/2000/svg" fill="#000000">
<g transform="translate(0.000000,1024.000000) scale(0.100000,-0.100000)">
<path d="M8312 8585 c-35 -30 -46 -53 -72 -169 -27 -116 -49 -164 -101 -221
-57 -61 -114 -89 -249 -121 -90 -21 -116 -31 -140 -56 -42 -42 -42 -103 0
-151 35 -40 55 -49 172 -76 111 -26 176 -59 221 -112 49 -57 71 -107 97 -224
13 -55 29 -112 36 -127 36 -71 127 -92 176 -40 33 33 43 60 68 174 47 209 122
287 324 337 49 12 101 28 116 36 56 29 80 104 50 160 -20 38 -64 60 -164 84
-107 26 -153 49 -212 103 -57 53 -90 123 -114 242 -11 53 -26 109 -34 125 -33
64 -120 82 -174 36z m161 -552 c22 -23 64 -55 92 -69 l52 -27 -59 -30 c-67
-33 -126 -99 -154 -172 -19 -52 -23 -50 -48 18 -23 61 -100 139 -160 162 -25
10 -46 20 -46 24 0 3 20 14 45 24 56 24 144 109 169 165 l19 43 24 -48 c14
-26 43 -67 66 -90z M5146 8440 c-16 -5 -42 -21 -57 -36 -81 -78 -52 -207 58
-256 35 -16 49 -17 82 -8 77 20 134 120 109 191 -18 54 -45 86 -88 103 -44 18
-61 19 -104 6z M3486 8320 c-34 -11 -82 -54 -102 -93 -8 -15 -44 -136 -79
-270 -36 -133 -85 -314 -110 -402 -25 -88 -81 -288 -124 -445 -44 -157 -117
-418 -164 -580 -46 -162 -93 -325 -102 -362 -10 -38 -22 -68 -27 -68 -12 0
-390 90 -398 95 -3 2 -71 17 -151 34 -117 24 -153 28 -182 20 -41 -11 -93 -67
-102 -111 -13 -58 35 -144 94 -167 14 -5 80 -22 146 -36 201 -45 510 -127 513
-136 2 -5 8 -7 13 -3 10 6 11 -25 3 -78 -6 -33 -11 -39 -43 -47 -20 -5 -166
-39 -326 -76 -159 -37 -309 -75 -332 -85 -56 -24 -77 -65 -71 -137 4 -46 10
-60 39 -89 21 -21 49 -37 70 -40 24 -4 136 17 352 65 174 39 321 71 325 71 5
0 23 -55 42 -122 57 -212 125 -359 236 -514 184 -257 428 -449 718 -564 62
-25 326 -100 351 -100 3 0 5 -513 5 -1140 l0 -1140 -24 0 c-85 0 -277 102
-384 204 -80 77 -122 133 -171 232 -67 136 -64 107 -71 724 -7 648 -4 629 -92
725 -66 72 -133 107 -218 112 -154 11 -296 -100 -330 -257 -8 -39 -10 -193 -8
-545 5 -535 5 -540 69 -729 82 -244 247 -476 447 -629 55 -42 108 -80 116 -83
9 -3 16 -13 16 -22 0 -12 -3 -13 -12 -4 -17 17 -26 15 -38 -8 -7 -14 -7 -20 0
-20 5 0 10 7 10 15 0 19 28 8 33 -13 4 -15 5 -15 6 1 1 22 49 24 57 2 4 -8 9
-13 13 -11 3 2 15 0 26 -4 10 -4 -87 -9 -217 -13 -258 -6 -273 -9 -322 -67
-54 -65 -25 -169 58 -209 42 -21 43 -21 1733 -21 1603 0 1692 -1 1696 -17 4
-17 5 -17 6 0 1 14 11 17 51 17 43 0 52 -3 59 -22 6 -16 4 -28 -5 -39 -13 -14
-12 -18 1 -29 13 -11 14 -10 9 4 -7 18 13 49 26 41 5 -3 6 -18 4 -34 -3 -17 0
-32 7 -37 8 -5 9 -3 4 6 -4 7 -2 16 6 21 12 8 12 10 0 18 -8 5 -9 11 -3 15 14
8 43 -4 36 -15 -7 -12 7 -11 26 1 13 8 12 10 -2 10 -10 0 -18 5 -18 11 0 5 -5
7 -10 4 -6 -3 -10 -1 -10 5 0 7 -7 10 -15 6 -10 -4 -15 1 -15 14 0 25 44 28
66 5 9 -8 12 -15 7 -15 -5 0 -14 5 -21 12 -6 6 -15 8 -19 4 -4 -4 1 -13 12
-19 31 -17 45 -17 46 1 0 11 4 8 10 -8 8 -20 12 -22 20 -10 8 12 9 10 4 -7 -5
-18 -2 -20 15 -16 19 5 26 -9 21 -39 -1 -8 22 -12 48 -9 7 2 10 -2 6 -8 -4 -7
0 -8 10 -5 10 4 15 14 12 25 -7 24 18 46 27 23 8 -21 8 -26 -2 -20 -4 2 -8 -4
-9 -14 -2 -19 -1 -19 19 0 17 16 19 22 8 35 -15 18 -2 19 22 1 13 -10 15 -15
6 -24 -7 -7 -8 -12 -4 -12 5 0 3 -7 -4 -15 -11 -13 -15 -13 -21 -3 -6 9 -9 9
-9 1 0 -20 22 -27 32 -9 5 9 14 14 20 10 6 -4 5 -10 -3 -15 -8 -5 -9 -9 -3 -9
6 0 19 9 29 20 24 26 31 25 50 -7 9 -16 13 -19 9 -8 -3 11 -9 31 -12 45 l-5
25 20 -22 20 -23 11 33 c11 30 11 30 6 3 -4 -25 -3 -28 9 -18 8 7 22 10 31 6
12 -5 15 -2 10 10 -3 9 -2 16 4 16 5 0 12 -7 16 -15 3 -8 1 -15 -3 -15 -5 0
-8 -11 -7 -25 0 -14 6 -23 11 -22 6 2 9 14 7 25 -2 17 2 22 17 22 12 0 21 5
21 11 0 5 5 7 11 4 6 -4 17 1 25 11 12 17 13 17 8 1 -4 -12 -1 -17 11 -17 9 0
14 4 10 9 -3 5 0 13 6 17 8 5 8 9 -1 14 -7 5 -2 8 14 8 14 -1 23 -4 21 -9 -3
-4 5 -15 17 -23 16 -12 25 -13 35 -4 10 8 18 7 31 -6 24 -21 35 -20 29 3 -3
14 0 17 14 14 13 -4 19 0 19 11 0 9 4 16 10 16 5 0 7 -6 4 -14 -3 -7 2 -16 11
-20 9 -3 13 -2 10 4 -8 13 25 13 45 0 8 -5 11 -12 7 -17 -5 -4 -12 -1 -17 7
-5 8 -13 11 -17 6 -13 -13 29 -37 51 -30 17 6 19 4 11 -8 -6 -7 -2 -6 7 5 10
10 22 16 28 12 5 -3 10 -1 10 4 0 6 4 11 9 11 5 0 8 -11 7 -25 0 -14 -4 -25
-8 -25 -5 0 -8 -6 -8 -12 1 -8 8 -4 18 8 10 11 23 19 30 16 17 -5 15 15 -3 22
-8 3 -15 12 -15 21 0 22 17 18 23 -6 5 -17 9 -19 26 -9 12 6 21 7 21 2 0 -5
11 -10 25 -10 14 0 23 3 21 6 -6 5 24 31 37 32 4 0 7 -5 7 -11 0 -5 -4 -8 -9
-4 -5 3 -12 1 -16 -5 -3 -5 -3 -10 2 -11 51 -5 69 -4 76 5 6 7 7 4 3 -6 -3
-11 3 -23 14 -31 11 -8 17 -16 15 -19 -3 -3 1 -8 10 -12 13 -4 14 -2 5 14 -6
11 -15 20 -20 20 -6 0 -10 10 -9 23 0 12 3 16 6 10 2 -7 9 -13 14 -13 6 0 5 8
-1 20 -6 11 -16 17 -22 14 -6 -4 -8 -3 -4 4 3 6 1 12 -6 15 -7 2 -5 3 5 2 9
-2 17 1 17 7 0 5 5 6 11 2 8 -4 7 -9 -2 -15 -11 -6 -10 -9 4 -15 11 -4 17 -17
17 -35 0 -16 4 -29 9 -29 4 0 7 15 5 33 l-3 32 15 -27 c17 -32 18 -32 45 -17
16 8 18 13 8 25 -10 12 -9 13 5 8 9 -4 16 -2 14 4 -2 5 1 10 6 10 5 0 12 6 17
13 4 8 11 11 14 7 4 -3 -4 -15 -16 -26 -12 -12 -19 -27 -16 -36 4 -11 -3 -21
-24 -31 -16 -9 -27 -20 -24 -25 4 -6 -1 -10 -9 -10 -19 0 -21 -16 -3 -26 6 -4
9 -4 5 0 -7 9 33 52 45 48 4 -1 7 3 7 9 0 5 5 7 10 4 6 -3 10 1 10 9 0 9 5 16
11 16 8 0 8 4 -1 15 -10 12 -7 15 14 21 14 3 23 10 20 15 -3 5 2 12 11 15 13
6 14 8 3 15 -9 6 -9 9 -1 9 18 0 26 -19 11 -25 -16 -6 -21 -42 -7 -50 5 -4 23
-7 39 -7 16 -1 27 -5 24 -9 -3 -5 2 -6 11 -3 11 5 13 10 5 19 -5 6 -7 15 -3
18 3 4 3 7 -2 7 -4 0 -14 -8 -22 -17 -13 -16 -14 -16 -8 7 6 23 5 24 -9 7 -9
-12 -16 -14 -21 -8 -3 6 -1 11 4 11 6 0 11 6 11 13 0 8 7 14 15 14 8 0 12 -4
9 -9 -3 -4 0 -8 5 -8 6 0 11 5 11 10 0 6 4 10 10 10 5 0 7 -6 4 -14 -3 -8 -1
-17 5 -21 6 -3 11 -18 11 -32 0 -33 9 -25 12 10 3 31 4 32 42 12 28 -15 28
-14 22 9 -3 14 -2 28 4 31 5 3 10 -1 10 -9 0 -9 7 -16 16 -16 16 0 16 -6 -1
-55 -3 -11 2 -6 11 10 10 17 19 39 20 50 3 49 4 51 13 35 6 -8 7 -19 4 -25 -3
-5 0 -5 6 1 10 9 10 17 2 33 -7 12 -8 21 -3 21 6 0 12 -9 15 -20 3 -12 14 -20
25 -20 11 0 27 -3 35 -6 9 -3 25 4 36 15 23 23 51 28 51 9 0 -6 3 -8 6 -5 9 9
-15 37 -32 37 -7 0 -15 -9 -19 -19 -3 -11 -13 -22 -22 -25 -12 -5 -13 -4 -5 7
7 8 9 17 5 20 -3 4 -12 -1 -19 -11 -13 -16 -13 -16 -14 1 0 20 -16 23 -23 5
-3 -8 -6 -6 -6 5 -1 12 7 17 27 17 15 0 54 7 87 14 45 11 62 12 67 3 5 -8 8
-7 8 4 0 9 25 27 60 44 162 77 312 271 367 475 16 59 18 120 18 615 l0 550
-31 88 c-18 48 -47 113 -65 145 -50 84 -200 229 -280 272 l-66 34 -6 106 c-13
218 -77 391 -203 548 -91 114 -165 173 -301 241 -157 79 -350 113 -518 92 -53
-7 -120 -19 -149 -28 -84 -24 -247 -109 -313 -163 -77 -62 -178 -179 -232
-268 -73 -122 -121 -309 -121 -474 l0 -57 -57 -37 c-172 -110 -285 -261 -339
-454 -16 -58 -18 -119 -22 -585 -2 -361 0 -538 8 -578 10 -53 9 -61 -7 -80
l-18 -22 22 19 c22 18 22 18 29 -10 3 -16 26 -66 50 -111 l43 -83 -155 0 -154
0 0 1299 0 1300 78 16 c313 65 548 186 760 390 261 250 413 514 483 838 11 52
15 58 33 53 12 -4 95 -22 186 -41 91 -19 228 -48 305 -65 77 -16 151 -30 165
-30 37 0 100 47 116 86 27 64 14 123 -38 171 -28 27 -153 59 -500 129 l-238
49 0 62 0 62 53 15 c28 8 122 31 207 51 448 103 464 108 500 168 36 59 22 134
-35 187 -46 43 -124 35 -455 -47 -157 -39 -294 -73 -304 -75 -16 -2 -23 10
-43 72 -31 98 -206 712 -273 955 -28 105 -65 235 -80 290 -33 118 -102 374
-161 603 -62 242 -110 306 -224 306 -74 0 -107 -27 -450 -377 -163 -166 -315
-317 -337 -334 l-41 -33 -729 0 -730 0 -236 233 c-380 373 -492 481 -517 494
-32 17 -95 24 -129 13z m440 -729 c193 -190 291 -280 321 -293 41 -18 78 -19
865 -16 l823 3 45 31 c25 18 108 92 184 165 77 74 144 133 150 131 6 -2 8 0 3
4 -8 9 51 74 67 74 6 0 21 15 34 34 32 47 122 122 122 102 0 -9 4 -16 9 -16 5
0 9 6 8 13 -1 31 4 45 18 50 16 7 18 2 89 -258 96 -345 230 -821 293 -1035
175 -602 201 -712 210 -889 6 -133 -11 -264 -52 -406 -133 -459 -542 -821
-1023 -906 -185 -32 -219 -48 -253 -123 -18 -39 -19 -99 -19 -1408 l0 -1368
-82 -2 c-46 -1 -154 -2 -240 -4 l-158 -2 0 549 c0 346 -4 566 -11 596 -23 105
-112 183 -219 191 -72 5 -131 -20 -184 -78 -65 -73 -66 -80 -66 -696 l0 -553
-55 -6 c-67 -9 -401 -2 -411 7 -4 4 -6 603 -6 1330 0 737 -3 1349 -8 1382 -10
60 -41 113 -85 142 -13 8 -79 26 -147 40 -312 65 -505 157 -715 343 -226 200
-364 473 -403 797 -27 224 -8 313 289 1354 44 151 118 415 167 585 48 171 90
312 93 315 3 3 6 10 6 15 0 6 7 31 15 57 12 40 16 45 31 35 9 -7 142 -135 295
-286z m3860 -3496 c269 -61 463 -298 464 -567 l0 -58 -606 0 -607 0 5 93 c9
147 63 268 170 375 150 152 353 207 574 157z m686 -973 c99 -48 165 -113 207
-202 l26 -55 0 -540 0 -540 -32 -68 c-43 -90 -119 -169 -202 -210 l-66 -32
-755 0 -755 0 -58 27 c-78 37 -152 114 -196 208 l-36 75 -3 488 c-2 307 1 508
7 544 32 171 173 314 337 343 27 4 362 7 745 7 l696 -2 85 -43z m-1852 -1951
c0 -6 -4 -13 -10 -16 -5 -3 -10 1 -10 9 0 9 5 16 10 16 6 0 10 -4 10 -9z m113
2 c-7 -2 -19 -2 -25 0 -7 3 -2 5 12 5 14 0 19 -2 13 -5z m43 -5 c4 -7 3 -8 -4
-4 -7 4 -12 2 -12 -5 0 -7 -3 -10 -6 -6 -6 5 3 27 11 27 2 0 7 -5 11 -12z
m1464 -9 c0 -6 -4 -7 -10 -4 -5 3 -10 11 -10 16 0 6 5 7 10 4 6 -3 10 -11 10
-16z m72 -1 c-7 -7 -12 -8 -12 -2 0 14 12 26 19 19 2 -3 -1 -11 -7 -17z
m-1507 2 c3 -5 1 -10 -4 -10 -6 0 -11 5 -11 10 0 6 2 10 4 10 3 0 8 -4 11 -10z
m676 -5 c11 6 11 5 2 -5 -12 -14 -33 -6 -33 13 0 8 3 7 9 -2 5 -8 14 -10 22
-6z m536 -7 c-3 -8 -6 -5 -6 6 -1 11 2 17 5 13 3 -3 4 -12 1 -19z m163 12 c0
-5 -5 -10 -11 -10 -5 0 -7 5 -4 10 3 6 8 10 11 10 2 0 4 -4 4 -10z m21 -18
c-8 -3 -6 -8 5 -17 15 -11 21 -9 36 9 19 21 19 21 2 -6 -19 -32 -27 -34 -48
-13 -13 13 -13 20 -3 36 7 12 13 15 16 7 2 -7 -1 -14 -8 -16z m-381 4 c0 -2
-8 -10 -17 -17 -16 -13 -17 -12 -4 4 13 16 21 21 21 13z m-280 -16 c0 -5 -8
-10 -17 -10 -15 0 -16 2 -3 10 19 12 20 12 20 0z m40 -10 c-27 -21 -21 -27 11
-10 11 6 19 7 19 2 0 -14 -41 -22 -58 -13 -12 7 -9 12 14 24 39 22 44 21 14
-3z m194 12 c2 -4 -4 -8 -14 -8 -10 0 -16 4 -14 8 3 4 9 8 14 8 5 0 11 -4 14
-8z m518 -14 c-7 -7 -12 -8 -12 -2 0 14 12 26 19 19 2 -3 -1 -11 -7 -17z
m-1428 -9 c-9 -10 -13 -22 -10 -27 3 -5 -3 -12 -14 -15 -14 -3 -24 1 -31 15
-9 16 -8 19 3 15 7 -2 12 -10 10 -16 -1 -7 2 -9 8 -6 6 4 9 14 6 22 -8 21 1
32 24 30 18 -1 18 -3 4 -18z m247 -6 c-12 -20 -14 -14 -5 12 4 9 9 14 11 11 3
-2 0 -13 -6 -23z m226 5 c-3 -8 -6 -5 -6 6 -1 11 2 17 5 13 3 -3 4 -12 1 -19z
m597 6 c3 -8 2 -12 -4 -9 -6 3 -10 10 -10 16 0 14 7 11 14 -7z m-964 -9 c7 -9
8 -15 2 -15 -5 0 -12 7 -16 15 -3 8 -4 15 -2 15 2 0 9 -7 16 -15z m759 -8 c0
-9 -2 -8 -6 1 -2 6 -10 9 -15 6 -7 -4 -8 -2 -4 5 9 13 26 5 25 -12z m-716 -4
c-14 -36 -63 -58 -63 -28 0 18 16 20 23 3 3 -8 6 -6 6 4 1 9 9 22 19 27 23 14
22 14 15 -6z m42 -1 c-3 -3 -11 0 -18 7 -9 10 -8 11 6 5 10 -3 15 -9 12 -12z
m119 3 c-4 -8 -10 -12 -15 -9 -14 8 -10 24 6 24 9 0 12 -6 9 -15z m783 -20 c0
-8 -4 -12 -9 -9 -4 3 -8 9 -8 15 0 5 4 9 8 9 5 0 9 -7 9 -15z M3626 7847 c3
-10 9 -15 12 -12 3 3 0 11 -7 18 -10 9 -11 8 -5 -6z M3603 7807 c0 -8 6 -14
13 -14 7 0 10 6 7 14 -3 7 -8 13 -12 13 -4 0 -8 -6 -8 -13z M6560 7802 c-9 -9
-22 -26 -30 -36 -14 -18 -14 -18 7 -6 12 8 19 18 16 24 -4 5 0 7 8 4 10 -4 15
1 16 13 2 22 2 22 -17 1z M6506 7794 c-8 -21 -8 -24 3 -24 12 0 22 28 12 35
-5 3 -12 -2 -15 -11z M6476 7760 c6 -8 13 -22 16 -30 3 -10 6 -7 11 9 3 13 3
20 0 17 -4 -3 -13 0 -22 7 -14 10 -14 10 -5 -3z M6560 7749 c0 -5 5 -7 10 -4
6 3 10 8 10 11 0 2 -4 4 -10 4 -5 0 -10 -5 -10 -11z M6510 7730 c0 -5 5 -10
11 -10 5 0 7 5 4 10 -3 6 -8 10 -11 10 -2 0 -4 -4 -4 -10z M6540 7720 c0 -5 5
-10 11 -10 5 0 7 5 4 10 -3 6 -8 10 -11 10 -2 0 -4 -4 -4 -10z M3968 6127
c-141 -53 -241 -174 -255 -310 -18 -177 176 -228 217 -57 30 124 182 162 259
65 11 -15 27 -48 36 -75 17 -51 50 -86 93 -97 34 -8 88 20 113 59 64 103 -45
319 -199 395 -64 31 -204 42 -264 20z M6001 6125 c-148 -47 -261 -207 -249
-351 7 -83 52 -122 134 -116 33 3 71 48 84 100 19 76 75 122 147 122 59 0 100
-32 129 -98 43 -96 46 -101 81 -117 45 -22 85 -12 122 30 37 42 45 78 31 140
-26 118 -110 222 -220 274 -67 31 -189 39 -259 16z M5030 6041 c-114 -37 -189
-137 -190 -252 0 -71 19 -118 72 -175 l41 -44 -29 -42 c-45 -65 -105 -92 -158
-72 -9 3 -31 28 -50 54 -43 60 -87 78 -139 56 -73 -30 -91 -110 -46 -201 71
-143 266 -204 421 -132 49 22 138 100 138 119 0 5 26 -18 58 -51 49 -50 68
-62 126 -80 81 -25 122 -26 199 -6 80 21 134 60 180 130 35 54 38 65 35 113
-4 40 -11 59 -32 81 -56 59 -114 49 -170 -29 -54 -75 -123 -80 -190 -13 -51
51 -54 70 -18 103 134 122 98 339 -70 426 -36 19 -140 28 -178 15z M6876 3105
c-3 -8 -1 -15 4 -15 6 0 10 7 10 15 0 8 -2 15 -4 15 -2 0 -6 -7 -10 -15z
M7567 2869 c-102 -24 -211 -113 -256 -209 -23 -48 -26 -68 -26 -155 0 -90 3
-106 29 -160 17 -34 55 -86 88 -118 l58 -59 -26 -146 c-14 -81 -28 -160 -31
-177 -3 -21 2 -40 19 -65 l24 -35 206 -3 206 -2 26 31 c33 39 33 57 -4 231
-16 77 -30 150 -30 160 0 11 25 42 55 70 135 123 160 304 63 465 -82 135 -250
208 -401 172z M6840 1109 c0 -5 5 -7 10 -4 6 3 10 8 10 11 0 2 -4 4 -10 4 -5
0 -10 -5 -10 -11z M1900 8083 c-46 -24 -67 -68 -79 -171 -17 -131 -28 -162
-80 -213 -38 -39 -59 -51 -121 -69 -127 -36 -158 -50 -175 -77 -27 -41 -29
-93 -6 -130 28 -44 61 -63 136 -79 90 -19 134 -39 177 -81 41 -40 59 -86 78
-203 11 -62 18 -80 45 -107 28 -28 40 -33 82 -33 43 0 53 4 82 34 28 28 34 46
48 122 31 183 85 236 273 274 73 14 113 39 134 84 38 80 -17 153 -132 179
-181 41 -252 119 -273 303 -5 47 -16 99 -24 115 -31 59 -105 83 -165 52z m88
-504 c25 -39 43 -55 84 -73 51 -22 51 -23 22 -29 -50 -11 -90 -43 -114 -91
l-22 -46 -24 48 c-23 47 -60 77 -112 92 l-27 7 35 15 c49 21 95 62 110 98 7
16 13 30 15 30 1 0 16 -23 33 -51z M8703 6429 c-48 -10 -80 -35 -103 -79 -25
-49 -25 -90 0 -139 51 -100 185 -110 253 -19 49 66 43 139 -17 197 -37 36 -85
51 -133 40z M2631 5800 c0 -8 3 -21 8 -28 6 -11 10 -10 15 4 3 9 4 19 1 22 -3
3 -5 -1 -6 -9 0 -8 -4 -6 -9 6 -6 13 -9 15 -9 5z M2667 5764 c-3 -5 1 -15 9
-22 16 -14 18 -5 5 17 -5 7 -11 9 -14 5z M2656 5727 c3 -10 9 -15 12 -12 3 3
0 11 -7 18 -10 9 -11 8 -5 -6z M6556 4183 c-6 -14 -5 -15 5 -6 7 7 10 15 7 18
-3 3 -9 -2 -12 -12z M6515 4169 c-4 -6 -5 -12 -2 -15 2 -3 7 2 10 11 7 17 1
20 -8 4z M6481 4144 c0 -11 3 -14 6 -6 3 7 2 16 -1 19 -3 4 -6 -2 -5 -13z
M6430 4141 c0 -6 5 -13 12 -17 7 -5 8 -3 3 6 -6 10 -4 12 9 7 10 -4 15 -3 11
3 -8 13 -35 13 -35 1z M6337 4105 c-4 -8 -1 -17 6 -21 7 -4 9 -4 5 1 -4 4 -3
14 3 22 7 8 8 13 1 13 -5 0 -12 -7 -15 -15z M3976 4077 c3 -10 9 -15 12 -12 3
3 0 11 -7 18 -10 9 -11 8 -5 -6z M3935 4070 c-3 -6 1 -7 9 -4 18 7 21 14 7 14
-6 0 -13 -4 -16 -10z M6200 4066 c0 -8 4 -17 9 -20 5 -4 7 3 4 14 -6 23 -13
26 -13 6z M6270 4070 c8 -5 20 -10 25 -10 6 0 3 5 -5 10 -8 5 -19 10 -25 10
-5 0 -3 -5 5 -10z M4054 4062 c-9 -5 -8 -11 2 -20 12 -11 14 -9 14 8 0 22 0
23 -16 12z M6171 4043 c7 -12 15 -20 18 -17 3 2 -3 12 -13 22 -17 16 -18 16
-5 -5z M2098 3788 c-50 -13 -93 -64 -102 -118 -8 -52 22 -122 67 -154 39 -29
125 -29 163 0 71 53 90 121 52 193 -34 67 -108 99 -180 79z M2001 2654 c-29
-24 -31 -30 -31 -95 l0 -69 -62 0 c-81 0 -124 -24 -133 -73 -8 -39 14 -90 44
-107 11 -5 46 -10 79 -10 l60 0 4 -61 c4 -54 9 -66 36 -90 38 -34 74 -37 120
-9 38 23 52 54 52 116 l0 44 64 0 c61 0 65 2 96 36 39 45 36 85 -10 127 -26
23 -39 27 -89 27 l-59 0 -4 66 c-4 60 -7 70 -36 95 -42 38 -89 39 -131 3z
M3359 1543 c-13 -16 -12 -17 4 -4 16 13 21 21 13 21 -2 0 -10 -8 -17 -17z
M6348 1522 c-4 -13 -4 -21 -1 -18 4 3 12 1 20 -5 9 -9 13 -8 13 0 0 6 -4 11
-9 11 -5 0 -11 8 -13 18 -3 13 -5 12 -10 -6z M6375 1530 c-3 -5 -1 -10 4 -10
6 0 11 5 11 10 0 6 -2 10 -4 10 -3 0 -8 -4 -11 -10z M3340 1509 c0 -5 5 -7 10
-4 6 3 10 8 10 11 0 2 -4 4 -10 4 -5 0 -10 -5 -10 -11z M1966 1460 c-60 -11
-106 -66 -106 -125 0 -57 20 -96 62 -127 31 -21 42 -23 175 -23 128 0 144 2
170 21 72 53 92 132 50 195 -37 56 -76 69 -202 68 -60 -1 -128 -5 -149 -9z
M8680 1260 c-9 -6 -10 -10 -3 -10 6 0 15 5 18 10 8 12 4 12 -15 0z M8521 1186
c-9 -10 -8 -15 2 -19 8 -3 13 3 14 14 2 23 -1 24 -16 5z M8575 1170 c-3 -5 -1
-10 4 -10 6 0 11 5 11 10 0 6 -2 10 -4 10 -3 0 -8 -4 -11 -10z M6380 1161 c0
-6 4 -13 10 -16 6 -3 7 1 4 9 -7 18 -14 21 -14 7z M6500 1164 c0 -3 7 -12 15
-20 13 -14 15 -14 15 1 0 10 5 13 13 9 6 -4 9 -3 4 1 -9 10 -47 17 -47 9z
M6560 1160 c0 -5 5 -10 11 -10 5 0 7 5 4 10 -3 6 -8 10 -11 10 -2 0 -4 -4 -4
-10z M6726 1111 c5 -19 3 -23 -10 -18 -10 4 -16 1 -16 -7 0 -8 -6 -17 -12 -20
-7 -3 1 -4 17 0 41 8 46 15 29 44 l-15 25 7 -24z M8479 1113 c-13 -16 -12 -17
4 -4 16 13 21 21 13 21 -2 0 -10 -8 -17 -17z M6450 1111 c0 -6 4 -13 10 -16 6
-3 7 1 4 9 -7 18 -14 21 -14 7z M8440 1111 c0 -6 4 -13 10 -16 6 -3 7 1 4 9
-7 18 -14 21 -14 7z M7275 1100 c-3 -5 1 -10 10 -10 9 0 13 5 10 10 -3 6 -8
10 -10 10 -2 0 -7 -4 -10 -10z M8376 1095 c-9 -26 -7 -32 5 -12 6 10 9 21 6
23 -2 3 -7 -2 -11 -11z M6760 1084 c0 -8 5 -12 10 -9 6 3 10 10 10 16 0 5 -4
9 -10 9 -5 0 -10 -7 -10 -16z M7423 1074 c-12 -17 -20 -34 -17 -37 4 -3 -3 -5
-15 -4 -14 1 -19 6 -16 17 5 18 -11 48 -21 37 -4 -3 -1 -13 6 -22 8 -10 9 -15
2 -15 -6 0 -9 -7 -6 -15 4 -8 14 -15 24 -15 11 0 22 -5 25 -10 4 -6 11 -8 16
-4 5 3 7 10 4 15 -13 20 5 46 30 43 14 -1 25 2 25 8 0 6 -6 8 -14 5 -9 -4 -16
1 -18 11 -3 13 -8 10 -25 -14z M8330 1085 c0 -16 16 -20 24 -6 3 5 -1 11 -9
15 -9 3 -15 0 -15 -9z M8066 1066 c17 -27 17 -29 1 -41 -21 -15 -22 -26 -3
-19 8 3 17 1 21 -5 3 -6 11 -11 18 -11 6 0 2 7 -9 15 -15 12 -16 16 -6 23 11
7 8 15 -13 38 l-26 29 17 -29z M7204 1070 c-21 -8 -39 -38 -29 -48 3 -3 5 1 5
8 0 9 5 7 14 -5 8 -11 12 -23 10 -26 -2 -4 5 -5 16 -2 11 3 20 10 20 15 0 5 5
6 10 3 6 -4 10 -3 9 2 -1 4 0 10 1 13 1 3 3 12 5 21 3 15 0 15 -26 2 -35 -17
-37 -23 -6 -16 21 5 21 5 4 -13 -18 -19 -19 -19 -33 0 -15 21 -19 40 -6 33 4
-3 16 -1 26 3 11 3 15 9 10 12 -5 3 -18 2 -30 -2z M7285 1071 c-3 -6 6 -8 20
-5 14 2 25 0 25 -6 0 -5 -5 -10 -11 -10 -5 0 -7 -5 -4 -10 4 -6 -1 -22 -10
-36 -9 -14 -14 -28 -11 -31 3 -3 8 2 12 11 3 9 14 16 23 17 9 0 11 3 4 5 -9 4
-9 13 -2 31 5 13 7 29 3 34 -7 12 -41 12 -49 0z M8204 1065 c3 -19 26 -44 26
-28 0 6 -6 14 -12 16 -8 3 -5 6 5 6 10 1 15 6 12 11 -10 16 -33 12 -31 -5z
M7690 1059 c0 -6 -4 -7 -10 -4 -5 3 -10 1 -10 -4 0 -6 5 -11 10 -11 6 0 16
-12 22 -26 11 -24 12 -25 19 -6 5 12 15 19 26 18 10 -2 12 -1 6 1 -7 3 -13 10
-13 16 0 7 -4 6 -10 -3 -8 -13 -10 -13 -10 1 0 9 -7 19 -15 23 -8 3 -15 1 -15
-5z m24 -25 c5 -14 4 -15 -9 -4 -17 14 -19 20 -6 20 5 0 12 -7 15 -16z M7757
1056 c-7 -19 25 -27 46 -11 21 15 22 22 2 22 -8 0 -12 -4 -9 -8 2 -4 0 -10 -6
-14 -5 -3 -10 1 -10 9 0 20 -16 21 -23 2z M8386 1062 c-3 -5 1 -9 9 -9 8 0 12
4 9 9 -3 4 -7 8 -9 8 -2 0 -6 -4 -9 -8z M6738 1053 c7 -3 16 -2 19 1 4 3 -2 6
-13 5 -11 0 -14 -3 -6 -6z M7070 1045 c-15 -8 -19 -15 -11 -19 6 -4 11 -2 11
5 0 8 4 8 15 -1 13 -11 14 -10 8 6 -6 17 -5 17 10 5 15 -11 17 -11 17 1 0 18
-20 19 -50 3z M7500 1040 c6 -11 13 -20 16 -20 2 0 0 9 -6 20 -6 11 -13 20
-16 20 -2 0 0 -9 6 -20z M7580 1049 c0 -5 5 -7 10 -4 6 3 10 8 10 11 0 2 -4 4
-10 4 -5 0 -10 -5 -10 -11z M8042 1047 c-8 -10 -6 -13 9 -13 20 0 25 11 10 20
-5 3 -13 0 -19 -7z M6695 1039 c-4 -6 -4 -13 -1 -16 3 -4 6 -1 6 6 0 7 5 9 12
5 7 -4 8 -3 4 4 -9 15 -13 15 -21 1z M6775 1040 c-3 -5 -1 -10 4 -10 6 0 11 5
11 10 0 6 -2 10 -4 10 -3 0 -8 -4 -11 -10z M6996 1041 c-4 -7 -5 -15 -2 -18 9
-9 19 4 14 18 -4 11 -6 11 -12 0z M7280 1035 c-11 -13 -10 -14 4 -9 9 3 16 10
16 15 0 13 -6 11 -20 -6z M7470 1040 c0 -5 5 -10 11 -10 5 0 7 5 4 10 -3 6 -8
10 -11 10 -2 0 -4 -4 -4 -10z M8110 1039 c0 -5 5 -7 10 -4 6 3 10 8 10 11 0 2
-4 4 -10 4 -5 0 -10 -5 -10 -11z M6805 1029 c-4 -6 -5 -12 -2 -15 2 -3 7 2 10
11 7 17 1 20 -8 4z M7831 1033 c-1 -17 16 -25 25 -12 4 7 3 9 -4 5 -5 -3 -13
0 -15 6 -4 9 -6 10 -6 1z M7920 1030 c-9 -6 -10 -10 -3 -10 6 0 15 5 18 10 8
12 4 12 -15 0z M6839 1017 c4 -4 18 -3 32 2 23 9 22 9 -8 8 -18 -1 -28 -6 -24
-10z M7666 1022 c-3 -5 1 -9 9 -9 8 0 12 4 9 9 -3 4 -7 8 -9 8 -2 0 -6 -4 -9
-8z M8194 1019 c-3 -6 -2 -15 3 -20 5 -5 9 -1 9 11 0 23 -2 24 -12 9z M8130
1005 c7 -9 15 -13 17 -11 7 7 -7 26 -19 26 -6 0 -6 -6 2 -15z M6900 1006 c0
-2 7 -7 16 -10 8 -3 12 -2 9 4 -6 10 -25 14 -25 6z M6980 1000 c0 -5 5 -10 11
-10 5 0 7 5 4 10 -3 6 -8 10 -11 10 -2 0 -4 -4 -4 -10z M7064 988 l-19 -23 23
19 c12 11 22 21 22 23 0 8 -8 2 -26 -19z M7121 994 c0 -11 3 -14 6 -6 3 7 2
16 -1 19 -3 4 -6 -2 -5 -13z M7493 995 c0 -8 4 -12 9 -9 4 3 8 9 8 15 0 5 -4
9 -8 9 -5 0 -9 -7 -9 -15z M7572 994 c-6 -11 -11 -13 -16 -5 -4 6 -12 11 -19
11 -6 0 -2 -6 8 -14 22 -16 42 -12 42 9 0 19 -4 19 -15 -1z M7776 997 c3 -10
9 -15 12 -12 3 3 0 11 -7 18 -10 9 -11 8 -5 -6z M7906 993 c-4 -9 -2 -21 4
-27 7 -7 10 -2 10 17 0 31 -5 34 -14 10z M7255 990 c-3 -5 -1 -10 4 -10 6 0
11 5 11 10 0 6 -2 10 -4 10 -3 0 -8 -4 -11 -10z M6885 970 c-3 -6 1 -7 9 -4
18 7 21 14 7 14 -6 0 -13 -4 -16 -10z M7215 971 c-3 -5 -2 -12 3 -15 5 -3 9 1
9 9 0 17 -3 19 -12 6z M7506 972 c-3 -5 1 -9 9 -9 8 0 12 4 9 9 -3 4 -7 8 -9
8 -2 0 -6 -4 -9 -8z M6930 956 c0 -2 8 -10 18 -17 15 -13 16 -12 3 4 -13 16
-21 21 -21 13z M7090 945 c-7 -9 -11 -17 -9 -20 3 -2 10 5 17 15 14 24 10 26
-8 5z M7195 930 c3 -5 8 -10 11 -10 2 0 4 5 4 10 0 6 -5 10 -11 10 -5 0 -7 -4
-4 -10z"/>
</g>
</svg>
