<?xml version="1.0" encoding="UTF-8"?>
<svg viewBox="0 0 1024 1024" xmlns="http://www.w3.org/2000/svg" fill="#000000">
<g transform="translate(0.000000,1024.000000) scale(0.100000,-0.100000)">
<path d="M2560 8780 c-76 -26 -126 -83 -166 -191 -95 -252 -194 -635 -243
-939 -59 -369 -74 -555 -75 -940 l-1 -305 26 -46 26 -47 -54 -98 c-158 -284
-269 -632 -303 -952 -16 -145 -7 -562 14 -682 20 -112 21 -107 -21 -115 -56
-10 -392 -104 -411 -114 -68 -37 -110 -139 -90 -219 22 -87 119 -152 207 -138
19 3 124 31 233 62 110 31 200 54 202 53 1 -2 37 -74 79 -159 168 -343 409
-648 690 -872 110 -88 393 -278 414 -278 22 0 14 -22 -32 -94 -158 -244 -292
-594 -335 -873 -27 -177 -30 -287 -8 -329 23 -42 78 -89 123 -104 76 -25 182
26 225 109 10 20 23 79 29 131 34 283 105 499 222 671 50 75 173 188 245 226
97 51 163 66 278 61 82 -3 111 -8 156 -30 124 -58 200 -165 208 -295 11 -167
-48 -265 -272 -457 -154 -132 -180 -170 -174 -256 3 -48 10 -67 34 -97 62 -75
154 -96 248 -55 58 26 337 296 405 393 l47 67 60 -45 c257 -194 532 -380 591
-400 98 -34 188 15 581 311 101 76 185 136 186 134 2 -1 16 -25 32 -53 33 -57
306 -335 379 -385 143 -99 336 -6 323 155 -6 70 -32 104 -181 234 -201 176
-257 261 -265 402 -5 88 10 144 58 219 114 178 374 216 599 88 74 -42 182
-147 236 -228 104 -157 180 -388 209 -640 15 -128 35 -181 86 -223 84 -71 211
-50 277 46 26 38 28 46 27 146 -1 279 -127 690 -304 999 -37 65 -72 127 -78
139 -11 20 -6 25 66 69 245 152 398 269 558 428 199 199 401 496 509 746 21
47 41 89 46 94 4 5 77 -13 171 -42 235 -73 241 -75 288 -62 50 13 105 61 132
113 42 83 0 198 -87 242 -22 11 -119 43 -215 70 -96 27 -177 50 -178 51 -2 1
4 60 15 131 25 176 25 620 0 768 -47 272 -141 548 -270 796 l-70 136 24 49
c22 46 24 62 27 239 5 289 -21 706 -59 950 -60 389 -192 894 -284 1088 -34 71
-97 129 -164 152 -79 26 -144 11 -310 -73 -410 -208 -865 -514 -1233 -831
l-118 -101 -84 20 c-566 132 -1104 135 -1678 9 l-137 -30 -125 106 c-498 421
-1307 918 -1491 915 -11 -1 -45 -9 -75 -20z m5090 -460 c0 -5 -5 -10 -11 -10
-5 0 -7 5 -4 10 3 6 8 10 11 10 2 0 4 -4 4 -10z m-4737 -91 c149 -86 327 -198
327 -206 0 -5 -35 15 -140 82 -36 23 -112 69 -170 102 -92 52 -127 68 -176 79
-7 1 -20 -23 -29 -53 -9 -30 -19 -53 -21 -51 -4 4 25 118 33 131 7 12 18 6
176 -84z m4657 47 c0 -2 -7 -7 -16 -10 -8 -3 -12 -2 -9 4 6 10 25 14 25 6z
m-75 -42 c-26 -20 -55 -36 -55 -30 0 5 63 46 70 46 3 -1 -4 -8 -15 -16z m182
-16 c-3 -8 -6 -5 -6 6 -1 11 2 17 5 13 3 -3 4 -12 1 -19z m-286 -47 c-31 -23
-90 -57 -76 -44 13 14 88 63 95 63 3 0 -6 -9 -19 -19z m337 -108 c100 -351
172 -843 172 -1166 l0 -139 -113 108 c-254 244 -579 468 -929 640 -62 30 -111
58 -108 62 8 12 109 84 235 168 251 168 456 277 648 344 37 13 67 29 67 34 0
6 -4 27 -10 45 -5 19 -6 30 -1 25 4 -5 22 -59 39 -121z m-5034 73 c-3 -15 -8
-25 -11 -23 -2 3 -1 17 3 31 3 15 8 25 11 23 2 -3 1 -17 -3 -31z m62 -60 c252
-87 509 -226 760 -412 44 -32 84 -57 89 -55 6 2 28 4 50 5 22 0 49 6 60 13 19
11 19 13 -15 49 l-35 38 45 -36 c25 -19 45 -42 45 -49 0 -8 -83 -55 -191 -110
-396 -198 -726 -424 -973 -666 -52 -51 -97 -93 -99 -93 -6 0 7 313 19 450 26
305 136 890 168 890 4 0 39 -11 77 -24z m544 -93 c0 -7 -39 17 -46 28 -3 6 5
3 20 -6 14 -10 26 -19 26 -22z m60 -40 c0 -7 -39 17 -46 28 -3 6 5 3 20 -6 14
-10 26 -19 26 -22z m55 -41 c-3 -3 -16 5 -28 17 l-22 23 28 -17 c15 -10 25
-20 22 -23z m40 -22 c3 -5 2 -10 -4 -10 -5 0 -13 5 -16 10 -3 6 -2 10 4 10 5
0 13 -4 16 -10z m120 -90 c3 -5 2 -10 -4 -10 -5 0 -13 5 -16 10 -3 6 -2 10 4
10 5 0 13 -4 16 -10z m60 -50 c16 -16 24 -30 19 -30 -6 0 -23 14 -39 30 -16
17 -24 30 -19 30 6 0 23 -13 39 -30z m1930 -265 c629 -80 1253 -341 1739 -728
129 -103 389 -364 441 -442 151 -229 265 -571 300 -902 36 -338 1 -702 -95
-986 -126 -369 -383 -702 -719 -928 -187 -126 -494 -267 -716 -330 -44 -12
-85 -28 -91 -36 -10 -12 -21 -3 -58 46 -92 119 -245 225 -389 269 -112 35
-321 36 -440 4 -105 -29 -210 -82 -280 -142 l-58 -50 -62 49 c-81 64 -204 126
-292 148 -50 12 -109 17 -205 17 -117 -1 -147 -4 -225 -28 -133 -40 -218 -89
-306 -176 -41 -41 -88 -91 -103 -110 -15 -19 -25 -30 -22 -24 3 7 -28 20 -82
34 -127 33 -341 114 -466 177 -570 286 -921 720 -1055 1303 -32 138 -41 224
-48 420 -14 467 95 902 314 1245 61 95 336 366 483 476 332 249 707 440 1106
564 174 54 495 120 654 135 63 5 131 12 150 14 70 8 408 -4 525 -19z m2371
-1439 c9 -15 11 -25 6 -22 -11 6 -62 94 -62 105 0 8 36 -45 56 -83z m39 -66
c9 -16 13 -30 11 -30 -3 0 -12 14 -21 30 -9 17 -13 30 -11 30 3 0 12 -13 21
-30z m-5788 -697 c-3 -10 -5 -4 -5 12 0 17 2 24 5 18 2 -7 2 -21 0 -30z m6030
-85 c-3 -8 -6 -5 -6 6 -1 11 2 17 5 13 3 -3 4 -12 1 -19z m-6040 -20 c-3 -8
-6 -5 -6 6 -1 11 2 17 5 13 3 -3 4 -12 1 -19z m-10 -240 c-2 -24 -4 -7 -4 37
0 44 2 63 4 43 2 -21 2 -57 0 -80z m10 -150 c-2 -18 -4 -6 -4 27 0 33 2 48 4
33 2 -15 2 -42 0 -60z m6040 -25 c-3 -10 -5 -2 -5 17 0 19 2 27 5 18 2 -10 2
-26 0 -35z m-6030 -70 c-3 -10 -5 -2 -5 17 0 19 2 27 5 18 2 -10 2 -26 0 -35z
m6020 -5 c-3 -7 -5 -2 -5 12 0 14 2 19 5 13 2 -7 2 -19 0 -25z m-5903 -421
c14 -37 22 -65 17 -63 -13 9 -88 241 -110 346 -35 158 -23 135 23 -45 24 -93
55 -201 70 -238z m5893 366 c-3 -10 -5 -4 -5 12 0 17 2 24 5 18 2 -7 2 -21 0
-30z m-10 -45 c-3 -8 -6 -5 -6 6 -1 11 2 17 5 13 3 -3 4 -12 1 -19z m-18 -82
c-7 -31 -14 -54 -16 -52 -3 3 1 30 8 60 7 31 14 54 16 52 3 -3 -1 -30 -8 -60z
m-55 -187 c-20 -57 -40 -111 -46 -119 -12 -19 -11 -17 37 123 22 65 41 113 43
109 1 -5 -14 -55 -34 -113z m-107 -254 c-56 -106 -144 -244 -193 -300 -14 -16
-5 -1 20 35 57 80 155 246 192 322 15 32 30 56 32 53 2 -2 -21 -51 -51 -110z
m-5649 70 c-3 -3 -9 2 -12 12 -6 14 -5 15 5 6 7 -7 10 -15 7 -18z m41 -90 c0
-5 -6 1 -14 15 -8 14 -14 30 -14 35 0 6 6 -1 14 -15 8 -14 14 -29 14 -35z
m163 -245 c31 -41 88 -109 126 -150 39 -41 68 -77 66 -79 -10 -11 -224 241
-255 302 -15 29 -4 16 63 -73z m5189 -117 c-229 -268 -509 -465 -922 -648 -56
-25 -115 -45 -132 -45 -37 0 -31 8 9 14 91 13 446 192 624 315 152 105 279
215 383 333 75 84 105 108 38 31z m-4935 -165 l29 -33 -35 30 c-19 17 -37 31
-39 33 -2 1 0 2 5 2 6 0 23 -15 40 -32z m54 -48 c0 -5 -2 -10 -4 -10 -3 0 -8
5 -11 10 -3 6 -1 10 4 10 6 0 11 -4 11 -10z m108 -88 c72 -53 170 -116 183
-117 3 0 13 -8 22 -17 9 -9 43 -29 74 -44 32 -15 69 -36 82 -46 13 -10 27 -16
31 -13 4 3 10 -2 13 -10 3 -7 22 -17 41 -21 20 -3 36 -10 36 -16 0 -5 4 -7 9
-3 5 3 13 0 16 -5 4 -6 18 -16 32 -21 14 -5 23 -12 20 -15 -7 -7 -202 87 -286
138 -34 21 -65 38 -67 38 -12 0 -226 151 -293 207 -2 1 -1 3 3 3 4 0 42 -26
84 -58z m985 -298 c-10 -19 -19 -31 -21 -25 -3 9 26 61 34 61 2 0 -4 -16 -13
-36z m827 -28 c72 -26 144 -82 191 -148 100 -140 147 -174 231 -166 66 7 117
44 171 125 89 136 189 199 332 210 143 11 270 -47 344 -158 l39 -58 -87 -88
c-53 -53 -102 -114 -124 -153 -40 -73 -87 -223 -87 -279 0 -36 -5 -40 -151
-151 -202 -154 -442 -330 -449 -330 -12 0 -109 69 -416 298 l-182 136 -16 83
c-35 176 -91 280 -219 405 l-79 78 25 43 c46 78 135 144 224 167 53 13 199 5
253 -14z m-1200 -21 c14 -8 21 -14 15 -14 -5 0 -21 6 -35 14 -14 8 -20 14 -15
14 6 0 21 -6 35 -14z m2880 -5 c6 -11 8 -20 6 -20 -3 0 -10 9 -16 20 -6 11 -8
20 -6 20 3 0 10 -9 16 -20z m-2535 -12 c-3 -8 -12 -15 -20 -15 -12 0 -11 4 3
17 20 20 25 19 17 -2z m-290 -8 c3 -6 -1 -7 -9 -4 -18 7 -21 14 -7 14 6 0 13
-4 16 -10z m238 -7 c-7 -2 -21 -2 -30 0 -10 3 -4 5 12 5 17 0 24 -2 18 -5z
m-135 -10 c-10 -2 -28 -2 -40 0 -13 2 -5 4 17 4 22 1 32 -1 23 -4z M3358 5750
c-149 -25 -267 -88 -383 -205 -74 -73 -99 -106 -132 -175 -64 -131 -86 -231
-81 -370 7 -187 69 -335 197 -472 168 -179 413 -259 661 -214 158 29 288 102
406 229 81 86 141 197 170 312 23 92 23 275 0 365 -26 101 -89 217 -156 292
-67 74 -195 164 -278 197 -108 43 -286 61 -404 41z m468 -349 c53 -24 109 -91
123 -147 39 -156 -103 -296 -256 -254 -97 28 -177 144 -158 231 32 146 168
226 291 170z M6746 5744 c-89 -17 -233 -89 -314 -155 -108 -89 -177 -195 -227
-349 -24 -72 -28 -103 -29 -205 -1 -221 61 -372 219 -531 113 -114 284 -189
460 -201 157 -11 321 35 460 128 241 161 365 484 295 764 -40 160 -105 272
-215 374 -174 158 -412 223 -649 175z m536 -359 c22 -14 52 -47 69 -72 50 -81
36 -197 -33 -259 -82 -75 -204 -75 -286 0 -85 76 -81 225 7 310 64 61 169 70
243 21z M5148 4881 c-99 -32 -138 -134 -83 -215 36 -53 35 -125 -2 -165 -16
-17 -35 -31 -43 -32 -36 -4 -58 2 -78 21 -19 18 -22 32 -22 91 0 64 -2 72 -33
105 -61 67 -159 52 -201 -31 -33 -63 -27 -168 13 -250 50 -101 145 -174 247
-191 59 -9 147 13 203 50 l48 33 29 -24 c16 -13 54 -33 84 -44 102 -39 217
-10 311 78 70 65 98 125 105 221 5 68 3 82 -18 121 -30 57 -81 86 -137 76 -68
-11 -100 -68 -101 -177 0 -37 -5 -50 -22 -62 -31 -22 -80 -20 -112 5 -23 18
-26 27 -26 85 0 52 5 71 23 95 44 61 18 157 -53 194 -37 19 -98 26 -132 16z"/>
</g>
</svg>
