<?xml version="1.0" encoding="UTF-8"?>
<svg viewBox="0 0 1024 1024" xmlns="http://www.w3.org/2000/svg" fill="#000000">
<g transform="translate(0.000000,1024.000000) scale(0.100000,-0.100000)">
<path d="M2877 7976 c-42 -15 -56 -25 -110 -75 -46 -43 -80 -107 -96 -179 -14
-67 -15 -1411 -1 -1498 5 -32 21 -82 35 -111 15 -29 23 -57 20 -63 -10 -16
-298 -261 -725 -616 -212 -177 -393 -335 -402 -351 -55 -96 -19 -211 84 -264
49 -25 92 -24 150 4 26 12 160 119 299 237 138 118 254 216 258 217 3 2 6 -99
5 -225 -1 -125 -2 -728 -3 -1339 l-1 -1113 -138 0 c-135 0 -139 -1 -184 -29
-59 -38 -93 -103 -85 -167 6 -58 47 -118 96 -144 40 -20 56 -20 3030 -20
l2990 -1 40 20 c114 59 136 192 47 289 -41 46 -66 52 -216 52 l-140 0 0 1347
0 1347 28 -26 c53 -49 444 -383 493 -422 86 -68 178 -59 252 23 49 54 61 103
42 167 -19 65 -66 109 -440 419 -165 137 -338 281 -385 320 -247 207 -330 277
-330 280 0 1 15 33 32 71 l33 69 0 780 0 780 -24 45 c-62 119 -147 180 -261
188 -95 6 -160 -15 -240 -79 -61 -49 -569 -480 -745 -632 -44 -38 -85 -71 -92
-74 -7 -3 -99 69 -204 159 -488 416 -615 518 -684 553 -115 57 -252 64 -356
18 -74 -33 -109 -61 -782 -640 -59 -51 -111 -93 -115 -93 -7 0 -319 257 -671
554 -204 173 -248 204 -309 222 -57 18 -146 17 -195 0z m272 -503 c64 -54 211
-179 326 -278 116 -99 227 -194 248 -211 l37 -30 -152 -130 c-311 -264 -365
-310 -467 -397 -79 -69 -105 -86 -112 -76 -10 16 -13 1219 -3 1219 4 0 59 -44
123 -97z m2064 66 c19 -13 214 -178 433 -365 359 -307 629 -536 1078 -914 82
-69 194 -165 250 -213 55 -49 123 -102 149 -120 38 -24 56 -47 88 -106 91
-174 172 -417 210 -636 24 -142 29 -457 9 -595 -82 -564 -415 -1108 -900
-1469 -472 -353 -1019 -528 -1538 -492 -87 6 -194 17 -238 25 -491 87 -949
329 -1314 695 -347 348 -550 732 -636 1202 -24 132 -24 484 0 624 36 213 93
395 188 600 43 95 56 114 92 136 41 26 456 370 656 545 58 50 176 150 263 222
244 204 696 589 907 772 128 111 148 122 212 118 40 -3 68 -12 91 -29z m1985
-895 l-3 -304 -216 183 c-119 100 -282 238 -362 305 -81 68 -147 127 -146 130
0 4 66 61 146 127 80 66 243 202 362 302 l216 182 3 -310 c1 -171 1 -447 0
-615z m274 -3567 l3 -477 -166 0 -166 0 -7 63 c-11 114 -48 261 -82 336 l-34
74 73 76 c40 42 98 108 129 146 66 83 195 281 223 345 l20 45 2 -65 c2 -36 4
-280 5 -543z m-4593 393 c77 -113 132 -182 231 -290 l97 -105 -34 -73 c-46
-98 -73 -208 -80 -314 l-6 -88 -162 0 -163 0 -6 36 c-8 42 -7 726 1 907 l6
129 36 -69 c20 -37 56 -97 80 -133z m728 -732 c44 -32 114 -76 155 -98 l73
-40 -187 0 c-104 0 -188 3 -188 8 0 18 20 123 30 161 7 28 15 39 23 34 7 -4
49 -33 94 -65z m3160 -90 l6 -48 -189 0 -189 0 50 28 c28 15 102 63 165 105
l115 77 18 -57 c10 -32 21 -79 24 -105z M3755 5266 c-114 -28 -218 -104 -287
-210 -53 -82 -78 -169 -78 -271 0 -147 49 -255 160 -359 111 -102 236 -140
394 -118 118 15 195 54 273 134 154 161 185 371 85 576 -33 69 -128 167 -198
204 -98 53 -239 71 -349 44z m135 -175 c90 -48 125 -154 80 -246 -63 -129
-255 -126 -322 6 -21 41 -23 108 -4 152 38 91 160 135 246 88z M6235 5266
c-110 -27 -208 -97 -276 -198 -53 -77 -79 -154 -86 -253 -11 -154 33 -270 145
-377 99 -96 197 -138 321 -138 270 0 477 191 498 460 18 235 -153 460 -385
509 -67 14 -153 13 -217 -3z m141 -181 c129 -76 118 -273 -19 -324 -76 -29
-180 3 -224 69 -105 160 77 352 243 255z M4935 4952 c-59 -37 -83 -96 -65
-161 13 -50 69 -108 107 -113 26 -3 27 -5 25 -53 -6 -107 -22 -158 -63 -197
-22 -21 -48 -42 -59 -48 -18 -10 -20 -8 -20 30 0 104 -84 161 -166 111 -49
-30 -67 -80 -62 -170 6 -91 30 -144 89 -194 98 -84 239 -65 348 47 l44 45 38
-42 c128 -146 339 -133 421 27 28 54 30 198 4 242 -40 67 -118 84 -166 36 -21
-22 -30 -42 -35 -85 -4 -31 -11 -57 -15 -57 -4 0 -28 18 -52 40 -55 48 -75 94
-84 192 l-6 75 32 7 c44 8 105 73 114 120 8 44 -11 91 -53 131 l-32 30 -157 3
c-139 2 -160 1 -187 -16z M3107 4586 c-131 -48 -160 -219 -52 -302 88 -67 233
-16 264 93 12 42 -3 109 -35 150 -44 58 -114 81 -177 59z M7027 4586 c-69 -25
-127 -101 -127 -165 0 -100 100 -184 199 -166 84 15 160 108 147 179 -20 108
-130 184 -219 152z"/>
</g>
</svg>
