<?xml version="1.0" encoding="UTF-8"?>
<svg viewBox="0 0 1024 1024" xmlns="http://www.w3.org/2000/svg" fill="#000000">
<g transform="translate(0.000000,1024.000000) scale(0.100000,-0.100000)">
<path d="M2063 9096 c-187 -43 -352 -211 -398 -407 -34 -145 -27 -365 25 -764
11 -82 20 -160 20 -173 l0 -22 -367 0 c-203 1 -384 -2 -403 -6 -328 -60 -595
-295 -670 -589 -26 -100 -26 -201 0 -715 19 -384 33 -683 65 -1365 15 -327 21
-439 49 -960 8 -148 20 -367 26 -485 6 -118 19 -379 30 -580 11 -201 31 -603
45 -895 35 -748 43 -858 66 -955 61 -260 269 -497 516 -587 156 -57 -100 -53
3788 -53 3927 0 3643 -4 3804 56 219 82 410 268 495 478 49 123 56 186 101
901 15 242 19 300 55 790 11 149 29 416 40 595 28 445 84 1288 120 1800 62
911 65 965 46 1059 -22 108 -55 171 -125 241 -71 71 -148 115 -247 140 -73 19
-111 20 -704 20 -504 0 -630 3 -638 13 -8 10 -2 50 23 153 82 329 198 957 246
1329 15 116 23 226 23 345 0 164 -1 180 -27 255 -64 192 -216 337 -398 380
-80 19 -224 19 -309 1 -163 -35 -496 -194 -950 -454 -272 -155 -400 -238 -827
-534 l-68 -47 -95 13 c-307 44 -716 46 -1027 6 l-173 -22 -37 30 c-69 53 -276
198 -408 284 -494 322 -1100 636 -1380 715 -75 21 -258 26 -332 9z m316 -507
c123 -53 424 -204 567 -285 243 -138 615 -373 642 -406 16 -21 8 -27 -98 -68
-213 -84 -543 -275 -765 -442 -49 -38 -150 -121 -224 -186 -73 -64 -141 -117
-150 -117 -21 0 -30 29 -85 285 -76 358 -137 751 -155 997 -13 178 1 226 74
259 40 18 81 11 194 -37z m5198 24 c45 -30 56 -76 49 -202 -11 -199 -30 -329
-111 -776 -98 -545 -106 -574 -139 -550 -8 6 -65 55 -127 111 -320 284 -671
505 -1011 639 -54 21 -98 44 -98 50 0 32 528 353 915 557 362 191 448 219 522
171z m-2482 -963 c791 -53 1603 -447 2112 -1025 236 -268 365 -469 482 -748
177 -425 224 -875 135 -1292 -33 -155 -116 -390 -190 -536 -90 -179 -253 -414
-406 -586 -285 -322 -706 -593 -1163 -749 -71 -25 -137 -52 -148 -61 -20 -19
-99 -145 -255 -408 -55 -93 -115 -184 -134 -202 -68 -66 -149 -79 -233 -39
-95 45 -152 128 -176 258 -19 107 -39 150 -90 200 -113 110 -281 85 -364 -55
-14 -25 -29 -73 -35 -117 -15 -97 -47 -167 -105 -229 -91 -97 -214 -107 -305
-25 -37 33 -141 194 -291 448 -93 157 -115 178 -227 216 -113 38 -347 142
-463 206 -126 69 -321 199 -434 288 -120 95 -337 310 -425 421 -201 253 -344
530 -435 842 -101 343 -99 761 6 1136 121 432 372 849 701 1163 233 223 589
467 867 596 517 239 1020 335 1576 298z m-3261 -562 c15 -73 46 -204 68 -292
34 -131 38 -160 27 -167 -8 -5 -53 -9 -101 -9 -352 0 -704 -240 -828 -563 -35
-90 -58 -215 -126 -702 -26 -187 -50 -344 -54 -348 -7 -8 -12 203 -30 1195
-12 631 -10 653 51 768 39 74 132 163 203 196 100 46 159 52 472 53 l291 1 27
-132z m1348 -4642 c100 -63 197 -104 294 -122 33 -6 43 -17 108 -118 40 -61
110 -173 157 -249 128 -211 230 -304 401 -365 64 -23 89 -26 203 -27 107 0
142 4 200 22 94 30 185 85 263 160 l65 61 26 -31 c110 -133 265 -207 452 -215
133 -6 239 19 348 81 137 78 196 150 425 522 l90 145 55 15 c107 31 215 76
275 116 71 48 60 55 141 -96 144 -270 322 -772 398 -1125 32 -146 38 -188 28
-195 -11 -6 -4482 -7 -4489 -1 -9 9 18 156 58 312 46 182 132 448 207 639 47
122 229 505 239 505 2 0 27 -15 56 -34z M3198 5461 c-148 -48 -271 -174 -311
-321 -47 -170 -20 -311 85 -447 160 -208 474 -241 688 -72 59 47 125 141 153
218 28 80 34 202 12 291 -38 154 -176 295 -327 336 -75 20 -230 17 -300 -5z
m453 -187 c16 -15 35 -45 41 -66 21 -72 -42 -158 -117 -158 -65 0 -125 67
-125 139 0 37 6 49 40 83 38 38 43 40 86 35 32 -3 54 -13 75 -33z M6249 5465
c-162 -44 -301 -189 -339 -354 -8 -33 -11 -90 -8 -147 4 -80 10 -103 41 -168
38 -80 115 -172 177 -211 79 -50 149 -68 255 -68 158 1 269 46 367 151 90 97
128 196 128 337 0 134 -37 232 -124 323 -107 114 -197 153 -353 151 -54 0
-119 -7 -144 -14z m401 -170 c103 -53 91 -203 -19 -236 -33 -10 -45 -9 -77 7
-47 23 -84 76 -84 119 0 38 36 95 70 112 33 17 75 16 110 -2z M4783 4861 c-83
-10 -133 -44 -167 -112 -43 -86 -30 -173 36 -242 l38 -40 0 -195 c0 -219 -7
-249 -65 -276 -44 -21 -83 -20 -122 4 -48 29 -57 54 -63 176 -5 100 -8 115
-33 153 -73 111 -211 127 -302 36 -59 -59 -72 -116 -56 -251 21 -174 76 -292
186 -392 56 -52 138 -96 206 -111 129 -30 297 4 391 79 l37 30 28 -24 c69 -58
184 -96 288 -96 135 0 260 55 355 156 101 109 150 246 154 430 1 84 -1 94 -29
140 -41 67 -119 108 -185 99 -59 -9 -92 -27 -128 -70 -39 -48 -52 -96 -52
-189 0 -44 -6 -91 -14 -111 -28 -66 -115 -94 -177 -58 -53 31 -59 61 -59 273
l0 192 38 43 c39 45 62 100 62 151 0 67 -72 170 -135 194 -34 13 -165 19 -232
11z"/>
</g>
</svg>
