<?xml version="1.0" encoding="UTF-8"?>
<svg viewBox="0 0 1024 1024" xmlns="http://www.w3.org/2000/svg" fill="currentColor">
<g transform="translate(0.000000,1024.000000) scale(0.100000,-0.100000)">
<path d="M2075 8546 c-54 -23 -95 -67 -169 -180 -217 -329 -492 -935 -643
-1421 -44 -139 -118 -413 -137 -508 -9 -39 -25 -117 -36 -172 -39 -183 -51
-313 -55 -575 -5 -357 15 -530 85 -741 153 -461 429 -773 890 -1006 74 -38
185 -88 245 -111 101 -39 197 -81 150 -66 -119 38 -183 43 -266 18 -145 -43
-261 -139 -324 -267 -58 -120 -170 -517 -237 -842 -40 -194 -41 -206 -42 -400
0 -194 0 -203 27 -280 51 -145 133 -270 227 -344 l49 -39 -91 -4 c-87 -4 -92
-6 -119 -36 -47 -52 -34 -114 31 -147 43 -22 7476 -23 7519 -1 69 36 66 137
-4 171 -27 12 -75 15 -249 15 l-217 0 17 31 c24 47 12 81 -76 218 -44 69 -80
130 -80 136 0 6 26 36 59 67 321 306 526 754 549 1198 8 163 -1 347 -23 466
-22 121 -95 335 -154 461 -87 181 -250 408 -368 512 l-56 49 21 49 c25 58 62
189 62 218 0 75 -64 167 -128 185 -89 24 -142 3 -256 -102 l-78 -71 -71 32
c-200 91 -381 146 -578 178 -134 21 -442 22 -552 1 l-78 -15 6 37 c20 120 26
489 10 670 -39 443 -219 1092 -452 1630 -174 398 -380 773 -505 914 -74 85
-155 106 -242 65 -100 -46 -440 -363 -671 -624 -48 -55 -93 -99 -99 -98 -6 1
-103 17 -216 36 -315 53 -434 62 -830 61 -267 0 -419 -10 -630 -39 -14 -1 -63
-8 -110 -15 -47 -6 -115 -18 -152 -26 -37 -7 -73 -11 -80 -8 -7 3 -56 60 -108
126 -183 232 -515 548 -625 593 -42 18 -100 19 -140 1z m3742 -328 c115 -125
372 -634 512 -1011 155 -419 301 -956 326 -1202 10 -106 13 -487 4 -595 -16
-194 -69 -377 -166 -567 -177 -352 -523 -616 -1018 -778 -276 -91 -766 -187
-1105 -217 -212 -19 -736 -16 -928 6 -512 57 -934 160 -1226 300 -466 222
-699 471 -836 891 -59 182 -74 305 -74 595 0 254 11 372 55 594 71 358 232
869 389 1236 163 382 363 749 414 758 31 6 157 -134 249 -274 81 -125 167
-267 167 -277 0 -3 -15 -9 -32 -13 -57 -12 -300 -110 -406 -163 -117 -59 -334
-191 -375 -230 -32 -29 -57 -72 -57 -96 0 -56 63 -115 107 -101 10 3 70 40
133 81 147 97 420 232 575 285 296 101 643 170 1070 211 154 14 575 14 730 0
718 -69 1286 -243 1725 -531 88 -57 102 -61 138 -40 70 43 80 115 25 172 -75
79 -508 301 -715 367 -20 7 -53 20 -73 30 l-35 17 68 114 c89 150 177 283 198
301 16 13 16 11 -1 -21 -35 -68 -35 -68 -17 -65 9 2 20 4 23 4 10 1 63 84 66
104 2 10 -1 16 -5 13 -4 -2 -14 -1 -22 4 -11 7 -4 20 31 64 24 30 49 55 55 56
6 0 20 -10 31 -22z m1652 -3243 c490 -70 920 -329 1179 -711 138 -203 243
-496 257 -713 11 -181 12 -216 3 -316 -20 -248 -102 -488 -239 -702 -193 -301
-461 -519 -794 -646 -165 -63 -399 -107 -567 -107 -750 0 -1408 510 -1587
1230 -60 245 -64 525 -9 750 22 93 33 120 49 120 21 0 253 111 327 156 159 98
346 255 412 346 l27 37 28 -29 c48 -50 105 -48 147 4 27 33 22 70 -18 122 -29
38 -34 51 -26 63 31 43 105 186 137 262 l36 87 62 15 c183 45 399 57 576 32z
m-2039 -1232 c0 -10 -7 -65 -15 -123 -8 -58 -15 -145 -15 -195 l-1 -90 -29 80
c-16 44 -48 128 -71 188 -23 59 -40 109 -38 111 5 5 141 44 157 45 6 1 12 -7
12 -16z m-2598 -78 c105 -24 363 -63 543 -82 242 -26 913 -25 1130 0 145 18
421 61 458 73 14 4 24 -10 53 -73 52 -114 94 -224 169 -443 201 -593 221 -833
89 -1107 -54 -113 -156 -224 -249 -271 -55 -27 -76 -34 -143 -47 -13 -2 -31
-6 -40 -9 -17 -5 -128 -9 -190 -7 l-33 1 25 43 c37 64 79 173 141 372 31 99
53 164 50 145 -17 -96 -17 -106 1 -120 16 -14 17 -12 11 43 -3 31 -2 57 2 57
4 0 8 6 8 13 5 93 26 272 42 346 20 94 18 116 -11 152 -47 58 -139 50 -172
-15 -9 -17 -30 -87 -47 -156 -68 -281 -172 -616 -222 -714 -41 -83 -66 -114
-112 -141 -52 -30 -93 -38 -152 -29 -39 5 -57 15 -94 53 -29 29 -51 61 -58 86
-7 26 -11 164 -11 386 0 227 -4 357 -11 378 -22 64 -110 78 -159 26 -18 -19
-25 -42 -30 -92 -7 -67 -7 -67 -9 -16 -1 70 -14 99 -53 123 -45 27 -72 25
-110 -9 l-33 -29 -2 -229 c-6 -588 -4 -566 -77 -631 -97 -85 -235 -57 -318 63
-55 81 -131 312 -238 731 -29 110 -60 210 -69 223 -41 54 -136 40 -174 -26
-19 -32 -18 -34 8 -170 55 -289 151 -621 225 -780 l39 -83 -35 -1 c-19 -1 -40
-2 -46 -2 -32 -2 -159 13 -171 20 -6 4 -23 9 -37 11 -59 7 -152 65 -227 140
-85 87 -151 207 -178 326 -30 129 -12 378 40 561 79 277 215 636 321 848 44
87 45 88 156 62z m-512 -105 c22 -11 40 -23 40 -26 0 -3 -20 -51 -44 -107 -68
-157 -195 -532 -218 -642 -5 -27 -14 -68 -19 -90 -15 -66 -17 -76 -30 -190
-25 -222 2 -402 86 -570 54 -109 114 -187 197 -256 l62 -51 -75 7 c-90 8 -219
51 -295 96 -78 47 -182 160 -221 240 -18 36 -40 96 -48 133 -16 70 -21 235 -9
336 14 126 86 448 140 630 14 47 30 103 36 125 6 22 30 87 51 145 34 88 49
113 91 156 80 80 178 104 256 64z m3364 -1165 c63 -101 297 -385 318 -385 17
0 6 -24 -56 -118 -105 -160 -119 -197 -96 -256 l10 -26 -300 0 c-193 0 -300 4
-300 10 0 6 5 10 11 10 22 0 152 137 194 205 108 174 150 330 150 562 l0 111
19 -31 c11 -18 33 -54 50 -82z m-827 -47 c-3 -8 -6 -5 -6 6 -1 11 2 17 5 13 3
-3 4 -12 1 -19z m-10 -40 c-3 -8 -6 -5 -6 6 -1 11 2 17 5 13 3 -3 4 -12 1 -19z
m1579 -584 c24 -14 93 -46 152 -70 l107 -44 -217 0 c-120 0 -218 3 -218 6 0 9
114 134 123 134 5 0 28 -12 53 -26z m1852 -49 l53 -65 -218 0 -218 1 125 47
c69 27 139 56 155 65 17 9 35 16 41 17 6 0 34 -29 62 -65z m-4425 -2 l36 -53
-69 0 -68 0 31 54 c18 29 33 53 34 52 0 0 17 -25 36 -53z M2194 8158 l-19 -23
23 19 c12 11 22 21 22 23 0 8 -8 2 -26 -19z M2102 8118 c-7 -7 -12 -8 -12 -2
0 15 -27 -41 -32 -67 -4 -21 0 -25 18 -25 12 0 20 5 18 11 -3 6 6 20 18 31 23
19 23 19 8 -1 -14 -19 -14 -19 3 -6 13 10 15 17 6 27 -6 7 -8 18 -5 23 9 15
-9 22 -22 9z M5532 7858 c-7 -7 -12 -18 -12 -25 0 -7 -9 -18 -20 -25 -11 -7
-20 -23 -20 -36 0 -13 -4 -21 -9 -18 -5 3 -8 -2 -7 -12 0 -9 -4 -16 -11 -15
-7 2 -10 -4 -7 -12 4 -8 12 -15 18 -15 14 0 96 133 96 155 0 18 -12 19 -28 3z
M5961 7814 c0 -11 3 -14 6 -6 3 7 2 16 -1 19 -3 4 -6 -2 -5 -13z M2431 6130
c-146 -31 -251 -89 -343 -189 -166 -179 -207 -465 -98 -680 115 -228 317 -355
565 -354 165 1 298 57 421 178 66 65 89 96 122 165 59 122 78 229 63 343 -33
249 -183 437 -407 513 -88 29 -243 41 -323 24z m-41 -182 c44 -48 14 -126 -80
-205 -51 -44 -77 -55 -111 -48 -66 15 -80 97 -26 166 76 101 169 138 217 87z
M5195 6124 c-38 -9 -106 -33 -151 -54 -147 -71 -275 -234 -315 -400 -19 -80
-17 -233 5 -305 32 -106 84 -194 166 -276 109 -109 213 -160 360 -177 132 -16
249 6 364 66 261 136 392 457 300 732 -102 306 -411 481 -729 414z m-19 -180
c37 -56 7 -126 -90 -208 -37 -32 -53 -39 -87 -39 -82 0 -104 74 -46 159 68
100 185 147 223 88z M3859 5437 c-56 -21 -98 -55 -119 -97 -39 -75 -19 -153
53 -215 l39 -34 -7 -58 c-12 -98 -62 -153 -137 -153 -50 1 -78 22 -107 81 -21
43 -33 56 -58 63 -102 28 -160 -92 -94 -196 91 -144 286 -183 427 -87 23 15
49 40 58 54 l18 27 41 -42 c56 -59 130 -91 210 -91 103 0 150 16 218 78 87 78
103 178 40 235 -52 46 -108 31 -140 -37 -27 -57 -64 -85 -113 -85 -78 0 -133
61 -145 160 -6 50 -5 51 36 86 49 42 71 81 71 124 0 39 -24 98 -53 128 -53 57
-167 85 -238 59z M7238 4820 l-30 -31 4 -104 c3 -93 6 -107 27 -129 33 -35 83
-35 116 -1 24 23 25 30 25 139 0 112 -1 115 -26 135 -39 30 -80 27 -116 -9z
M7948 4538 c-79 -84 -86 -112 -39 -159 52 -51 76 -42 170 64 60 68 65 99 23
140 -48 46 -77 38 -154 -45z M7085 4390 c-173 -37 -313 -102 -442 -204 -90
-72 -198 -192 -247 -276 -169 -288 -181 -673 -31 -970 113 -223 309 -409 524
-496 142 -58 203 -68 396 -68 151 0 192 4 255 21 203 56 346 132 473 253 224
212 330 455 329 755 -1 397 -209 724 -578 909 -133 67 -227 87 -419 92 -142 3
-185 1 -260 -16z m397 -180 c245 -54 440 -193 562 -399 26 -45 50 -90 51 -99
2 -11 -27 -45 -78 -92 -45 -41 -299 -285 -564 -542 l-483 -469 -62 32 c-344
171 -523 567 -433 956 53 228 216 428 440 540 174 87 383 114 567 73z M7235
4097 l-33 -33 -4 -265 c-3 -261 -4 -265 -27 -288 -28 -28 -51 -81 -51 -118 0
-21 -28 -55 -135 -163 -131 -133 -135 -138 -135 -179 0 -36 6 -49 34 -77 27
-27 42 -34 74 -34 36 0 49 8 134 84 51 46 113 104 138 130 33 35 52 46 75 46
43 1 107 32 138 69 48 58 49 152 2 223 l-27 41 1 241 c0 269 -4 297 -58 333
-49 33 -86 30 -126 -10z M5840 3457 c-13 -7 -31 -24 -39 -39 -14 -24 -14 -30
2 -63 9 -19 28 -40 43 -45 40 -16 191 -12 223 5 55 28 60 104 9 139 -28 20
-200 22 -238 3z M8525 3458 c-51 -27 -59 -80 -21 -125 23 -27 28 -28 123 -29
54 0 111 4 126 9 62 20 72 96 20 137 -22 17 -40 20 -127 20 -55 0 -110 -6
-121 -12z M6532 2346 c-63 -61 -75 -79 -75 -105 0 -40 35 -78 81 -87 31 -6 37
-2 88 49 60 63 94 113 94 140 0 10 -13 32 -29 48 -47 47 -72 40 -159 -45z
M7901 2394 c-34 -43 -27 -72 35 -149 57 -73 85 -94 120 -95 31 0 71 36 79 70
8 37 -10 68 -84 145 -46 48 -58 55 -91 55 -30 0 -43 -6 -59 -26z M7243 2236
c-28 -24 -28 -25 -28 -145 0 -107 2 -123 20 -140 34 -35 77 -37 113 -6 l32 27
0 113 c0 62 -3 121 -6 130 -8 19 -55 45 -83 45 -11 0 -33 -11 -48 -24z M2782
2281 c1 -16 5 -28 9 -26 6 5 0 55 -7 55 -3 0 -3 -13 -2 -29z M2793 2135 c0
-27 2 -38 4 -22 2 15 2 37 0 50 -2 12 -4 0 -4 -28z M4823 1920 c0 -36 2 -50 4
-32 2 17 2 47 0 65 -2 17 -4 3 -4 -33z M2803 1865 c0 -22 2 -30 4 -17 2 12 2
30 0 40 -3 9 -5 -1 -4 -23z M4831 1839 c-1 -18 20 -82 25 -77 2 2 -3 24 -11
48 -7 25 -14 38 -14 29z M2219 3473 c-32 -39 -44 -57 -32 -50 13 8 57 67 50
67 -2 0 -10 -8 -18 -17z M985 1602 c-11 -2 -32 -16 -47 -30 -22 -20 -28 -35
-28 -68 0 -35 5 -47 31 -68 43 -36 96 -36 131 2 40 41 41 85 3 130 -25 30 -54
41 -90 34z M9397 1584 c-56 -30 -64 -108 -15 -149 40 -34 81 -28 121 15 41 46
32 101 -23 133 -34 21 -47 21 -83 1z"/>
</g>
</svg>
